<?xml version="1.0" encoding="utf-8"?>
<!-- Generator: Adobe Illustrator 27.6.1, SVG Export Plug-In . SVG Version: 6.00 Build 0)  -->
<svg version="1.1" id="Слой_1" xmlns="http://www.w3.org/2000/svg" xmlns:xlink="http://www.w3.org/1999/xlink" x="0px" y="0px"
	 viewBox="0 0 167.1 233.5" style="enable-background:new 0 0 167.1 233.5;" xml:space="preserve">
<style type="text/css">
	.st0{fill:#FFFFFF;}
	.st1{fill:#32A8E0;}
	.st2{fill:#0C0D0D;}
	.st3{fill:#020203;}
</style>
<g>
	<path class="st0" d="M160.7,233.2H6.2c-3.3,0-5.9-2.7-5.9-5.9V6.3C0.3,3,3,0.4,6.2,0.4h154.4c3.3,0,5.9,2.7,5.9,5.9v221
		C166.6,230.6,163.9,233.2,160.7,233.2z"/>
	<g>
		<g>
			<g>
				<path class="st1" d="M160.7,233.3H6.2c-3.3,0-6.1-2.7-6.1-6.1V6.3c0.1-3.4,2.8-6.1,6.1-6.1h154.4c3.3,0,6.1,2.7,6.1,6.1v221
					C166.7,230.6,164,233.3,160.7,233.3z M6.2,0.4C3,0.4,0.4,3,0.4,6.2v221c0,3.2,2.6,5.8,5.8,5.8h154.4c3.2,0,5.8-2.6,5.8-5.8V6.3
					c0-3.2-2.6-5.8-5.8-5.8L6.2,0.4L6.2,0.4z"/>
			</g>
		</g>
		<g>
			<g>
				<g>
					<g>
						<path class="st2" d="M23.2,33.6c-1-1.1-2.6-0.5-2.6-0.5c0.4-0.5,0.7-0.9,0.7-1.6v-0.1c0-1.2-1-2.2-2.2-2.2s-2.2,1-2.2,2.2
							c0,0.2,0,0.3,0,0.5c0.1,0.5,0.3,0.9,0.7,1.3c0,0-1.6-0.7-2.6,0.5c-1,1.1-0.5,2.5-0.2,2.9s0.8,1.2,2,1.1c1-0.1,1.2-0.2,1.9-0.8
							c-0.1,1.5-1,2.6-1,2.6h0.1h1.5h1.5h0.1c-0.6-0.6-1.1-1.9-1-2.6c0.7,0.5,0.8,0.7,1.8,0.8c1.1,0.1,1.6-0.7,2-1.1
							C23.7,36.1,24.2,34.8,23.2,33.6z"/>
					</g>
				</g>
				<g>
					<g>
						<g>
							<path class="st3" d="M14.8,24.8h1.9c0.2,0,0.3,0,0.4-0.1s0.1-0.2,0.1-0.4v-9.5h-2.4v-0.7h1.1c0.7,0,1.3-0.2,1.7-0.6
								c0.4-0.4,0.7-0.8,0.8-1.4H19v12.1c0,0.2,0,0.3,0.1,0.4s0.2,0.1,0.4,0.1h1.9v0.6h-6.6V24.8z"/>
						</g>
					</g>
					<g>
						<g>
							<path class="st3" d="M26.9,24.7c-0.7-0.7-1.3-1.5-1.7-2.6s-0.6-2.2-0.6-3.4c0-1.2,0.2-2.3,0.6-3.4s0.9-1.9,1.7-2.6
								c0.7-0.7,1.5-1,2.4-1s1.7,0.3,2.4,1s1.3,1.5,1.7,2.6s0.6,2.2,0.6,3.4c0,1.2-0.2,2.3-0.6,3.4c-0.4,1.1-1,1.9-1.7,2.6
								c-0.7,0.7-1.5,1-2.4,1S27.6,25.4,26.9,24.7z M31.4,23.2c0.3-1.2,0.5-2.7,0.5-4.5s-0.2-3.3-0.5-4.5s-1.1-1.8-2.1-1.8
								c-1.1,0-1.8,0.6-2.1,1.8c-0.3,1.2-0.5,2.7-0.5,4.5s0.2,3.3,0.5,4.5s1.1,1.8,2.1,1.8C30.4,25.1,31.1,24.5,31.4,23.2z"/>
						</g>
					</g>
				</g>
			</g>
			<g>
				<g>
					<g>
						<path class="st2" d="M145.2,199.4c1,1.1,2.6,0.5,2.6,0.5c-0.4,0.5-0.7,0.9-0.7,1.6v0.1c0,1.2,1,2.2,2.2,2.2s2.2-1,2.2-2.2
							c0-0.2,0-0.3,0-0.5c-0.1-0.5-0.3-0.9-0.7-1.3c0,0,1.6,0.7,2.6-0.5c1-1.1,0.5-2.5,0.2-2.9s-0.8-1.2-2-1.1
							c-1,0.1-1.2,0.2-1.9,0.8c0.1-1.5,1-2.6,1-2.6h-0.1h-1.5h-1.5h-0.1c0.6,0.6,1.1,1.9,1,2.6c-0.7-0.5-0.8-0.7-1.8-0.8
							c-1.1-0.1-1.6,0.7-2,1.1C144.7,196.9,144.1,198.2,145.2,199.4z"/>
					</g>
				</g>
				<g>
					<g>
						<g>
							<path class="st3" d="M153.6,208.3h-1.9c-0.2,0-0.3,0-0.4,0.1c-0.1,0.1-0.1,0.2-0.1,0.4v9.5h2.4v0.7h-1.1
								c-0.7,0-1.3,0.2-1.7,0.6c-0.4,0.4-0.7,0.8-0.8,1.4h-0.6v-12.1c0-0.2,0-0.3-0.1-0.4c-0.1-0.1-0.2-0.1-0.4-0.1H147v-0.6h6.6
								V208.3z"/>
						</g>
					</g>
					<g>
						<g>
							<path class="st3" d="M141.5,208.3c0.7,0.7,1.3,1.5,1.7,2.6s0.6,2.2,0.6,3.4s-0.2,2.3-0.6,3.4c-0.4,1.1-0.9,1.9-1.7,2.6
								c-0.7,0.7-1.5,1-2.4,1s-1.7-0.3-2.4-1s-1.3-1.5-1.7-2.6s-0.6-2.2-0.6-3.4s0.2-2.3,0.6-3.4c0.4-1.1,1-1.9,1.7-2.6
								c0.7-0.7,1.5-1,2.4-1C139.9,207.3,140.8,207.6,141.5,208.3z M136.9,209.8c-0.3,1.2-0.5,2.7-0.5,4.5s0.2,3.3,0.5,4.5
								s1.1,1.8,2.1,1.8c1.1,0,1.8-0.6,2.1-1.8s0.5-2.7,0.5-4.5s-0.2-3.3-0.5-4.5S140,208,139,208
								C137.9,207.9,137.2,208.5,136.9,209.8z"/>
						</g>
					</g>
				</g>
			</g>
			<g>
				<path class="st2" d="M97.8,67.5c-3.6-3.9-9.1-1.6-9.1-1.6c1.5-1.6,2.6-2.9,2.4-5.6c0-0.1,0-0.2,0-0.3c0-4.3-3.5-7.7-7.7-7.7
					c-4.3,0-7.7,3.5-7.7,7.7c0,0.5,0.1,1.1,0.2,1.6c0.2,1.9,1.1,3,2.4,4.3c0,0-5.5-2.3-9.1,1.6s-1.8,8.5-0.7,10.1
					c1.1,1.5,2.8,4.1,6.8,3.8c3.5-0.3,4-0.9,6.5-2.8c-0.3,5.3-3.5,8.9-3.5,8.9h0.2h5.1h5.1h0.2c-1.9-2-3.7-6.7-3.4-8.9
					c2.4,1.9,2.9,2.5,6.4,2.7c4,0.3,5.7-2.3,6.8-3.8C99.6,76.1,101.4,71.4,97.8,67.5z"/>
			</g>
			<g>
				<path class="st2" d="M59.7,40.9c-3.6-3.9-9.1-1.6-9.1-1.6c1.5-1.6,2.6-2.9,2.4-5.6c0-0.1,0-0.2,0-0.3c0-4.3-3.5-7.7-7.7-7.7
					c-4.3,0-7.7,3.5-7.7,7.7c0,0.5,0.1,1.1,0.2,1.6c0.2,1.9,1.1,3,2.4,4.3c0,0-5.5-2.3-9.1,1.6s-1.8,8.5-0.7,10.1
					c1.1,1.5,2.8,4.1,6.8,3.8c3.5-0.3,4-0.9,6.5-2.8c-0.3,5.3-3.5,8.9-3.5,8.9h0.2h5.1h5.1h0.2c-1.9-2-3.7-6.7-3.4-8.9
					c2.4,1.9,2.9,2.5,6.4,2.7c4,0.3,5.7-2.3,6.8-3.8C61.5,49.4,63.3,44.8,59.7,40.9z"/>
			</g>
			<g>
				<path class="st2" d="M59.7,91c-3.6-3.9-9.1-1.6-9.1-1.6c1.5-1.6,2.6-2.9,2.4-5.6c0-0.1,0-0.2,0-0.3c0-4.3-3.5-7.7-7.7-7.7
					c-4.3,0-7.7,3.5-7.7,7.7c0,0.5,0.1,1.1,0.2,1.6c0.2,1.9,1.1,3,2.4,4.3c0,0-5.5-2.3-9.1,1.6s-1.8,8.5-0.7,10.1s2.8,4.1,6.8,3.8
					c3.5-0.3,4-0.9,6.5-2.8c-0.3,5.3-3.5,8.9-3.5,8.9h0.2h5.1h5.1h0.2c-1.9-2-3.7-6.7-3.4-8.9c2.4,1.9,2.9,2.5,6.4,2.7
					c4,0.3,5.7-2.3,6.8-3.8C61.5,99.6,63.3,95,59.7,91z"/>
			</g>
			<g>
				<path class="st2" d="M59.7,196.1c-3.6,3.9-9.1,1.6-9.1,1.6c1.5,1.6,2.6,2.9,2.4,5.6c0,0.1,0,0.2,0,0.3c0,4.3-3.5,7.7-7.7,7.7
					c-4.3,0-7.7-3.5-7.7-7.7c0-0.5,0.1-1.1,0.2-1.6c0.2-1.9,1.1-3,2.4-4.3c0,0-5.5,2.3-9.1-1.6s-1.8-8.5-0.7-10.1
					c1.1-1.5,2.8-4.1,6.8-3.8c3.5,0.3,4,0.9,6.5,2.8c-0.3-5.3-3.5-8.9-3.5-8.9h0.2h5.1h5.1h0.2c-1.9,2-3.7,6.7-3.4,8.9
					c2.4-1.9,2.9-2.5,6.4-2.7c4-0.3,5.7,2.3,6.8,3.8C61.5,187.6,63.3,192.2,59.7,196.1z"/>
			</g>
			<g>
				<path class="st2" d="M137.9,40.9c-3.6-3.9-9.1-1.6-9.1-1.6c1.5-1.6,2.6-2.9,2.4-5.6c0-0.1,0-0.2,0-0.3c0-4.3-3.5-7.7-7.7-7.7
					c-4.3,0-7.7,3.5-7.7,7.7c0,0.5,0.1,1.1,0.2,1.6c0.2,1.9,1.1,3,2.4,4.3c0,0-5.5-2.3-9.1,1.6s-1.8,8.5-0.7,10.1
					c1.1,1.5,2.8,4.1,6.8,3.8c3.5-0.3,4-0.9,6.5-2.8c-0.3,5.3-3.5,8.9-3.5,8.9h0.2h5.1h5.1h0.2c-1.9-2-3.7-6.7-3.4-8.9
					c2.4,1.9,2.9,2.5,6.4,2.7c4,0.3,5.7-2.3,6.8-3.8C139.7,49.4,141.5,44.8,137.9,40.9z"/>
			</g>
			<g>
				<path class="st2" d="M137.9,91c-3.6-3.9-9.1-1.6-9.1-1.6c1.5-1.6,2.6-2.9,2.4-5.6c0-0.1,0-0.2,0-0.3c0-4.3-3.5-7.7-7.7-7.7
					c-4.3,0-7.7,3.5-7.7,7.7c0,0.5,0.1,1.1,0.2,1.6c0.2,1.9,1.1,3,2.4,4.3c0,0-5.5-2.3-9.1,1.6s-1.8,8.5-0.7,10.1
					c1.1,1.5,2.8,4.1,6.8,3.8c3.5-0.3,4-0.9,6.5-2.8c-0.3,5.3-3.5,8.9-3.5,8.9h0.2h5.1h5.1h0.2c-1.9-2-3.7-6.7-3.4-8.9
					c2.4,1.9,2.9,2.5,6.4,2.7c4,0.3,5.7-2.3,6.8-3.8C139.7,99.6,141.5,95,137.9,91z"/>
			</g>
			<g>
				<path class="st2" d="M137.9,196.1c-3.6,3.9-9.1,1.6-9.1,1.6c1.5,1.6,2.6,2.9,2.4,5.6c0,0.1,0,0.2,0,0.3c0,4.3-3.5,7.7-7.7,7.7
					c-4.3,0-7.7-3.5-7.7-7.7c0-0.5,0.1-1.1,0.2-1.6c0.2-1.9,1.1-3,2.4-4.3c0,0-5.5,2.3-9.1-1.6c-3.6-3.9-1.8-8.5-0.7-10.1
					c1.1-1.5,2.8-4.1,6.8-3.8c3.5,0.3,4,0.9,6.5,2.8c-0.3-5.3-3.5-8.9-3.5-8.9h0.2h5.1h5.1h0.2c-1.9,2-3.7,6.7-3.4,8.9
					c2.4-1.9,2.9-2.5,6.4-2.7c4-0.3,5.7,2.3,6.8,3.8C139.7,187.6,141.5,192.2,137.9,196.1z"/>
			</g>
			<g>
				<path class="st2" d="M59.7,146c-3.6,3.9-9.1,1.6-9.1,1.6c1.5,1.6,2.6,2.9,2.4,5.6c0,0.1,0,0.2,0,0.3c0,4.3-3.5,7.7-7.7,7.7
					c-4.3,0-7.7-3.5-7.7-7.7c0-0.5,0.1-1.1,0.2-1.6c0.2-1.9,1.1-3,2.4-4.3c0,0-5.5,2.3-9.1-1.6s-1.8-8.5-0.7-10.1
					c1.1-1.5,2.8-4.1,6.8-3.8c3.5,0.3,4,0.9,6.5,2.8c-0.3-5.3-3.5-8.9-3.5-8.9h0.2h5.1h5.1h0.2c-1.9,2-3.7,6.7-3.4,8.9
					c2.4-1.9,2.9-2.5,6.4-2.7c4-0.3,5.7,2.3,6.8,3.8C61.5,137.4,63.3,142.1,59.7,146z"/>
			</g>
			<g>
				<path class="st2" d="M137.9,146c-3.6,3.9-9.1,1.6-9.1,1.6c1.5,1.6,2.6,2.9,2.4,5.6c0,0.1,0,0.2,0,0.3c0,4.3-3.5,7.7-7.7,7.7
					c-4.3,0-7.7-3.5-7.7-7.7c0-0.5,0.1-1.1,0.2-1.6c0.2-1.9,1.1-3,2.4-4.3c0,0-5.5,2.3-9.1-1.6c-3.6-3.9-1.8-8.5-0.7-10.1
					c1.1-1.5,2.8-4.1,6.8-3.8c3.5,0.3,4,0.9,6.5,2.8c-0.3-5.3-3.5-8.9-3.5-8.9h0.2h5.1h5.1h0.2c-1.9,2-3.7,6.7-3.4,8.9
					c2.4-1.9,2.9-2.5,6.4-2.7c4-0.3,5.7,2.3,6.8,3.8C139.7,137.4,141.5,142.1,137.9,146z"/>
			</g>
			<g>
				<path class="st2" d="M97.8,166.5c-3.6,3.9-9.1,1.6-9.1,1.6c1.5,1.6,2.6,2.9,2.4,5.6c0,0.1,0,0.2,0,0.3c0,4.3-3.5,7.7-7.7,7.7
					c-4.3,0-7.7-3.5-7.7-7.7c0-0.5,0.1-1.1,0.2-1.6c0.2-1.9,1.1-3,2.4-4.3c0,0-5.5,2.3-9.1-1.6c-3.6-3.9-1.8-8.5-0.7-10.1
					c1.1-1.5,2.8-4.1,6.8-3.8c3.5,0.3,4,0.9,6.5,2.8c-0.3-5.3-3.5-8.9-3.5-8.9h0.2h5.1h5.1h0.2c-1.9,2-3.7,6.7-3.4,8.9
					c2.4-1.9,2.9-2.5,6.4-2.7c4-0.3,5.7,2.3,6.8,3.8C99.6,158,101.4,162.6,97.8,166.5z"/>
			</g>
		</g>
	</g>
</g>
</svg>
