<?xml version="1.0" encoding="utf-8"?>
<!-- Generator: Adobe Illustrator 27.6.1, SVG Export Plug-In . SVG Version: 6.00 Build 0)  -->
<svg version="1.1" id="Слой_1" xmlns="http://www.w3.org/2000/svg" xmlns:xlink="http://www.w3.org/1999/xlink" x="0px" y="0px"
	 viewBox="0 0 166.9 233.5" style="enable-background:new 0 0 166.9 233.5;" xml:space="preserve">
<style type="text/css">
	.st0{fill:#FFFFFF;}
	.st1{fill:#32A8E0;}
	.st2{fill:#CD1417;}
	.st3{fill:#BE3D2E;}
</style>
<g>
	<g>
		<g>
			<path class="st0" d="M160.7,233.2H6.3c-3.3,0-5.9-2.7-5.9-5.9V6.3c0-3.3,2.7-5.9,5.9-5.9h154.4c3.3,0,5.9,2.7,5.9,5.9v221
				C166.6,230.5,164,233.2,160.7,233.2z"/>
			<path class="st1" d="M160.7,233.3H6.3c-3.3,0-6.1-2.7-6.1-6.1V6.3C0.3,2.9,3,0.2,6.3,0.2h154.4c3.3,0,6.1,2.7,6.1,6.1v221
				C166.8,230.6,164,233.3,160.7,233.3z M6.3,0.5c-3.2,0-5.8,2.6-5.8,5.8v221c0,3.2,2.6,5.8,5.8,5.8h154.4c3.2,0,5.8-2.6,5.8-5.8
				V6.3c0-3.2-2.6-5.8-5.8-5.8C160.7,0.5,6.3,0.5,6.3,0.5z"/>
		</g>
	</g>
	<g>
		<circle class="st0" cx="148.8" cy="18.7" r="0.6"/>
	</g>
	<g>
		<circle class="st0" cx="121.7" cy="18.7" r="0.6"/>
	</g>
	<g>
		<circle class="st0" cx="96.8" cy="18.7" r="0.6"/>
	</g>
	<g>
		<circle class="st0" cx="71.7" cy="18.9" r="0.6"/>
	</g>
	<g>
		<circle class="st0" cx="148.8" cy="39.8" r="0.6"/>
	</g>
	<g>
		<circle class="st0" cx="148.8" cy="59.1" r="0.6"/>
	</g>
	<g>
		<circle class="st0" cx="148.8" cy="79.3" r="0.6"/>
	</g>
	<g>
		<circle class="st0" cx="148.8" cy="92.1" r="0.6"/>
	</g>
	<g>
		<circle class="st0" cx="148.8" cy="104.9" r="0.6"/>
	</g>
	<g>
		<circle class="st0" cx="18.6" cy="19.3" r="0.6"/>
	</g>
	<g>
		<path class="st0" d="M46.6,18.9c0,0.3-0.3,0.6-0.6,0.6s-0.6-0.3-0.6-0.6c0-0.3,0.3-0.6,0.6-0.6S46.6,18.6,46.6,18.9z"/>
	</g>
	<g>
		<circle class="st0" cx="18.6" cy="39.4" r="0.6"/>
	</g>
	<g>
		<circle class="st0" cx="18.6" cy="59.3" r="0.6"/>
	</g>
	<g>
		<circle class="st0" cx="18.6" cy="79.2" r="0.6"/>
	</g>
	<g>
		<circle class="st0" cx="18.6" cy="92.1" r="0.6"/>
	</g>
	<g>
		<circle class="st0" cx="18.6" cy="105.5" r="0.6"/>
	</g>
	<g>
		<circle class="st0" cx="18.6" cy="118.4" r="0.6"/>
	</g>
	<g>
		<circle class="st0" cx="18.6" cy="131.4" r="0.6"/>
	</g>
	<g>
		<circle class="st0" cx="18.6" cy="144.8" r="0.6"/>
	</g>
	<g>
		<circle class="st0" cx="18.6" cy="158.2" r="0.6"/>
	</g>
	<g>
		<circle class="st0" cx="18.6" cy="170.2" r="0.6"/>
	</g>
	<g>
		<circle class="st0" cx="18.6" cy="183.6" r="0.6"/>
	</g>
	<g>
		<circle class="st0" cx="18.6" cy="196.6" r="0.6"/>
	</g>
	<g>
		<circle class="st0" cx="18.8" cy="215.8" r="0.6"/>
	</g>
	<g>
		<circle class="st0" cx="39.3" cy="216.4" r="0.6"/>
	</g>
	<g>
		<path class="st0" d="M66.3,216.4c0,0.3-0.3,0.6-0.6,0.6c-0.3,0-0.6-0.3-0.6-0.6s0.3-0.6,0.6-0.6C66.1,215.8,66.3,216.1,66.3,216.4
			z"/>
	</g>
	<g>
		<circle class="st0" cx="92.2" cy="216.4" r="0.6"/>
	</g>
	<g>
		<circle class="st0" cx="117.9" cy="216.4" r="0.6"/>
	</g>
	<g>
		<circle class="st0" cx="148.8" cy="118.1" r="0.6"/>
	</g>
	<g>
		<circle class="st0" cx="148.8" cy="130.5" r="0.6"/>
	</g>
	<g>
		<circle class="st0" cx="148.8" cy="143.7" r="0.6"/>
	</g>
	<g>
		<circle class="st0" cx="148.8" cy="156.8" r="0.6"/>
	</g>
	<g>
		<circle class="st0" cx="148.8" cy="169.6" r="0.6"/>
	</g>
	<g>
		<circle class="st0" cx="148.8" cy="182.2" r="0.6"/>
	</g>
	<g>
		<circle class="st0" cx="148.8" cy="195" r="0.6"/>
	</g>
	<g>
		<path class="st0" d="M149.4,214.6c0,0.3-0.3,0.6-0.6,0.6s-0.6-0.3-0.6-0.6s0.3-0.6,0.6-0.6C149.1,214,149.4,214.3,149.4,214.6z"/>
	</g>
	<g>
		<g>
			<polygon class="st2" points="144.4,194.5 139.7,199.7 143.9,205.4 148.7,200.2 			"/>
		</g>
		<g>
			<polygon class="st2" points="18.5,29.2 13.8,34.4 18,40.1 22.8,34.9 			"/>
		</g>
		<g>
			<g>
				<g>
					<g>
						<path class="st3" d="M13.3,25.2h1.9c0.2,0,0.3,0,0.4-0.1s0.1-0.2,0.1-0.4v-9.5h-2.4v-0.7h1.1c0.7,0,1.3-0.2,1.7-0.6
							c0.4-0.4,0.7-0.8,0.8-1.4h0.6v12.1c0,0.2,0,0.3,0.1,0.4s0.2,0.1,0.4,0.1h1.9v0.6h-6.6C13.3,25.7,13.3,25.2,13.3,25.2z"/>
					</g>
				</g>
				<g>
					<g>
						<path class="st3" d="M25.4,25.1c-0.7-0.7-1.3-1.5-1.7-2.6s-0.6-2.2-0.6-3.4c0-1.2,0.2-2.3,0.6-3.4s0.9-1.9,1.7-2.6
							c0.7-0.7,1.5-1,2.4-1s1.7,0.3,2.4,1c0.7,0.7,1.3,1.5,1.7,2.6c0.4,1.1,0.6,2.2,0.6,3.4c0,1.2-0.2,2.3-0.6,3.4s-0.9,1.9-1.7,2.6
							c-0.7,0.7-1.5,1-2.4,1C26.9,26.1,26.1,25.8,25.4,25.1z M29.9,23.6c0.3-1.2,0.5-2.7,0.5-4.5s-0.2-3.3-0.5-4.5s-1.1-1.8-2.1-1.8
							c-1.1,0-1.8,0.6-2.1,1.8c-0.3,1.2-0.5,2.7-0.5,4.5s0.2,3.3,0.5,4.5s1.1,1.8,2.1,1.8C28.9,25.5,29.6,24.9,29.9,23.6z"/>
					</g>
				</g>
			</g>
		</g>
		<g>
			<g>
				<g>
					<g>
						<path class="st2" d="M152,208.6h-1.9c-0.2,0-0.3,0-0.4,0.1c-0.1,0.1-0.1,0.2-0.1,0.4v9.5h2.4v0.7h-1.1c-0.7,0-1.3,0.2-1.7,0.6
							c-0.4,0.4-0.7,0.8-0.8,1.4h-0.6v-12.1c0-0.2,0-0.3-0.1-0.4c-0.1-0.1-0.2-0.1-0.4-0.1h-1.9v-0.6h6.6V208.6z"/>
					</g>
				</g>
				<g>
					<g>
						<path class="st2" d="M139.9,208.7c0.7,0.7,1.3,1.5,1.7,2.6s0.6,2.2,0.6,3.4s-0.2,2.3-0.6,3.4c-0.4,1.1-0.9,1.9-1.7,2.6
							c-0.7,0.7-1.5,1-2.4,1s-1.7-0.3-2.4-1s-1.3-1.5-1.7-2.6s-0.6-2.2-0.6-3.4s0.2-2.3,0.6-3.4c0.4-1.1,0.9-1.9,1.7-2.6
							c0.7-0.7,1.5-1,2.4-1S139.2,208,139.9,208.7z M135.3,210.1c-0.3,1.2-0.5,2.7-0.5,4.5s0.2,3.3,0.5,4.5s1.1,1.8,2.1,1.8
							c1.1,0,1.8-0.6,2.1-1.8s0.5-2.7,0.5-4.5s-0.2-3.3-0.5-4.5s-1.1-1.8-2.1-1.8C136.4,208.3,135.7,208.9,135.3,210.1z"/>
					</g>
				</g>
			</g>
		</g>
		<g>
			<polygon class="st2" points="51.2,25.1 37.9,41.3 51.2,57.7 64.9,41.4 			"/>
		</g>
		<g>
			<polygon class="st2" points="86,52.2 72.7,68.3 86,84.7 99.6,68.5 			"/>
		</g>
		<g>
			<polygon class="st2" points="85.5,148.7 72.2,164.9 85.5,181.3 99.1,165 			"/>
		</g>
		<g>
			<polygon class="st2" points="51.2,75 37.9,91.1 51.2,107.6 64.9,91.3 			"/>
		</g>
		<g>
			<polygon class="st2" points="51.2,124.9 37.9,141 51.2,157.4 64.9,141.1 			"/>
		</g>
		<g>
			<polygon class="st2" points="51.2,174.7 37.9,190.9 51.2,207.3 64.9,191 			"/>
		</g>
		<g>
			<polygon class="st2" points="118.6,25.1 105.3,41.3 118.6,57.7 132.3,41.4 			"/>
		</g>
		<g>
			<polygon class="st2" points="118.6,75 105.3,91.1 118.6,107.6 132.3,91.3 			"/>
		</g>
		<g>
			<polygon class="st2" points="118.6,124.9 105.3,141 118.6,157.4 132.3,141.1 			"/>
		</g>
		<g>
			<polygon class="st2" points="118.6,174.7 105.3,190.9 118.6,207.3 132.3,191 			"/>
		</g>
	</g>
</g>
</svg>
