<?xml version="1.0" encoding="utf-8"?>
<!-- Generator: Adobe Illustrator 27.6.1, SVG Export Plug-In . SVG Version: 6.00 Build 0)  -->
<svg version="1.1" id="Слой_1" xmlns="http://www.w3.org/2000/svg" xmlns:xlink="http://www.w3.org/1999/xlink" x="0px" y="0px"
	 viewBox="0 0 167 233.5" style="enable-background:new 0 0 167 233.5;" xml:space="preserve">
<style type="text/css">
	.st0{fill:#FFFFFF;}
	.st1{fill:#32A8E0;}
	.st2{fill:#BE3D2E;}
	.st3{fill:#CD1417;}
</style>
<g>
	<g>
		<g>
			<path class="st0" d="M160.6,233.2H6.2c-3.3,0-5.9-2.7-5.9-5.9V6.3C0.3,3,3,0.4,6.2,0.4h154.4c3.3,0,5.9,2.7,5.9,5.9v221
				C166.6,230.5,163.9,233.2,160.6,233.2z"/>
			<path class="st1" d="M160.6,233.3H6.2c-3.3,0-6.1-2.7-6.1-6.1V6.3c0.1-3.4,2.8-6.1,6.1-6.1h154.4c3.3,0,6.1,2.7,6.1,6.1v221
				C166.7,230.6,164,233.3,160.6,233.3z M6.2,0.5C3,0.5,0.4,3.1,0.4,6.3v221c0,3.2,2.6,5.8,5.8,5.8h154.4c3.2,0,5.8-2.6,5.8-5.8V6.3
				c0-3.2-2.6-5.8-5.8-5.8C160.6,0.5,6.2,0.5,6.2,0.5z"/>
		</g>
	</g>
	<g>
		<g>
			<g>
				<g>
					<path class="st2" d="M14.4,23.7h1.9c0.2,0,0.3,0,0.4-0.1s0.1-0.2,0.1-0.4v-9.5h-2.4V13h1.1c0.7,0,1.3-0.2,1.7-0.6
						c0.4-0.4,0.7-0.8,0.8-1.4h0.6v12.2c0,0.2,0,0.3,0.1,0.4s0.2,0.1,0.4,0.1H21v0.6h-6.6V23.7z"/>
				</g>
				<g>
					<path class="st2" d="M26.5,23.6c-0.7-0.7-1.3-1.5-1.7-2.6c-0.4-1.1-0.6-2.2-0.6-3.4c0-1.2,0.2-2.3,0.6-3.4s0.9-1.9,1.7-2.6
						c0.7-0.7,1.5-1,2.4-1s1.7,0.3,2.4,1c0.7,0.7,1.3,1.5,1.7,2.6s0.6,2.2,0.6,3.4c0,1.2-0.2,2.3-0.6,3.4c-0.4,1.1-0.9,1.9-1.7,2.6
						c-0.7,0.7-1.5,1-2.4,1S27.2,24.3,26.5,23.6z M31,22.2c0.3-1.2,0.5-2.7,0.5-4.5s-0.2-3.3-0.5-4.5s-1.1-1.8-2.1-1.8
						c-1.1,0-1.8,0.6-2.1,1.8c-0.3,1.2-0.5,2.7-0.5,4.5s0.2,3.3,0.5,4.5s1.1,1.8,2.1,1.8C30,24,30.7,23.4,31,22.2z"/>
				</g>
			</g>
		</g>
		<g>
			<g>
				<g>
					<path class="st3" d="M153.1,207.1h-1.9c-0.2,0-0.3,0-0.4,0.1c-0.1,0.1-0.1,0.2-0.1,0.4v9.5h2.4v0.7H152c-0.7,0-1.3,0.2-1.7,0.6
						c-0.4,0.4-0.7,0.8-0.8,1.4h-0.6v-12.1c0-0.2,0-0.3-0.1-0.4c-0.1-0.1-0.2-0.1-0.4-0.1h-1.9v-0.6h6.6V207.1z"/>
				</g>
				<g>
					<path class="st3" d="M141,207.2c0.7,0.7,1.3,1.5,1.7,2.6s0.6,2.2,0.6,3.4s-0.2,2.3-0.6,3.4c-0.4,1.1-0.9,1.9-1.7,2.6
						c-0.7,0.7-1.5,1-2.4,1s-1.7-0.3-2.4-1s-1.3-1.5-1.7-2.6s-0.6-2.2-0.6-3.4s0.2-2.3,0.6-3.4c0.4-1.1,0.9-1.9,1.7-2.6
						c0.7-0.7,1.5-1,2.4-1S140.3,206.5,141,207.2z M136.4,208.6c-0.3,1.2-0.5,2.7-0.5,4.5s0.2,3.3,0.5,4.5s1.1,1.8,2.1,1.8
						c1.1,0,1.8-0.6,2.1-1.8s0.5-2.7,0.5-4.5s-0.2-3.3-0.5-4.5s-1.1-1.8-2.1-1.8C137.5,206.8,136.8,207.4,136.4,208.6z"/>
				</g>
			</g>
		</g>
		<g>
			<path class="st3" d="M148.9,202c-1.9,0-2.3-1.4-2.4-2.1c-0.1,0.7-0.5,2.2-2.4,2.1c-2.5-0.1-2.8-2.9-2-4.3
				c0.9-1.4,1.3-1.9,2.2-2.8c0.8-0.9,1.8-1.8,2.2-2.4v-0.1v0.1c0.4,0.6,1.3,1.5,2.2,2.4s1.3,1.4,2.2,2.8
				C151.7,199.1,151.4,201.9,148.9,202z"/>
		</g>
		<g>
			<path class="st3" d="M24.2,29.5c-1.9,0-2.3,1.4-2.4,2.1c-0.1-0.7-0.5-2.2-2.4-2.1c-2.5,0.1-2.8,2.9-2,4.3
				c0.9,1.4,1.3,1.9,2.2,2.8c0.8,0.9,1.8,1.8,2.2,2.4c0,0,0,0.1,0,0l0,0c0.4-0.6,1.3-1.5,2.2-2.4c0.9-0.9,1.3-1.4,2.2-2.8
				C27.1,32.4,26.7,29.6,24.2,29.5z"/>
		</g>
		<g>
			<path class="st3" d="M56,27.4c-5.5-0.1-6.7,4.1-7,6.1c-0.3-2-1.6-6.2-7-6.1c-7.2,0.2-8.2,8.2-5.6,12.3c2.5,4.1,3.8,5.4,6.3,8
				c2.4,2.5,5.2,5.2,6.2,6.9c0,0,0.1,0.2,0.1,0.1c0,0.1,0.1-0.1,0.1-0.1c1-1.7,3.9-4.5,6.2-6.9c2.5-2.6,3.8-3.9,6.3-8
				C64.2,35.7,63.2,27.6,56,27.4z"/>
		</g>
		<g>
			<path class="st3" d="M90.6,50.5c-5.5-0.1-6.7,4.1-7,6.1c-0.3-2-1.6-6.2-7-6.1c-7.2,0.2-8.2,8.2-5.6,12.3c2.5,4.1,3.8,5.4,6.3,8
				c2.4,2.5,5.2,5.2,6.2,6.9c0,0,0.1,0.2,0.1,0.1c0,0.1,0.1-0.1,0.1-0.1c1-1.7,3.9-4.5,6.2-6.9c2.5-2.6,3.8-3.9,6.3-8
				C98.7,58.8,97.8,50.7,90.6,50.5z"/>
		</g>
		<g>
			<path class="st3" d="M90.9,183.9c-5.5,0.1-6.7-4.1-7-6.1c-0.3,2-1.6,6.2-7,6.1c-7.2-0.2-8.2-8.2-5.6-12.3c2.5-4.1,3.8-5.4,6.3-8
				c2.4-2.5,5.2-5.2,6.2-6.9c0,0,0.1-0.2,0.1-0.1c0-0.1,0.1,0.1,0.1,0.1c1,1.7,3.9,4.5,6.2,6.9c2.5,2.6,3.8,3.9,6.3,8
				C99,175.6,98.1,183.7,90.9,183.9z"/>
		</g>
		<g>
			<path class="st3" d="M56,77.9c-5.5-0.1-6.7,4.1-7,6.1c-0.3-2-1.6-6.2-7-6.1c-7.2,0.2-8.2,8.2-5.6,12.3c2.5,4.1,3.8,5.4,6.3,8
				c2.4,2.5,5.2,5.2,6.2,6.9c0,0,0.1,0.2,0.1,0.1c0,0.1,0.1-0.1,0.1-0.1c1-1.7,3.9-4.5,6.2-6.9c2.5-2.6,3.8-3.9,6.3-8
				C64.2,86.2,63.2,78.1,56,77.9z"/>
		</g>
		<g>
			<path class="st3" d="M56,206.3c-5.5,0.1-6.7-4.1-7-6.1c-0.3,2-1.6,6.2-7,6.1c-7.2-0.2-8.2-8.2-5.6-12.3c2.5-4.1,3.8-5.4,6.3-8
				c2.4-2.5,5.2-5.2,6.2-6.9c0,0,0.1-0.2,0.1-0.1c0-0.1,0.1,0.1,0.1,0.1c1,1.7,3.9,4.5,6.2,6.9c2.5,2.6,3.8,3.9,6.3,8
				C64.2,198.1,63.2,206.2,56,206.3z"/>
		</g>
		<g>
			<path class="st3" d="M56,155.8c-5.5,0.1-6.7-4.1-7-6.1c-0.3,2-1.6,6.2-7,6.1c-7.2-0.2-8.2-8.2-5.6-12.3c2.5-4.1,3.8-5.4,6.3-8
				c2.4-2.5,5.2-5.2,6.2-6.9c0,0,0.1-0.2,0.1-0.1c0-0.1,0.1,0.1,0.1,0.1c1,1.7,3.9,4.5,6.2,6.9c2.5,2.6,3.8,3.9,6.3,8
				C64.2,147.6,63.2,155.6,56,155.8z"/>
		</g>
		<g>
			<path class="st3" d="M129.9,27.4c-5.5-0.1-6.7,4.1-7,6.1c-0.3-2-1.6-6.2-7-6.1c-7.2,0.2-8.2,8.2-5.6,12.3c2.5,4.1,3.8,5.4,6.3,8
				c2.4,2.5,5.2,5.2,6.2,6.9c0,0,0.1,0.2,0.1,0.1c0,0.1,0.1-0.1,0.1-0.1c1-1.7,3.9-4.5,6.2-6.9c2.5-2.6,3.8-3.9,6.3-8
				C138.1,35.7,137.1,27.6,129.9,27.4z"/>
		</g>
		<g>
			<path class="st3" d="M129.9,77.9c-5.5-0.1-6.7,4.1-7,6.1c-0.3-2-1.6-6.2-7-6.1c-7.2,0.2-8.2,8.2-5.6,12.3c2.5,4.1,3.8,5.4,6.3,8
				c2.4,2.5,5.2,5.2,6.2,6.9c0,0,0.1,0.2,0.1,0.1c0,0.1,0.1-0.1,0.1-0.1c1-1.7,3.9-4.5,6.2-6.9c2.5-2.6,3.8-3.9,6.3-8
				C138.1,86.2,137.1,78.1,129.9,77.9z"/>
		</g>
		<g>
			<path class="st3" d="M129.9,206.3c-5.5,0.1-6.7-4.1-7-6.1c-0.3,2-1.6,6.2-7,6.1c-7.2-0.2-8.2-8.2-5.6-12.3c2.5-4.1,3.8-5.4,6.3-8
				c2.4-2.5,5.2-5.2,6.2-6.9c0,0,0.1-0.2,0.1-0.1c0-0.1,0.1,0.1,0.1,0.1c1,1.7,3.9,4.5,6.2,6.9c2.5,2.6,3.8,3.9,6.3,8
				C138.1,198.1,137.1,206.2,129.9,206.3z"/>
		</g>
		<g>
			<path class="st3" d="M129.9,155.8c-5.5,0.1-6.7-4.1-7-6.1c-0.3,2-1.6,6.2-7,6.1c-7.2-0.2-8.2-8.2-5.6-12.3c2.5-4.1,3.8-5.4,6.3-8
				c2.4-2.5,5.2-5.2,6.2-6.9c0,0,0.1-0.2,0.1-0.1c0-0.1,0.1,0.1,0.1,0.1c1,1.7,3.9,4.5,6.2,6.9c2.5,2.6,3.8,3.9,6.3,8
				C138.1,147.6,137.1,155.6,129.9,155.8z"/>
		</g>
	</g>
	<g>
		<circle class="st0" cx="148.7" cy="18.7" r="0.6"/>
	</g>
	<g>
		<circle class="st0" cx="121.6" cy="18.7" r="0.6"/>
	</g>
	<g>
		<circle class="st0" cx="96.7" cy="18.7" r="0.6"/>
	</g>
	<g>
		<path class="st0" d="M72.2,18.9c0,0.3-0.3,0.6-0.6,0.6c-0.3,0-0.6-0.3-0.6-0.6c0-0.3,0.3-0.6,0.6-0.6C72,18.3,72.2,18.6,72.2,18.9
			z"/>
	</g>
	<g>
		<circle class="st0" cx="148.7" cy="39.8" r="0.6"/>
	</g>
	<g>
		<circle class="st0" cx="148.7" cy="59.1" r="0.6"/>
	</g>
	<g>
		<circle class="st0" cx="148.7" cy="79.3" r="0.6"/>
	</g>
	<g>
		<circle class="st0" cx="148.7" cy="92.1" r="0.6"/>
	</g>
	<g>
		<circle class="st0" cx="148.7" cy="104.9" r="0.6"/>
	</g>
	<g>
		<circle class="st0" cx="18.5" cy="19.3" r="0.6"/>
	</g>
	<g>
		<path class="st0" d="M46.5,18.9c0,0.3-0.3,0.6-0.6,0.6s-0.6-0.3-0.6-0.6c0-0.3,0.3-0.6,0.6-0.6S46.5,18.6,46.5,18.9z"/>
	</g>
	<g>
		<path class="st0" d="M19.1,39.4c0,0.3-0.3,0.6-0.6,0.6c-0.3,0-0.6-0.3-0.6-0.6s0.3-0.6,0.6-0.6C18.8,38.8,19.1,39.1,19.1,39.4z"/>
	</g>
	<g>
		<circle class="st0" cx="18.5" cy="59.3" r="0.6"/>
	</g>
	<g>
		<circle class="st0" cx="18.5" cy="79.2" r="0.6"/>
	</g>
	<g>
		<circle class="st0" cx="18.5" cy="92.1" r="0.6"/>
	</g>
	<g>
		<circle class="st0" cx="18.5" cy="105.5" r="0.6"/>
	</g>
	<g>
		<circle class="st0" cx="18.5" cy="118.4" r="0.6"/>
	</g>
	<g>
		<circle class="st0" cx="18.5" cy="131.4" r="0.6"/>
	</g>
	<g>
		<circle class="st0" cx="18.5" cy="144.8" r="0.6"/>
	</g>
	<g>
		<circle class="st0" cx="18.5" cy="158.2" r="0.6"/>
	</g>
	<g>
		<circle class="st0" cx="18.5" cy="170.2" r="0.6"/>
	</g>
	<g>
		<path class="st0" d="M19.1,183.6c0,0.3-0.3,0.6-0.6,0.6c-0.3,0-0.6-0.3-0.6-0.6s0.3-0.6,0.6-0.6C18.8,183,19.1,183.3,19.1,183.6z"
			/>
	</g>
	<g>
		<circle class="st0" cx="18.5" cy="196.6" r="0.6"/>
	</g>
	<g>
		<circle class="st0" cx="18.7" cy="215.8" r="0.6"/>
	</g>
	<g>
		<path class="st0" d="M39.8,216.4c0,0.3-0.3,0.6-0.6,0.6s-0.6-0.3-0.6-0.6s0.3-0.6,0.6-0.6C39.6,215.8,39.8,216.1,39.8,216.4z"/>
	</g>
	<g>
		<path class="st0" d="M66.3,216.4c0,0.3-0.3,0.6-0.6,0.6c-0.3,0-0.6-0.3-0.6-0.6s0.3-0.6,0.6-0.6C66,215.8,66.3,216.1,66.3,216.4z"
			/>
	</g>
	<g>
		<circle class="st0" cx="92.1" cy="216.4" r="0.6"/>
	</g>
	<g>
		<circle class="st0" cx="117.8" cy="216.4" r="0.6"/>
	</g>
	<g>
		<circle class="st0" cx="148.7" cy="118.1" r="0.6"/>
	</g>
	<g>
		<circle class="st0" cx="148.7" cy="130.5" r="0.6"/>
	</g>
	<g>
		<circle class="st0" cx="148.7" cy="143.7" r="0.6"/>
	</g>
	<g>
		<circle class="st0" cx="148.7" cy="156.8" r="0.6"/>
	</g>
	<g>
		<circle class="st0" cx="148.7" cy="169.6" r="0.6"/>
	</g>
	<g>
		<circle class="st0" cx="148.7" cy="182.2" r="0.6"/>
	</g>
	<g>
		<circle class="st0" cx="148.7" cy="195" r="0.6"/>
	</g>
	<g>
		<circle class="st0" cx="148.7" cy="214.6" r="0.6"/>
	</g>
</g>
</svg>
