<?xml version="1.0" encoding="utf-8"?>
<!-- Generator: Adobe Illustrator 27.6.1, SVG Export Plug-In . SVG Version: 6.00 Build 0)  -->
<svg version="1.1" id="Слой_1" xmlns="http://www.w3.org/2000/svg" xmlns:xlink="http://www.w3.org/1999/xlink" x="0px" y="0px"
	 viewBox="0 0 166.8 233.3" style="enable-background:new 0 0 166.8 233.3;" xml:space="preserve">
<style type="text/css">
	.st0{fill:#FFFFFF;}
	.st1{fill:#32A8E0;}
	.st2{fill:#020203;}
	.st3{fill:#0C0D0D;}
</style>
<g>
	<g>
		<g>
			<path class="st0" d="M160.7,233.1H6.2c-3.3,0-5.9-2.7-5.9-5.9V6.2c0-3.3,2.7-5.9,5.9-5.9h154.4c3.3,0,5.9,2.7,5.9,5.9v221
				C166.6,230.5,163.9,233.1,160.7,233.1z"/>
			<path class="st1" d="M160.7,233.2H6.2c-3.3,0-6.1-2.7-6.1-6.1V6.2c0.1-3.4,2.8-6.1,6.1-6.1h154.4c3.3,0,6.1,2.7,6.1,6.1v221
				C166.7,230.5,164,233.2,160.7,233.2z M6.2,0.3C3,0.3,0.4,2.9,0.4,6.1v221c0,3.2,2.6,5.8,5.8,5.8h154.4c3.2,0,5.8-2.6,5.8-5.8V6.2
				c0-3.2-2.6-5.8-5.8-5.8L6.2,0.3L6.2,0.3z"/>
		</g>
	</g>
	<g>
		<g>
			<g>
				<g>
					<path class="st2" d="M13.7,26.3h1.9c0.2,0,0.3,0,0.4-0.1c0.1-0.1,0.1-0.2,0.1-0.4v-9.5h-2.4v-0.7h1.1c0.7,0,1.3-0.2,1.7-0.6
						c0.4-0.4,0.7-0.8,0.8-1.4h0.6v12.1c0,0.2,0,0.3,0.1,0.4s0.2,0.1,0.4,0.1h1.9v0.6h-6.6V26.3z"/>
				</g>
				<g>
					<path class="st2" d="M25.8,26.2c-0.7-0.7-1.3-1.5-1.7-2.6c-0.4-1.1-0.6-2.2-0.6-3.4c0-1.2,0.2-2.3,0.6-3.4s0.9-1.9,1.7-2.6
						c0.7-0.7,1.5-1,2.4-1s1.7,0.3,2.4,1c0.7,0.7,1.3,1.5,1.7,2.6s0.6,2.2,0.6,3.4c0,1.2-0.2,2.3-0.6,3.4c-0.4,1.1-1,1.9-1.7,2.6
						s-1.5,1-2.4,1S26.5,26.9,25.8,26.2z M30.4,24.8c0.3-1.2,0.5-2.7,0.5-4.5s-0.2-3.3-0.5-4.5S29.3,14,28.3,14
						c-1.1,0-1.8,0.6-2.1,1.8c-0.3,1.2-0.5,2.7-0.5,4.5s0.2,3.3,0.5,4.5s1.1,1.8,2.1,1.8S30,26,30.4,24.8z"/>
				</g>
			</g>
		</g>
		<g>
			<g>
				<g>
					<path class="st2" d="M152.5,209.8h-1.9c-0.2,0-0.3,0-0.4,0.1c-0.1,0.1-0.1,0.2-0.1,0.4v9.5h2.4v0.7h-1.1
						c-0.7,0-1.3,0.2-1.7,0.6c-0.4,0.4-0.7,0.8-0.8,1.4h-0.6v-12.1c0-0.2,0-0.3-0.1-0.4c-0.1-0.1-0.2-0.1-0.4-0.1h-1.9v-0.6h6.6
						V209.8z"/>
				</g>
				<g>
					<path class="st2" d="M140.4,209.8c0.7,0.7,1.3,1.5,1.7,2.6s0.6,2.2,0.6,3.4s-0.2,2.3-0.6,3.4c-0.4,1.1-0.9,1.9-1.7,2.6
						c-0.7,0.7-1.5,1-2.4,1s-1.7-0.3-2.4-1s-1.3-1.5-1.7-2.6s-0.6-2.2-0.6-3.4s0.2-2.3,0.6-3.4c0.4-1.1,1-1.9,1.7-2.6
						c0.7-0.7,1.5-1,2.4-1S139.7,209.2,140.4,209.8z M135.8,211.3c-0.3,1.2-0.5,2.7-0.5,4.5s0.2,3.3,0.5,4.5s1.1,1.8,2.1,1.8
						c1.1,0,1.8-0.6,2.1-1.8s0.5-2.7,0.5-4.5s-0.2-3.3-0.5-4.5s-1.1-1.8-2.1-1.8S136.2,210.1,135.8,211.3z"/>
				</g>
			</g>
		</g>
		<g>
			<path class="st3" d="M95.3,67.9c-3.6-4-7.9-7.8-9.6-9.9c-1.3-1.5-2.3-2.7-2.7-3.2v-0.2c0,0,0,0-0.1,0.1c-0.1,0-0.1-0.1-0.1-0.1
				v0.2c-0.4,0.5-1.3,1.6-2.7,3.2c-1.8,2-6,5.9-9.6,9.9s-3.9,7.9-3.2,11.2c0.7,3.3,4.1,6.4,9.5,5.7c1.7-0.2,2.9-1,3.8-2
				c-0.6,4.7-3.1,7.1-3.1,7.1H88c-1.9-2.1-2.6-5.2-2.8-7c0.9,1,2.1,1.8,3.8,2c5.4,0.7,8.8-2.4,9.5-5.7
				C99.2,75.8,98.9,71.9,95.3,67.9z"/>
		</g>
		<g>
			<path class="st3" d="M63.7,42.7c-3.6-4-7.9-7.8-9.6-9.9c-1.3-1.5-2.3-2.7-2.6-3.1v-0.2c0,0,0,0-0.1,0.1c-0.1-0.1-0.1-0.1-0.1-0.1
				v0.2c-0.4,0.5-1.3,1.6-2.7,3.2c-1.8,2-6,5.9-9.6,9.9s-3.9,7.9-3.2,11.2s4.1,6.4,9.5,5.7c1.7-0.2,2.9-1,3.8-2
				c-0.6,4.7-3.1,7.1-3.1,7.1h10.5c-1.9-2.1-2.6-5.2-2.8-7c0.9,1,2.1,1.8,3.8,2c5.4,0.7,8.8-2.4,9.5-5.7
				C67.6,50.6,67.4,46.6,63.7,42.7z"/>
		</g>
		<g>
			<path class="st3" d="M63.7,93.2c-3.6-4-7.9-7.8-9.6-9.9c-1.3-1.5-2.3-2.7-2.7-3.2v-0.2c0,0,0,0-0.1,0.1c-0.1-0.1-0.1-0.1-0.1-0.1
				v0.2c-0.4,0.5-1.3,1.6-2.7,3.2c-1.8,2-6,5.9-9.6,9.9s-3.9,7.9-3.2,11.2c0.7,3.3,4.1,6.4,9.5,5.7c1.7-0.2,2.9-1,3.8-2
				c-0.6,4.7-3.1,7.1-3.1,7.1h10.5c-1.9-2.1-2.6-5.2-2.8-7c0.9,1,2.1,1.8,3.8,2c5.4,0.7,8.8-2.4,9.5-5.7S67.4,97.2,63.7,93.2z"/>
		</g>
		<g>
			<path class="st3" d="M63.7,203c-3.6,4-7.9,7.8-9.6,9.9c-1.3,1.5-2.3,2.7-2.7,3.2v0.2c0,0,0,0-0.1-0.1c-0.1,0.1-0.1,0.1-0.1,0.1
				v-0.2c-0.4-0.5-1.3-1.6-2.7-3.2c-1.8-2-6-5.9-9.6-9.9s-3.9-7.9-3.2-11.2s4.1-6.4,9.5-5.7c1.7,0.2,2.9,1,3.8,2
				c-0.6-4.7-3.1-7.1-3.1-7.1h10.5c-1.9,2.1-2.6,5.2-2.8,7c0.9-1,2.1-1.8,3.8-2c5.4-0.7,8.8,2.4,9.5,5.7
				C67.6,195.1,67.4,199.1,63.7,203z"/>
		</g>
		<g>
			<path class="st3" d="M127.7,42.7c-3.6-4-7.9-7.8-9.6-9.9c-1.3-1.5-2.3-2.7-2.7-3.2v-0.2c0,0,0,0-0.1,0.1
				c-0.1-0.1-0.1-0.1-0.1-0.1v0.2c-0.4,0.5-1.3,1.6-2.7,3.2c-1.8,2-6,5.9-9.6,9.9s-3.9,7.9-3.2,11.2c0.7,3.3,4.1,6.4,9.5,5.7
				c1.7-0.2,2.9-1,3.8-2c-0.6,4.7-3.1,7.1-3.1,7.1h10.5c-1.9-2.1-2.6-5.2-2.8-7c0.9,1,2.1,1.8,3.8,2c5.4,0.7,8.8-2.4,9.5-5.7
				C131.6,50.6,131.3,46.6,127.7,42.7z"/>
		</g>
		<g>
			<path class="st3" d="M127.7,93.2c-3.6-4-7.9-7.8-9.6-9.9c-1.3-1.5-2.3-2.7-2.7-3.2v-0.2c0,0,0,0-0.1,0.1
				c-0.1-0.1-0.1-0.1-0.1-0.1v0.2c-0.4,0.5-1.3,1.6-2.7,3.2c-1.8,2-6,5.9-9.6,9.9s-3.9,7.9-3.2,11.2c0.7,3.3,4.1,6.4,9.5,5.7
				c1.7-0.2,2.9-1,3.8-2c-0.6,4.7-3.1,7.1-3.1,7.1h10.5c-1.9-2.1-2.6-5.2-2.8-7c0.9,1,2.1,1.8,3.8,2c5.4,0.7,8.8-2.4,9.5-5.7
				C131.6,101.2,131.3,97.2,127.7,93.2z"/>
		</g>
		<g>
			<path class="st3" d="M127.7,203c-3.6,4-7.9,7.8-9.6,9.9c-1.3,1.5-2.3,2.7-2.7,3.2v0.2c0,0,0,0-0.1-0.1c-0.1,0.1-0.1,0.1-0.1,0.1
				v-0.2c-0.4-0.5-1.3-1.6-2.7-3.2c-1.8-2-6-5.9-9.6-9.9s-3.9-7.9-3.2-11.2c0.7-3.3,4.1-6.4,9.5-5.7c1.7,0.2,2.9,1,3.8,2
				c-0.6-4.7-3.1-7.1-3.1-7.1h10.5c-1.9,2.1-2.6,5.2-2.8,7c0.9-1,2.1-1.8,3.8-2c5.4-0.7,8.8,2.4,9.5,5.7
				C131.6,195.1,131.3,199.1,127.7,203z"/>
		</g>
		<g>
			<path class="st3" d="M63.7,152.5c-3.6,4-7.9,7.8-9.6,9.9c-1.3,1.5-2.3,2.7-2.7,3.2v0.2c0,0,0,0-0.1-0.1c-0.1,0.1-0.1,0.1-0.1,0.1
				v-0.2c-0.4-0.5-1.3-1.6-2.7-3.2c-1.8-2-6-5.9-9.6-9.9s-3.9-7.9-3.2-11.2s4.1-6.4,9.5-5.7c1.7,0.2,2.9,1,3.8,2
				c-0.6-4.7-3.1-7.1-3.1-7.1h10.5c-1.9,2.1-2.6,5.2-2.8,7c0.9-1,2.1-1.8,3.8-2c5.4-0.7,8.8,2.4,9.5,5.7
				C67.6,144.6,67.4,148.5,63.7,152.5z"/>
		</g>
		<g>
			<path class="st3" d="M127.7,152.5c-3.6,4-7.9,7.8-9.6,9.9c-1.3,1.5-2.3,2.7-2.7,3.2v0.2c0,0,0,0-0.1-0.1
				c-0.1,0.1-0.1,0.1-0.1,0.1v-0.2c-0.4-0.5-1.3-1.6-2.7-3.2c-1.8-2-6-5.9-9.6-9.9s-3.9-7.9-3.2-11.2c0.7-3.3,4.1-6.4,9.5-5.7
				c1.7,0.2,2.9,1,3.8,2c-0.6-4.7-3.1-7.1-3.1-7.1h10.5c-1.9,2.1-2.6,5.2-2.8,7c0.9-1,2.1-1.8,3.8-2c5.4-0.7,8.8,2.4,9.5,5.7
				C131.6,144.6,131.3,148.5,127.7,152.5z"/>
		</g>
		<g>
			<path class="st3" d="M95.3,176.4c-3.6,4-7.9,7.8-9.6,9.9c-1.3,1.5-2.3,2.7-2.7,3.2v0.2c0,0,0,0-0.1-0.1c-0.1,0.1-0.1,0.1-0.1,0.1
				v-0.2c-0.4-0.5-1.3-1.6-2.7-3.2c-1.8-2-6-5.9-9.6-9.9s-3.9-7.9-3.2-11.2c0.7-3.3,4.1-6.4,9.5-5.7c1.7,0.2,2.9,1,3.8,2
				c-0.6-4.7-3.1-7.1-3.1-7.1H88c-1.9,2.1-2.6,5.2-2.8,7c0.9-1,2.1-1.8,3.8-2c5.4-0.7,8.8,2.4,9.5,5.7
				C99.2,168.5,98.9,172.4,95.3,176.4z"/>
		</g>
		<g>
			<path class="st3" d="M25.8,34.8c-1.1-1.2-2.3-2.3-2.8-2.9c-0.4-0.4-0.7-0.8-0.8-0.9v-0.1l0,0l0,0V31c-0.1,0.1-0.4,0.5-0.8,0.9
				c-0.5,0.6-1.8,1.7-2.8,2.9c-1.1,1.2-1.2,2.3-1,3.3s1.2,1.9,2.8,1.7c0.5-0.1,0.9-0.3,1.1-0.6c-0.2,1.4-0.9,2.1-0.9,2.1h3.1
				c-0.6-0.6-0.8-1.5-0.8-2.1c0.3,0.3,0.6,0.5,1.1,0.6c1.6,0.2,2.6-0.7,2.8-1.7S26.9,36,25.8,34.8z"/>
		</g>
		<g>
			<path class="st3" d="M146.9,201c-1.1,1.2-2.3,2.3-2.8,2.9c-0.4,0.4-0.7,0.8-0.8,0.9v0.1l0,0l0,0v-0.1c-0.1-0.1-0.4-0.5-0.8-0.9
				c-0.5-0.6-1.8-1.7-2.8-2.9c-1.1-1.2-1.2-2.3-1-3.3s1.2-1.9,2.8-1.7c0.5,0.1,0.9,0.3,1.1,0.6c-0.2-1.4-0.9-2.1-0.9-2.1h3.1
				c-0.6,0.6-0.8,1.5-0.8,2.1c0.3-0.3,0.6-0.5,1.1-0.6c1.6-0.2,2.6,0.7,2.8,1.7S147.9,199.8,146.9,201z"/>
		</g>
	</g>
	<g>
		<path class="st0" d="M149.3,18.6c0,0.3-0.3,0.6-0.6,0.6s-0.6-0.3-0.6-0.6c0-0.3,0.3-0.6,0.6-0.6C149.1,18,149.3,18.3,149.3,18.6z"
			/>
	</g>
	<g>
		<path class="st0" d="M122.2,18.6c0,0.3-0.3,0.6-0.6,0.6c-0.3,0-0.6-0.3-0.6-0.6c0-0.3,0.3-0.6,0.6-0.6S122.2,18.3,122.2,18.6z"/>
	</g>
	<g>
		<path class="st0" d="M97.2,18.6c0,0.3-0.3,0.6-0.6,0.6c-0.3,0-0.6-0.3-0.6-0.6c0-0.3,0.3-0.6,0.6-0.6C97,18,97.2,18.3,97.2,18.6z"
			/>
	</g>
	<g>
		<path class="st0" d="M72.2,18.8c0,0.3-0.3,0.6-0.6,0.6c-0.3,0-0.6-0.3-0.6-0.6c0-0.3,0.3-0.6,0.6-0.6S72.2,18.4,72.2,18.8z"/>
	</g>
	<g>
		<path class="st0" d="M149.3,39.7c0,0.3-0.3,0.6-0.6,0.6s-0.6-0.3-0.6-0.6s0.3-0.6,0.6-0.6C149.1,39.2,149.3,39.4,149.3,39.7z"/>
	</g>
	<g>
		<path class="st0" d="M149.3,59c0,0.3-0.3,0.6-0.6,0.6s-0.6-0.3-0.6-0.6s0.3-0.6,0.6-0.6C149.1,58.4,149.3,58.7,149.3,59z"/>
	</g>
	<g>
		<path class="st0" d="M149.3,79.2c0,0.3-0.3,0.6-0.6,0.6s-0.6-0.3-0.6-0.6c0-0.3,0.3-0.6,0.6-0.6C149.1,78.7,149.3,78.9,149.3,79.2
			z"/>
	</g>
	<g>
		<path class="st0" d="M149.3,92c0,0.3-0.3,0.6-0.6,0.6s-0.6-0.3-0.6-0.6c0-0.3,0.3-0.6,0.6-0.6C149.1,91.4,149.3,91.7,149.3,92z"/>
	</g>
	<g>
		<path class="st0" d="M149.3,104.8c0,0.3-0.3,0.6-0.6,0.6s-0.6-0.3-0.6-0.6c0-0.3,0.3-0.6,0.6-0.6
			C149.1,104.3,149.3,104.5,149.3,104.8z"/>
	</g>
	<g>
		<path class="st0" d="M19.1,19.1c0,0.3-0.3,0.6-0.6,0.6c-0.3,0-0.6-0.3-0.6-0.6c0-0.3,0.3-0.6,0.6-0.6
			C18.8,18.6,19.1,18.8,19.1,19.1z"/>
	</g>
	<g>
		<path class="st0" d="M46.5,18.8c0,0.3-0.3,0.6-0.6,0.6s-0.6-0.3-0.6-0.6c0-0.3,0.3-0.6,0.6-0.6S46.5,18.4,46.5,18.8z"/>
	</g>
	<g>
		<path class="st0" d="M19.1,39.3c0,0.3-0.3,0.6-0.6,0.6c-0.3,0-0.6-0.3-0.6-0.6s0.3-0.6,0.6-0.6C18.8,38.7,19.1,39,19.1,39.3z"/>
	</g>
	<g>
		<path class="st0" d="M19.1,59.1c0,0.3-0.3,0.6-0.6,0.6c-0.3,0-0.6-0.3-0.6-0.6s0.3-0.6,0.6-0.6C18.8,58.6,19.1,58.8,19.1,59.1z"/>
	</g>
	<g>
		<path class="st0" d="M19.1,79.1c0,0.3-0.3,0.6-0.6,0.6c-0.3,0-0.6-0.3-0.6-0.6s0.3-0.6,0.6-0.6S19.1,78.8,19.1,79.1z"/>
	</g>
	<g>
		<path class="st0" d="M19.1,92c0,0.3-0.3,0.6-0.6,0.6c-0.3,0-0.6-0.3-0.6-0.6c0-0.3,0.3-0.6,0.6-0.6S19.1,91.7,19.1,92z"/>
	</g>
	<g>
		<path class="st0" d="M19.1,105.4c0,0.3-0.3,0.6-0.6,0.6c-0.3,0-0.6-0.3-0.6-0.6c0-0.3,0.3-0.6,0.6-0.6
			C18.8,104.8,19.1,105.1,19.1,105.4z"/>
	</g>
	<g>
		<path class="st0" d="M19.1,118.3c0,0.3-0.3,0.6-0.6,0.6c-0.3,0-0.6-0.3-0.6-0.6s0.3-0.6,0.6-0.6C18.8,117.8,19.1,118,19.1,118.3z"
			/>
	</g>
	<g>
		<path class="st0" d="M19.1,131.3c0,0.3-0.3,0.6-0.6,0.6c-0.3,0-0.6-0.3-0.6-0.6s0.3-0.6,0.6-0.6C18.8,130.7,19.1,131,19.1,131.3z"
			/>
	</g>
	<g>
		<path class="st0" d="M19.1,144.7c0,0.3-0.3,0.6-0.6,0.6c-0.3,0-0.6-0.3-0.6-0.6s0.3-0.6,0.6-0.6S19.1,144.4,19.1,144.7z"/>
	</g>
	<g>
		<path class="st0" d="M19.1,158.1c0,0.3-0.3,0.6-0.6,0.6c-0.3,0-0.6-0.3-0.6-0.6s0.3-0.6,0.6-0.6S19.1,157.8,19.1,158.1z"/>
	</g>
	<g>
		<path class="st0" d="M19.1,170.1c0,0.3-0.3,0.6-0.6,0.6c-0.3,0-0.6-0.3-0.6-0.6s0.3-0.6,0.6-0.6S19.1,169.8,19.1,170.1z"/>
	</g>
	<g>
		<path class="st0" d="M19.1,183.5c0,0.3-0.3,0.6-0.6,0.6c-0.3,0-0.6-0.3-0.6-0.6s0.3-0.6,0.6-0.6C18.8,182.9,19.1,183.2,19.1,183.5
			z"/>
	</g>
	<g>
		<path class="st0" d="M19.1,196.5c0,0.3-0.3,0.6-0.6,0.6c-0.3,0-0.6-0.3-0.6-0.6s0.3-0.6,0.6-0.6C18.8,196,19.1,196.2,19.1,196.5z"
			/>
	</g>
	<g>
		<path class="st0" d="M19.3,215.7c0,0.3-0.3,0.6-0.6,0.6c-0.3,0-0.6-0.3-0.6-0.6s0.3-0.6,0.6-0.6C19,215.2,19.3,215.4,19.3,215.7z"
			/>
	</g>
	<g>
		<path class="st0" d="M39.8,216.3c0,0.3-0.3,0.6-0.6,0.6s-0.6-0.3-0.6-0.6s0.3-0.6,0.6-0.6C39.5,215.7,39.8,216,39.8,216.3z"/>
	</g>
	<g>
		<path class="st0" d="M66.2,216.3c0,0.3-0.3,0.6-0.6,0.6c-0.3,0-0.6-0.3-0.6-0.6s0.3-0.6,0.6-0.6C66,215.7,66.2,216,66.2,216.3z"/>
	</g>
	<g>
		<path class="st0" d="M92.6,216.3c0,0.3-0.3,0.6-0.6,0.6c-0.3,0-0.6-0.3-0.6-0.6s0.3-0.6,0.6-0.6C92.4,215.7,92.6,216,92.6,216.3z"
			/>
	</g>
	<g>
		<path class="st0" d="M118.4,216.3c0,0.3-0.3,0.6-0.6,0.6c-0.3,0-0.6-0.3-0.6-0.6s0.3-0.6,0.6-0.6
			C118.1,215.7,118.4,216,118.4,216.3z"/>
	</g>
	<g>
		<path class="st0" d="M149.3,118c0,0.3-0.3,0.6-0.6,0.6s-0.6-0.3-0.6-0.6c0-0.3,0.3-0.6,0.6-0.6C149.1,117.5,149.3,117.7,149.3,118
			z"/>
	</g>
	<g>
		<path class="st0" d="M149.3,130.4c0,0.3-0.3,0.6-0.6,0.6s-0.6-0.3-0.6-0.6s0.3-0.6,0.6-0.6C149.1,129.8,149.3,130,149.3,130.4z"/>
	</g>
	<g>
		<path class="st0" d="M149.3,143.6c0,0.3-0.3,0.6-0.6,0.6s-0.6-0.3-0.6-0.6s0.3-0.6,0.6-0.6C149.1,143.1,149.3,143.3,149.3,143.6z"
			/>
	</g>
	<g>
		<path class="st0" d="M149.3,156.8c0,0.3-0.3,0.6-0.6,0.6s-0.6-0.3-0.6-0.6s0.3-0.6,0.6-0.6C149.1,156.2,149.3,156.4,149.3,156.8z"
			/>
	</g>
	<g>
		<path class="st0" d="M149.3,169.5c0,0.3-0.3,0.6-0.6,0.6s-0.6-0.3-0.6-0.6s0.3-0.6,0.6-0.6C149.1,168.9,149.3,169.2,149.3,169.5z"
			/>
	</g>
	<g>
		<path class="st0" d="M149.3,182.1c0,0.3-0.3,0.6-0.6,0.6s-0.6-0.3-0.6-0.6s0.3-0.6,0.6-0.6C149.1,181.5,149.3,181.8,149.3,182.1z"
			/>
	</g>
	<g>
		<circle class="st0" cx="148.7" cy="194.9" r="0.6"/>
	</g>
	<g>
		<path class="st0" d="M149.3,214.5c0,0.3-0.3,0.6-0.6,0.6s-0.6-0.3-0.6-0.6s0.3-0.6,0.6-0.6C149.1,213.9,149.3,214.2,149.3,214.5z"
			/>
	</g>
</g>
</svg>
