<?xml version="1.0" encoding="utf-8"?>
<!-- Generator: Adobe Illustrator 27.6.1, SVG Export Plug-In . SVG Version: 6.00 Build 0)  -->
<svg version="1.1" id="Слой_1" xmlns="http://www.w3.org/2000/svg" xmlns:xlink="http://www.w3.org/1999/xlink" x="0px" y="0px"
	 viewBox="0 0 167.1 233.3" style="enable-background:new 0 0 167.1 233.3;" xml:space="preserve">
<style type="text/css">
	.st0{fill:#FFFFFF;}
	.st1{fill:#32A8E0;}
	.st2{fill:#231F20;}
	.st3{fill:#0C0D0D;}
</style>
<g>
	<g>
		<g>
			<path class="st0" d="M160.6,233.1H6.2c-3.3,0-5.9-2.7-5.9-5.9V6.2c0-3.3,2.7-5.9,5.9-5.9h154.5c3.3,0,5.9,2.7,5.9,5.9v221
				C166.6,230.5,163.9,233.1,160.6,233.1z"/>
			<path class="st1" d="M160.6,233.2H6.2c-3.3,0-6.1-2.7-6.1-6.1V6.2c0-3.4,2.7-6.1,6.1-6.1h154.5c3.3,0,6.1,2.7,6.1,6.1v221
				C166.7,230.5,164,233.2,160.6,233.2z M6.2,0.3C3,0.3,0.4,2.9,0.4,6.1v221c0,3.2,2.6,5.8,5.8,5.8h154.5c3.2,0,5.8-2.6,5.8-5.8V6.2
				c0-3.2-2.6-5.8-5.8-5.8L6.2,0.3L6.2,0.3z"/>
		</g>
	</g>
	<g>
		<path class="st0" d="M149.3,18.6c0,0.3-0.3,0.6-0.6,0.6s-0.6-0.3-0.6-0.6s0.3-0.6,0.6-0.6S149.3,18.3,149.3,18.6z"/>
	</g>
	<g>
		<path class="st0" d="M122.2,18.6c0,0.3-0.3,0.6-0.6,0.6c-0.3,0-0.6-0.3-0.6-0.6s0.3-0.6,0.6-0.6C121.9,18,122.2,18.3,122.2,18.6z"
			/>
	</g>
	<g>
		<path class="st0" d="M97.2,18.6c0,0.3-0.3,0.6-0.6,0.6c-0.3,0-0.6-0.3-0.6-0.6s0.3-0.6,0.6-0.6C97,18,97.2,18.3,97.2,18.6z"/>
	</g>
	<g>
		<path class="st0" d="M71.6,19.3c-0.3,0-0.6-0.3-0.6-0.6s0.3-0.6,0.6-0.6S71.9,19.3,71.6,19.3z"/>
	</g>
	<g>
		<path class="st0" d="M149.3,39.7c0,0.3-0.3,0.6-0.6,0.6s-0.6-0.3-0.6-0.6s0.3-0.6,0.6-0.6C149,39.2,149.3,39.4,149.3,39.7z"/>
	</g>
	<g>
		<path class="st0" d="M149.3,59c0,0.3-0.3,0.6-0.6,0.6s-0.6-0.3-0.6-0.6s0.3-0.6,0.6-0.6C149,58.4,149.3,58.7,149.3,59z"/>
	</g>
	<g>
		<path class="st0" d="M149.3,79.2c0,0.3-0.3,0.6-0.6,0.6s-0.6-0.3-0.6-0.6c0-0.3,0.3-0.6,0.6-0.6C149,78.7,149.3,78.9,149.3,79.2z"
			/>
	</g>
	<g>
		<path class="st0" d="M149.3,92c0,0.3-0.3,0.6-0.6,0.6s-0.6-0.3-0.6-0.6c0-0.3,0.3-0.6,0.6-0.6S149.3,91.7,149.3,92z"/>
	</g>
	<g>
		<path class="st0" d="M149.3,104.8c0,0.3-0.3,0.6-0.6,0.6s-0.6-0.3-0.6-0.6c0-0.3,0.3-0.6,0.6-0.6
			C149,104.3,149.3,104.5,149.3,104.8z"/>
	</g>
	<g>
		<path class="st0" d="M19,19.1c0,0.3-0.3,0.6-0.6,0.6c-0.3,0-0.6-0.3-0.6-0.6c0-0.3,0.3-0.6,0.6-0.6C18.7,18.6,19,18.8,19,19.1z"/>
	</g>
	<g>
		<path class="st0" d="M46.4,18.8c0,0.3-0.3,0.6-0.6,0.6s-0.6-0.3-0.6-0.6s0.3-0.6,0.6-0.6C46.2,18.2,46.4,18.5,46.4,18.8z"/>
	</g>
	<g>
		<path class="st0" d="M19,39.3c0,0.3-0.3,0.6-0.6,0.6c-0.3,0-0.6-0.3-0.6-0.6s0.3-0.6,0.6-0.6C18.7,38.7,19,39,19,39.3z"/>
	</g>
	<g>
		<path class="st0" d="M19,59.1c0,0.3-0.3,0.6-0.6,0.6c-0.3,0-0.6-0.3-0.6-0.6s0.3-0.6,0.6-0.6C18.7,58.6,19,58.8,19,59.1z"/>
	</g>
	<g>
		<path class="st0" d="M19,79.1c0,0.3-0.3,0.6-0.6,0.6c-0.3,0-0.6-0.3-0.6-0.6s0.3-0.6,0.6-0.6S19,78.8,19,79.1z"/>
	</g>
	<g>
		<path class="st0" d="M19,92c0,0.3-0.3,0.6-0.6,0.6c-0.3,0-0.6-0.3-0.6-0.6c0-0.3,0.3-0.6,0.6-0.6S19,91.7,19,92z"/>
	</g>
	<g>
		<path class="st0" d="M19,105.4c0,0.3-0.3,0.6-0.6,0.6c-0.3,0-0.6-0.3-0.6-0.6c0-0.3,0.3-0.6,0.6-0.6C18.7,104.8,19,105.1,19,105.4
			z"/>
	</g>
	<g>
		<path class="st0" d="M19,118.3c0,0.3-0.3,0.6-0.6,0.6c-0.3,0-0.6-0.3-0.6-0.6c0-0.3,0.3-0.6,0.6-0.6C18.7,117.8,19,118,19,118.3z"
			/>
	</g>
	<g>
		<path class="st0" d="M19,131.3c0,0.3-0.3,0.6-0.6,0.6c-0.3,0-0.6-0.3-0.6-0.6s0.3-0.6,0.6-0.6C18.7,130.7,19,131,19,131.3z"/>
	</g>
	<g>
		<path class="st0" d="M19,144.7c0,0.3-0.3,0.6-0.6,0.6c-0.3,0-0.6-0.3-0.6-0.6s0.3-0.6,0.6-0.6S19,144.4,19,144.7z"/>
	</g>
	<g>
		<path class="st0" d="M19,158.1c0,0.3-0.3,0.6-0.6,0.6c-0.3,0-0.6-0.3-0.6-0.6s0.3-0.6,0.6-0.6S19,157.8,19,158.1z"/>
	</g>
	<g>
		<path class="st0" d="M19,170.1c0,0.3-0.3,0.6-0.6,0.6c-0.3,0-0.6-0.3-0.6-0.6s0.3-0.6,0.6-0.6S19,169.8,19,170.1z"/>
	</g>
	<g>
		<path class="st0" d="M19,183.5c0,0.3-0.3,0.6-0.6,0.6c-0.3,0-0.6-0.3-0.6-0.6s0.3-0.6,0.6-0.6C18.7,182.9,19,183.2,19,183.5z"/>
	</g>
	<g>
		<path class="st0" d="M19,196.5c0,0.3-0.3,0.6-0.6,0.6c-0.3,0-0.6-0.3-0.6-0.6s0.3-0.6,0.6-0.6C18.7,196,19,196.2,19,196.5z"/>
	</g>
	<g>
		<path class="st0" d="M19.2,215.7c0,0.3-0.3,0.6-0.6,0.6S18,216,18,215.7s0.3-0.6,0.6-0.6S19.2,215.4,19.2,215.7z"/>
	</g>
	<g>
		<path class="st0" d="M39.8,216.3c0,0.3-0.3,0.6-0.6,0.6s-0.6-0.3-0.6-0.6s0.3-0.6,0.6-0.6C39.5,215.7,39.8,216,39.8,216.3z"/>
	</g>
	<g>
		<path class="st0" d="M66.2,216.3c0,0.3-0.3,0.6-0.6,0.6s-0.6-0.3-0.6-0.6s0.3-0.6,0.6-0.6S66.2,216,66.2,216.3z"/>
	</g>
	<g>
		<path class="st0" d="M92.6,216.3c0,0.3-0.3,0.6-0.6,0.6s-0.6-0.3-0.6-0.6s0.3-0.6,0.6-0.6S92.6,216,92.6,216.3z"/>
	</g>
	<g>
		<path class="st0" d="M118.3,216.3c0,0.3-0.3,0.6-0.6,0.6c-0.3,0-0.6-0.3-0.6-0.6s0.3-0.6,0.6-0.6
			C118.1,215.7,118.3,216,118.3,216.3z"/>
	</g>
	<g>
		<path class="st0" d="M149.3,118c0,0.3-0.3,0.6-0.6,0.6s-0.6-0.3-0.6-0.6s0.3-0.6,0.6-0.6C149,117.5,149.3,117.7,149.3,118z"/>
	</g>
	<g>
		<path class="st0" d="M149.3,130.4c0,0.3-0.3,0.6-0.6,0.6s-0.6-0.3-0.6-0.6s0.3-0.6,0.6-0.6S149.3,130,149.3,130.4z"/>
	</g>
	<g>
		<path class="st0" d="M149.3,143.6c0,0.3-0.3,0.6-0.6,0.6s-0.6-0.3-0.6-0.6s0.3-0.6,0.6-0.6C149,143.1,149.3,143.3,149.3,143.6z"/>
	</g>
	<g>
		<path class="st0" d="M149.3,156.8c0,0.3-0.3,0.6-0.6,0.6s-0.6-0.3-0.6-0.6s0.3-0.6,0.6-0.6C149,156.2,149.3,156.4,149.3,156.8z"/>
	</g>
	<g>
		<path class="st0" d="M149.3,169.5c0,0.3-0.3,0.6-0.6,0.6s-0.6-0.3-0.6-0.6s0.3-0.6,0.6-0.6C149,168.9,149.3,169.2,149.3,169.5z"/>
	</g>
	<g>
		<path class="st0" d="M149.3,182.1c0,0.3-0.3,0.6-0.6,0.6s-0.6-0.3-0.6-0.6s0.3-0.6,0.6-0.6S149.3,181.8,149.3,182.1z"/>
	</g>
	<g>
		<path class="st0" d="M149.3,194.9c0,0.3-0.3,0.6-0.6,0.6s-0.6-0.3-0.6-0.6s0.3-0.6,0.6-0.6C149,194.4,149.3,194.6,149.3,194.9z"/>
	</g>
	<g>
		<path class="st0" d="M149.3,214.5c0,0.3-0.3,0.6-0.6,0.6s-0.6-0.3-0.6-0.6s0.3-0.6,0.6-0.6C149,213.9,149.3,214.2,149.3,214.5z"/>
	</g>
	<g>
		<g>
			<g>
				<g>
					<path class="st2" d="M15.1,24.7h0.7c0.8,0,1.3-0.5,1.7-1.4l4.2-11.8h0.4l4.2,12.3c0.1,0.3,0.3,0.5,0.5,0.7
						c0.2,0.1,0.4,0.2,0.7,0.2h1.1v0.6h-6v-0.6h1.3c0.2,0,0.4,0,0.5-0.1s0.2-0.2,0.2-0.3c0-0.2,0-0.3-0.1-0.4l-0.9-2.6h-4.5
						l-0.5,1.3c-0.2,0.5-0.3,0.9-0.3,1.1c0,0.3,0.1,0.5,0.2,0.7s0.4,0.3,0.7,0.3h1.2v0.6h-5.3V24.7z M19.2,20.6h4.1l-2-5.9
						L19.2,20.6z"/>
				</g>
			</g>
		</g>
		<g>
			<g>
				<path class="st2" d="M143.6,206.7h5.3v0.6h-1.2c-0.4,0-0.6,0.1-0.7,0.3c-0.1,0.2-0.2,0.5-0.2,0.7s0.1,0.6,0.3,1.1l0.5,1.3h4.5
					l0.9-2.6c0.1-0.1,0.1-0.3,0.1-0.4c0-0.1-0.1-0.2-0.2-0.3c-0.1-0.1-0.3-0.1-0.5-0.1h-1.3v-0.6h6v0.6H156c-0.3,0-0.5,0.1-0.7,0.2
					c-0.2,0.1-0.3,0.3-0.5,0.7l-4.2,12.3h-0.5l-4.2-11.8c-0.3-0.9-0.9-1.4-1.7-1.4h-0.7L143.6,206.7L143.6,206.7z M149.8,217.3
					l2-5.9h-4.1L149.8,217.3z"/>
			</g>
		</g>
		<g>
			<path class="st3" d="M17.1,34.3c1,1.1,2.6,0.5,2.6,0.5c-0.4,0.5-0.7,0.9-0.7,1.6v0.1c0,1.2,1,2.2,2.2,2.2s2.2-1,2.2-2.2
				c0-0.2,0-0.3,0-0.5c-0.1-0.5-0.3-0.9-0.7-1.3c0,0,1.6,0.7,2.6-0.5c1-1.1,0.5-2.5,0.2-2.9s-0.8-1.2-2-1.1c-1,0.1-1.2,0.2-1.9,0.8
				c0.1-1.5,1-2.6,1-2.6h-0.1H21h-1.5h-0.1c0.6,0.6,1.1,1.9,1,2.6c-0.7-0.5-0.8-0.7-1.8-0.8c-1.1-0.1-1.6,0.7-2,1.1
				C16.5,31.9,16,33.2,17.1,34.3z"/>
		</g>
		<g>
			<path class="st3" d="M104.5,105.7c-5-5.5-12.7-2.2-12.7-2.2c2.1-2.3,3.6-4.1,3.3-7.9c0-0.1,0-0.3,0-0.4c0-6-4.8-10.8-10.8-10.8
				s-10.8,4.8-10.8,10.8c0,0.8,0.1,1.5,0.2,2.2c0.2,2.6,1.5,4.2,3.3,6.1c0,0-7.7-3.2-12.7,2.2c-5,5.5-2.5,11.9-0.9,14.1
				c1.6,2.1,3.9,5.7,9.5,5.3c4.9-0.4,5.6-1.2,9-3.9c-0.4,7.4-4.9,12.5-4.9,12.5h0.3h7.1h7.1h0.3c-2.7-2.9-5.1-9.4-4.8-12.4
				c3.3,2.6,4.1,3.5,8.9,3.8c5.6,0.4,7.9-3.2,9.5-5.3C107,117.6,109.5,111.2,104.5,105.7z"/>
		</g>
		<g>
			<path class="st3" d="M146.2,197.5c1-1.1,2.6-0.5,2.6-0.5c-0.4-0.5-0.7-0.9-0.7-1.6v-0.1c0-1.2,1-2.2,2.2-2.2s2.2,1,2.2,2.2
				c0,0.2,0,0.3,0,0.5c-0.1,0.5-0.3,0.9-0.7,1.3c0,0,1.6-0.7,2.6,0.5c1,1.1,0.5,2.5,0.2,2.9s-0.8,1.2-2,1.1c-1-0.1-1.2-0.2-1.9-0.8
				c0.1,1.5,1,2.6,1,2.6h-0.1h-1.5h-1.5h-0.1c0.6-0.6,1.1-1.9,1-2.6c-0.7,0.5-0.8,0.7-1.8,0.8c-1.1,0.1-1.6-0.7-2-1.1
				C145.7,199.9,145.2,198.6,146.2,197.5z"/>
		</g>
	</g>
</g>
</svg>
