<?xml version="1.0" encoding="utf-8"?>
<!-- Generator: Adobe Illustrator 27.6.1, SVG Export Plug-In . SVG Version: 6.00 Build 0)  -->
<svg version="1.1" id="Слой_1" xmlns="http://www.w3.org/2000/svg" xmlns:xlink="http://www.w3.org/1999/xlink" x="0px" y="0px"
	 viewBox="0 0 166.9 233.3" style="enable-background:new 0 0 166.9 233.3;" xml:space="preserve">
<style type="text/css">
	.st0{fill:#FFFFFF;}
	.st1{fill:#32A8E0;}
	.st2{fill:#CD1417;}
	.st3{fill:#BE3D2E;}
</style>
<g>
	<g>
		<g>
			<path class="st0" d="M160.7,233.1H6.3c-3.3,0-5.9-2.7-5.9-5.9V6.2c0-3.3,2.7-5.9,5.9-5.9h154.4c3.3,0,5.9,2.7,5.9,5.9v221
				C166.7,230.4,164,233.1,160.7,233.1z"/>
			<path class="st1" d="M160.7,233.2H6.3c-3.3,0-6.1-2.7-6.1-6.1V6.2C0.3,2.8,3,0.1,6.3,0.1h154.4c3.3,0,6.1,2.7,6.1,6.1v221
				C166.8,230.5,164.1,233.2,160.7,233.2z M6.3,0.4C3.1,0.4,0.5,3,0.5,6.2v221c0,3.2,2.6,5.8,5.8,5.8h154.4c3.2,0,5.8-2.6,5.8-5.8
				V6.2c0-3.2-2.6-5.8-5.8-5.8C160.7,0.4,6.3,0.4,6.3,0.4z"/>
		</g>
	</g>
	<g>
		<circle class="st0" cx="148.8" cy="18.6" r="0.6"/>
	</g>
	<g>
		<circle class="st0" cx="121.7" cy="18.6" r="0.6"/>
	</g>
	<g>
		<circle class="st0" cx="96.8" cy="18.6" r="0.6"/>
	</g>
	<g>
		<circle class="st0" cx="71.7" cy="18.8" r="0.6"/>
	</g>
	<g>
		<circle class="st0" cx="148.8" cy="39.7" r="0.6"/>
	</g>
	<g>
		<circle class="st0" cx="148.8" cy="59" r="0.6"/>
	</g>
	<g>
		<circle class="st0" cx="148.8" cy="79.2" r="0.6"/>
	</g>
	<g>
		<circle class="st0" cx="148.8" cy="92" r="0.6"/>
	</g>
	<g>
		<circle class="st0" cx="148.8" cy="104.8" r="0.6"/>
	</g>
	<g>
		<circle class="st0" cx="18.6" cy="19.2" r="0.6"/>
	</g>
	<g>
		<path class="st0" d="M46.6,18.8c0,0.3-0.3,0.6-0.6,0.6s-0.6-0.3-0.6-0.6c0-0.3,0.3-0.6,0.6-0.6S46.6,18.5,46.6,18.8z"/>
	</g>
	<g>
		<circle class="st0" cx="18.6" cy="39.3" r="0.6"/>
	</g>
	<g>
		<circle class="st0" cx="18.6" cy="59.2" r="0.6"/>
	</g>
	<g>
		<circle class="st0" cx="18.6" cy="79.1" r="0.6"/>
	</g>
	<g>
		<circle class="st0" cx="18.6" cy="92" r="0.6"/>
	</g>
	<g>
		<circle class="st0" cx="18.6" cy="105.4" r="0.6"/>
	</g>
	<g>
		<circle class="st0" cx="18.6" cy="118.3" r="0.6"/>
	</g>
	<g>
		<circle class="st0" cx="18.6" cy="131.3" r="0.6"/>
	</g>
	<g>
		<circle class="st0" cx="18.6" cy="144.7" r="0.6"/>
	</g>
	<g>
		<circle class="st0" cx="18.6" cy="158.1" r="0.6"/>
	</g>
	<g>
		<circle class="st0" cx="18.6" cy="170.1" r="0.6"/>
	</g>
	<g>
		<path class="st0" d="M19.2,183.5c0,0.3-0.3,0.6-0.6,0.6s-0.6-0.3-0.6-0.6s0.3-0.6,0.6-0.6S19.2,183.2,19.2,183.5z"/>
	</g>
	<g>
		<circle class="st0" cx="18.6" cy="196.5" r="0.6"/>
	</g>
	<g>
		<circle class="st0" cx="18.8" cy="215.7" r="0.6"/>
	</g>
	<g>
		<circle class="st0" cx="39.4" cy="216.3" r="0.6"/>
	</g>
	<g>
		<path class="st0" d="M66.4,216.3c0,0.3-0.3,0.6-0.6,0.6c-0.3,0-0.6-0.3-0.6-0.6s0.3-0.6,0.6-0.6C66.1,215.7,66.4,216,66.4,216.3z"
			/>
	</g>
	<g>
		<circle class="st0" cx="92.2" cy="216.3" r="0.6"/>
	</g>
	<g>
		<circle class="st0" cx="117.9" cy="216.3" r="0.6"/>
	</g>
	<g>
		<circle class="st0" cx="148.8" cy="118" r="0.6"/>
	</g>
	<g>
		<circle class="st0" cx="148.8" cy="130.4" r="0.6"/>
	</g>
	<g>
		<circle class="st0" cx="148.8" cy="143.6" r="0.6"/>
	</g>
	<g>
		<circle class="st0" cx="148.8" cy="156.7" r="0.6"/>
	</g>
	<g>
		<circle class="st0" cx="148.8" cy="169.5" r="0.6"/>
	</g>
	<g>
		<circle class="st0" cx="148.8" cy="182.1" r="0.6"/>
	</g>
	<g>
		<circle class="st0" cx="148.8" cy="194.9" r="0.6"/>
	</g>
	<g>
		<circle class="st0" cx="148.8" cy="214.5" r="0.6"/>
	</g>
	<g>
		<g>
			<polygon class="st2" points="80.6,86.4 55.9,116.4 80.6,146.9 106,116.7 			"/>
		</g>
		<g>
			<polygon class="st2" points="18.4,26.1 13.6,31.3 17.8,37 22.7,31.8 			"/>
		</g>
		<g>
			<polygon class="st2" points="147.9,185.9 143.1,191.1 147.4,196.8 152.2,191.6 			"/>
		</g>
		<g>
			<g>
				<g>
					<path class="st3" d="M11.7,20.8h0.7c0.8,0,1.3-0.5,1.7-1.4l4.2-11.8h0.5L22.9,20c0.1,0.3,0.3,0.5,0.5,0.7
						c0.2,0.1,0.4,0.2,0.7,0.2h1.1v0.6h-6v-0.6h1.3c0.2,0,0.4,0,0.5-0.1s0.2-0.2,0.2-0.3c0-0.2,0-0.3-0.1-0.4l-0.9-2.6h-4.5
						l-0.5,1.3c-0.2,0.5-0.3,0.9-0.3,1.1c0,0.3,0.1,0.5,0.2,0.7c0.1,0.2,0.4,0.3,0.7,0.3H17v0.6h-5.3V20.8z M15.8,16.7h4.1l-2-5.9
						L15.8,16.7z"/>
				</g>
			</g>
		</g>
		<g>
			<g>
				<g>
					<path class="st2" d="M140,201.7h5.3v0.6h-1.2c-0.3,0-0.6,0.1-0.7,0.3c-0.1,0.2-0.2,0.5-0.2,0.7s0.1,0.6,0.3,1.1l0.5,1.3h4.5
						l0.9-2.6c0.1-0.1,0.1-0.3,0.1-0.4c0-0.1-0.1-0.2-0.2-0.3c-0.1-0.1-0.3-0.1-0.5-0.1h-1.3v-0.6h6v0.6h-1.1
						c-0.3,0-0.5,0.1-0.7,0.2c-0.2,0.1-0.3,0.3-0.5,0.7l-4.2,12.3h-0.5l-4.2-11.8c-0.3-0.9-0.9-1.4-1.7-1.4h-0.7L140,201.7
						L140,201.7z M146.3,212.3l2-5.9h-4.1L146.3,212.3z"/>
				</g>
			</g>
		</g>
	</g>
</g>
</svg>
