<?xml version="1.0" encoding="utf-8"?>
<!-- Generator: Adobe Illustrator 27.6.1, SVG Export Plug-In . SVG Version: 6.00 Build 0)  -->
<svg version="1.1" id="Слой_1" xmlns="http://www.w3.org/2000/svg" xmlns:xlink="http://www.w3.org/1999/xlink" x="0px" y="0px"
	 viewBox="0 0 167 233.4" style="enable-background:new 0 0 167 233.4;" xml:space="preserve">
<style type="text/css">
	.st0{fill:#FFFFFF;}
	.st1{fill:#32A8E0;}
	.st2{fill:#0C0D0D;}
	.st3{fill:#020203;}
</style>
<g>
	<g>
		<g>
			<path class="st0" d="M160.8,233.2H6.3c-3.3,0-5.9-2.7-5.9-5.9V6.3c0-3.3,2.7-5.9,5.9-5.9h154.5c3.3,0,5.9,2.7,5.9,5.9v221
				C166.7,230.6,164,233.2,160.8,233.2z"/>
			<path class="st1" d="M160.8,233.3H6.3c-3.3,0-6.1-2.7-6.1-6.1V6.3c0-3.4,2.7-6.1,6.1-6.1h154.5c3.3,0,6.1,2.7,6.1,6.1v221
				C166.8,230.6,164.1,233.3,160.8,233.3z M6.3,0.4C3.1,0.4,0.5,3,0.5,6.2v221c0,3.2,2.6,5.8,5.8,5.8h154.5c3.2,0,5.8-2.6,5.8-5.8
				V6.3c0-3.2-2.6-5.8-5.8-5.8L6.3,0.4L6.3,0.4z"/>
		</g>
	</g>
	<g>
		<path class="st0" d="M149.4,18.7c0,0.3-0.3,0.6-0.6,0.6s-0.6-0.3-0.6-0.6s0.3-0.6,0.6-0.6C149.2,18.1,149.4,18.4,149.4,18.7z"/>
	</g>
	<g>
		<path class="st0" d="M122.3,18.7c0,0.3-0.3,0.6-0.6,0.6c-0.3,0-0.6-0.3-0.6-0.6s0.3-0.6,0.6-0.6S122.3,18.4,122.3,18.7z"/>
	</g>
	<g>
		<path class="st0" d="M97.3,18.7c0,0.3-0.3,0.6-0.6,0.6c-0.3,0-0.6-0.3-0.6-0.6s0.3-0.6,0.6-0.6C97.1,18.1,97.3,18.4,97.3,18.7z"/>
	</g>
	<g>
		<path class="st0" d="M72.3,18.9c0,0.3-0.3,0.6-0.6,0.6c-0.3,0-0.6-0.3-0.6-0.6s0.3-0.6,0.6-0.6S72.3,18.6,72.3,18.9z"/>
	</g>
	<g>
		<path class="st0" d="M149.4,39.8c0,0.3-0.3,0.6-0.6,0.6s-0.6-0.3-0.6-0.6s0.3-0.6,0.6-0.6C149.2,39.3,149.4,39.5,149.4,39.8z"/>
	</g>
	<g>
		<path class="st0" d="M149.4,59.1c0,0.3-0.3,0.6-0.6,0.6s-0.6-0.3-0.6-0.6s0.3-0.6,0.6-0.6C149.2,58.5,149.4,58.8,149.4,59.1z"/>
	</g>
	<g>
		<path class="st0" d="M149.4,79.3c0,0.3-0.3,0.6-0.6,0.6s-0.6-0.3-0.6-0.6c0-0.3,0.3-0.6,0.6-0.6C149.2,78.8,149.4,79,149.4,79.3z"
			/>
	</g>
	<g>
		<path class="st0" d="M149.4,92.1c0,0.3-0.3,0.6-0.6,0.6s-0.6-0.3-0.6-0.6c0-0.3,0.3-0.6,0.6-0.6C149.2,91.5,149.4,91.8,149.4,92.1
			z"/>
	</g>
	<g>
		<path class="st0" d="M149.4,104.9c0,0.3-0.3,0.6-0.6,0.6s-0.6-0.3-0.6-0.6c0-0.3,0.3-0.6,0.6-0.6
			C149.2,104.4,149.4,104.6,149.4,104.9z"/>
	</g>
	<g>
		<path class="st0" d="M19.1,19.2c0,0.3-0.3,0.6-0.6,0.6c-0.3,0-0.6-0.3-0.6-0.6s0.3-0.6,0.6-0.6C18.9,18.7,19.1,18.9,19.1,19.2z"/>
	</g>
	<g>
		<path class="st0" d="M46.6,18.9c0,0.3-0.3,0.6-0.6,0.6s-0.6-0.3-0.6-0.6s0.3-0.6,0.6-0.6S46.6,18.6,46.6,18.9z"/>
	</g>
	<g>
		<path class="st0" d="M19.1,39.4c0,0.3-0.3,0.6-0.6,0.6c-0.3,0-0.6-0.3-0.6-0.6s0.3-0.6,0.6-0.6C18.9,38.8,19.1,39.1,19.1,39.4z"/>
	</g>
	<g>
		<path class="st0" d="M19.1,59.2c0,0.3-0.3,0.6-0.6,0.6c-0.3,0-0.6-0.3-0.6-0.6s0.3-0.6,0.6-0.6C18.9,58.7,19.1,58.9,19.1,59.2z"/>
	</g>
	<g>
		<path class="st0" d="M19.1,79.2c0,0.3-0.3,0.6-0.6,0.6c-0.3,0-0.6-0.3-0.6-0.6s0.3-0.6,0.6-0.6C18.9,78.6,19.1,78.9,19.1,79.2z"/>
	</g>
	<g>
		<path class="st0" d="M19.1,92.1c0,0.3-0.3,0.6-0.6,0.6c-0.3,0-0.6-0.3-0.6-0.6c0-0.3,0.3-0.6,0.6-0.6
			C18.9,91.5,19.1,91.8,19.1,92.1z"/>
	</g>
	<g>
		<path class="st0" d="M19.1,105.5c0,0.3-0.3,0.6-0.6,0.6c-0.3,0-0.6-0.3-0.6-0.6c0-0.3,0.3-0.6,0.6-0.6
			C18.9,104.9,19.1,105.2,19.1,105.5z"/>
	</g>
	<g>
		<path class="st0" d="M19.1,118.4c0,0.3-0.3,0.6-0.6,0.6c-0.3,0-0.6-0.3-0.6-0.6s0.3-0.6,0.6-0.6C18.9,117.9,19.1,118.1,19.1,118.4
			z"/>
	</g>
	<g>
		<path class="st0" d="M19.1,131.4c0,0.3-0.3,0.6-0.6,0.6c-0.3,0-0.6-0.3-0.6-0.6s0.3-0.6,0.6-0.6C18.9,130.8,19.1,131.1,19.1,131.4
			z"/>
	</g>
	<g>
		<path class="st0" d="M19.1,144.8c0,0.3-0.3,0.6-0.6,0.6c-0.3,0-0.6-0.3-0.6-0.6s0.3-0.6,0.6-0.6C18.9,144.2,19.1,144.5,19.1,144.8
			z"/>
	</g>
	<g>
		<path class="st0" d="M19.1,158.2c0,0.3-0.3,0.6-0.6,0.6c-0.3,0-0.6-0.3-0.6-0.6s0.3-0.6,0.6-0.6C18.9,157.6,19.1,157.9,19.1,158.2
			z"/>
	</g>
	<g>
		<path class="st0" d="M19.1,170.2c0,0.3-0.3,0.6-0.6,0.6c-0.3,0-0.6-0.3-0.6-0.6s0.3-0.6,0.6-0.6C18.9,169.6,19.1,169.9,19.1,170.2
			z"/>
	</g>
	<g>
		<path class="st0" d="M19.1,183.6c0,0.3-0.3,0.6-0.6,0.6c-0.3,0-0.6-0.3-0.6-0.6s0.3-0.6,0.6-0.6C18.9,183,19.1,183.3,19.1,183.6z"
			/>
	</g>
	<g>
		<path class="st0" d="M19.1,196.6c0,0.3-0.3,0.6-0.6,0.6c-0.3,0-0.6-0.3-0.6-0.6s0.3-0.6,0.6-0.6C18.9,196.1,19.1,196.3,19.1,196.6
			z"/>
	</g>
	<g>
		<path class="st0" d="M19.4,215.8c0,0.3-0.3,0.6-0.6,0.6s-0.6-0.3-0.6-0.6s0.3-0.6,0.6-0.6S19.4,215.5,19.4,215.8z"/>
	</g>
	<g>
		<path class="st0" d="M39.9,216.4c0,0.3-0.3,0.6-0.6,0.6s-0.6-0.3-0.6-0.6s0.3-0.6,0.6-0.6C39.6,215.8,39.9,216.1,39.9,216.4z"/>
	</g>
	<g>
		<path class="st0" d="M66.3,216.4c0,0.3-0.3,0.6-0.6,0.6s-0.6-0.3-0.6-0.6s0.3-0.6,0.6-0.6S66.3,216.1,66.3,216.4z"/>
	</g>
	<g>
		<path class="st0" d="M92.7,216.4c0,0.3-0.3,0.6-0.6,0.6s-0.6-0.3-0.6-0.6s0.3-0.6,0.6-0.6S92.7,216.1,92.7,216.4z"/>
	</g>
	<g>
		<path class="st0" d="M118.5,216.4c0,0.3-0.3,0.6-0.6,0.6c-0.3,0-0.6-0.3-0.6-0.6s0.3-0.6,0.6-0.6
			C118.2,215.8,118.5,216.1,118.5,216.4z"/>
	</g>
	<g>
		<path class="st0" d="M149.4,118.1c0,0.3-0.3,0.6-0.6,0.6s-0.6-0.3-0.6-0.6s0.3-0.6,0.6-0.6C149.2,117.6,149.4,117.8,149.4,118.1z"
			/>
	</g>
	<g>
		<path class="st0" d="M149.4,130.5c0,0.3-0.3,0.6-0.6,0.6s-0.6-0.3-0.6-0.6s0.3-0.6,0.6-0.6C149.2,129.9,149.4,130.1,149.4,130.5z"
			/>
	</g>
	<g>
		<path class="st0" d="M149.4,143.7c0,0.3-0.3,0.6-0.6,0.6s-0.6-0.3-0.6-0.6s0.3-0.6,0.6-0.6C149.2,143.2,149.4,143.4,149.4,143.7z"
			/>
	</g>
	<g>
		<path class="st0" d="M149.4,156.9c0,0.3-0.3,0.6-0.6,0.6s-0.6-0.3-0.6-0.6s0.3-0.6,0.6-0.6C149.2,156.3,149.4,156.5,149.4,156.9z"
			/>
	</g>
	<g>
		<path class="st0" d="M149.4,169.6c0,0.3-0.3,0.6-0.6,0.6s-0.6-0.3-0.6-0.6s0.3-0.6,0.6-0.6C149.2,169,149.4,169.3,149.4,169.6z"/>
	</g>
	<g>
		<path class="st0" d="M149.4,182.2c0,0.3-0.3,0.6-0.6,0.6s-0.6-0.3-0.6-0.6s0.3-0.6,0.6-0.6C149.2,181.6,149.4,181.9,149.4,182.2z"
			/>
	</g>
	<g>
		<path class="st0" d="M149.4,195c0,0.3-0.3,0.6-0.6,0.6s-0.6-0.3-0.6-0.6s0.3-0.6,0.6-0.6C149.2,194.5,149.4,194.7,149.4,195z"/>
	</g>
	<g>
		<path class="st0" d="M149.4,214.6c0,0.3-0.3,0.6-0.6,0.6s-0.6-0.3-0.6-0.6s0.3-0.6,0.6-0.6C149.2,214,149.4,214.3,149.4,214.6z"/>
	</g>
	<g>
		<g>
			<path class="st2" d="M23.4,31.6c-1.1-1.2-2.3-2.3-2.8-2.9c-0.4-0.4-0.7-0.8-0.8-0.9v-0.1l0,0l0,0v0.1c-0.1,0.1-0.4,0.5-0.8,0.9
				c-0.5,0.6-1.8,1.7-2.8,2.9c-1.1,1.2-1.2,2.3-1,3.3s1.2,1.9,2.8,1.7c0.5-0.1,0.9-0.3,1.1-0.6c-0.2,1.4-0.9,2.1-0.9,2.1h3.1
				c-0.6-0.6-0.8-1.5-0.8-2.1c0.3,0.3,0.6,0.5,1.1,0.6c1.6,0.2,2.6-0.7,2.8-1.7C24.5,33.9,24.4,32.7,23.4,31.6z"/>
		</g>
		<g>
			<path class="st2" d="M103.8,109.5c-5.9-6.3-12.6-12.5-15.5-15.8c-2.1-2.4-3.6-4.3-4.3-5.1v-0.4c0,0-0.1,0.1-0.2,0.2
				c-0.1-0.1-0.2-0.2-0.2-0.2v0.4c-0.6,0.8-2.1,2.6-4.3,5.1c-2.8,3.3-9.6,9.5-15.4,15.8c-5.8,6.4-6.3,12.7-5.2,18
				c1.1,5.3,6.6,10.2,15.3,9.1c2.7-0.3,4.7-1.6,6.2-3.3c-1,7.5-5,11.3-5,11.3H92c-3.1-3.4-4.2-8.3-4.5-11.3c1.4,1.6,3.4,2.9,6.1,3.2
				c8.7,1.1,14.2-3.9,15.3-9.1C110.1,122.2,109.6,115.9,103.8,109.5z"/>
		</g>
		<g>
			<g>
				<g>
					<path class="st3" d="M13.8,23.6h0.7c0.8,0,1.3-0.5,1.7-1.4l4.2-11.8h0.5l4.2,12.3c0.1,0.3,0.3,0.5,0.5,0.7
						c0.2,0.1,0.4,0.2,0.7,0.2h1.1v0.6h-6v-0.6h1.3c0.2,0,0.4,0,0.5-0.1s0.2-0.2,0.2-0.3c0-0.2,0-0.3-0.1-0.4l-0.9-2.6h-4.5
						l-0.5,1.3c-0.2,0.5-0.3,0.9-0.3,1.1c0,0.3,0.1,0.5,0.2,0.7s0.4,0.3,0.7,0.3h1.2v0.6h-5.3v-0.6H13.8z M17.9,19.5H22l-2-5.9
						L17.9,19.5z"/>
				</g>
			</g>
		</g>
		<g>
			<g>
				<g>
					<path class="st3" d="M142.3,204.5h5.3v0.6h-1.2c-0.4,0-0.6,0.1-0.7,0.3c-0.1,0.2-0.2,0.5-0.2,0.7s0.1,0.6,0.3,1.1l0.5,1.3h4.5
						l0.9-2.6c0.1-0.1,0.1-0.3,0.1-0.4c0-0.1-0.1-0.2-0.2-0.3c-0.1-0.1-0.3-0.1-0.5-0.1h-1.3v-0.6h6v0.6h-1.1
						c-0.3,0-0.5,0.1-0.7,0.2c-0.2,0.1-0.3,0.3-0.5,0.7l-4.2,12.3h-0.5l-4.2-11.8c-0.3-0.9-0.9-1.4-1.7-1.4h-0.7L142.3,204.5
						L142.3,204.5z M148.5,215.2l2-5.9h-4.1L148.5,215.2z"/>
				</g>
			</g>
		</g>
		<g>
			<path class="st2" d="M153.7,197.7c-1.1,1.2-2.3,2.3-2.8,2.9c-0.4,0.4-0.7,0.8-0.8,0.9v0.1l0,0l0,0v-0.1c-0.1-0.1-0.4-0.5-0.8-0.9
				c-0.5-0.6-1.8-1.7-2.8-2.9c-1.1-1.2-1.2-2.3-1-3.3s1.2-1.9,2.8-1.7c0.5,0.1,0.9,0.3,1.1,0.6c-0.2-1.4-0.9-2.1-0.9-2.1h3.1
				c-0.6,0.6-0.8,1.5-0.8,2.1c0.3-0.3,0.6-0.5,1.1-0.6c1.6-0.2,2.6,0.7,2.8,1.7S154.7,196.5,153.7,197.7z"/>
		</g>
	</g>
</g>
</svg>
