<?xml version="1.0" encoding="utf-8"?>
<!-- Generator: Adobe Illustrator 27.6.1, SVG Export Plug-In . SVG Version: 6.00 Build 0)  -->
<svg version="1.1" id="Слой_1" xmlns="http://www.w3.org/2000/svg" xmlns:xlink="http://www.w3.org/1999/xlink" x="0px" y="0px"
	 viewBox="0 0 168.7 235.2" style="enable-background:new 0 0 168.7 235.2;" xml:space="preserve">
<style type="text/css">
	.st0{fill:#FFFFFF;}
	.st1{fill:#32A8E0;}
	.st2{fill:#0C0D0D;}
	.st3{fill:#231F20;}
</style>
<g>
	<g>
		<g>
			<path class="st0" d="M161.6,234H7.1c-3.3,0-5.9-2.7-5.9-5.9V7.1c0-3.3,2.7-5.9,5.9-5.9h154.5c3.3,0,5.9,2.7,5.9,5.9v221
				C167.5,231.4,164.8,234,161.6,234z"/>
			<path class="st1" d="M161.6,234.1H7.1c-3.3,0-6.1-2.7-6.1-6.1V7.1C1,3.7,3.7,1,7.1,1h154.5c3.3,0,6.1,2.7,6.1,6.1v221
				C167.6,231.4,164.9,234.1,161.6,234.1z M7.1,1.2C3.9,1.2,1.3,3.8,1.3,7v221c0,3.2,2.6,5.8,5.8,5.8h154.5c3.2,0,5.8-2.6,5.8-5.8
				V7.1c0-3.2-2.6-5.8-5.8-5.8L7.1,1.2L7.1,1.2z"/>
		</g>
	</g>
	<g>
		<path class="st0" d="M150.2,19.5c0,0.3-0.3,0.6-0.6,0.6s-0.6-0.3-0.6-0.6s0.3-0.6,0.6-0.6C150,18.9,150.2,19.2,150.2,19.5z"/>
	</g>
	<g>
		<path class="st0" d="M123.1,19.5c0,0.3-0.3,0.6-0.6,0.6s-0.6-0.3-0.6-0.6s0.3-0.6,0.6-0.6S123.1,19.2,123.1,19.5z"/>
	</g>
	<g>
		<path class="st0" d="M98.1,19.5c0,0.3-0.3,0.6-0.6,0.6s-0.6-0.3-0.6-0.6s0.3-0.6,0.6-0.6S98.1,19.2,98.1,19.5z"/>
	</g>
	<g>
		<path class="st0" d="M73.1,19.7c0,0.3-0.3,0.6-0.6,0.6c-0.3,0-0.6-0.3-0.6-0.6s0.3-0.6,0.6-0.6S73.1,19.4,73.1,19.7z"/>
	</g>
	<g>
		<path class="st0" d="M150.2,40.6c0,0.3-0.3,0.6-0.6,0.6s-0.6-0.3-0.6-0.6s0.3-0.6,0.6-0.6C150,40.1,150.2,40.3,150.2,40.6z"/>
	</g>
	<g>
		<path class="st0" d="M150.2,59.9c0,0.3-0.3,0.6-0.6,0.6s-0.6-0.3-0.6-0.6s0.3-0.6,0.6-0.6C150,59.3,150.2,59.6,150.2,59.9z"/>
	</g>
	<g>
		<path class="st0" d="M150.2,80.1c0,0.3-0.3,0.6-0.6,0.6s-0.6-0.3-0.6-0.6c0-0.3,0.3-0.6,0.6-0.6C150,79.6,150.2,79.8,150.2,80.1z"
			/>
	</g>
	<g>
		<path class="st0" d="M150.2,92.9c0,0.3-0.3,0.6-0.6,0.6s-0.6-0.3-0.6-0.6c0-0.3,0.3-0.6,0.6-0.6C150,92.3,150.2,92.6,150.2,92.9z"
			/>
	</g>
	<g>
		<path class="st0" d="M150.2,105.7c0,0.3-0.3,0.6-0.6,0.6s-0.6-0.3-0.6-0.6c0-0.3,0.3-0.6,0.6-0.6
			C150,105.2,150.2,105.4,150.2,105.7z"/>
	</g>
	<g>
		<path class="st0" d="M19.9,20c0,0.3-0.3,0.6-0.6,0.6c-0.3,0-0.6-0.3-0.6-0.6c0-0.3,0.3-0.6,0.6-0.6C19.7,19.5,19.9,19.7,19.9,20z"
			/>
	</g>
	<g>
		<path class="st0" d="M47.4,19.7c0,0.3-0.3,0.6-0.6,0.6s-0.6-0.3-0.6-0.6s0.3-0.6,0.6-0.6S47.4,19.4,47.4,19.7z"/>
	</g>
	<g>
		<path class="st0" d="M19.9,40.2c0,0.3-0.3,0.6-0.6,0.6c-0.3,0-0.6-0.3-0.6-0.6s0.3-0.6,0.6-0.6C19.7,39.6,19.9,39.9,19.9,40.2z"/>
	</g>
	<g>
		<path class="st0" d="M19.9,60c0,0.3-0.3,0.6-0.6,0.6c-0.3,0-0.6-0.3-0.6-0.6s0.3-0.6,0.6-0.6C19.7,59.5,19.9,59.7,19.9,60z"/>
	</g>
	<g>
		<path class="st0" d="M19.9,80c0,0.3-0.3,0.6-0.6,0.6c-0.3,0-0.6-0.3-0.6-0.6s0.3-0.6,0.6-0.6C19.7,79.4,19.9,79.7,19.9,80z"/>
	</g>
	<g>
		<path class="st0" d="M19.9,92.9c0,0.3-0.3,0.6-0.6,0.6c-0.3,0-0.6-0.3-0.6-0.6c0-0.3,0.3-0.6,0.6-0.6
			C19.7,92.3,19.9,92.6,19.9,92.9z"/>
	</g>
	<g>
		<path class="st0" d="M19.9,106.3c0,0.3-0.3,0.6-0.6,0.6c-0.3,0-0.6-0.3-0.6-0.6c0-0.3,0.3-0.6,0.6-0.6
			C19.7,105.7,19.9,106,19.9,106.3z"/>
	</g>
	<g>
		<path class="st0" d="M19.9,119.2c0,0.3-0.3,0.6-0.6,0.6c-0.3,0-0.6-0.3-0.6-0.6c0-0.3,0.3-0.6,0.6-0.6
			C19.7,118.7,19.9,118.9,19.9,119.2z"/>
	</g>
	<g>
		<path class="st0" d="M19.9,132.2c0,0.3-0.3,0.6-0.6,0.6c-0.3,0-0.6-0.3-0.6-0.6c0-0.3,0.3-0.6,0.6-0.6
			C19.7,131.6,19.9,131.9,19.9,132.2z"/>
	</g>
	<g>
		<path class="st0" d="M19.9,145.6c0,0.3-0.3,0.6-0.6,0.6c-0.3,0-0.6-0.3-0.6-0.6c0-0.3,0.3-0.6,0.6-0.6
			C19.7,145,19.9,145.4,19.9,145.6z"/>
	</g>
	<g>
		<path class="st0" d="M19.9,159c0,0.3-0.3,0.6-0.6,0.6c-0.3,0-0.6-0.3-0.6-0.6c0-0.3,0.3-0.6,0.6-0.6
			C19.7,158.4,19.9,158.8,19.9,159z"/>
	</g>
	<g>
		<path class="st0" d="M19.9,171c0,0.3-0.3,0.6-0.6,0.6c-0.3,0-0.6-0.3-0.6-0.6c0-0.3,0.3-0.6,0.6-0.6
			C19.7,170.4,19.9,170.8,19.9,171z"/>
	</g>
	<g>
		<path class="st0" d="M19.9,184.4c0,0.3-0.3,0.6-0.6,0.6c-0.3,0-0.6-0.3-0.6-0.6c0-0.3,0.3-0.6,0.6-0.6
			C19.7,183.9,19.9,184.1,19.9,184.4z"/>
	</g>
	<g>
		<path class="st0" d="M19.9,197.4c0,0.3-0.3,0.6-0.6,0.6c-0.3,0-0.6-0.3-0.6-0.6c0-0.3,0.3-0.6,0.6-0.6
			C19.7,196.9,19.9,197.1,19.9,197.4z"/>
	</g>
	<g>
		<path class="st0" d="M20.2,216.6c0,0.3-0.3,0.6-0.6,0.6c-0.3,0-0.6-0.3-0.6-0.6c0-0.3,0.3-0.6,0.6-0.6
			C19.9,216.1,20.2,216.4,20.2,216.6z"/>
	</g>
	<g>
		<path class="st0" d="M40.7,217.2c0,0.3-0.3,0.6-0.6,0.6s-0.6-0.3-0.6-0.6c0-0.3,0.3-0.6,0.6-0.6S40.7,216.9,40.7,217.2z"/>
	</g>
	<g>
		<path class="st0" d="M67.1,217.2c0,0.3-0.3,0.6-0.6,0.6c-0.3,0-0.6-0.3-0.6-0.6c0-0.3,0.3-0.6,0.6-0.6
			C66.9,216.6,67.1,216.9,67.1,217.2z"/>
	</g>
	<g>
		<path class="st0" d="M93.5,217.2c0,0.3-0.3,0.6-0.6,0.6s-0.6-0.3-0.6-0.6c0-0.3,0.3-0.6,0.6-0.6S93.5,216.9,93.5,217.2z"/>
	</g>
	<g>
		<path class="st0" d="M119.3,217.2c0,0.3-0.3,0.6-0.6,0.6s-0.6-0.3-0.6-0.6c0-0.3,0.3-0.6,0.6-0.6S119.3,216.9,119.3,217.2z"/>
	</g>
	<g>
		<path class="st0" d="M150.2,118.9c0,0.3-0.3,0.6-0.6,0.6s-0.6-0.3-0.6-0.6s0.3-0.6,0.6-0.6C150,118.4,150.2,118.6,150.2,118.9z"/>
	</g>
	<g>
		<path class="st0" d="M150.2,131.4c0,0.3-0.3,0.6-0.6,0.6s-0.6-0.3-0.6-0.6c0-0.3,0.3-0.6,0.6-0.6
			C150,130.8,150.2,130.9,150.2,131.4z"/>
	</g>
	<g>
		<path class="st0" d="M150.2,144.5c0,0.3-0.3,0.6-0.6,0.6s-0.6-0.3-0.6-0.6c0-0.3,0.3-0.6,0.6-0.6C150,144,150.2,144.2,150.2,144.5
			z"/>
	</g>
	<g>
		<path class="st0" d="M150.2,157.8c0,0.3-0.3,0.6-0.6,0.6s-0.6-0.3-0.6-0.6c0-0.3,0.3-0.6,0.6-0.6
			C150,157.1,150.2,157.4,150.2,157.8z"/>
	</g>
	<g>
		<path class="st0" d="M150.2,170.4c0,0.3-0.3,0.6-0.6,0.6s-0.6-0.3-0.6-0.6c0-0.3,0.3-0.6,0.6-0.6
			C150,169.9,150.2,170.1,150.2,170.4z"/>
	</g>
	<g>
		<path class="st0" d="M150.2,183c0,0.3-0.3,0.6-0.6,0.6s-0.6-0.3-0.6-0.6c0-0.3,0.3-0.6,0.6-0.6C150,182.4,150.2,182.8,150.2,183z"
			/>
	</g>
	<g>
		<path class="st0" d="M150.2,195.9c0,0.3-0.3,0.6-0.6,0.6s-0.6-0.3-0.6-0.6c0-0.3,0.3-0.6,0.6-0.6
			C150,195.4,150.2,195.5,150.2,195.9z"/>
	</g>
	<g>
		<path class="st0" d="M150.2,215.4c0,0.3-0.3,0.6-0.6,0.6s-0.6-0.3-0.6-0.6c0-0.3,0.3-0.6,0.6-0.6
			C150,214.9,150.2,215.1,150.2,215.4z"/>
	</g>
	<g>
		<g>
			<path class="st2" d="M99.9,186.5c-3.6,3.9-9.1,1.6-9.1,1.6c1.5,1.6,2.6,2.9,2.4,5.6c0,0.1,0,0.2,0,0.3c0,4.3-3.5,7.7-7.7,7.7
				s-7.8-3.5-7.8-7.7c0-0.5,0.1-1.1,0.2-1.6c0.2-1.9,1.1-3,2.4-4.3c0,0-5.5,2.3-9.1-1.6s-1.8-8.5-0.7-10.1c1.1-1.5,2.8-4.1,6.8-3.8
				c3.5,0.3,4,0.9,6.5,2.8c-0.3-5.3-3.5-8.9-3.5-8.9h0.2h5.1h5.1h0.2c-1.9,2-3.7,6.7-3.4,8.9c2.4-1.9,2.9-2.5,6.4-2.7
				c4-0.3,5.7,2.3,6.8,3.8C101.7,177.9,103.5,182.6,99.9,186.5z"/>
		</g>
		<g>
			<g>
				<g>
					<path class="st3" d="M16.7,24.1c0.3-0.7,0.9-1.4,1.8-2.3l1.9-1.6c0.6-0.5,1.1-1.1,1.4-1.7s0.5-1.3,0.5-2.1c0-1-0.2-1.8-0.7-2.3
						c-0.5-0.6-1.2-0.8-2.1-0.8c-0.4,0-0.8,0.1-1.2,0.3c-0.4,0.2-0.7,0.4-0.9,0.8c-0.2,0.3-0.4,0.6-0.4,1c0,0.3,0.1,0.5,0.2,0.7
						c0.1,0.1,0.3,0.2,0.6,0.3c0.4,0.1,0.7,0.2,0.9,0.4c0.2,0.2,0.3,0.5,0.3,0.8c0,0.2-0.1,0.5-0.3,0.6c-0.2,0.2-0.4,0.3-0.7,0.3
						c-0.5,0-1-0.2-1.3-0.6c-0.3-0.4-0.5-1-0.5-1.7c0-0.7,0.2-1.3,0.5-1.8c0.3-0.5,0.8-0.9,1.4-1.2s1.2-0.4,2-0.4s1.6,0.2,2.2,0.5
						c0.7,0.3,1.2,0.8,1.6,1.3c0.4,0.6,0.6,1.3,0.6,2.1c0,0.8-0.3,1.5-0.8,2.1c-0.6,0.6-1.3,1.3-2.2,1.9l-1.9,1.5
						c-0.5,0.4-1,0.7-1.3,1.1c-0.3,0.3-0.4,0.7-0.4,1.1c0,0.3,0.2,0.5,0.6,0.5h3.7c0.5,0,0.9-0.1,1.1-0.3c0.2-0.2,0.4-0.5,0.4-1
						l0.2-1.1h0.4l-0.3,4h-7.6C16.3,25.5,16.5,24.8,16.7,24.1z"/>
				</g>
			</g>
		</g>
		<g>
			<g>
				<path class="st3" d="M155.2,209.8c-0.3,0.7-0.9,1.4-1.8,2.3l-1.9,1.6c-0.6,0.5-1.1,1.1-1.4,1.7c-0.3,0.6-0.5,1.3-0.5,2.1
					c0,1,0.2,1.8,0.7,2.3c0.5,0.6,1.2,0.8,2.1,0.8c0.4,0,0.8-0.1,1.2-0.3c0.4-0.2,0.7-0.4,0.9-0.8c0.2-0.3,0.4-0.6,0.4-1
					c0-0.3-0.1-0.5-0.2-0.7c-0.1-0.1-0.3-0.2-0.6-0.3c-0.4-0.1-0.7-0.2-0.9-0.4c-0.2-0.2-0.3-0.5-0.3-0.8c0-0.2,0.1-0.5,0.3-0.6
					c0.2-0.2,0.4-0.3,0.7-0.3c0.5,0,1,0.2,1.3,0.6c0.3,0.4,0.5,1,0.5,1.7c0,0.7-0.2,1.3-0.5,1.8s-0.8,0.9-1.4,1.2
					c-0.6,0.3-1.2,0.4-2,0.4s-1.6-0.2-2.2-0.5c-0.7-0.3-1.2-0.8-1.6-1.3c-0.4-0.6-0.6-1.3-0.6-2.1c0-0.8,0.3-1.5,0.8-2.1
					c0.6-0.6,1.3-1.3,2.2-1.9l1.9-1.5c0.5-0.4,1-0.7,1.3-1.1c0.3-0.3,0.4-0.7,0.4-1.1c0-0.3-0.2-0.5-0.6-0.5h-3.7
					c-0.5,0-0.9,0.1-1.1,0.3c-0.2,0.2-0.4,0.5-0.4,1l-0.2,1.1h-0.4l0.3-4h7.6C155.6,208.4,155.5,209,155.2,209.8z"/>
			</g>
		</g>
		<g>
			<path class="st2" d="M15.9,35.2c1,1.1,2.6,0.5,2.6,0.5c-0.4,0.5-0.7,0.9-0.7,1.6v0.1c0,1.2,1,2.2,2.2,2.2s2.2-1,2.2-2.2
				c0-0.2,0-0.3,0-0.5c-0.1-0.5-0.3-0.9-0.7-1.3c0,0,1.6,0.7,2.6-0.5c1-1.1,0.5-2.5,0.2-2.9c-0.3-0.4-0.8-1.2-2-1.1
				c-1,0.1-1.2,0.2-1.9,0.8c0.1-1.5,1-2.6,1-2.6h-0.1h-1.5h-1.5h-0.1c0.6,0.6,1.1,1.9,1,2.6c-0.7-0.5-0.8-0.7-1.8-0.8
				c-1.1-0.1-1.6,0.7-2,1.1C15.4,32.8,14.9,34.1,15.9,35.2z"/>
		</g>
		<g>
			<path class="st2" d="M99.9,42.3c-3.6-3.9-9.1-1.6-9.1-1.6c1.5-1.6,2.6-2.9,2.4-5.6c0-0.1,0-0.2,0-0.3c0-4.3-3.5-7.7-7.7-7.7
				s-7.8,3.4-7.8,7.7c0,0.5,0.1,1.1,0.2,1.6c0.2,1.9,1.1,3,2.4,4.3c0,0-5.5-2.3-9.1,1.6s-1.8,8.5-0.7,10.1c1.1,1.5,2.8,4.1,6.8,3.8
				c3.5-0.3,4-0.9,6.5-2.8c-0.3,5.3-3.5,8.9-3.5,8.9h0.2h5.1h5.1h0.2c-1.9-2-3.7-6.7-3.4-8.9c2.4,1.9,2.9,2.5,6.4,2.7
				c4,0.3,5.7-2.3,6.8-3.8C101.7,50.9,103.5,46.2,99.9,42.3z"/>
		</g>
		<g>
			<path class="st2" d="M146.2,198.4c1-1.1,2.6-0.5,2.6-0.5c-0.4-0.5-0.7-0.9-0.7-1.6v-0.1c0-1.2,1-2.2,2.2-2.2s2.2,1,2.2,2.2
				c0,0.2,0,0.3,0,0.5c-0.1,0.5-0.3,0.9-0.7,1.3c0,0,1.6-0.7,2.6,0.5c1,1.1,0.5,2.5,0.2,2.9s-0.8,1.2-2,1.1c-1-0.1-1.2-0.2-1.9-0.8
				c0.1,1.5,1,2.6,1,2.6h-0.1h-1.5h-1.5h-0.1c0.6-0.6,1.1-1.9,1-2.6c-0.7,0.5-0.8,0.7-1.8,0.8c-1.1,0.1-1.6-0.7-2-1.1
				C145.7,200.9,145.2,199.5,146.2,198.4z"/>
		</g>
	</g>
</g>
</svg>
