<?xml version="1.0" encoding="utf-8"?>
<!-- Generator: Adobe Illustrator 27.6.1, SVG Export Plug-In . SVG Version: 6.00 Build 0)  -->
<svg version="1.1" id="Слой_1" xmlns="http://www.w3.org/2000/svg" xmlns:xlink="http://www.w3.org/1999/xlink" x="0px" y="0px"
	 viewBox="0 0 167.7 234" style="enable-background:new 0 0 167.7 234;" xml:space="preserve">
<style type="text/css">
	.st0{fill:#FFFFFF;}
	.st1{fill:#2CA8DF;}
	.st2{fill:#CC0601;}
	.st3{fill:#BD3C2E;}
</style>
<g>
	<g>
		<g>
			<path class="st0" d="M161,233.5H6.6c-3.3,0-5.9-2.7-5.9-5.9V6.6c0-3.3,2.7-5.9,5.9-5.9H161c3.3,0,5.9,2.7,5.9,5.9v221
				C166.9,230.9,164.3,233.5,161,233.5z"/>
			<path class="st1" d="M161,233.6H6.6c-3.3,0-6.1-2.7-6.1-6.1V6.6c0-3.3,2.7-6.1,6.1-6.1H161c3.3,0,6.1,2.7,6.1,6.1v221
				C167.1,230.9,164.3,233.6,161,233.6z M6.6,0.8c-3.2,0-5.8,2.6-5.8,5.8v221c0,3.2,2.6,5.8,5.8,5.8H161c3.2,0,5.8-2.6,5.8-5.8V6.6
				c0-3.2-2.6-5.8-5.8-5.8H6.6z"/>
		</g>
	</g>
	<g>
		<path class="st0" d="M149.7,19.1c0,0.3-0.3,0.6-0.6,0.6c-0.3,0-0.6-0.3-0.6-0.6s0.3-0.6,0.6-0.6C149.4,18.5,149.7,18.7,149.7,19.1
			z"/>
	</g>
	<g>
		<circle class="st0" cx="122" cy="19.1" r="0.6"/>
	</g>
	<g>
		<path class="st0" d="M97.6,19.1c0,0.3-0.3,0.6-0.6,0.6c-0.3,0-0.6-0.3-0.6-0.6s0.3-0.6,0.6-0.6C97.4,18.5,97.6,18.7,97.6,19.1z"/>
	</g>
	<g>
		<circle class="st0" cx="72" cy="19.2" r="0.6"/>
	</g>
	<g>
		<path class="st0" d="M149.7,40.2c0,0.3-0.3,0.6-0.6,0.6c-0.3,0-0.6-0.3-0.6-0.6c0-0.3,0.3-0.6,0.6-0.6
			C149.4,39.6,149.7,39.9,149.7,40.2z"/>
	</g>
	<g>
		<path class="st0" d="M149.7,59.5c0,0.3-0.3,0.6-0.6,0.6c-0.3,0-0.6-0.3-0.6-0.6c0-0.3,0.3-0.6,0.6-0.6
			C149.4,58.9,149.7,59.2,149.7,59.5z"/>
	</g>
	<g>
		<path class="st0" d="M149.7,79.7c0,0.3-0.3,0.6-0.6,0.6c-0.3,0-0.6-0.3-0.6-0.6c0-0.3,0.3-0.6,0.6-0.6
			C149.4,79.1,149.7,79.4,149.7,79.7z"/>
	</g>
	<g>
		<path class="st0" d="M149.7,92.5c0,0.3-0.3,0.6-0.6,0.6c-0.3,0-0.6-0.3-0.6-0.6c0-0.3,0.3-0.6,0.6-0.6
			C149.4,91.9,149.7,92.2,149.7,92.5z"/>
	</g>
	<g>
		<path class="st0" d="M149.7,105.3c0,0.3-0.3,0.6-0.6,0.6c-0.3,0-0.6-0.3-0.6-0.6c0-0.3,0.3-0.6,0.6-0.6
			C149.4,104.7,149.7,105,149.7,105.3z"/>
	</g>
	<g>
		<circle class="st0" cx="18.9" cy="19.6" r="0.6"/>
	</g>
	<g>
		<circle class="st0" cx="46.3" cy="19.2" r="0.6"/>
	</g>
	<g>
		<circle class="st0" cx="18.9" cy="39.7" r="0.6"/>
	</g>
	<g>
		<circle class="st0" cx="18.9" cy="59.6" r="0.6"/>
	</g>
	<g>
		<circle class="st0" cx="18.9" cy="79.5" r="0.6"/>
	</g>
	<g>
		<circle class="st0" cx="18.9" cy="92.5" r="0.6"/>
	</g>
	<g>
		<circle class="st0" cx="18.9" cy="105.9" r="0.6"/>
	</g>
	<g>
		<circle class="st0" cx="18.9" cy="118.8" r="0.6"/>
	</g>
	<g>
		<circle class="st0" cx="18.9" cy="131.7" r="0.6"/>
	</g>
	<g>
		<circle class="st0" cx="18.9" cy="145.1" r="0.6"/>
	</g>
	<g>
		<circle class="st0" cx="18.9" cy="158.5" r="0.6"/>
	</g>
	<g>
		<circle class="st0" cx="18.9" cy="170.5" r="0.6"/>
	</g>
	<g>
		<path class="st0" d="M19.5,183.9c0,0.3-0.3,0.6-0.6,0.6c-0.3,0-0.6-0.3-0.6-0.6c0-0.3,0.3-0.6,0.6-0.6
			C19.2,183.4,19.5,183.6,19.5,183.9z"/>
	</g>
	<g>
		<circle class="st0" cx="18.9" cy="197" r="0.6"/>
	</g>
	<g>
		<circle class="st0" cx="19.1" cy="216.1" r="0.6"/>
	</g>
	<g>
		<circle class="st0" cx="39.6" cy="216.7" r="0.6"/>
	</g>
	<g>
		<circle class="st0" cx="66.1" cy="216.7" r="0.6"/>
	</g>
	<g>
		<circle class="st0" cx="92.5" cy="216.7" r="0.6"/>
	</g>
	<g>
		<path class="st0" d="M118.7,216.7c0,0.3-0.3,0.6-0.6,0.6c-0.3,0-0.6-0.3-0.6-0.6c0-0.3,0.3-0.6,0.6-0.6
			C118.5,216.1,118.7,216.4,118.7,216.7z"/>
	</g>
	<g>
		<path class="st0" d="M149.7,118.5c0,0.3-0.3,0.6-0.6,0.6c-0.3,0-0.6-0.3-0.6-0.6c0-0.3,0.3-0.6,0.6-0.6
			C149.4,117.9,149.7,118.2,149.7,118.5z"/>
	</g>
	<g>
		<path class="st0" d="M149.7,130.8c0,0.3-0.3,0.6-0.6,0.6c-0.3,0-0.6-0.3-0.6-0.6s0.3-0.6,0.6-0.6
			C149.4,130.2,149.7,130.5,149.7,130.8z"/>
	</g>
	<g>
		<path class="st0" d="M149.7,144.1c0,0.3-0.3,0.6-0.6,0.6c-0.3,0-0.6-0.3-0.6-0.6s0.3-0.6,0.6-0.6
			C149.4,143.5,149.7,143.8,149.7,144.1z"/>
	</g>
	<g>
		<path class="st0" d="M149.7,157.2c0,0.3-0.3,0.6-0.6,0.6c-0.3,0-0.6-0.3-0.6-0.6s0.3-0.6,0.6-0.6
			C149.4,156.6,149.7,156.9,149.7,157.2z"/>
	</g>
	<g>
		<path class="st0" d="M149.7,169.9c0,0.3-0.3,0.6-0.6,0.6c-0.3,0-0.6-0.3-0.6-0.6c0-0.3,0.3-0.6,0.6-0.6
			C149.4,169.4,149.7,169.6,149.7,169.9z"/>
	</g>
	<g>
		<path class="st0" d="M149.7,182.5c0,0.3-0.3,0.6-0.6,0.6c-0.3,0-0.6-0.3-0.6-0.6s0.3-0.6,0.6-0.6
			C149.4,181.9,149.7,182.2,149.7,182.5z"/>
	</g>
	<g>
		<path class="st0" d="M149.7,195.4c0,0.3-0.3,0.6-0.6,0.6c-0.3,0-0.6-0.3-0.6-0.6c0-0.3,0.3-0.6,0.6-0.6
			C149.4,194.8,149.7,195,149.7,195.4z"/>
	</g>
	<g>
		<path class="st0" d="M149.7,214.9c0,0.3-0.3,0.6-0.6,0.6c-0.3,0-0.6-0.3-0.6-0.6c0-0.3,0.3-0.6,0.6-0.6
			C149.4,214.3,149.7,214.6,149.7,214.9z"/>
	</g>
	<g>
		<g>
			<polygon class="st2" points="82.9,17.9 69.7,34 82.9,50.4 96.6,34.1 			"/>
		</g>
		<g>
			<polygon class="st2" points="82.9,167.4 69.7,183.6 82.9,200 96.6,183.7 			"/>
		</g>
		<g>
			<polygon class="st2" points="17.8,25 13.1,30.2 17.3,36 22.1,30.7 			"/>
		</g>
		<g>
			<polygon class="st2" points="149.9,186.3 145.2,191.6 149.4,197.3 154.2,192 			"/>
		</g>
		<g>
			<g>
				<g>
					<path class="st3" d="M13.9,19.8c0.3-0.7,0.9-1.4,1.8-2.3l1.9-1.6c0.6-0.5,1.1-1.1,1.4-1.7c0.3-0.6,0.5-1.3,0.5-2.1
						c0-1-0.2-1.8-0.7-2.3C18.2,9.3,17.5,9,16.6,9c-0.4,0-0.8,0.1-1.2,0.3c-0.4,0.2-0.7,0.4-0.9,0.8c-0.2,0.3-0.4,0.6-0.4,1
						c0,0.3,0.1,0.5,0.2,0.7c0.1,0.1,0.3,0.2,0.6,0.3c0.4,0.1,0.7,0.2,0.9,0.4c0.2,0.2,0.3,0.5,0.3,0.8c0,0.2-0.1,0.5-0.3,0.6
						c-0.2,0.2-0.4,0.3-0.7,0.3c-0.5,0-1-0.2-1.3-0.6c-0.3-0.4-0.5-1-0.5-1.7c0-0.7,0.2-1.3,0.5-1.8c0.3-0.5,0.8-0.9,1.4-1.2
						c0.6-0.3,1.2-0.4,2-0.4c0.8,0,1.6,0.2,2.2,0.5c0.7,0.3,1.2,0.8,1.6,1.3c0.4,0.6,0.6,1.3,0.6,2.1c0,0.8-0.3,1.5-0.8,2.1
						c-0.6,0.6-1.3,1.3-2.2,1.9l-1.9,1.5c-0.5,0.4-1,0.7-1.3,1.1c-0.3,0.3-0.4,0.7-0.4,1.1c0,0.3,0.2,0.5,0.6,0.5h3.7
						c0.5,0,0.9-0.1,1.1-0.3c0.2-0.2,0.4-0.5,0.4-1l0.2-1.1h0.4l-0.3,4h-7.6C13.4,21.2,13.6,20.5,13.9,19.8z"/>
				</g>
			</g>
		</g>
		<g>
			<g>
				<g>
					<path class="st2" d="M152.2,204.2c-0.3,0.7-0.9,1.4-1.8,2.3l-1.9,1.6c-0.6,0.5-1.1,1.1-1.4,1.7c-0.3,0.6-0.5,1.3-0.5,2.1
						c0,1,0.2,1.8,0.7,2.3c0.5,0.5,1.2,0.8,2.1,0.8c0.4,0,0.8-0.1,1.2-0.3c0.4-0.2,0.7-0.4,0.9-0.8c0.2-0.3,0.4-0.6,0.4-1
						c0-0.3-0.1-0.5-0.2-0.7s-0.3-0.2-0.6-0.3c-0.4-0.1-0.7-0.2-0.9-0.4c-0.2-0.2-0.3-0.5-0.3-0.8c0-0.2,0.1-0.5,0.3-0.6
						c0.2-0.2,0.4-0.3,0.7-0.3c0.5,0,1,0.2,1.3,0.6c0.3,0.4,0.5,1,0.5,1.7c0,0.7-0.2,1.3-0.5,1.8c-0.3,0.5-0.8,0.9-1.4,1.2
						c-0.6,0.3-1.2,0.4-2,0.4c-0.8,0-1.6-0.2-2.2-0.5c-0.7-0.3-1.2-0.8-1.6-1.3c-0.4-0.6-0.6-1.3-0.6-2.1c0-0.8,0.3-1.5,0.8-2.1
						c0.6-0.6,1.3-1.3,2.2-1.9l1.9-1.5c0.5-0.4,1-0.7,1.3-1.1c0.3-0.3,0.4-0.7,0.4-1.1c0-0.3-0.2-0.5-0.6-0.5H147
						c-0.5,0-0.9,0.1-1.1,0.3c-0.2,0.2-0.4,0.5-0.4,1l-0.2,1.1h-0.4l0.3-4h7.6C152.6,202.8,152.5,203.5,152.2,204.2z"/>
				</g>
			</g>
		</g>
	</g>
</g>
</svg>
