<?xml version="1.0" encoding="utf-8"?>
<!-- Generator: Adobe Illustrator 27.6.1, SVG Export Plug-In . SVG Version: 6.00 Build 0)  -->
<svg version="1.1" id="Слой_1" xmlns="http://www.w3.org/2000/svg" xmlns:xlink="http://www.w3.org/1999/xlink" x="0px" y="0px"
	 viewBox="0 0 168.1 234.1" style="enable-background:new 0 0 168.1 234.1;" xml:space="preserve">
<style type="text/css">
	.st0{fill:#FFFFFF;}
	.st1{fill:#32A8E0;}
	.st2{fill:#CD1417;}
	.st3{fill:#BE3D2E;}
</style>
<g>
	<g>
		<g>
			<path class="st0" d="M161.3,233.5H6.8c-3.3,0-5.9-2.7-5.9-5.9V6.6c0-3.3,2.7-5.9,5.9-5.9h154.5c3.3,0,5.9,2.7,5.9,5.9v221
				C167.2,230.9,164.5,233.5,161.3,233.5z"/>
			<path class="st1" d="M161.3,233.6H6.8c-3.3,0-6.1-2.7-6.1-6.1V6.6c0-3.4,2.7-6.1,6.1-6.1h154.5c3.3,0,6.1,2.7,6.1,6.1v221
				C167.3,230.9,164.6,233.6,161.3,233.6z M6.8,0.7C3.6,0.7,1,3.3,1,6.5v221c0,3.2,2.6,5.8,5.8,5.8h154.5c3.2,0,5.8-2.6,5.8-5.8V6.6
				c0-3.2-2.6-5.8-5.8-5.8L6.8,0.7L6.8,0.7z"/>
		</g>
	</g>
	<g>
		<path class="st0" d="M149.9,19c0,0.3-0.3,0.6-0.6,0.6s-0.6-0.3-0.6-0.6s0.3-0.6,0.6-0.6C149.7,18.4,149.9,18.7,149.9,19z"/>
	</g>
	<g>
		<path class="st0" d="M122.8,19c0,0.3-0.3,0.6-0.6,0.6c-0.3,0-0.6-0.3-0.6-0.6s0.3-0.6,0.6-0.6S122.8,18.7,122.8,19z"/>
	</g>
	<g>
		<path class="st0" d="M97.8,19c0,0.3-0.3,0.6-0.6,0.6c-0.3,0-0.6-0.3-0.6-0.6s0.3-0.6,0.6-0.6C97.6,18.4,97.8,18.7,97.8,19z"/>
	</g>
	<g>
		<path class="st0" d="M72.8,19.2c0,0.3-0.3,0.6-0.6,0.6c-0.3,0-0.6-0.3-0.6-0.6s0.3-0.6,0.6-0.6S72.8,18.9,72.8,19.2z"/>
	</g>
	<g>
		<path class="st0" d="M149.9,40.1c0,0.3-0.3,0.6-0.6,0.6s-0.6-0.3-0.6-0.6s0.3-0.6,0.6-0.6C149.7,39.6,149.9,39.8,149.9,40.1z"/>
	</g>
	<g>
		<path class="st0" d="M149.9,59.4c0,0.3-0.3,0.6-0.6,0.6s-0.6-0.3-0.6-0.6c0-0.3,0.3-0.6,0.6-0.6C149.7,58.8,149.9,59.1,149.9,59.4
			z"/>
	</g>
	<g>
		<path class="st0" d="M149.9,79.6c0,0.3-0.3,0.6-0.6,0.6s-0.6-0.3-0.6-0.6c0-0.3,0.3-0.6,0.6-0.6C149.7,79.1,149.9,79.3,149.9,79.6
			z"/>
	</g>
	<g>
		<path class="st0" d="M149.9,92.4c0,0.3-0.3,0.6-0.6,0.6s-0.6-0.3-0.6-0.6c0-0.3,0.3-0.6,0.6-0.6C149.7,91.8,149.9,92.1,149.9,92.4
			z"/>
	</g>
	<g>
		<path class="st0" d="M149.9,105.2c0,0.3-0.3,0.6-0.6,0.6s-0.6-0.3-0.6-0.6s0.3-0.6,0.6-0.6C149.7,104.7,149.9,104.9,149.9,105.2z"
			/>
	</g>
	<g>
		<path class="st0" d="M19.6,19.5c0,0.3-0.3,0.6-0.6,0.6c-0.3,0-0.6-0.3-0.6-0.6c0-0.3,0.3-0.6,0.6-0.6C19.4,19,19.6,19.2,19.6,19.5
			z"/>
	</g>
	<g>
		<path class="st0" d="M47.1,19.2c0,0.3-0.3,0.6-0.6,0.6s-0.6-0.3-0.6-0.6s0.3-0.6,0.6-0.6S47.1,18.9,47.1,19.2z"/>
	</g>
	<g>
		<path class="st0" d="M19.6,39.7c0,0.3-0.3,0.6-0.6,0.6c-0.3,0-0.6-0.3-0.6-0.6c0-0.3,0.3-0.6,0.6-0.6
			C19.4,39.1,19.6,39.4,19.6,39.7z"/>
	</g>
	<g>
		<path class="st0" d="M19.6,59.5c0,0.3-0.3,0.6-0.6,0.6c-0.3,0-0.6-0.3-0.6-0.6s0.3-0.6,0.6-0.6C19.4,59,19.6,59.2,19.6,59.5z"/>
	</g>
	<g>
		<path class="st0" d="M19.6,79.5c0,0.3-0.3,0.6-0.6,0.6c-0.3,0-0.6-0.3-0.6-0.6c0-0.3,0.3-0.6,0.6-0.6
			C19.4,78.9,19.6,79.2,19.6,79.5z"/>
	</g>
	<g>
		<path class="st0" d="M19.6,92.4c0,0.3-0.3,0.6-0.6,0.6c-0.3,0-0.6-0.3-0.6-0.6c0-0.3,0.3-0.6,0.6-0.6
			C19.4,91.8,19.6,92.1,19.6,92.4z"/>
	</g>
	<g>
		<path class="st0" d="M19.6,105.8c0,0.3-0.3,0.6-0.6,0.6c-0.3,0-0.6-0.3-0.6-0.6c0-0.3,0.3-0.6,0.6-0.6
			C19.4,105.2,19.6,105.5,19.6,105.8z"/>
	</g>
	<g>
		<path class="st0" d="M19.6,118.7c0,0.3-0.3,0.6-0.6,0.6c-0.3,0-0.6-0.3-0.6-0.6c0-0.3,0.3-0.6,0.6-0.6
			C19.4,118.2,19.6,118.4,19.6,118.7z"/>
	</g>
	<g>
		<path class="st0" d="M19.6,131.7c0,0.3-0.3,0.6-0.6,0.6c-0.3,0-0.6-0.3-0.6-0.6c0-0.3,0.3-0.6,0.6-0.6
			C19.4,131.1,19.6,131.4,19.6,131.7z"/>
	</g>
	<g>
		<path class="st0" d="M19.6,145.1c0,0.3-0.3,0.6-0.6,0.6c-0.3,0-0.6-0.3-0.6-0.6c0-0.3,0.3-0.6,0.6-0.6
			C19.4,144.5,19.6,144.8,19.6,145.1z"/>
	</g>
	<g>
		<path class="st0" d="M19.6,158.5c0,0.3-0.3,0.6-0.6,0.6c-0.3,0-0.6-0.3-0.6-0.6c0-0.3,0.3-0.6,0.6-0.6
			C19.4,157.9,19.6,158.2,19.6,158.5z"/>
	</g>
	<g>
		<path class="st0" d="M19.6,170.5c0,0.3-0.3,0.6-0.6,0.6c-0.3,0-0.6-0.3-0.6-0.6s0.3-0.6,0.6-0.6C19.4,169.9,19.6,170.2,19.6,170.5
			z"/>
	</g>
	<g>
		<path class="st0" d="M19.6,183.9c0,0.3-0.3,0.6-0.6,0.6c-0.3,0-0.6-0.3-0.6-0.6s0.3-0.6,0.6-0.6C19.4,183.3,19.6,183.6,19.6,183.9
			z"/>
	</g>
	<g>
		<path class="st0" d="M19.6,196.9c0,0.3-0.3,0.6-0.6,0.6c-0.3,0-0.6-0.3-0.6-0.6c0-0.3,0.3-0.6,0.6-0.6
			C19.4,196.4,19.6,196.6,19.6,196.9z"/>
	</g>
	<g>
		<path class="st0" d="M19.9,216.1c0,0.3-0.3,0.6-0.6,0.6c-0.3,0-0.6-0.3-0.6-0.6c0-0.3,0.3-0.6,0.6-0.6
			C19.6,215.6,19.9,215.8,19.9,216.1z"/>
	</g>
	<g>
		<path class="st0" d="M40.4,216.7c0,0.3-0.3,0.6-0.6,0.6s-0.6-0.3-0.6-0.6s0.3-0.6,0.6-0.6C40.1,216.1,40.4,216.4,40.4,216.7z"/>
	</g>
	<g>
		<path class="st0" d="M66.8,216.7c0,0.3-0.3,0.6-0.6,0.6c-0.3,0-0.6-0.3-0.6-0.6s0.3-0.6,0.6-0.6C66.6,216.1,66.8,216.4,66.8,216.7
			z"/>
	</g>
	<g>
		<path class="st0" d="M93.2,216.7c0,0.3-0.3,0.6-0.6,0.6c-0.3,0-0.6-0.3-0.6-0.6s0.3-0.6,0.6-0.6C93,216.1,93.2,216.4,93.2,216.7z"
			/>
	</g>
	<g>
		<path class="st0" d="M119,216.7c0,0.3-0.3,0.6-0.6,0.6c-0.3,0-0.6-0.3-0.6-0.6s0.3-0.6,0.6-0.6C118.7,216.1,119,216.4,119,216.7z"
			/>
	</g>
	<g>
		<path class="st0" d="M149.9,118.4c0,0.3-0.3,0.6-0.6,0.6s-0.6-0.3-0.6-0.6s0.3-0.6,0.6-0.6C149.7,117.9,149.9,118.1,149.9,118.4z"
			/>
	</g>
	<g>
		<path class="st0" d="M149.9,130.8c0,0.3-0.3,0.6-0.6,0.6s-0.6-0.3-0.6-0.6s0.3-0.6,0.6-0.6C149.7,130.2,149.9,130.4,149.9,130.8z"
			/>
	</g>
	<g>
		<path class="st0" d="M149.9,144c0,0.3-0.3,0.6-0.6,0.6s-0.6-0.3-0.6-0.6s0.3-0.6,0.6-0.6C149.7,143.5,149.9,143.7,149.9,144z"/>
	</g>
	<g>
		<path class="st0" d="M149.9,157.2c0,0.3-0.3,0.6-0.6,0.6s-0.6-0.3-0.6-0.6c0-0.3,0.3-0.6,0.6-0.6
			C149.7,156.6,149.9,156.8,149.9,157.2z"/>
	</g>
	<g>
		<path class="st0" d="M149.9,169.9c0,0.3-0.3,0.6-0.6,0.6s-0.6-0.3-0.6-0.6s0.3-0.6,0.6-0.6C149.7,169.3,149.9,169.6,149.9,169.9z"
			/>
	</g>
	<g>
		<path class="st0" d="M149.9,182.5c0,0.3-0.3,0.6-0.6,0.6s-0.6-0.3-0.6-0.6c0-0.3,0.3-0.6,0.6-0.6
			C149.7,181.9,149.9,182.2,149.9,182.5z"/>
	</g>
	<g>
		<path class="st0" d="M149.9,195.3c0,0.3-0.3,0.6-0.6,0.6s-0.6-0.3-0.6-0.6s0.3-0.6,0.6-0.6C149.7,194.8,149.9,195,149.9,195.3z"/>
	</g>
	<g>
		<path class="st0" d="M149.9,214.9c0,0.3-0.3,0.6-0.6,0.6s-0.6-0.3-0.6-0.6s0.3-0.6,0.6-0.6C149.7,214.3,149.9,214.6,149.9,214.9z"
			/>
	</g>
	<g>
		<g>
			<path class="st2" d="M90.5,21.8c-5.5-0.1-6.7,4.1-7,6.1c-0.3-2-1.6-6.2-7-6.1c-7.2,0.2-8.2,8.3-5.6,12.3c2.5,4.1,3.8,5.4,6.3,8
				c2.4,2.5,5.2,5.2,6.3,6.9c0,0,0.1,0.2,0.1,0.1c0,0.1,0.1-0.1,0.1-0.1c1-1.7,3.9-4.5,6.3-6.9c2.5-2.6,3.8-3.9,6.3-8
				C98.7,30,97.7,21.9,90.5,21.8z"/>
		</g>
		<g>
			<path class="st2" d="M90.5,200.7c-5.5,0.1-6.7-4.1-7-6.1c-0.3,2-1.6,6.2-7,6.1c-7.2-0.2-8.2-8.3-5.6-12.3c2.5-4.1,3.8-5.4,6.3-8
				c2.4-2.5,5.2-5.2,6.3-6.9c0,0,0.1-0.2,0.1-0.1c0-0.1,0.1,0.1,0.1,0.1c1,1.7,3.9,4.5,6.3,6.9c2.5,2.6,3.8,3.9,6.3,8
				C98.7,192.5,97.7,200.6,90.5,200.7z"/>
		</g>
		<g>
			<path class="st2" d="M21.5,29.6c-1.9,0-2.3,1.4-2.4,2.1c-0.1-0.7-0.5-2.2-2.4-2.1c-2.5,0.1-2.8,2.9-2,4.3
				c0.9,1.4,1.3,1.9,2.2,2.8c0.8,0.9,1.8,1.8,2.2,2.4v0.1v-0.1c0.3-0.6,1.3-1.6,2.1-2.4c0.9-0.9,1.3-1.4,2.2-2.8
				C24.3,32.5,24,29.7,21.5,29.6z"/>
		</g>
		<g>
			<g>
				<g>
					<path class="st3" d="M14.5,23.2c0.3-0.7,0.9-1.4,1.8-2.3l1.9-1.6c0.6-0.5,1.1-1.1,1.4-1.7s0.5-1.3,0.5-2.1c0-1-0.2-1.8-0.7-2.3
						c-0.5-0.6-1.2-0.8-2.1-0.8c-0.4,0-0.8,0.1-1.2,0.3c-0.4,0.2-0.7,0.4-0.9,0.8c-0.2,0.3-0.4,0.6-0.4,1c0,0.3,0.1,0.5,0.2,0.7
						c0.1,0.1,0.3,0.2,0.6,0.3c0.4,0.1,0.7,0.2,0.9,0.4c0.2,0.2,0.3,0.5,0.3,0.8c0,0.2-0.1,0.5-0.3,0.6c-0.2,0.2-0.4,0.3-0.7,0.3
						c-0.5,0-1-0.2-1.3-0.6S14,16,14,15.3s0.2-1.3,0.5-1.8c0.3-0.5,0.8-0.9,1.4-1.2c0.6-0.3,1.2-0.4,2-0.4s1.6,0.2,2.2,0.5
						c0.7,0.3,1.2,0.8,1.6,1.3c0.4,0.6,0.6,1.3,0.6,2.1s-0.3,1.5-0.8,2.1c-0.6,0.6-1.3,1.3-2.2,1.9l-1.9,1.5c-0.5,0.4-1,0.7-1.3,1.1
						c-0.3,0.3-0.4,0.7-0.4,1.1c0,0.3,0.2,0.5,0.6,0.5H20c0.5,0,0.9-0.1,1.1-0.3c0.2-0.2,0.4-0.5,0.4-1l0.2-1.1h0.4l-0.3,4h-7.6
						C14.1,24.6,14.2,23.9,14.5,23.2z"/>
				</g>
			</g>
		</g>
		<g>
			<g>
				<g>
					<path class="st2" d="M153,207.7c-0.3,0.7-0.9,1.4-1.8,2.3l-1.9,1.6c-0.6,0.5-1.1,1.1-1.4,1.7c-0.3,0.6-0.5,1.3-0.5,2.1
						c0,1,0.2,1.8,0.7,2.3s1.2,0.8,2.1,0.8c0.4,0,0.8-0.1,1.2-0.3s0.7-0.4,0.9-0.8c0.2-0.3,0.4-0.6,0.4-1c0-0.3-0.1-0.5-0.2-0.7
						c-0.1-0.1-0.3-0.2-0.6-0.3c-0.4-0.1-0.7-0.2-0.9-0.4s-0.3-0.5-0.3-0.8c0-0.2,0.1-0.5,0.3-0.6c0.2-0.2,0.4-0.3,0.7-0.3
						c0.5,0,1,0.2,1.3,0.6s0.5,1,0.5,1.7c0,0.7-0.2,1.3-0.5,1.8s-0.8,0.9-1.4,1.2c-0.6,0.3-1.2,0.4-2,0.4s-1.6-0.2-2.2-0.5
						c-0.7-0.3-1.2-0.8-1.6-1.3c-0.4-0.6-0.6-1.3-0.6-2.1c0-0.8,0.3-1.5,0.8-2.1c0.6-0.6,1.3-1.3,2.2-1.9l1.9-1.5
						c0.5-0.4,1-0.7,1.3-1.1c0.3-0.3,0.4-0.7,0.4-1.1c0-0.3-0.2-0.5-0.6-0.5h-3.7c-0.5,0-0.9,0.1-1.1,0.3s-0.4,0.5-0.4,1l-0.2,1.1
						h-0.4l0.3-4h7.6C153.4,206.3,153.2,207,153,207.7z"/>
				</g>
			</g>
		</g>
		<g>
			<path class="st2" d="M151.8,200.9c-1.9,0-2.3-1.4-2.4-2.1c-0.1,0.7-0.5,2.2-2.4,2.1c-2.5-0.1-2.8-2.9-2-4.3
				c0.9-1.4,1.3-1.9,2.2-2.8c0.8-0.9,1.8-1.8,2.2-2.4v-0.1v0.1c0.4,0.6,1.3,1.5,2.2,2.4c0.9,0.9,1.3,1.4,2.2,2.8
				C154.6,198,154.3,200.8,151.8,200.9z"/>
		</g>
	</g>
</g>
</svg>
