<?xml version="1.0" encoding="utf-8"?>
<!-- Generator: Adobe Illustrator 27.6.1, SVG Export Plug-In . SVG Version: 6.00 Build 0)  -->
<svg version="1.1" id="Слой_1" xmlns="http://www.w3.org/2000/svg" xmlns:xlink="http://www.w3.org/1999/xlink" x="0px" y="0px"
	 viewBox="0 0 167.7 234" style="enable-background:new 0 0 167.7 234;" xml:space="preserve">
<style type="text/css">
	.st0{fill:#FFFFFF;}
	.st1{fill:#32A8E0;}
	.st2{fill:#0C0D0D;}
	.st3{fill:#020203;}
</style>
<g>
	<g>
		<g>
			<path class="st0" d="M161.1,233.5H6.6c-3.3,0-5.9-2.7-5.9-5.9V6.6c0-3.3,2.7-5.9,5.9-5.9h154.5c3.3,0,5.9,2.7,5.9,5.9v221
				C167,230.9,164.3,233.5,161.1,233.5z"/>
			<path class="st1" d="M161.1,233.6H6.6c-3.3,0-6.1-2.7-6.1-6.1V6.6c0-3.4,2.7-6.1,6.1-6.1h154.5c3.3,0,6.1,2.7,6.1,6.1v221
				C167.1,230.9,164.4,233.6,161.1,233.6z M6.6,0.7c-3.2,0-5.8,2.6-5.8,5.8v221c0,3.2,2.6,5.8,5.8,5.8h154.5c3.2,0,5.8-2.6,5.8-5.8
				V6.6c0-3.2-2.6-5.8-5.8-5.8L6.6,0.7L6.6,0.7z"/>
		</g>
	</g>
	<g>
		<path class="st0" d="M149.7,19c0,0.3-0.3,0.6-0.6,0.6s-0.6-0.3-0.6-0.6s0.3-0.6,0.6-0.6C149.5,18.4,149.7,18.7,149.7,19z"/>
	</g>
	<g>
		<path class="st0" d="M122.6,19c0,0.3-0.3,0.6-0.6,0.6c-0.3,0-0.6-0.3-0.6-0.6s0.3-0.6,0.6-0.6S122.6,18.7,122.6,19z"/>
	</g>
	<g>
		<path class="st0" d="M97.6,19c0,0.3-0.3,0.6-0.6,0.6c-0.3,0-0.6-0.3-0.6-0.6s0.3-0.6,0.6-0.6C97.4,18.4,97.6,18.7,97.6,19z"/>
	</g>
	<g>
		<path class="st0" d="M72.6,19.2c0,0.3-0.3,0.6-0.6,0.6s-0.6-0.3-0.6-0.6s0.3-0.6,0.6-0.6S72.6,18.9,72.6,19.2z"/>
	</g>
	<g>
		<path class="st0" d="M149.7,40.1c0,0.3-0.3,0.6-0.6,0.6s-0.6-0.3-0.6-0.6s0.3-0.6,0.6-0.6C149.5,39.6,149.7,39.8,149.7,40.1z"/>
	</g>
	<g>
		<path class="st0" d="M149.7,59.4c0,0.3-0.3,0.6-0.6,0.6s-0.6-0.3-0.6-0.6s0.3-0.6,0.6-0.6C149.5,58.8,149.7,59.1,149.7,59.4z"/>
	</g>
	<g>
		<path class="st0" d="M149.7,79.6c0,0.3-0.3,0.6-0.6,0.6s-0.6-0.3-0.6-0.6c0-0.3,0.3-0.6,0.6-0.6C149.5,79.1,149.7,79.3,149.7,79.6
			z"/>
	</g>
	<g>
		<path class="st0" d="M149.7,92.4c0,0.3-0.3,0.6-0.6,0.6s-0.6-0.3-0.6-0.6c0-0.3,0.3-0.6,0.6-0.6C149.5,91.8,149.7,92.1,149.7,92.4
			z"/>
	</g>
	<g>
		<path class="st0" d="M149.7,105.2c0,0.3-0.3,0.6-0.6,0.6s-0.6-0.3-0.6-0.6c0-0.3,0.3-0.6,0.6-0.6
			C149.5,104.7,149.7,104.9,149.7,105.2z"/>
	</g>
	<g>
		<path class="st0" d="M19.4,19.5c0,0.3-0.3,0.6-0.6,0.6c-0.3,0-0.6-0.3-0.6-0.6s0.3-0.6,0.6-0.6C19.2,19,19.4,19.2,19.4,19.5z"/>
	</g>
	<g>
		<path class="st0" d="M46.9,19.2c0,0.3-0.3,0.6-0.6,0.6s-0.6-0.3-0.6-0.6s0.3-0.6,0.6-0.6S46.9,18.9,46.9,19.2z"/>
	</g>
	<g>
		<path class="st0" d="M19.4,39.7c0,0.3-0.3,0.6-0.6,0.6c-0.3,0-0.6-0.3-0.6-0.6s0.3-0.6,0.6-0.6C19.2,39.1,19.4,39.4,19.4,39.7z"/>
	</g>
	<g>
		<path class="st0" d="M19.4,59.5c0,0.3-0.3,0.6-0.6,0.6c-0.3,0-0.6-0.3-0.6-0.6s0.3-0.6,0.6-0.6C19.2,59,19.4,59.2,19.4,59.5z"/>
	</g>
	<g>
		<path class="st0" d="M19.4,79.5c0,0.3-0.3,0.6-0.6,0.6c-0.3,0-0.6-0.3-0.6-0.6s0.3-0.6,0.6-0.6C19.2,78.9,19.4,79.2,19.4,79.5z"/>
	</g>
	<g>
		<path class="st0" d="M19.4,92.4c0,0.3-0.3,0.6-0.6,0.6c-0.3,0-0.6-0.3-0.6-0.6c0-0.3,0.3-0.6,0.6-0.6
			C19.2,91.8,19.4,92.1,19.4,92.4z"/>
	</g>
	<g>
		<path class="st0" d="M19.4,105.8c0,0.3-0.3,0.6-0.6,0.6c-0.3,0-0.6-0.3-0.6-0.6c0-0.3,0.3-0.6,0.6-0.6
			C19.2,105.2,19.4,105.5,19.4,105.8z"/>
	</g>
	<g>
		<path class="st0" d="M19.4,118.7c0,0.3-0.3,0.6-0.6,0.6c-0.3,0-0.6-0.3-0.6-0.6s0.3-0.6,0.6-0.6C19.2,118.2,19.4,118.4,19.4,118.7
			z"/>
	</g>
	<g>
		<path class="st0" d="M19.4,131.7c0,0.3-0.3,0.6-0.6,0.6c-0.3,0-0.6-0.3-0.6-0.6s0.3-0.6,0.6-0.6C19.2,131.1,19.4,131.4,19.4,131.7
			z"/>
	</g>
	<g>
		<path class="st0" d="M19.4,145.1c0,0.3-0.3,0.6-0.6,0.6c-0.3,0-0.6-0.3-0.6-0.6s0.3-0.6,0.6-0.6C19.2,144.5,19.4,144.8,19.4,145.1
			z"/>
	</g>
	<g>
		<path class="st0" d="M19.4,158.5c0,0.3-0.3,0.6-0.6,0.6c-0.3,0-0.6-0.3-0.6-0.6s0.3-0.6,0.6-0.6C19.2,157.9,19.4,158.2,19.4,158.5
			z"/>
	</g>
	<g>
		<path class="st0" d="M19.4,170.5c0,0.3-0.3,0.6-0.6,0.6c-0.3,0-0.6-0.3-0.6-0.6s0.3-0.6,0.6-0.6C19.2,169.9,19.4,170.2,19.4,170.5
			z"/>
	</g>
	<g>
		<path class="st0" d="M19.4,183.9c0,0.3-0.3,0.6-0.6,0.6c-0.3,0-0.6-0.3-0.6-0.6s0.3-0.6,0.6-0.6C19.2,183.3,19.4,183.6,19.4,183.9
			z"/>
	</g>
	<g>
		<path class="st0" d="M19.4,196.9c0,0.3-0.3,0.6-0.6,0.6c-0.3,0-0.6-0.3-0.6-0.6s0.3-0.6,0.6-0.6C19.2,196.4,19.4,196.6,19.4,196.9
			z"/>
	</g>
	<g>
		<path class="st0" d="M19.7,216.1c0,0.3-0.3,0.6-0.6,0.6c-0.3,0-0.6-0.3-0.6-0.6s0.3-0.6,0.6-0.6C19.4,215.6,19.7,215.8,19.7,216.1
			z"/>
	</g>
	<g>
		<path class="st0" d="M40.2,216.7c0,0.3-0.3,0.6-0.6,0.6S39,217,39,216.7s0.3-0.6,0.6-0.6C39.9,216.1,40.2,216.4,40.2,216.7z"/>
	</g>
	<g>
		<path class="st0" d="M66.6,216.7c0,0.3-0.3,0.6-0.6,0.6s-0.6-0.3-0.6-0.6s0.3-0.6,0.6-0.6S66.6,216.4,66.6,216.7z"/>
	</g>
	<g>
		<path class="st0" d="M93,216.7c0,0.3-0.3,0.6-0.6,0.6c-0.3,0-0.6-0.3-0.6-0.6s0.3-0.6,0.6-0.6C92.8,216.1,93,216.4,93,216.7z"/>
	</g>
	<g>
		<path class="st0" d="M118.8,216.7c0,0.3-0.3,0.6-0.6,0.6c-0.3,0-0.6-0.3-0.6-0.6s0.3-0.6,0.6-0.6
			C118.5,216.1,118.8,216.4,118.8,216.7z"/>
	</g>
	<g>
		<path class="st0" d="M149.7,118.4c0,0.3-0.3,0.6-0.6,0.6s-0.6-0.3-0.6-0.6s0.3-0.6,0.6-0.6C149.5,117.9,149.7,118.1,149.7,118.4z"
			/>
	</g>
	<g>
		<path class="st0" d="M149.7,130.8c0,0.3-0.3,0.6-0.6,0.6s-0.6-0.3-0.6-0.6s0.3-0.6,0.6-0.6C149.5,130.2,149.7,130.4,149.7,130.8z"
			/>
	</g>
	<g>
		<path class="st0" d="M149.7,144c0,0.3-0.3,0.6-0.6,0.6s-0.6-0.3-0.6-0.6s0.3-0.6,0.6-0.6C149.5,143.5,149.7,143.7,149.7,144z"/>
	</g>
	<g>
		<path class="st0" d="M149.7,157.2c0,0.3-0.3,0.6-0.6,0.6s-0.6-0.3-0.6-0.6s0.3-0.6,0.6-0.6C149.5,156.6,149.7,156.8,149.7,157.2z"
			/>
	</g>
	<g>
		<path class="st0" d="M149.7,169.9c0,0.3-0.3,0.6-0.6,0.6s-0.6-0.3-0.6-0.6s0.3-0.6,0.6-0.6C149.5,169.3,149.7,169.6,149.7,169.9z"
			/>
	</g>
	<g>
		<path class="st0" d="M149.7,182.5c0,0.3-0.3,0.6-0.6,0.6s-0.6-0.3-0.6-0.6s0.3-0.6,0.6-0.6C149.5,181.9,149.7,182.2,149.7,182.5z"
			/>
	</g>
	<g>
		<path class="st0" d="M149.7,195.3c0,0.3-0.3,0.6-0.6,0.6s-0.6-0.3-0.6-0.6s0.3-0.6,0.6-0.6C149.5,194.8,149.7,195,149.7,195.3z"/>
	</g>
	<g>
		<path class="st0" d="M149.7,214.9c0,0.3-0.3,0.6-0.6,0.6s-0.6-0.3-0.6-0.6s0.3-0.6,0.6-0.6C149.5,214.3,149.7,214.6,149.7,214.9z"
			/>
	</g>
	<g>
		<g>
			<path class="st2" d="M97.6,35.8c-3.7-4-7.9-7.9-9.7-10c-1.3-1.5-2.3-2.7-2.7-3.2v-0.3c0,0,0,0-0.1,0.1C85,22.3,85,22.3,85,22.3
				v0.3c-0.4,0.5-1.3,1.7-2.7,3.2c-1.8,2.1-6.1,6-9.7,10c-3.7,4-4,8-3.3,11.3s4.2,6.5,9.6,5.8c1.7-0.2,3-1,3.9-2.1
				c-0.6,4.7-3.2,7.2-3.2,7.2h10.6c-1.9-2.2-2.6-5.2-2.9-7.1c0.9,1,2.2,1.8,3.9,2c5.5,0.7,8.9-2.4,9.6-5.8
				C101.6,43.8,101.3,39.8,97.6,35.8z"/>
		</g>
		<g>
			<path class="st2" d="M23.1,31.9c-1.1-1.2-2.3-2.3-2.8-2.9c-0.4-0.4-0.7-0.8-0.8-0.9V28l0,0l0,0v0.1c-0.1,0.1-0.4,0.5-0.8,0.9
				c-0.5,0.6-1.8,1.7-2.8,2.9c-1.1,1.2-1.2,2.3-1,3.3s1.2,1.9,2.8,1.7c0.5-0.1,0.9-0.3,1.1-0.6c-0.2,1.4-0.9,2.1-0.9,2.1H21
				c-0.6-0.6-0.8-1.5-0.8-2.1c0.3,0.3,0.6,0.5,1.1,0.6c1.6,0.2,2.6-0.7,2.8-1.7C24.3,34.2,24.2,33,23.1,31.9z"/>
		</g>
		<g>
			<g>
				<g>
					<path class="st3" d="M15.7,22.4c0.3-0.7,0.9-1.4,1.8-2.3l1.9-1.6c0.6-0.5,1.1-1.1,1.4-1.7s0.5-1.3,0.5-2.1c0-1-0.2-1.8-0.7-2.3
						c-0.5-0.6-1.2-0.8-2.1-0.8c-0.4,0-0.8,0.1-1.2,0.3c-0.4,0.2-0.7,0.4-0.9,0.8c-0.2,0.3-0.4,0.6-0.4,1c0,0.3,0.1,0.5,0.2,0.7
						c0.1,0.1,0.3,0.2,0.6,0.3c0.4,0.1,0.7,0.2,0.9,0.4c0.2,0.2,0.3,0.5,0.3,0.8c0,0.2-0.1,0.5-0.3,0.6c-0.2,0.2-0.4,0.3-0.7,0.3
						c-0.5,0-1-0.2-1.3-0.6c-0.3-0.4-0.5-1-0.5-1.7s0.2-1.3,0.5-1.8s0.8-0.9,1.4-1.2s1.2-0.4,2-0.4s1.6,0.2,2.2,0.5
						c0.7,0.3,1.2,0.8,1.6,1.3c0.4,0.6,0.6,1.3,0.6,2.1s-0.3,1.5-0.8,2.1c-0.6,0.6-1.3,1.3-2.2,1.9l-1.9,1.5c-0.5,0.4-1,0.7-1.3,1.1
						c-0.3,0.3-0.4,0.7-0.4,1.1c0,0.3,0.2,0.5,0.6,0.5h3.7c0.5,0,0.9-0.1,1.1-0.3c0.2-0.2,0.4-0.5,0.4-1l0.2-1.1h0.4l-0.3,4h-7.6
						C15.3,23.8,15.4,23.1,15.7,22.4z"/>
				</g>
			</g>
		</g>
		<g>
			<g>
				<g>
					<path class="st3" d="M154.2,206.9c-0.3,0.7-0.9,1.4-1.8,2.3l-1.9,1.6c-0.6,0.5-1.1,1.1-1.4,1.7c-0.3,0.6-0.5,1.3-0.5,2.1
						c0,1,0.2,1.8,0.7,2.3s1.2,0.8,2.1,0.8c0.4,0,0.8-0.1,1.2-0.3s0.7-0.4,0.9-0.8c0.2-0.3,0.4-0.6,0.4-1c0-0.3-0.1-0.5-0.2-0.7
						c-0.1-0.1-0.3-0.2-0.6-0.3c-0.4-0.1-0.7-0.2-0.9-0.4s-0.3-0.5-0.3-0.8c0-0.2,0.1-0.5,0.3-0.6c0.2-0.2,0.4-0.3,0.7-0.3
						c0.5,0,1,0.2,1.3,0.6c0.3,0.4,0.5,1,0.5,1.7s-0.2,1.3-0.5,1.8s-0.8,0.9-1.4,1.2c-0.6,0.3-1.2,0.4-2,0.4s-1.6-0.2-2.2-0.5
						c-0.7-0.3-1.2-0.8-1.6-1.3c-0.4-0.6-0.6-1.3-0.6-2.1s0.3-1.5,0.8-2.1c0.6-0.6,1.3-1.3,2.2-1.9l1.9-1.5c0.5-0.4,1-0.7,1.3-1.1
						c0.3-0.3,0.4-0.7,0.4-1.1c0-0.3-0.2-0.5-0.6-0.5h-3.7c-0.5,0-0.9,0.1-1.1,0.3c-0.2,0.2-0.4,0.5-0.4,1l-0.2,1.1h-0.4l0.3-4h7.6
						C154.6,205.5,154.5,206.2,154.2,206.9z"/>
				</g>
			</g>
		</g>
		<g>
			<path class="st2" d="M97.6,195.3c-3.7,4-7.9,7.9-9.7,10c-1.3,1.5-2.3,2.7-2.7,3.2v0.3c0,0,0,0-0.1-0.1c-0.1,0.1-0.1,0.1-0.1,0.1
				v-0.3c-0.4-0.5-1.3-1.7-2.7-3.2c-1.8-2.1-6.1-6-9.7-10c-3.7-4-4-8-3.3-11.3s4.2-6.5,9.6-5.8c1.7,0.2,3,1,3.9,2.1
				c-0.6-4.7-3.2-7.2-3.2-7.2h10.6c-1.9,2.2-2.6,5.2-2.9,7.1c0.9-1,2.2-1.8,3.9-2c5.5-0.7,8.9,2.4,9.6,5.8
				C101.6,187.2,101.3,191.2,97.6,195.3z"/>
		</g>
		<g>
			<path class="st2" d="M153.4,198c-1.1,1.2-2.3,2.3-2.8,2.9c-0.4,0.4-0.7,0.8-0.8,0.9v0.1l0,0l0,0v-0.1c-0.1-0.1-0.4-0.5-0.8-0.9
				c-0.5-0.6-1.8-1.7-2.8-2.9c-1.1-1.2-1.2-2.3-1-3.3s1.2-1.9,2.8-1.7c0.5,0.1,0.9,0.3,1.1,0.6c-0.2-1.4-0.9-2.1-0.9-2.1h3.1
				c-0.6,0.6-0.8,1.5-0.8,2.1c0.3-0.3,0.6-0.5,1.1-0.6c1.6-0.2,2.6,0.7,2.8,1.7C154.6,195.7,154.5,196.8,153.4,198z"/>
		</g>
	</g>
</g>
</svg>
