<?xml version="1.0" encoding="utf-8"?>
<!-- Generator: Adobe Illustrator 27.6.1, SVG Export Plug-In . SVG Version: 6.00 Build 0)  -->
<svg version="1.1" id="Слой_1" xmlns="http://www.w3.org/2000/svg" xmlns:xlink="http://www.w3.org/1999/xlink" x="0px" y="0px"
	 viewBox="0 0 167.4 234" style="enable-background:new 0 0 167.4 234;" xml:space="preserve">
<style type="text/css">
	.st0{fill:#FFFFFF;}
	.st1{fill:#32A8E0;}
	.st2{fill:#0C0D0D;}
	.st3{fill:#231F20;}
</style>
<g>
	<g>
		<g>
			<path class="st0" d="M161,233.4H6.5c-3.3,0-5.9-2.7-5.9-5.9V6.5c0-3.3,2.7-5.9,5.9-5.9H161c3.3,0,5.9,2.7,5.9,5.9v221
				C166.9,230.8,164.3,233.4,161,233.4z"/>
			<path class="st1" d="M161,233.5H6.5c-3.3,0-6.1-2.7-6.1-6.1V6.5c0-3.4,2.8-6.1,6.1-6.1H161c3.3,0,6.1,2.7,6.1,6.1v221
				C167,230.8,164.3,233.5,161,233.5z M6.5,0.6c-3.2,0-5.8,2.6-5.8,5.8v221c0,3.2,2.6,5.8,5.8,5.8H161c3.2,0,5.8-2.6,5.8-5.8V6.5
				c0-3.2-2.6-5.8-5.8-5.8L6.5,0.6L6.5,0.6z"/>
		</g>
	</g>
	<g>
		<g>
			<path class="st2" d="M98.4,41.7c-3.6-3.9-9.1-1.6-9.1-1.6c1.5-1.6,2.6-2.9,2.4-5.6c0-0.1,0-0.2,0-0.3c0-4.3-3.5-7.7-7.7-7.7
				s-7.7,3.5-7.7,7.7c0,0.5,0.1,1.1,0.2,1.6c0.2,1.9,1.1,3,2.4,4.3c0,0-5.5-2.3-9.1,1.6s-1.8,8.5-0.7,10.1c1.1,1.5,2.8,4.1,6.8,3.8
				c3.5-0.3,4-0.9,6.5-2.8c-0.3,5.3-3.5,8.9-3.5,8.9h0.2h5.1h5.1h0.2c-1.9-2-3.7-6.7-3.4-8.9c2.4,1.9,2.9,2.5,6.4,2.7
				c4,0.3,5.7-2.3,6.8-3.8C100.2,50.3,102,45.6,98.4,41.7z"/>
		</g>
		<g>
			<path class="st2" d="M98.4,111.7c-3.6-3.9-9.1-1.6-9.1-1.6c1.5-1.6,2.6-2.9,2.4-5.6c0-0.1,0-0.2,0-0.3c0-4.3-3.5-7.7-7.7-7.7
				s-7.7,3.5-7.7,7.7c0,0.5,0.1,1.1,0.2,1.6c0.2,1.9,1.1,3,2.4,4.3c0,0-5.5-2.3-9.1,1.6s-1.8,8.5-0.7,10.1c1.1,1.5,2.8,4.1,6.8,3.8
				c3.5-0.3,4-0.9,6.5-2.8c-0.3,5.3-3.5,8.9-3.5,8.9h0.2h5.1h5.1h0.2c-1.9-2-3.7-6.7-3.4-8.9c2.4,1.9,2.9,2.5,6.4,2.7
				c4,0.3,5.7-2.3,6.8-3.8C100.2,120.3,102,115.6,98.4,111.7z"/>
		</g>
		<g>
			<path class="st2" d="M98.4,185.9c-3.6,3.9-9.1,1.6-9.1,1.6c1.5,1.6,2.6,2.9,2.4,5.6c0,0.1,0,0.2,0,0.3c0,4.3-3.5,7.7-7.7,7.7
				s-7.7-3.5-7.7-7.7c0-0.5,0.1-1.1,0.2-1.6c0.2-1.9,1.1-3,2.4-4.3c0,0-5.5,2.3-9.1-1.6c-3.6-3.9-1.8-8.5-0.7-10.1
				c1.1-1.5,2.8-4.1,6.8-3.8c3.5,0.3,4,0.9,6.5,2.8c-0.3-5.3-3.5-8.9-3.5-8.9h0.2h5.1h5.1h0.2c-1.9,2-3.7,6.7-3.4,8.9
				c2.4-1.9,2.9-2.5,6.4-2.7c4-0.3,5.7,2.3,6.8,3.8C100.2,177.3,102,182,98.4,185.9z"/>
		</g>
		<g>
			<g>
				<g>
					<path class="st3" d="M15.7,25.3c-0.7-0.4-1-1.1-1-2c0-0.5,0.1-0.9,0.4-1.2c0.3-0.3,0.6-0.5,1.1-0.5c0.4,0,0.7,0.1,0.9,0.3
						c0.2,0.2,0.3,0.5,0.3,0.8s-0.1,0.5-0.2,0.7c-0.2,0.2-0.4,0.3-0.6,0.3c-0.5,0-0.7,0.1-0.7,0.3c0,0.8,0.8,1.2,2.4,1.2
						c0.9,0,1.6-0.3,2-1c0.4-0.6,0.6-1.4,0.6-2.3c0-1-0.2-1.8-0.7-2.3c-0.4-0.5-1-0.8-1.6-0.8c-0.2,0-0.4,0-0.5,0s-0.3,0.1-0.5,0.1
						c-0.4,0.1-0.8,0.2-1,0.2c-0.2,0-0.4,0-0.5-0.1s-0.2-0.2-0.2-0.4c0-0.2,0.1-0.3,0.2-0.4c0.1-0.1,0.3-0.1,0.5-0.1
						c0.2,0,0.5,0,0.9,0.1c0.3,0,0.6,0.1,1.1,0.1c0.6,0,1.1-0.3,1.4-0.8c0.3-0.6,0.5-1.2,0.5-1.9c0-0.8-0.2-1.5-0.6-2.1
						s-1-0.8-1.7-0.8c-0.8,0-1.3,0.1-1.6,0.4c-0.3,0.2-0.5,0.5-0.5,0.8c0,0.1,0,0.2,0.1,0.4c0.1,0.1,0.2,0.2,0.4,0.3
						c0.5,0.2,0.7,0.5,0.7,1c0,0.3-0.1,0.5-0.3,0.7c-0.2,0.2-0.4,0.3-0.8,0.3c-0.4,0-0.7-0.2-1-0.5s-0.4-0.7-0.4-1.1
						c0-0.9,0.3-1.6,1-2.1s1.5-0.7,2.5-0.7c1.2,0,2.1,0.3,2.8,0.9c0.7,0.6,1.1,1.5,1.1,2.5c0,0.5-0.1,1-0.4,1.4s-0.6,0.8-1,1
						c-0.4,0.3-0.8,0.4-1.2,0.5v0.2c0.4,0.1,0.9,0.3,1.3,0.6c0.5,0.3,0.9,0.7,1.2,1.2c0.3,0.5,0.5,1.1,0.5,1.7
						c0,0.8-0.2,1.5-0.6,2.1s-1,1-1.7,1.4c-0.7,0.3-1.5,0.5-2.4,0.5C17.2,26,16.4,25.7,15.7,25.3z"/>
				</g>
			</g>
		</g>
		<g>
			<g>
				<path class="st3" d="M153.4,207.3c0.7,0.4,1,1.1,1,2c0,0.5-0.1,0.9-0.4,1.2c-0.3,0.3-0.6,0.5-1.1,0.5c-0.4,0-0.7-0.1-0.9-0.3
					s-0.3-0.5-0.3-0.8s0.1-0.5,0.2-0.7c0.2-0.2,0.4-0.3,0.6-0.3c0.5,0,0.7-0.1,0.7-0.3c0-0.8-0.8-1.2-2.4-1.2c-0.9,0-1.6,0.3-2,1
					c-0.4,0.6-0.6,1.4-0.6,2.3c0,1,0.2,1.8,0.7,2.3c0.4,0.5,1,0.8,1.6,0.8c0.2,0,0.4,0,0.5,0s0.3-0.1,0.5-0.1c0.4-0.1,0.8-0.2,1-0.2
					s0.4,0,0.5,0.1s0.2,0.2,0.2,0.4s-0.1,0.3-0.2,0.4c-0.1,0.1-0.3,0.1-0.5,0.1s-0.5,0-0.9-0.1c-0.3,0-0.6-0.1-1.1-0.1
					c-0.6,0-1.1,0.3-1.4,0.8c-0.3,0.6-0.5,1.2-0.5,1.9c0,0.8,0.2,1.5,0.6,2.1c0.4,0.6,1,0.8,1.7,0.8c0.8,0,1.3-0.1,1.6-0.4
					c0.3-0.2,0.5-0.5,0.5-0.8c0-0.1,0-0.2-0.1-0.4c-0.1-0.1-0.2-0.2-0.4-0.3c-0.5-0.2-0.7-0.5-0.7-1c0-0.3,0.1-0.5,0.3-0.7
					s0.4-0.3,0.8-0.3c0.4,0,0.7,0.2,1,0.5s0.4,0.7,0.4,1.1c0,0.9-0.3,1.6-1,2.1s-1.5,0.7-2.5,0.7c-1.2,0-2.1-0.3-2.8-0.9
					c-0.7-0.6-1.1-1.5-1.1-2.5c0-0.5,0.1-1,0.4-1.4c0.3-0.4,0.6-0.8,1-1c0.4-0.3,0.8-0.4,1.2-0.5v-0.2c-0.4-0.1-0.9-0.3-1.3-0.6
					c-0.5-0.3-0.9-0.7-1.2-1.2s-0.5-1.1-0.5-1.7c0-0.8,0.2-1.5,0.6-2.1c0.4-0.6,1-1,1.7-1.4c0.7-0.3,1.5-0.5,2.4-0.5
					C151.9,206.7,152.7,206.9,153.4,207.3z"/>
			</g>
		</g>
		<g>
			<path class="st2" d="M14.6,34.6c1,1.1,2.6,0.5,2.6,0.5c-0.4,0.5-0.7,0.9-0.7,1.6v0.1c0,1.2,1,2.2,2.2,2.2s2.2-1,2.2-2.2
				c0-0.2,0-0.3,0-0.5c-0.1-0.5-0.3-0.9-0.7-1.3c0,0,1.6,0.7,2.6-0.5c1-1.1,0.5-2.5,0.2-2.9s-0.8-1.2-2-1.1c-1,0.1-1.2,0.2-1.9,0.8
				c0.1-1.5,1-2.6,1-2.6H20h-1.5H17h-0.1c0.6,0.6,1.1,1.9,1,2.6c-0.7-0.5-0.8-0.7-1.8-0.8c-1.1-0.1-1.6,0.7-2,1.1
				S13.5,33.5,14.6,34.6z"/>
		</g>
		<g>
			<path class="st2" d="M144.9,197.8c1-1.1,2.6-0.5,2.6-0.5c-0.4-0.5-0.7-0.9-0.7-1.6v-0.1c0-1.2,1-2.2,2.2-2.2s2.2,1,2.2,2.2
				c0,0.2,0,0.3,0,0.5c-0.1,0.5-0.3,0.9-0.7,1.3c0,0,1.6-0.7,2.6,0.5c1,1.1,0.5,2.5,0.2,2.9s-0.8,1.2-2,1.1c-1-0.1-1.2-0.2-1.9-0.8
				c0.1,1.5,1,2.6,1,2.6h0.1H149h-1.5l0,0c0.6-0.6,1.1-1.9,1-2.6c-0.7,0.5-0.8,0.7-1.8,0.8c-1.1,0.1-1.6-0.7-2-1.1
				C144.4,200.2,143.8,198.9,144.9,197.8z"/>
		</g>
	</g>
</g>
</svg>
