<?xml version="1.0" encoding="utf-8"?>
<!-- Generator: Adobe Illustrator 27.6.1, SVG Export Plug-In . SVG Version: 6.00 Build 0)  -->
<svg version="1.1" id="Слой_1" xmlns="http://www.w3.org/2000/svg" xmlns:xlink="http://www.w3.org/1999/xlink" x="0px" y="0px"
	 viewBox="0 0 168.3 235.1" style="enable-background:new 0 0 168.3 235.1;" xml:space="preserve">
<style type="text/css">
	.st0{fill:#FFFFFF;}
	.st1{fill:#32A8E0;}
	.st2{fill:#CD1417;}
	.st3{fill:#BE3D2E;}
</style>
<g>
	<g>
		<g>
			<path class="st0" d="M161.3,234H6.9c-3.3,0-5.9-2.7-5.9-5.9V7.1c0-3.3,2.7-5.9,5.9-5.9h154.4c3.3,0,5.9,2.7,5.9,5.9v221
				C167.3,231.3,164.6,234,161.3,234z"/>
			<path class="st1" d="M161.3,234.1H6.9c-3.3,0-6.1-2.7-6.1-6.1V7.1C0.9,3.7,3.6,1,6.9,1h154.4c3.3,0,6.1,2.7,6.1,6.1v221
				C167.4,231.4,164.7,234.1,161.3,234.1z M6.9,1.3c-3.2,0-5.8,2.6-5.8,5.8v221c0,3.2,2.6,5.8,5.8,5.8h154.4c3.2,0,5.8-2.6,5.8-5.8
				V7.1c0-3.2-2.6-5.8-5.8-5.8C161.3,1.3,6.9,1.3,6.9,1.3z"/>
		</g>
	</g>
	<g>
		<g>
			<polygon class="st2" points="17.3,25.5 12.6,30.7 16.8,36.4 21.6,31.1 			"/>
		</g>
		<g>
			<polygon class="st2" points="149.7,186.8 144.9,192 149.1,197.7 154,192.5 			"/>
		</g>
		<g>
			<g>
				<g>
					<path class="st3" d="M15,22c-0.7-0.4-1-1.1-1-1.9c0-0.5,0.1-0.9,0.4-1.2c0.3-0.3,0.6-0.5,1.1-0.5c0.4,0,0.7,0.1,0.9,0.3
						c0.2,0.2,0.3,0.5,0.3,0.8s-0.1,0.5-0.2,0.7c-0.2,0.2-0.4,0.3-0.6,0.3c-0.5,0-0.7,0.1-0.7,0.3c0,0.8,0.8,1.2,2.4,1.2
						c0.9,0,1.6-0.3,2-1c0.4-0.6,0.6-1.4,0.6-2.3c0-1-0.2-1.8-0.7-2.3c-0.4-0.5-1-0.8-1.6-0.8c-0.2,0-0.4,0-0.5,0s-0.3,0.1-0.5,0.1
						c-0.4,0.1-0.8,0.2-1,0.2s-0.4,0-0.5-0.1s-0.2-0.2-0.2-0.4s0.1-0.3,0.2-0.4c0.1-0.1,0.3-0.1,0.5-0.1s0.5,0,0.9,0.1
						c0.3,0,0.6,0.1,1.1,0.1c0.6,0,1.1-0.3,1.4-0.8c0.3-0.6,0.5-1.2,0.5-1.9c0-0.8-0.2-1.5-0.6-2.1s-1-0.8-1.7-0.8
						c-0.8,0-1.3,0.1-1.6,0.4c-0.3,0.2-0.5,0.5-0.5,0.8c0,0.1,0,0.2,0.1,0.4c0.1,0.1,0.2,0.2,0.4,0.3c0.5,0.2,0.7,0.5,0.7,1
						c0,0.3-0.1,0.5-0.3,0.7c-0.2,0.2-0.4,0.3-0.8,0.3c-0.4,0-0.7-0.2-1-0.5s-0.4-0.7-0.4-1.1c0-0.9,0.3-1.6,1-2.1
						C15.8,9.2,16.6,9,17.6,9c1.2,0,2.1,0.3,2.8,0.9c0.7,0.6,1.1,1.5,1.1,2.5c0,0.5-0.1,1-0.4,1.4s-0.6,0.8-1,1
						c-0.4,0.3-0.8,0.4-1.2,0.5v0.2c0.4,0.1,0.9,0.3,1.3,0.6c0.5,0.3,0.9,0.7,1.2,1.2c0.3,0.5,0.5,1.1,0.5,1.7
						c0,0.8-0.2,1.5-0.6,2.1s-1,1-1.7,1.4c-0.7,0.3-1.5,0.5-2.4,0.5C16.5,22.7,15.6,22.4,15,22z"/>
				</g>
			</g>
		</g>
		<g>
			<g>
				<g>
					<path class="st2" d="M152.6,202.9c0.7,0.4,1,1.1,1,1.9c0,0.5-0.1,0.9-0.4,1.2c-0.3,0.3-0.6,0.5-1.1,0.5c-0.4,0-0.7-0.1-0.9-0.3
						s-0.3-0.5-0.3-0.8s0.1-0.5,0.2-0.7c0.2-0.2,0.4-0.3,0.6-0.3c0.5,0,0.7-0.1,0.7-0.3c0-0.8-0.8-1.2-2.4-1.2c-0.9,0-1.6,0.3-2,1
						c-0.4,0.6-0.6,1.4-0.6,2.3c0,1,0.2,1.8,0.7,2.3c0.4,0.5,1,0.8,1.6,0.8c0.2,0,0.4,0,0.5,0s0.3-0.1,0.5-0.1
						c0.4-0.1,0.8-0.2,1-0.2s0.4,0,0.5,0.1s0.2,0.2,0.2,0.4s-0.1,0.3-0.2,0.4c-0.1,0.1-0.3,0.1-0.5,0.1s-0.5,0-0.9-0.1
						c-0.3,0-0.6-0.1-1.1-0.1c-0.6,0-1.1,0.3-1.4,0.8c-0.3,0.6-0.5,1.2-0.5,1.9c0,0.8,0.2,1.5,0.6,2.1c0.4,0.6,1,0.8,1.7,0.8
						c0.8,0,1.3-0.1,1.6-0.4c0.3-0.2,0.5-0.5,0.5-0.8c0-0.1,0-0.2-0.1-0.4c-0.1-0.1-0.2-0.2-0.4-0.3c-0.5-0.2-0.7-0.5-0.7-1
						c0-0.3,0.1-0.5,0.3-0.7s0.4-0.3,0.8-0.3c0.4,0,0.7,0.2,1,0.5s0.4,0.7,0.4,1.1c0,0.9-0.3,1.6-1,2.1s-1.5,0.7-2.5,0.7
						c-1.2,0-2.1-0.3-2.8-0.9c-0.7-0.6-1.1-1.5-1.1-2.5c0-0.5,0.1-1,0.4-1.4c0.3-0.4,0.6-0.8,1-1c0.4-0.3,0.8-0.4,1.2-0.5v-0.2
						c-0.4-0.1-0.9-0.3-1.3-0.6c-0.5-0.3-0.9-0.7-1.2-1.2s-0.5-1.1-0.5-1.7c0-0.8,0.2-1.5,0.6-2.1c0.4-0.6,1-1,1.7-1.4
						c0.7-0.3,1.5-0.5,2.4-0.5C151,202.3,151.9,202.5,152.6,202.9z"/>
				</g>
			</g>
		</g>
		<g>
			<polygon class="st2" points="83.6,18.3 70.3,34.5 83.6,50.9 97.2,34.6 			"/>
		</g>
		<g>
			<polygon class="st2" points="83.6,167.9 70.3,184 83.6,200.4 97.2,184.2 			"/>
		</g>
		<g>
			<polygon class="st2" points="83.6,93.1 70.3,109.3 83.6,125.7 97.2,109.4 			"/>
		</g>
	</g>
</g>
</svg>
