<?xml version="1.0" encoding="utf-8"?>
<!-- Generator: Adobe Illustrator 27.6.1, SVG Export Plug-In . SVG Version: 6.00 Build 0)  -->
<svg version="1.1" id="Слой_1" xmlns="http://www.w3.org/2000/svg" xmlns:xlink="http://www.w3.org/1999/xlink" x="0px" y="0px"
	 viewBox="0 0 168.3 234.7" style="enable-background:new 0 0 168.3 234.7;" xml:space="preserve">
<style type="text/css">
	.st0{fill:#FFFFFF;}
	.st1{fill:#32A8E0;}
	.st2{fill:#CD1417;}
	.st3{fill:#BE3D2E;}
</style>
<g>
	<g>
		<g>
			<path class="st0" d="M161.4,233.8H6.9c-3.3,0-5.9-2.7-5.9-5.9V6.9C1,3.6,3.7,1,6.9,1h154.5c3.3,0,5.9,2.7,5.9,5.9v221
				C167.3,231.2,164.7,233.8,161.4,233.8z"/>
			<path class="st1" d="M161.4,233.9H6.9c-3.3,0-6.1-2.7-6.1-6.1V6.9c0-3.4,2.8-6.1,6.1-6.1h154.5c3.3,0,6.1,2.7,6.1,6.1v221
				C167.4,231.2,164.7,233.9,161.4,233.9z M6.9,1C3.7,1,1.1,3.6,1.1,6.8v221c0,3.2,2.6,5.8,5.8,5.8h154.5c3.2,0,5.8-2.6,5.8-5.8V6.9
				c0-3.2-2.6-5.8-5.8-5.8L6.9,1L6.9,1z"/>
		</g>
	</g>
	<g>
		<g>
			<path class="st2" d="M91,22.1c-5.5-0.1-6.7,4.1-7,6.1c-0.3-2-1.6-6.2-7-6.1c-7.2,0.2-8.2,8.3-5.6,12.3s3.8,5.4,6.3,8
				c2.4,2.5,5.2,5.2,6.3,6.9c0,0,0.1,0.2,0.1,0.1c0,0.1,0.1-0.1,0.1-0.1c1-1.7,3.9-4.5,6.3-6.9c2.5-2.6,3.8-3.9,6.3-8
				S98.2,22.2,91,22.1z"/>
		</g>
		<g>
			<path class="st2" d="M91,97.8c-5.5-0.1-6.7,4.1-7,6.1c-0.3-2-1.6-6.2-7-6.1c-7.2,0.2-8.2,8.3-5.6,12.3c2.5,4.1,3.8,5.4,6.3,8
				c2.4,2.5,5.2,5.2,6.3,6.9c0,0,0.1,0.2,0.1,0.1c0,0.1,0.1-0.1,0.1-0.1c1-1.7,3.9-4.5,6.3-6.9c2.5-2.6,3.8-3.9,6.3-8
				C99.2,106.1,98.2,98,91,97.8z"/>
		</g>
		<g>
			<path class="st2" d="M91,201c-5.5,0.1-6.7-4.1-7-6.1c-0.3,2-1.6,6.2-7,6.1c-7.2-0.2-8.2-8.3-5.6-12.3c2.5-4.1,3.8-5.4,6.3-8
				c2.4-2.5,5.2-5.2,6.3-6.9c0,0,0.1-0.2,0.1-0.1c0-0.1,0.1,0.1,0.1,0.1c1,1.7,3.9,4.5,6.3,6.9c2.5,2.6,3.8,3.9,6.3,8
				C99.2,192.8,98.2,200.9,91,201z"/>
		</g>
		<g>
			<path class="st2" d="M21.6,29.9c-1.9,0-2.3,1.4-2.4,2.1c-0.1-0.7-0.5-2.2-2.4-2.1c-2.5,0.1-2.8,2.9-2,4.3
				c0.9,1.4,1.3,1.9,2.2,2.8c0.8,0.9,1.8,1.8,2.2,2.4v0.1v-0.1c0.4-0.6,1.3-1.5,2.2-2.4c0.9-0.9,1.3-1.4,2.2-2.8
				C24.4,32.8,24.1,30,21.6,29.9z"/>
		</g>
		<g>
			<g>
				<g>
					<path class="st3" d="M15.4,25.3c-0.7-0.4-1-1.1-1-2c0-0.5,0.1-0.9,0.4-1.2c0.3-0.3,0.6-0.5,1.1-0.5c0.4,0,0.7,0.1,0.9,0.3
						c0.2,0.2,0.3,0.5,0.3,0.8s-0.1,0.5-0.2,0.7c-0.2,0.2-0.4,0.3-0.6,0.3c-0.5,0-0.7,0.1-0.7,0.3c0,0.8,0.8,1.2,2.4,1.2
						c0.9,0,1.6-0.3,2-1c0.4-0.6,0.6-1.4,0.6-2.3c0-1-0.2-1.8-0.7-2.3c-0.4-0.5-1-0.8-1.6-0.8c-0.2,0-0.4,0-0.5,0s-0.3,0.1-0.5,0.1
						c-0.4,0.1-0.8,0.2-1,0.2c-0.2,0-0.4,0-0.5-0.1s-0.2-0.2-0.2-0.4c0-0.2,0.1-0.3,0.2-0.4c0.1-0.1,0.3-0.1,0.5-0.1
						c0.2,0,0.5,0,0.9,0.1c0.3,0,0.6,0.1,1.1,0.1c0.6,0,1.1-0.3,1.4-0.8c0.3-0.6,0.5-1.2,0.5-1.9c0-0.8-0.2-1.5-0.6-2.1
						s-1-0.8-1.7-0.8c-0.8,0-1.3,0.1-1.6,0.4c-0.3,0.2-0.5,0.5-0.5,0.8c0,0.1,0,0.2,0.1,0.4c0.1,0.1,0.2,0.2,0.4,0.3
						c0.5,0.2,0.7,0.5,0.7,1c0,0.3-0.1,0.5-0.3,0.7c-0.2,0.2-0.4,0.3-0.8,0.3s-0.7-0.2-1-0.5c-0.3-0.3-0.4-0.7-0.4-1.1
						c0-0.9,0.3-1.6,1-2.1c0.7-0.5,1.5-0.7,2.5-0.7c1.2,0,2.1,0.3,2.8,0.9c0.7,0.6,1.1,1.5,1.1,2.5c0,0.5-0.1,1-0.4,1.4
						c-0.3,0.4-0.6,0.8-1,1c-0.4,0.3-0.8,0.4-1.2,0.5v0.2c0.4,0.1,0.9,0.3,1.3,0.6c0.5,0.3,0.9,0.7,1.2,1.2c0.3,0.5,0.5,1.1,0.5,1.7
						c0,0.8-0.2,1.5-0.6,2.1s-1,1-1.7,1.4c-0.7,0.3-1.5,0.5-2.4,0.5C16.9,25.9,16.1,25.7,15.4,25.3z"/>
				</g>
			</g>
		</g>
		<g>
			<g>
				<g>
					<path class="st2" d="M153.1,206.2c0.7,0.4,1,1.1,1,2c0,0.5-0.1,0.9-0.4,1.2c-0.3,0.3-0.6,0.5-1.1,0.5c-0.4,0-0.7-0.1-0.9-0.3
						s-0.3-0.5-0.3-0.8s0.1-0.5,0.2-0.7c0.2-0.2,0.4-0.3,0.6-0.3c0.5,0,0.7-0.1,0.7-0.3c0-0.8-0.8-1.2-2.4-1.2c-0.9,0-1.6,0.3-2,1
						c-0.4,0.6-0.6,1.4-0.6,2.3c0,1,0.2,1.8,0.7,2.3c0.4,0.5,1,0.8,1.6,0.8c0.2,0,0.4,0,0.5,0s0.3-0.1,0.5-0.1
						c0.4-0.1,0.8-0.2,1-0.2s0.4,0,0.5,0.1s0.2,0.2,0.2,0.4s-0.1,0.3-0.2,0.4c-0.1,0.1-0.3,0.1-0.5,0.1s-0.5,0-0.9-0.1
						c-0.3,0-0.6-0.1-1.1-0.1c-0.6,0-1.1,0.3-1.4,0.8c-0.3,0.6-0.5,1.2-0.5,1.9c0,0.8,0.2,1.5,0.6,2.1c0.4,0.6,1,0.8,1.7,0.8
						c0.8,0,1.3-0.1,1.6-0.4c0.3-0.2,0.5-0.5,0.5-0.8c0-0.1,0-0.2-0.1-0.4c-0.1-0.1-0.2-0.2-0.4-0.3c-0.5-0.2-0.7-0.5-0.7-1
						c0-0.3,0.1-0.5,0.3-0.7s0.4-0.3,0.8-0.3c0.4,0,0.7,0.2,1,0.5s0.4,0.7,0.4,1.1c0,0.9-0.3,1.6-1,2.1s-1.5,0.7-2.5,0.7
						c-1.2,0-2.1-0.3-2.8-0.9c-0.7-0.6-1.1-1.5-1.1-2.5c0-0.5,0.1-1,0.4-1.4c0.3-0.4,0.6-0.8,1-1c0.4-0.3,0.8-0.4,1.2-0.5v-0.2
						c-0.4-0.1-0.9-0.3-1.3-0.6c-0.5-0.3-0.9-0.7-1.2-1.2s-0.5-1.1-0.5-1.7c0-0.8,0.2-1.5,0.6-2.1c0.4-0.6,1-1,1.7-1.4
						c0.7-0.3,1.5-0.5,2.4-0.5C151.5,205.6,152.4,205.8,153.1,206.2z"/>
				</g>
			</g>
		</g>
		<g>
			<path class="st2" d="M151.9,201.2c-1.9,0-2.3-1.4-2.4-2.1c-0.1,0.7-0.5,2.2-2.4,2.1c-2.5-0.1-2.8-2.9-2-4.3
				c0.9-1.4,1.3-1.9,2.2-2.8c0.8-0.9,1.8-1.8,2.2-2.4v-0.1v0.1c0.4,0.6,1.3,1.5,2.2,2.4s1.3,1.4,2.2,2.8
				C154.7,198.3,154.4,201.1,151.9,201.2z"/>
		</g>
	</g>
</g>
</svg>
