<?xml version="1.0" encoding="utf-8"?>
<!-- Generator: Adobe Illustrator 27.6.1, SVG Export Plug-In . SVG Version: 6.00 Build 0)  -->
<svg version="1.1" id="Слой_1" xmlns="http://www.w3.org/2000/svg" xmlns:xlink="http://www.w3.org/1999/xlink" x="0px" y="0px"
	 viewBox="0 0 168.5 234.7" style="enable-background:new 0 0 168.5 234.7;" xml:space="preserve">
<style type="text/css">
	.st0{fill:#FFFFFF;}
	.st1{fill:#32A8E0;}
	.st2{fill:#0C0D0D;}
	.st3{fill:#020203;}
</style>
<g>
	<g>
		<g>
			<path class="st0" d="M161.5,233.7H7c-3.3,0-5.9-2.7-5.9-5.9V6.8c0-3.3,2.7-5.9,5.9-5.9h154.5c3.3,0,5.9,2.7,5.9,5.9v221
				C167.4,231.1,164.8,233.7,161.5,233.7z"/>
			<path class="st1" d="M161.5,233.8H7c-3.3,0-6.1-2.7-6.1-6.1V6.8c0-3.4,2.8-6.1,6.1-6.1h154.5c3.3,0,6.1,2.7,6.1,6.1v221
				C167.5,231.1,164.8,233.8,161.5,233.8z M7,0.9c-3.2,0-5.8,2.6-5.8,5.8v221c0,3.2,2.6,5.8,5.8,5.8h154.5c3.2,0,5.8-2.6,5.8-5.8
				V6.8c0-3.2-2.6-5.8-5.8-5.8L7,0.9L7,0.9z"/>
		</g>
	</g>
	<g>
		<g>
			<path class="st2" d="M23.6,32.1c-1.1-1.2-2.3-2.3-2.8-2.9c-0.4-0.4-0.7-0.8-0.8-0.9v-0.1l0,0l0,0v0.1c-0.1,0.1-0.4,0.5-0.8,0.9
				c-0.5,0.6-1.8,1.7-2.8,2.9c-1.1,1.2-1.2,2.3-1,3.3s1.2,1.9,2.8,1.7c0.5-0.1,0.9-0.3,1.1-0.6c-0.2,1.4-0.9,2.1-0.9,2.1h3.1
				c-0.6-0.6-0.8-1.5-0.8-2.1c0.3,0.3,0.6,0.5,1.1,0.6c1.6,0.2,2.6-0.7,2.8-1.7C24.8,34.4,24.7,33.2,23.6,32.1z"/>
		</g>
		<g>
			<g>
				<g>
					<path class="st3" d="M16.6,24.4c-0.7-0.4-1-1.1-1-2c0-0.5,0.1-0.9,0.4-1.2c0.3-0.3,0.6-0.5,1.1-0.5c0.4,0,0.7,0.1,0.9,0.3
						c0.2,0.2,0.3,0.5,0.3,0.8s-0.1,0.5-0.2,0.7c-0.2,0.2-0.4,0.3-0.6,0.3c-0.5,0-0.7,0.1-0.7,0.3c0,0.8,0.8,1.2,2.4,1.2
						c0.9,0,1.6-0.3,2-1c0.4-0.6,0.6-1.4,0.6-2.3c0-1-0.2-1.8-0.7-2.3c-0.4-0.5-1-0.8-1.6-0.8c-0.2,0-0.4,0-0.5,0S18.7,18,18.5,18
						c-0.4,0.1-0.8,0.2-1,0.2s-0.4,0-0.5-0.1s-0.2-0.2-0.2-0.4c0-0.2,0.1-0.3,0.2-0.4c0.1-0.1,0.3-0.1,0.5-0.1s0.5,0,0.9,0.1
						c0.3,0,0.6,0.1,1.1,0.1c0.6,0,1.1-0.3,1.4-0.8c0.3-0.6,0.5-1.2,0.5-1.9c0-0.8-0.2-1.5-0.6-2.1c-0.4-0.6-1-0.8-1.7-0.8
						c-0.8,0-1.3,0.1-1.6,0.4C17.2,12.4,17,12.7,17,13c0,0.1,0,0.2,0.1,0.4c0.1,0.1,0.2,0.2,0.4,0.3c0.5,0.2,0.7,0.5,0.7,1
						c0,0.3-0.1,0.5-0.3,0.7c-0.2,0.2-0.4,0.3-0.8,0.3s-0.7-0.2-1-0.5c-0.3-0.3-0.4-0.7-0.4-1.1c0-0.9,0.3-1.6,1-2.1
						c0.7-0.5,1.5-0.7,2.5-0.7c1.2,0,2.1,0.3,2.8,0.9c0.7,0.6,1.1,1.5,1.1,2.5c0,0.5-0.1,1-0.4,1.4s-0.6,0.8-1,1
						c-0.4,0.3-0.8,0.4-1.2,0.5v0.1c0.4,0.1,0.9,0.3,1.3,0.6c0.5,0.3,0.9,0.7,1.2,1.2c0.3,0.5,0.5,1.1,0.5,1.7
						c0,0.8-0.2,1.5-0.6,2.1s-1,1-1.7,1.4c-0.7,0.3-1.5,0.5-2.4,0.5C18.1,25.1,17.3,24.8,16.6,24.4z"/>
				</g>
			</g>
		</g>
		<g>
			<g>
				<g>
					<path class="st3" d="M154.3,205.4c0.7,0.4,1,1.1,1,2c0,0.5-0.1,0.9-0.4,1.2c-0.3,0.3-0.6,0.5-1.1,0.5c-0.4,0-0.7-0.1-0.9-0.3
						s-0.3-0.5-0.3-0.8s0.1-0.5,0.2-0.7c0.2-0.2,0.4-0.3,0.6-0.3c0.5,0,0.7-0.1,0.7-0.3c0-0.8-0.8-1.2-2.4-1.2c-0.9,0-1.6,0.3-2,1
						c-0.4,0.6-0.6,1.4-0.6,2.3c0,1,0.2,1.8,0.7,2.3c0.4,0.5,1,0.8,1.6,0.8c0.2,0,0.4,0,0.5,0s0.3-0.1,0.5-0.1
						c0.4-0.1,0.8-0.2,1-0.2s0.4,0,0.5,0.1s0.2,0.2,0.2,0.4s-0.1,0.3-0.2,0.4c-0.1,0.1-0.3,0.1-0.5,0.1s-0.5,0-0.9-0.1
						c-0.3,0-0.6-0.1-1.1-0.1c-0.6,0-1.1,0.3-1.4,0.8c-0.3,0.6-0.5,1.2-0.5,1.9c0,0.8,0.2,1.5,0.6,2.1c0.4,0.6,1,0.8,1.7,0.8
						c0.8,0,1.3-0.1,1.6-0.4c0.3-0.2,0.5-0.5,0.5-0.8c0-0.1,0-0.2-0.1-0.4c-0.1-0.1-0.2-0.2-0.4-0.3c-0.5-0.2-0.7-0.5-0.7-1
						c0-0.3,0.1-0.5,0.3-0.7s0.4-0.3,0.8-0.3c0.4,0,0.7,0.2,1,0.5s0.4,0.7,0.4,1.1c0,0.9-0.3,1.6-1,2.1s-1.5,0.7-2.5,0.7
						c-1.2,0-2.1-0.3-2.8-0.9c-0.7-0.6-1.1-1.5-1.1-2.5c0-0.5,0.1-1,0.4-1.4c0.3-0.4,0.6-0.8,1-1c0.4-0.3,0.8-0.4,1.2-0.5V212
						c-0.4-0.1-0.9-0.3-1.3-0.6c-0.5-0.3-0.9-0.7-1.2-1.2s-0.5-1.1-0.5-1.7c0-0.8,0.2-1.5,0.6-2.1c0.4-0.6,1-1,1.7-1.4
						c0.7-0.3,1.5-0.5,2.4-0.5C152.8,204.7,153.6,204.9,154.3,205.4z"/>
				</g>
			</g>
		</g>
		<g>
			<path class="st2" d="M98.1,36c-3.7-4-7.9-7.9-9.7-10c-1.3-1.5-2.3-2.7-2.7-3.2v-0.3c0,0,0,0-0.1,0.1c-0.1-0.1-0.1-0.1-0.1-0.1
				v0.3c-0.4,0.5-1.3,1.7-2.7,3.2c-1.8,2.1-6.1,6-9.7,10c-3.7,4-4,8-3.3,11.3s4.2,6.5,9.6,5.8c1.7-0.2,3-1,3.9-2.1
				c-0.6,4.7-3.2,7.2-3.2,7.2h10.6c-1.9-2.2-2.6-5.2-2.9-7.1c0.9,1,2.2,1.8,3.9,2c5.5,0.7,8.9-2.4,9.6-5.8C102,44,101.7,40,98.1,36z
				"/>
		</g>
		<g>
			<path class="st2" d="M98.1,112.6c-3.7-4-7.9-7.9-9.7-10c-1.3-1.5-2.3-2.7-2.7-3.2v-0.3c0,0,0,0-0.1,0.1c-0.1-0.1-0.1-0.1-0.1-0.1
				v0.3c-0.4,0.5-1.3,1.7-2.7,3.2c-1.8,2.1-6.1,6-9.7,10c-3.7,4-4,8-3.3,11.3s4.2,6.5,9.6,5.8c1.7-0.2,3-1,3.9-2.1
				c-0.6,4.7-3.2,7.2-3.2,7.2h10.6c-1.9-2.2-2.6-5.2-2.9-7.1c0.9,1,2.2,1.8,3.9,2c5.5,0.7,8.9-2.4,9.6-5.8
				C102,120.6,101.7,116.6,98.1,112.6z"/>
		</g>
		<g>
			<path class="st2" d="M98.1,195.5c-3.7,4-7.9,7.9-9.7,10c-1.3,1.5-2.3,2.7-2.7,3.2v0.3c0,0,0,0-0.1-0.1c-0.1,0.1-0.1,0.1-0.1,0.1
				v-0.3c-0.4-0.5-1.3-1.7-2.7-3.2c-1.8-2.1-6.1-6-9.7-10c-3.7-4-4-8-3.3-11.3s4.2-6.5,9.6-5.8c1.7,0.2,3,1,3.9,2.1
				c-0.6-4.7-3.2-7.2-3.2-7.2h10.6c-1.9,2.2-2.6,5.2-2.9,7.1c0.9-1,2.2-1.8,3.9-2c5.5-0.7,8.9,2.4,9.6,5.8
				C102,187.4,101.7,191.4,98.1,195.5z"/>
		</g>
		<g>
			<path class="st2" d="M153.9,198.2c-1.1,1.2-2.3,2.3-2.8,2.9c-0.4,0.4-0.7,0.8-0.8,0.9v0.1l0,0l0,0V202c-0.1-0.1-0.4-0.5-0.8-0.9
				c-0.5-0.6-1.8-1.7-2.8-2.9c-1.1-1.2-1.2-2.3-1-3.3s1.2-1.9,2.8-1.7c0.5,0.1,0.9,0.3,1.1,0.6c-0.2-1.4-0.9-2.1-0.9-2.1h3.1
				c-0.6,0.6-0.8,1.5-0.8,2.1c0.3-0.3,0.6-0.5,1.1-0.6c1.6-0.2,2.6,0.7,2.8,1.7S155,197,153.9,198.2z"/>
		</g>
	</g>
</g>
</svg>
