<?xml version="1.0" encoding="utf-8"?>
<!-- Generator: Adobe Illustrator 27.6.1, SVG Export Plug-In . SVG Version: 6.00 Build 0)  -->
<svg version="1.1" id="Слой_1" xmlns="http://www.w3.org/2000/svg" xmlns:xlink="http://www.w3.org/1999/xlink" x="0px" y="0px"
	 viewBox="0 0 167.2 233.8" style="enable-background:new 0 0 167.2 233.8;" xml:space="preserve">
<style type="text/css">
	.st0{fill:#FFFFFF;}
	.st1{fill:#32A8E0;}
	.st2{fill:#0C0D0D;}
	.st3{fill:#231F20;}
</style>
<g>
	<g>
		<g>
			<path class="st0" d="M160.9,233.4H6.4c-3.3,0-5.9-2.7-5.9-5.9V6.5c0-3.3,2.7-5.9,5.9-5.9h154.5c3.3,0,5.9,2.7,5.9,5.9v221
				C166.8,230.8,164.1,233.4,160.9,233.4z"/>
			<path class="st1" d="M160.9,233.5H6.4c-3.3,0-6.1-2.7-6.1-6.1V6.5c0-3.4,2.8-6.1,6.1-6.1h154.5c3.3,0,6.1,2.7,6.1,6.1v221
				C166.9,230.8,164.2,233.5,160.9,233.5z M6.4,0.6c-3.2,0-5.8,2.6-5.8,5.8v221c0,3.2,2.6,5.8,5.8,5.8h154.5c3.2,0,5.8-2.6,5.8-5.8
				V6.5c0-3.2-2.6-5.8-5.8-5.8L6.4,0.6L6.4,0.6z"/>
		</g>
	</g>
	<g>
		<path class="st0" d="M149.5,18.9c0,0.3-0.3,0.6-0.6,0.6s-0.6-0.3-0.6-0.6s0.3-0.6,0.6-0.6C149.3,18.3,149.5,18.6,149.5,18.9z"/>
	</g>
	<g>
		<path class="st0" d="M122.4,18.9c0,0.3-0.3,0.6-0.6,0.6s-0.6-0.3-0.6-0.6s0.3-0.6,0.6-0.6S122.4,18.6,122.4,18.9z"/>
	</g>
	<g>
		<path class="st0" d="M72.4,19.1c0,0.3-0.3,0.6-0.6,0.6c-0.3,0-0.6-0.3-0.6-0.6s0.3-0.6,0.6-0.6S72.4,18.8,72.4,19.1z"/>
	</g>
	<g>
		<path class="st0" d="M149.5,40c0,0.3-0.3,0.6-0.6,0.6s-0.6-0.3-0.6-0.6s0.3-0.6,0.6-0.6C149.3,39.5,149.5,39.7,149.5,40z"/>
	</g>
	<g>
		<path class="st0" d="M149.5,59.3c0,0.3-0.3,0.6-0.6,0.6s-0.6-0.3-0.6-0.6s0.3-0.6,0.6-0.6C149.3,58.7,149.5,59,149.5,59.3z"/>
	</g>
	<g>
		<path class="st0" d="M19.2,19.4c0,0.3-0.3,0.6-0.6,0.6c-0.3,0-0.6-0.3-0.6-0.6c0-0.3,0.3-0.6,0.6-0.6C19,18.9,19.2,19.1,19.2,19.4
			z"/>
	</g>
	<g>
		<path class="st0" d="M46.7,19.1c0,0.3-0.3,0.6-0.6,0.6s-0.6-0.3-0.6-0.6s0.3-0.6,0.6-0.6S46.7,18.8,46.7,19.1z"/>
	</g>
	<g>
		<path class="st0" d="M19.2,39.6c0,0.3-0.3,0.6-0.6,0.6c-0.3,0-0.6-0.3-0.6-0.6s0.3-0.6,0.6-0.6C19,39,19.2,39.3,19.2,39.6z"/>
	</g>
	<g>
		<path class="st0" d="M19.2,59.4c0,0.3-0.3,0.6-0.6,0.6c-0.3,0-0.6-0.3-0.6-0.6s0.3-0.6,0.6-0.6C19,58.9,19.2,59.1,19.2,59.4z"/>
	</g>
	<g>
		<path class="st0" d="M19.2,79.4c0,0.3-0.3,0.6-0.6,0.6c-0.3,0-0.6-0.3-0.6-0.6s0.3-0.6,0.6-0.6C19,78.8,19.2,79.1,19.2,79.4z"/>
	</g>
	<g>
		<path class="st0" d="M19.2,92.3c0,0.3-0.3,0.6-0.6,0.6c-0.3,0-0.6-0.3-0.6-0.6c0-0.3,0.3-0.6,0.6-0.6C19,91.7,19.2,92,19.2,92.3z"
			/>
	</g>
	<g>
		<path class="st0" d="M19.2,105.7c0,0.3-0.3,0.6-0.6,0.6c-0.3,0-0.6-0.3-0.6-0.6c0-0.3,0.3-0.6,0.6-0.6
			C19,105.1,19.2,105.4,19.2,105.7z"/>
	</g>
	<g>
		<path class="st0" d="M19.2,118.6c0,0.3-0.3,0.6-0.6,0.6c-0.3,0-0.6-0.3-0.6-0.6c0-0.3,0.3-0.6,0.6-0.6
			C19,118.1,19.2,118.3,19.2,118.6z"/>
	</g>
	<g>
		<path class="st0" d="M19.2,170.4c0,0.3-0.3,0.6-0.6,0.6c-0.3,0-0.6-0.3-0.6-0.6s0.3-0.6,0.6-0.6C19,169.8,19.2,170.1,19.2,170.4z"
			/>
	</g>
	<g>
		<path class="st0" d="M19.2,183.8c0,0.3-0.3,0.6-0.6,0.6c-0.3,0-0.6-0.3-0.6-0.6s0.3-0.6,0.6-0.6C19,183.2,19.2,183.5,19.2,183.8z"
			/>
	</g>
	<g>
		<path class="st0" d="M19.2,196.8c0,0.3-0.3,0.6-0.6,0.6c-0.3,0-0.6-0.3-0.6-0.6s0.3-0.6,0.6-0.6C19,196.3,19.2,196.5,19.2,196.8z"
			/>
	</g>
	<g>
		<path class="st0" d="M19.5,216c0,0.3-0.3,0.6-0.6,0.6c-0.3,0-0.6-0.3-0.6-0.6s0.3-0.6,0.6-0.6C19.2,215.5,19.5,215.7,19.5,216z"/>
	</g>
	<g>
		<path class="st0" d="M66.4,216.6c0,0.3-0.3,0.6-0.6,0.6s-0.6-0.3-0.6-0.6s0.3-0.6,0.6-0.6S66.4,216.3,66.4,216.6z"/>
	</g>
	<g>
		<path class="st0" d="M92.8,216.6c0,0.3-0.3,0.6-0.6,0.6s-0.6-0.3-0.6-0.6s0.3-0.6,0.6-0.6S92.8,216.3,92.8,216.6z"/>
	</g>
	<g>
		<path class="st0" d="M118.6,216.6c0,0.3-0.3,0.6-0.6,0.6s-0.6-0.3-0.6-0.6s0.3-0.6,0.6-0.6S118.6,216.3,118.6,216.6z"/>
	</g>
	<g>
		<path class="st0" d="M149.5,157.1c0,0.3-0.3,0.6-0.6,0.6s-0.6-0.3-0.6-0.6s0.3-0.6,0.6-0.6C149.3,156.5,149.5,156.7,149.5,157.1z"
			/>
	</g>
	<g>
		<path class="st0" d="M149.5,169.8c0,0.3-0.3,0.6-0.6,0.6s-0.6-0.3-0.6-0.6s0.3-0.6,0.6-0.6C149.3,169.2,149.5,169.5,149.5,169.8z"
			/>
	</g>
	<g>
		<path class="st0" d="M149.5,182.4c0,0.3-0.3,0.6-0.6,0.6s-0.6-0.3-0.6-0.6s0.3-0.6,0.6-0.6C149.3,181.8,149.5,182.1,149.5,182.4z"
			/>
	</g>
	<g>
		<path class="st0" d="M149.5,195.2c0,0.3-0.3,0.6-0.6,0.6s-0.6-0.3-0.6-0.6s0.3-0.6,0.6-0.6C149.3,194.7,149.5,194.9,149.5,195.2z"
			/>
	</g>
	<g>
		<path class="st0" d="M149.5,214.8c0,0.3-0.3,0.6-0.6,0.6s-0.6-0.3-0.6-0.6s0.3-0.6,0.6-0.6C149.3,214.2,149.5,214.5,149.5,214.8z"
			/>
	</g>
	<g>
		<g>
			<path class="st2" d="M68.9,41.7c-3.6-3.9-9.1-1.6-9.1-1.6c1.5-1.6,2.6-2.9,2.4-5.6c0-0.1,0-0.2,0-0.3c0-4.3-3.5-7.7-7.7-7.7
				s-7.7,3.5-7.7,7.7c0,0.5,0.1,1.1,0.2,1.6c0.2,1.9,1.1,3,2.4,4.3c0,0-5.5-2.3-9.1,1.6c-3.6,3.9-1.8,8.5-0.7,10.1
				c1.1,1.5,2.8,4.1,6.8,3.8c3.5-0.3,4-0.9,6.5-2.8c-0.3,5.3-3.5,8.9-3.5,8.9h0.2h5.1h5.1H60c-1.9-2-3.7-6.7-3.4-8.9
				c2.4,1.9,2.9,2.5,6.4,2.7c4,0.3,5.7-2.3,6.8-3.8C70.7,50.3,72.5,45.6,68.9,41.7z"/>
		</g>
		<g>
			<path class="st2" d="M125.6,41.7c-3.6-3.9-9.1-1.6-9.1-1.6c1.5-1.6,2.6-2.9,2.4-5.6c0-0.1,0-0.2,0-0.3c0-4.3-3.5-7.7-7.7-7.7
				c-4.3,0-7.7,3.5-7.7,7.7c0,0.5,0.1,1.1,0.2,1.6c0.2,1.9,1.1,3,2.4,4.3c0,0-5.5-2.3-9.1,1.6s-1.8,8.5-0.7,10.1
				c1.1,1.5,2.8,4.1,6.8,3.8c3.5-0.3,4-0.9,6.5-2.8c-0.3,5.3-3.5,8.9-3.5,8.9h0.2h5.1h5.1h0.2c-1.9-2-3.7-6.7-3.4-8.9
				c2.4,1.9,2.9,2.5,6.4,2.7c4,0.3,5.7-2.3,6.8-3.8C127.4,50.3,129.2,45.6,125.6,41.7z"/>
		</g>
		<g>
			<g>
				<g>
					<path class="st3" d="M16,25h1.9c0.2,0,0.3,0,0.4-0.1s0.1-0.2,0.1-0.4v-2.6h-4.9v-0.7l6-8.9h0.7v8.9h2.3v0.7h-2.3v2.6
						c0,0.2,0,0.3,0.1,0.4s0.2,0.1,0.4,0.1h1.9v0.6H16V25z M14.4,21.2h4v-5.9L14.4,21.2z"/>
				</g>
			</g>
		</g>
		<g>
			<g>
				<path class="st3" d="M151.3,207.6h-1.9c-0.2,0-0.3,0-0.4,0.1c-0.1,0.1-0.1,0.2-0.1,0.4v2.6h4.9v0.7l-6,8.9h-0.7v-8.9h-2.3v-0.7
					h2.3v-2.6c0-0.2,0-0.3-0.1-0.4c-0.1-0.1-0.2-0.1-0.4-0.1h-1.9V207h6.6L151.3,207.6L151.3,207.6z M152.9,211.4h-4v5.9
					L152.9,211.4z"/>
			</g>
		</g>
		<g>
			<path class="st2" d="M13.7,34.6c1,1.1,2.6,0.5,2.6,0.5c-0.4,0.5-0.7,0.9-0.7,1.6v0.1c0,1.2,1,2.2,2.2,2.2s2.2-1,2.2-2.2
				c0-0.2,0-0.3,0-0.5c-0.1-0.5-0.3-0.9-0.7-1.3c0,0,1.6,0.7,2.6-0.5c1-1.1,0.5-2.5,0.2-2.9c-0.3-0.4-0.8-1.2-2-1.1
				c-1,0.1-1.2,0.2-1.9,0.8c0.1-1.5,1-2.6,1-2.6h-0.1h-1.5h-1.5H16c0.6,0.6,1.1,1.9,1,2.6c-0.7-0.5-0.8-0.7-1.8-0.8
				c-1.1-0.1-1.6,0.7-2,1.1C13.2,32.2,12.7,33.5,13.7,34.6z"/>
		</g>
		<g>
			<path class="st2" d="M68.9,185.9c-3.6,3.9-9.1,1.6-9.1,1.6c1.5,1.6,2.6,2.9,2.4,5.6c0,0.1,0,0.2,0,0.3c0,4.3-3.5,7.7-7.7,7.7
				s-7.7-3.5-7.7-7.7c0-0.5,0.1-1.1,0.2-1.6c0.2-1.9,1.1-3,2.4-4.3c0,0-5.5,2.3-9.1-1.6c-3.6-3.9-1.8-8.5-0.7-10.1
				c1.1-1.5,2.8-4.1,6.8-3.8c3.5,0.3,4,0.9,6.5,2.8c-0.3-5.3-3.5-8.9-3.5-8.9h0.2h5.1h5.1H60c-1.9,2-3.7,6.7-3.4,8.9
				c2.4-1.9,2.9-2.5,6.4-2.7c4-0.3,5.7,2.3,6.8,3.8C70.7,177.3,72.5,182,68.9,185.9z"/>
		</g>
		<g>
			<path class="st2" d="M125.6,185.9c-3.6,3.9-9.1,1.6-9.1,1.6c1.5,1.6,2.6,2.9,2.4,5.6c0,0.1,0,0.2,0,0.3c0,4.3-3.5,7.7-7.7,7.7
				c-4.3,0-7.7-3.5-7.7-7.7c0-0.5,0.1-1.1,0.2-1.6c0.2-1.9,1.1-3,2.4-4.3c0,0-5.5,2.3-9.1-1.6c-3.6-3.9-1.8-8.5-0.7-10.1
				c1.1-1.5,2.8-4.1,6.8-3.8c3.5,0.3,4,0.9,6.5,2.8c-0.3-5.3-3.5-8.9-3.5-8.9h0.2h5.1h5.1h0.2c-1.9,2-3.7,6.7-3.4,8.9
				c2.4-1.9,2.9-2.5,6.4-2.7c4-0.3,5.7,2.3,6.8,3.8C127.4,177.3,129.2,182,125.6,185.9z"/>
		</g>
		<g>
			<path class="st2" d="M144,197.8c1-1.1,2.6-0.5,2.6-0.5c-0.4-0.5-0.7-0.9-0.7-1.6v-0.1c0-1.2,1-2.2,2.2-2.2s2.2,1,2.2,2.2
				c0,0.2,0,0.3,0,0.5c-0.1,0.5-0.3,0.9-0.7,1.3c0,0,1.6-0.7,2.6,0.5c1,1.1,0.5,2.5,0.2,2.9s-0.8,1.2-2,1.1c-1-0.1-1.2-0.2-1.9-0.8
				c0.1,1.5,1,2.6,1,2.6h-0.1h-1.5h-1.5h-0.1c0.6-0.6,1.1-1.9,1-2.6c-0.7,0.5-0.8,0.7-1.8,0.8c-1.1,0.1-1.6-0.7-2-1.1
				C143.5,200.2,143,198.9,144,197.8z"/>
		</g>
	</g>
</g>
</svg>
