<?xml version="1.0" encoding="utf-8"?>
<!-- Generator: Adobe Illustrator 27.6.1, SVG Export Plug-In . SVG Version: 6.00 Build 0)  -->
<svg version="1.1" id="Слой_1" xmlns="http://www.w3.org/2000/svg" xmlns:xlink="http://www.w3.org/1999/xlink" x="0px" y="0px"
	 viewBox="0 0 167.1 233.7" style="enable-background:new 0 0 167.1 233.7;" xml:space="preserve">
<style type="text/css">
	.st0{fill:#FFFFFF;}
	.st1{fill:#32A8E0;}
	.st2{fill:#CD1417;}
	.st3{fill:#BE3D2E;}
</style>
<g>
	<g>
		<g>
			<path class="st0" d="M160.8,233.3H6.4c-3.3,0-5.9-2.7-5.9-5.9V6.4c0-3.3,2.7-5.9,5.9-5.9h154.4c3.3,0,5.9,2.7,5.9,5.9v221
				C166.8,230.6,164.1,233.3,160.8,233.3z"/>
			<path class="st1" d="M160.8,233.4H6.4c-3.3,0-6.1-2.7-6.1-6.1V6.4C0.4,3,3.1,0.3,6.4,0.3h154.4c3.3,0,6.1,2.7,6.1,6.1v221
				C166.9,230.7,164.2,233.4,160.8,233.4z M6.4,0.6c-3.2,0-5.8,2.6-5.8,5.8v221c0,3.2,2.6,5.8,5.8,5.8h154.4c3.2,0,5.8-2.6,5.8-5.8
				V6.4c0-3.2-2.6-5.8-5.8-5.8C160.8,0.6,6.4,0.6,6.4,0.6z"/>
		</g>
	</g>
	<g>
		<circle class="st0" cx="148.9" cy="18.8" r="0.6"/>
	</g>
	<g>
		<circle class="st0" cx="121.8" cy="18.8" r="0.6"/>
	</g>
	<g>
		<circle class="st0" cx="71.8" cy="19" r="0.6"/>
	</g>
	<g>
		<circle class="st0" cx="148.9" cy="39.9" r="0.6"/>
	</g>
	<g>
		<circle class="st0" cx="148.9" cy="59.2" r="0.6"/>
	</g>
	<g>
		<circle class="st0" cx="18.7" cy="19.4" r="0.6"/>
	</g>
	<g>
		<path class="st0" d="M46.7,19c0,0.3-0.3,0.6-0.6,0.6s-0.6-0.3-0.6-0.6c0-0.3,0.3-0.6,0.6-0.6S46.7,18.7,46.7,19z"/>
	</g>
	<g>
		<circle class="st0" cx="18.7" cy="39.5" r="0.6"/>
	</g>
	<g>
		<circle class="st0" cx="18.7" cy="59.4" r="0.6"/>
	</g>
	<g>
		<circle class="st0" cx="18.7" cy="79.3" r="0.6"/>
	</g>
	<g>
		<circle class="st0" cx="18.7" cy="92.2" r="0.6"/>
	</g>
	<g>
		<circle class="st0" cx="18.7" cy="105.6" r="0.6"/>
	</g>
	<g>
		<circle class="st0" cx="18.7" cy="118.5" r="0.6"/>
	</g>
	<g>
		<circle class="st0" cx="18.7" cy="170.3" r="0.6"/>
	</g>
	<g>
		<path class="st0" d="M19.3,183.7c0,0.3-0.3,0.6-0.6,0.6c-0.3,0-0.6-0.3-0.6-0.6s0.3-0.6,0.6-0.6C19,183.1,19.3,183.4,19.3,183.7z"
			/>
	</g>
	<g>
		<circle class="st0" cx="18.7" cy="196.7" r="0.6"/>
	</g>
	<g>
		<path class="st0" d="M19.5,215.9c0,0.3-0.3,0.6-0.6,0.6c-0.3,0-0.6-0.3-0.6-0.6s0.3-0.6,0.6-0.6C19.3,215.3,19.5,215.6,19.5,215.9
			z"/>
	</g>
	<g>
		<path class="st0" d="M66.5,216.5c0,0.3-0.3,0.6-0.6,0.6c-0.3,0-0.6-0.3-0.6-0.6s0.3-0.6,0.6-0.6C66.2,215.9,66.5,216.2,66.5,216.5
			z"/>
	</g>
	<g>
		<circle class="st0" cx="92.3" cy="216.5" r="0.6"/>
	</g>
	<g>
		<circle class="st0" cx="118" cy="216.5" r="0.6"/>
	</g>
	<g>
		<circle class="st0" cx="148.9" cy="156.9" r="0.6"/>
	</g>
	<g>
		<circle class="st0" cx="148.9" cy="169.7" r="0.6"/>
	</g>
	<g>
		<circle class="st0" cx="148.9" cy="182.3" r="0.6"/>
	</g>
	<g>
		<circle class="st0" cx="148.9" cy="195.1" r="0.6"/>
	</g>
	<g>
		<circle class="st0" cx="148.9" cy="214.7" r="0.6"/>
	</g>
	<g>
		<g>
			<polygon class="st2" points="19.6,24.8 14.9,30 19.1,35.7 23.9,30.4 			"/>
		</g>
		<g>
			<polygon class="st2" points="147.3,188.8 142.6,194 146.8,199.7 151.7,194.5 			"/>
		</g>
		<g>
			<g>
				<g>
					<path class="st3" d="M16.1,21H18c0.2,0,0.3,0,0.4-0.1s0.1-0.2,0.1-0.4v-2.6h-4.9v-0.7l6-8.9h0.7v8.9h2.3v0.7h-2.3v2.6
						c0,0.2,0,0.3,0.1,0.4s0.2,0.1,0.4,0.1h1.9v0.6h-6.6V21z M14.4,17.2h4v-5.9L14.4,17.2z"/>
				</g>
			</g>
		</g>
		<g>
			<g>
				<g>
					<path class="st2" d="M151.3,202.5h-1.9c-0.2,0-0.3,0-0.4,0.1c-0.1,0.1-0.1,0.2-0.1,0.4v2.6h4.9v0.7l-6,8.9h-0.7v-8.9h-2.3v-0.7
						h2.3V203c0-0.2,0-0.3-0.1-0.4c-0.1-0.1-0.2-0.1-0.4-0.1h-1.9v-0.6h6.6L151.3,202.5L151.3,202.5z M152.9,206.3h-4v5.9
						L152.9,206.3z"/>
				</g>
			</g>
		</g>
		<g>
			<polygon class="st2" points="55.7,17.6 42.4,33.8 55.7,50.2 69.4,33.9 			"/>
		</g>
		<g>
			<polygon class="st2" points="55.7,167.2 42.4,183.3 55.7,199.7 69.4,183.5 			"/>
		</g>
		<g>
			<polygon class="st2" points="112.1,17.6 98.8,33.8 112.1,50.2 125.7,33.9 			"/>
		</g>
		<g>
			<polygon class="st2" points="112.1,167.2 98.8,183.3 112.1,199.7 125.7,183.5 			"/>
		</g>
	</g>
</g>
</svg>
