<?xml version="1.0" encoding="utf-8"?>
<!-- Generator: Adobe Illustrator 27.6.1, SVG Export Plug-In . SVG Version: 6.00 Build 0)  -->
<svg version="1.1" id="Слой_1" xmlns="http://www.w3.org/2000/svg" xmlns:xlink="http://www.w3.org/1999/xlink" x="0px" y="0px"
	 viewBox="0 0 166.7 233.8" style="enable-background:new 0 0 166.7 233.8;" xml:space="preserve">
<style type="text/css">
	.st0{fill:#FFFFFF;}
	.st1{fill:#32A8E0;}
	.st2{fill:#CD1417;}
	.st3{fill:#BE3D2E;}
</style>
<g>
	<g>
		<g>
			<path class="st0" d="M160.6,233.3H6.1c-3.3,0-5.9-2.7-5.9-5.9V6.4c0-3.3,2.7-5.9,5.9-5.9h154.5c3.3,0,5.9,2.7,5.9,5.9v221
				C166.5,230.7,163.8,233.3,160.6,233.3z"/>
			<path class="st1" d="M160.6,233.4H6.1c-3.3,0-6.1-2.7-6.1-6.1V6.4C0,3,2.8,0.3,6.1,0.3h154.5c3.3,0,6.1,2.7,6.1,6.1v221
				C166.6,230.7,163.9,233.4,160.6,233.4z M6.1,0.5c-3.2,0-5.8,2.6-5.8,5.8v221c0,3.2,2.6,5.8,5.8,5.8h154.5c3.2,0,5.8-2.6,5.8-5.8
				V6.4c0-3.2-2.6-5.8-5.8-5.8L6.1,0.5L6.1,0.5z"/>
		</g>
	</g>
	<g>
		<path class="st0" d="M149.2,18.8c0,0.3-0.3,0.6-0.6,0.6s-0.6-0.3-0.6-0.6c0-0.3,0.3-0.6,0.6-0.6S149.2,18.5,149.2,18.8z"/>
	</g>
	<g>
		<path class="st0" d="M122.1,18.8c0,0.3-0.3,0.6-0.6,0.6c-0.3,0-0.6-0.3-0.6-0.6c0-0.3,0.3-0.6,0.6-0.6S122.1,18.5,122.1,18.8z"/>
	</g>
	<g>
		<path class="st0" d="M72.1,19c0,0.3-0.3,0.6-0.6,0.6c-0.3,0-0.6-0.3-0.6-0.6c0-0.3,0.3-0.6,0.6-0.6S72.1,18.7,72.1,19z"/>
	</g>
	<g>
		<path class="st0" d="M149.2,39.9c0,0.3-0.3,0.6-0.6,0.6s-0.6-0.3-0.6-0.6s0.3-0.6,0.6-0.6S149.2,39.6,149.2,39.9z"/>
	</g>
	<g>
		<path class="st0" d="M149.2,59.2c0,0.3-0.3,0.6-0.6,0.6s-0.6-0.3-0.6-0.6s0.3-0.6,0.6-0.6S149.2,58.9,149.2,59.2z"/>
	</g>
	<g>
		<path class="st0" d="M18.9,19.3c0,0.3-0.3,0.6-0.6,0.6c-0.3,0-0.6-0.3-0.6-0.6c0-0.3,0.3-0.6,0.6-0.6C18.7,18.8,18.9,19,18.9,19.3
			z"/>
	</g>
	<g>
		<path class="st0" d="M46.4,19c0,0.3-0.3,0.6-0.6,0.6s-0.6-0.3-0.6-0.6c0-0.3,0.3-0.6,0.6-0.6S46.4,18.7,46.4,19z"/>
	</g>
	<g>
		<path class="st0" d="M18.9,39.5c0,0.3-0.3,0.6-0.6,0.6c-0.3,0-0.6-0.3-0.6-0.6s0.3-0.6,0.6-0.6C18.7,38.9,18.9,39.2,18.9,39.5z"/>
	</g>
	<g>
		<path class="st0" d="M18.9,59.3c0,0.3-0.3,0.6-0.6,0.6c-0.3,0-0.6-0.3-0.6-0.6s0.3-0.6,0.6-0.6C18.7,58.8,18.9,59,18.9,59.3z"/>
	</g>
	<g>
		<path class="st0" d="M18.9,79.3c0,0.3-0.3,0.6-0.6,0.6c-0.3,0-0.6-0.3-0.6-0.6s0.3-0.6,0.6-0.6C18.7,78.7,18.9,79,18.9,79.3z"/>
	</g>
	<g>
		<path class="st0" d="M18.9,92.2c0,0.3-0.3,0.6-0.6,0.6c-0.3,0-0.6-0.3-0.6-0.6c0-0.3,0.3-0.6,0.6-0.6
			C18.7,91.6,18.9,91.9,18.9,92.2z"/>
	</g>
	<g>
		<path class="st0" d="M18.9,105.6c0,0.3-0.3,0.6-0.6,0.6c-0.3,0-0.6-0.3-0.6-0.6c0-0.3,0.3-0.6,0.6-0.6
			C18.7,105,18.9,105.3,18.9,105.6z"/>
	</g>
	<g>
		<path class="st0" d="M18.9,118.5c0,0.3-0.3,0.6-0.6,0.6c-0.3,0-0.6-0.3-0.6-0.6c0-0.3,0.3-0.6,0.6-0.6
			C18.7,118,18.9,118.2,18.9,118.5z"/>
	</g>
	<g>
		<path class="st0" d="M18.9,170.3c0,0.3-0.3,0.6-0.6,0.6c-0.3,0-0.6-0.3-0.6-0.6s0.3-0.6,0.6-0.6C18.7,169.7,18.9,170,18.9,170.3z"
			/>
	</g>
	<g>
		<path class="st0" d="M18.9,183.7c0,0.3-0.3,0.6-0.6,0.6c-0.3,0-0.6-0.3-0.6-0.6s0.3-0.6,0.6-0.6C18.7,183.1,18.9,183.4,18.9,183.7
			z"/>
	</g>
	<g>
		<path class="st0" d="M18.9,196.7c0,0.3-0.3,0.6-0.6,0.6c-0.3,0-0.6-0.3-0.6-0.6s0.3-0.6,0.6-0.6C18.7,196.2,18.9,196.4,18.9,196.7
			z"/>
	</g>
	<g>
		<path class="st0" d="M19.2,215.9c0,0.3-0.3,0.6-0.6,0.6c-0.3,0-0.6-0.3-0.6-0.6s0.3-0.6,0.6-0.6C18.9,215.3,19.2,215.6,19.2,215.9
			z"/>
	</g>
	<g>
		<path class="st0" d="M66.1,216.5c0,0.3-0.3,0.6-0.6,0.6s-0.6-0.3-0.6-0.6s0.3-0.6,0.6-0.6S66.1,216.2,66.1,216.5z"/>
	</g>
	<g>
		<path class="st0" d="M92.5,216.5c0,0.3-0.3,0.6-0.6,0.6s-0.6-0.3-0.6-0.6s0.3-0.6,0.6-0.6S92.5,216.2,92.5,216.5z"/>
	</g>
	<g>
		<path class="st0" d="M118.3,216.5c0,0.3-0.3,0.6-0.6,0.6s-0.6-0.3-0.6-0.6s0.3-0.6,0.6-0.6S118.3,216.2,118.3,216.5z"/>
	</g>
	<g>
		<path class="st0" d="M149.2,157c0,0.3-0.3,0.6-0.6,0.6s-0.6-0.3-0.6-0.6s0.3-0.6,0.6-0.6S149.2,156.6,149.2,157z"/>
	</g>
	<g>
		<path class="st0" d="M149.2,169.7c0,0.3-0.3,0.6-0.6,0.6s-0.6-0.3-0.6-0.6s0.3-0.6,0.6-0.6S149.2,169.4,149.2,169.7z"/>
	</g>
	<g>
		<path class="st0" d="M149.2,182.3c0,0.3-0.3,0.6-0.6,0.6s-0.6-0.3-0.6-0.6s0.3-0.6,0.6-0.6S149.2,182,149.2,182.3z"/>
	</g>
	<g>
		<path class="st0" d="M149.2,195.1c0,0.3-0.3,0.6-0.6,0.6s-0.6-0.3-0.6-0.6s0.3-0.6,0.6-0.6S149.2,194.8,149.2,195.1z"/>
	</g>
	<g>
		<path class="st0" d="M149.2,214.7c0,0.3-0.3,0.6-0.6,0.6s-0.6-0.3-0.6-0.6s0.3-0.6,0.6-0.6S149.2,214.4,149.2,214.7z"/>
	</g>
	<g>
		<g>
			<path class="st2" d="M20.8,29.4c-1.9,0-2.3,1.4-2.4,2.1c-0.1-0.7-0.5-2.2-2.4-2.1c-2.5,0.1-2.8,2.9-2,4.3
				c0.9,1.4,1.3,1.9,2.2,2.8c0.8,0.9,1.8,1.8,2.2,2.4V39v-0.1c0.4-0.6,1.3-1.5,2.2-2.4s1.3-1.4,2.2-2.8
				C23.6,32.3,23.3,29.5,20.8,29.4z"/>
		</g>
		<g>
			<g>
				<g>
					<path class="st3" d="M16.2,24.5h1.9c0.2,0,0.3,0,0.4-0.1c0.1-0.1,0.1-0.2,0.1-0.4v-2.6h-4.9v-0.7l6-8.9h0.7v8.9h2.3v0.7h-2.3
						V24c0,0.2,0,0.3,0.1,0.4c0.1,0.1,0.2,0.1,0.4,0.1h1.9v0.6h-6.6V24.5z M14.6,20.7h4v-5.9L14.6,20.7z"/>
				</g>
			</g>
		</g>
		<g>
			<g>
				<g>
					<path class="st2" d="M151.5,206h-1.9c-0.2,0-0.3,0-0.4,0.1c-0.1,0.1-0.1,0.2-0.1,0.4v2.6h4.9v0.7l-6,8.9h-0.7v-8.9H145v-0.7
						h2.3v-2.6c0-0.2,0-0.3-0.1-0.4c-0.1-0.1-0.2-0.1-0.4-0.1h-1.9v-0.6h6.6L151.5,206L151.5,206z M153.1,209.8h-4v5.9L153.1,209.8z
						"/>
				</g>
			</g>
		</g>
		<g>
			<path class="st2" d="M151.1,200.7c-1.9,0-2.3-1.4-2.4-2.1c-0.1,0.7-0.5,2.2-2.4,2.1c-2.5-0.1-2.8-2.9-2-4.3
				c0.9-1.4,1.3-1.9,2.2-2.8c0.8-0.9,1.8-1.8,2.2-2.4v-0.1v0.1c0.4,0.6,1.3,1.5,2.2,2.4s1.3,1.4,2.2,2.8
				C153.9,197.8,153.6,200.6,151.1,200.7z"/>
		</g>
		<g>
			<path class="st2" d="M64.7,25.3c-5.5-0.1-6.7,4.1-7,6.1c-0.3-2-1.6-6.2-7-6.1c-7.2,0.2-8.2,8.3-5.6,12.3s3.8,5.4,6.3,8
				c2.4,2.5,5.2,5.2,6.3,6.9c0,0,0.1,0.2,0.1,0.1c0,0.1,0.1-0.1,0.1-0.1c1-1.7,3.9-4.5,6.3-6.9c2.5-2.6,3.8-3.9,6.3-8
				C72.8,33.5,71.9,25.4,64.7,25.3z"/>
		</g>
		<g>
			<path class="st2" d="M64.7,199.6c-5.5,0.1-6.7-4.1-7-6.1c-0.3,2-1.6,6.2-7,6.1c-7.2-0.2-8.2-8.3-5.6-12.3s3.8-5.4,6.3-8
				c2.4-2.5,5.2-5.2,6.3-6.9c0,0,0.1-0.2,0.1-0.1c0-0.1,0.1,0.1,0.1,0.1c1,1.7,3.9,4.5,6.3,6.9c2.5,2.6,3.8,3.9,6.3,8
				C72.8,191.4,71.9,199.4,64.7,199.6z"/>
		</g>
		<g>
			<path class="st2" d="M116.4,25.3c-5.5-0.1-6.7,4.1-7,6.1c-0.3-2-1.6-6.2-7-6.1c-7.2,0.2-8.2,8.3-5.6,12.3s3.8,5.4,6.3,8
				c2.4,2.5,5.2,5.2,6.3,6.9c0,0,0.1,0.2,0.1,0.1c0,0.1,0.1-0.1,0.1-0.1c1-1.7,3.9-4.5,6.3-6.9c2.5-2.6,3.8-3.9,6.3-8
				C124.6,33.5,123.6,25.4,116.4,25.3z"/>
		</g>
		<g>
			<path class="st2" d="M116.4,199.6c-5.5,0.1-6.7-4.1-7-6.1c-0.3,2-1.6,6.2-7,6.1c-7.2-0.2-8.2-8.3-5.6-12.3s3.8-5.4,6.3-8
				c2.4-2.5,5.2-5.2,6.3-6.9c0,0,0.1-0.2,0.1-0.1c0-0.1,0.1,0.1,0.1,0.1c1,1.7,3.9,4.5,6.3,6.9c2.5,2.6,3.8,3.9,6.3,8
				C124.6,191.4,123.6,199.4,116.4,199.6z"/>
		</g>
	</g>
</g>
</svg>
