<?xml version="1.0" encoding="utf-8"?>
<!-- Generator: Adobe Illustrator 27.6.1, SVG Export Plug-In . SVG Version: 6.00 Build 0)  -->
<svg version="1.1" id="Слой_1" xmlns="http://www.w3.org/2000/svg" xmlns:xlink="http://www.w3.org/1999/xlink" x="0px" y="0px"
	 viewBox="0 0 167 233.4" style="enable-background:new 0 0 167 233.4;" xml:space="preserve">
<style type="text/css">
	.st0{fill:#FFFFFF;}
	.st1{fill:#32A8E0;}
	.st2{fill:#0C0D0D;}
	.st3{fill:#020203;}
</style>
<g>
	<g>
		<g>
			<path class="st0" d="M160.7,233.2H6.2c-3.3,0-5.9-2.7-5.9-5.9V6.3C0.3,3,3,0.4,6.2,0.4h154.5c3.3,0,5.9,2.7,5.9,5.9v221
				C166.6,230.6,164,233.2,160.7,233.2z"/>
			<path class="st1" d="M160.7,233.3H6.2c-3.3,0-6.1-2.7-6.1-6.1V6.3c0-3.4,2.8-6.1,6.1-6.1h154.5c3.3,0,6.1,2.7,6.1,6.1v221
				C166.7,230.6,164,233.3,160.7,233.3z M6.2,0.4C3,0.4,0.4,3,0.4,6.2v221c0,3.2,2.6,5.8,5.8,5.8h154.5c3.2,0,5.8-2.6,5.8-5.8V6.3
				c0-3.2-2.6-5.8-5.8-5.8L6.2,0.4L6.2,0.4z"/>
		</g>
	</g>
	<g>
		<path class="st0" d="M149.3,18.7c0,0.3-0.3,0.6-0.6,0.6s-0.6-0.3-0.6-0.6s0.3-0.6,0.6-0.6S149.3,18.4,149.3,18.7z"/>
	</g>
	<g>
		<path class="st0" d="M122.2,18.7c0,0.3-0.3,0.6-0.6,0.6S121,19,121,18.7s0.3-0.6,0.6-0.6S122.2,18.4,122.2,18.7z"/>
	</g>
	<g>
		<path class="st0" d="M72.2,18.9c0,0.3-0.3,0.6-0.6,0.6c-0.3,0-0.6-0.3-0.6-0.6s0.3-0.6,0.6-0.6S72.2,18.6,72.2,18.9z"/>
	</g>
	<g>
		<path class="st0" d="M149.3,39.8c0,0.3-0.3,0.6-0.6,0.6s-0.6-0.3-0.6-0.6s0.3-0.6,0.6-0.6S149.3,39.5,149.3,39.8z"/>
	</g>
	<g>
		<path class="st0" d="M149.3,59.1c0,0.3-0.3,0.6-0.6,0.6s-0.6-0.3-0.6-0.6s0.3-0.6,0.6-0.6S149.3,58.8,149.3,59.1z"/>
	</g>
	<g>
		<path class="st0" d="M19,19.2c0,0.3-0.3,0.6-0.6,0.6c-0.3,0-0.6-0.3-0.6-0.6s0.3-0.6,0.6-0.6C18.8,18.7,19,18.9,19,19.2z"/>
	</g>
	<g>
		<path class="st0" d="M46.5,18.9c0,0.3-0.3,0.6-0.6,0.6s-0.6-0.3-0.6-0.6s0.3-0.6,0.6-0.6S46.5,18.6,46.5,18.9z"/>
	</g>
	<g>
		<path class="st0" d="M19,39.4c0,0.3-0.3,0.6-0.6,0.6c-0.3,0-0.6-0.3-0.6-0.6s0.3-0.6,0.6-0.6C18.8,38.8,19,39.1,19,39.4z"/>
	</g>
	<g>
		<path class="st0" d="M19,59.2c0,0.3-0.3,0.6-0.6,0.6c-0.3,0-0.6-0.3-0.6-0.6s0.3-0.6,0.6-0.6C18.8,58.7,19,58.9,19,59.2z"/>
	</g>
	<g>
		<path class="st0" d="M19,79.2c0,0.3-0.3,0.6-0.6,0.6c-0.3,0-0.6-0.3-0.6-0.6s0.3-0.6,0.6-0.6C18.8,78.6,19,78.9,19,79.2z"/>
	</g>
	<g>
		<path class="st0" d="M19,92.1c0,0.3-0.3,0.6-0.6,0.6c-0.3,0-0.6-0.3-0.6-0.6c0-0.3,0.3-0.6,0.6-0.6C18.8,91.5,19,91.8,19,92.1z"/>
	</g>
	<g>
		<path class="st0" d="M19,105.5c0,0.3-0.3,0.6-0.6,0.6c-0.3,0-0.6-0.3-0.6-0.6c0-0.3,0.3-0.6,0.6-0.6C18.8,104.9,19,105.2,19,105.5
			z"/>
	</g>
	<g>
		<path class="st0" d="M19,118.4c0,0.3-0.3,0.6-0.6,0.6c-0.3,0-0.6-0.3-0.6-0.6s0.3-0.6,0.6-0.6C18.8,117.9,19,118.1,19,118.4z"/>
	</g>
	<g>
		<path class="st0" d="M19,170.2c0,0.3-0.3,0.6-0.6,0.6c-0.3,0-0.6-0.3-0.6-0.6s0.3-0.6,0.6-0.6C18.8,169.6,19,169.9,19,170.2z"/>
	</g>
	<g>
		<path class="st0" d="M19,183.6c0,0.3-0.3,0.6-0.6,0.6c-0.3,0-0.6-0.3-0.6-0.6s0.3-0.6,0.6-0.6C18.8,183,19,183.3,19,183.6z"/>
	</g>
	<g>
		<path class="st0" d="M19,196.6c0,0.3-0.3,0.6-0.6,0.6c-0.3,0-0.6-0.3-0.6-0.6s0.3-0.6,0.6-0.6C18.8,196.1,19,196.3,19,196.6z"/>
	</g>
	<g>
		<path class="st0" d="M19.3,215.8c0,0.3-0.3,0.6-0.6,0.6c-0.3,0-0.6-0.3-0.6-0.6s0.3-0.6,0.6-0.6C19,215.3,19.3,215.5,19.3,215.8z"
			/>
	</g>
	<g>
		<path class="st0" d="M66.3,216.4c0,0.3-0.3,0.6-0.6,0.6s-0.6-0.3-0.6-0.6s0.3-0.6,0.6-0.6S66.3,216.1,66.3,216.4z"/>
	</g>
	<g>
		<path class="st0" d="M92.7,216.4c0,0.3-0.3,0.6-0.6,0.6s-0.6-0.3-0.6-0.6s0.3-0.6,0.6-0.6S92.7,216.1,92.7,216.4z"/>
	</g>
	<g>
		<path class="st0" d="M118.4,216.4c0,0.3-0.3,0.6-0.6,0.6c-0.3,0-0.6-0.3-0.6-0.6s0.3-0.6,0.6-0.6
			C118.1,215.8,118.4,216.1,118.4,216.4z"/>
	</g>
	<g>
		<path class="st0" d="M149.3,156.9c0,0.3-0.3,0.6-0.6,0.6s-0.6-0.3-0.6-0.6s0.3-0.6,0.6-0.6S149.3,156.5,149.3,156.9z"/>
	</g>
	<g>
		<path class="st0" d="M149.3,169.6c0,0.3-0.3,0.6-0.6,0.6s-0.6-0.3-0.6-0.6s0.3-0.6,0.6-0.6S149.3,169.3,149.3,169.6z"/>
	</g>
	<g>
		<path class="st0" d="M149.3,182.2c0,0.3-0.3,0.6-0.6,0.6s-0.6-0.3-0.6-0.6s0.3-0.6,0.6-0.6S149.3,181.9,149.3,182.2z"/>
	</g>
	<g>
		<path class="st0" d="M149.3,195c0,0.3-0.3,0.6-0.6,0.6s-0.6-0.3-0.6-0.6s0.3-0.6,0.6-0.6S149.3,194.7,149.3,195z"/>
	</g>
	<g>
		<path class="st0" d="M149.3,214.6c0,0.3-0.3,0.6-0.6,0.6s-0.6-0.3-0.6-0.6s0.3-0.6,0.6-0.6S149.3,214.3,149.3,214.6z"/>
	</g>
	<g>
		<g>
			<path class="st2" d="M22.9,31.6c-1.1-1.2-2.3-2.3-2.8-2.9c-0.4-0.4-0.7-0.8-0.8-0.9v-0.1l0,0l0,0v0.1c-0.1,0.1-0.4,0.5-0.8,0.9
				c-0.5,0.6-1.8,1.7-2.8,2.9c-1.1,1.2-1.2,2.3-1,3.3s1.2,1.9,2.8,1.7c0.5-0.1,0.9-0.3,1.1-0.6c-0.2,1.4-0.9,2.1-0.9,2.1h3.1
				C20.2,37.5,20,36.6,20,36c0.3,0.3,0.6,0.5,1.1,0.6c1.6,0.2,2.6-0.7,2.8-1.7C24.1,33.9,24,32.7,22.9,31.6z"/>
		</g>
		<g>
			<g>
				<g>
					<path class="st3" d="M17.1,23.6H19c0.2,0,0.3,0,0.4-0.1s0.1-0.2,0.1-0.4v-2.6h-4.9v-0.7l6-8.9h0.7v8.9h2.3v0.7h-2.3v2.6
						c0,0.2,0,0.3,0.1,0.4s0.2,0.1,0.4,0.1h1.9v0.6h-6.6V23.6z M15.5,19.8h4v-5.9L15.5,19.8z"/>
				</g>
			</g>
		</g>
		<g>
			<g>
				<g>
					<path class="st3" d="M152.4,205.1h-1.9c-0.2,0-0.3,0-0.4,0.1c-0.1,0.1-0.1,0.2-0.1,0.4v2.6h4.9v0.7l-6,8.9h-0.7v-8.9h-2.3v-0.7
						h2.3v-2.6c0-0.2,0-0.3-0.1-0.4c-0.1-0.1-0.2-0.1-0.4-0.1h-1.9v-0.6h6.6L152.4,205.1L152.4,205.1z M154,208.9h-4v5.9L154,208.9z
						"/>
				</g>
			</g>
		</g>
		<g>
			<path class="st2" d="M69.6,35.5c-3.7-4-7.9-7.9-9.7-10c-1.3-1.5-2.3-2.7-2.7-3.2V22c0,0,0,0-0.1,0.1C57,22,57,22,57,22v0.3
				c-0.4,0.5-1.3,1.7-2.7,3.2c-1.8,2.1-6.1,6-9.7,10c-3.7,4-4,8-3.3,11.3s4.2,6.5,9.6,5.8c1.7-0.2,3-1,3.9-2.1
				c-0.6,4.7-3.2,7.2-3.2,7.2h10.6c-1.9-2.2-2.6-5.2-2.9-7.1c0.9,1,2.2,1.8,3.9,2c5.5,0.7,8.9-2.4,9.6-5.8
				C73.5,43.5,73.2,39.5,69.6,35.5z"/>
		</g>
		<g>
			<path class="st2" d="M69.6,195c-3.7,4-7.9,7.9-9.7,10c-1.3,1.5-2.3,2.7-2.7,3.2v0.3c0,0,0,0-0.1-0.1c-0.1,0.1-0.1,0.1-0.1,0.1
				v-0.3c-0.4-0.5-1.3-1.7-2.7-3.2c-1.8-2.1-6.1-6-9.7-10c-3.7-4-4-8-3.3-11.3s4.2-6.5,9.6-5.8c1.7,0.2,3,1,3.9,2.1
				c-0.6-4.7-3.2-7.2-3.2-7.2h10.6c-1.9,2.2-2.6,5.2-2.9,7.1c0.9-1,2.2-1.8,3.9-2c5.5-0.7,8.9,2.4,9.6,5.8
				C73.5,186.9,73.2,190.9,69.6,195z"/>
		</g>
		<g>
			<path class="st2" d="M124.1,35.5c-3.7-4-7.9-7.9-9.7-10c-1.3-1.5-2.3-2.7-2.7-3.2V22c0,0,0,0-0.1,0.1c-0.1-0.1-0.1-0.1-0.1-0.1
				v0.3c-0.4,0.5-1.3,1.7-2.7,3.2c-1.8,2.1-6.1,6-9.7,10c-3.7,4-4,8-3.3,11.3s4.2,6.5,9.6,5.8c1.7-0.2,3-1,3.9-2.1
				c-0.6,4.7-3.2,7.2-3.2,7.2h10.6c-1.9-2.2-2.6-5.2-2.9-7.1c0.9,1,2.2,1.8,3.9,2c5.5,0.7,8.9-2.4,9.6-5.8
				C128.1,43.5,127.8,39.5,124.1,35.5z"/>
		</g>
		<g>
			<path class="st2" d="M124.1,195c-3.7,4-7.9,7.9-9.7,10c-1.3,1.5-2.3,2.7-2.7,3.2v0.3c0,0,0,0-0.1-0.1c-0.1,0.1-0.1,0.1-0.1,0.1
				v-0.3c-0.4-0.5-1.3-1.7-2.7-3.2c-1.8-2.1-6.1-6-9.7-10c-3.7-4-4-8-3.3-11.3s4.2-6.5,9.6-5.8c1.7,0.2,3,1,3.9,2.1
				c-0.6-4.7-3.2-7.2-3.2-7.2h10.6c-1.9,2.2-2.6,5.2-2.9,7.1c0.9-1,2.2-1.8,3.9-2c5.5-0.7,8.9,2.4,9.6,5.8
				C128.1,186.9,127.8,190.9,124.1,195z"/>
		</g>
		<g>
			<path class="st2" d="M153.2,197.7c-1.1,1.2-2.3,2.3-2.8,2.9c-0.4,0.4-0.7,0.8-0.8,0.9v0.1l0,0l0,0v-0.1c-0.1-0.1-0.4-0.5-0.8-0.9
				c-0.5-0.6-1.8-1.7-2.8-2.9c-1.1-1.2-1.2-2.3-1-3.3s1.2-1.9,2.8-1.7c0.5,0.1,0.9,0.3,1.1,0.6c-0.2-1.4-0.9-2.1-0.9-2.1h3.1
				c-0.6,0.6-0.8,1.5-0.8,2.1c0.3-0.3,0.6-0.5,1.1-0.6c1.6-0.2,2.6,0.7,2.8,1.7S154.3,196.5,153.2,197.7z"/>
		</g>
	</g>
</g>
</svg>
