<?xml version="1.0" encoding="utf-8"?>
<!-- Generator: Adobe Illustrator 27.6.1, SVG Export Plug-In . SVG Version: 6.00 Build 0)  -->
<svg version="1.1" id="Слой_1" xmlns="http://www.w3.org/2000/svg" xmlns:xlink="http://www.w3.org/1999/xlink" x="0px" y="0px"
	 viewBox="0 0 167.3 233.4" style="enable-background:new 0 0 167.3 233.4;" xml:space="preserve">
<style type="text/css">
	.st0{fill:#FFFFFF;}
	.st1{fill:#32A8E0;}
	.st2{fill:#0C0D0D;}
	.st3{fill:#020203;}
</style>
<g>
	<g>
		<g>
			<path class="st0" d="M160.9,233.2H6.4c-3.3,0-5.9-2.7-5.9-5.9V6.3c0-3.3,2.7-5.9,5.9-5.9h154.5c3.3,0,5.9,2.7,5.9,5.9v221
				C166.8,230.6,164.1,233.2,160.9,233.2z"/>
			<path class="st1" d="M160.9,233.3H6.4c-3.3,0-6.1-2.7-6.1-6.1V6.3c0-3.4,2.8-6.1,6.1-6.1h154.5c3.3,0,6.1,2.7,6.1,6.1v221
				C166.9,230.6,164.2,233.3,160.9,233.3z M6.4,0.4C3.2,0.4,0.6,3,0.6,6.2v221c0,3.2,2.6,5.8,5.8,5.8h154.5c3.2,0,5.8-2.6,5.8-5.8
				V6.3c0-3.2-2.6-5.8-5.8-5.8L6.4,0.4L6.4,0.4z"/>
		</g>
	</g>
	<g>
		<path class="st0" d="M149.5,18.7c0,0.3-0.3,0.6-0.6,0.6s-0.6-0.3-0.6-0.6s0.3-0.6,0.6-0.6C149.3,18.1,149.5,18.4,149.5,18.7z"/>
	</g>
	<g>
		<path class="st0" d="M122.4,18.7c0,0.3-0.3,0.6-0.6,0.6c-0.3,0-0.6-0.3-0.6-0.6s0.3-0.6,0.6-0.6S122.4,18.4,122.4,18.7z"/>
	</g>
	<g>
		<path class="st0" d="M97.4,18.7c0,0.3-0.3,0.6-0.6,0.6c-0.3,0-0.6-0.3-0.6-0.6s0.3-0.6,0.6-0.6C97.2,18.1,97.4,18.4,97.4,18.7z"/>
	</g>
	<g>
		<path class="st0" d="M72.4,18.9c0,0.3-0.3,0.6-0.6,0.6c-0.3,0-0.6-0.3-0.6-0.6s0.3-0.6,0.6-0.6S72.4,18.6,72.4,18.9z"/>
	</g>
	<g>
		<path class="st0" d="M149.5,39.8c0,0.3-0.3,0.6-0.6,0.6s-0.6-0.3-0.6-0.6s0.3-0.6,0.6-0.6C149.3,39.3,149.5,39.5,149.5,39.8z"/>
	</g>
	<g>
		<path class="st0" d="M149.5,59.1c0,0.3-0.3,0.6-0.6,0.6s-0.6-0.3-0.6-0.6s0.3-0.6,0.6-0.6C149.3,58.5,149.5,58.8,149.5,59.1z"/>
	</g>
	<g>
		<path class="st0" d="M149.5,79.3c0,0.3-0.3,0.6-0.6,0.6s-0.6-0.3-0.6-0.6c0-0.3,0.3-0.6,0.6-0.6C149.3,78.8,149.5,79,149.5,79.3z"
			/>
	</g>
	<g>
		<path class="st0" d="M149.5,92.1c0,0.3-0.3,0.6-0.6,0.6s-0.6-0.3-0.6-0.6c0-0.3,0.3-0.6,0.6-0.6C149.3,91.5,149.5,91.8,149.5,92.1
			z"/>
	</g>
	<g>
		<path class="st0" d="M149.5,104.9c0,0.3-0.3,0.6-0.6,0.6s-0.6-0.3-0.6-0.6c0-0.3,0.3-0.6,0.6-0.6
			C149.3,104.4,149.5,104.6,149.5,104.9z"/>
	</g>
	<g>
		<path class="st0" d="M19.2,19.2c0,0.3-0.3,0.6-0.6,0.6c-0.3,0-0.6-0.3-0.6-0.6c0-0.3,0.3-0.6,0.6-0.6C19,18.7,19.2,18.9,19.2,19.2
			z"/>
	</g>
	<g>
		<path class="st0" d="M46.7,18.9c0,0.3-0.3,0.6-0.6,0.6s-0.6-0.3-0.6-0.6s0.3-0.6,0.6-0.6S46.7,18.6,46.7,18.9z"/>
	</g>
	<g>
		<path class="st0" d="M19.2,39.4c0,0.3-0.3,0.6-0.6,0.6c-0.3,0-0.6-0.3-0.6-0.6s0.3-0.6,0.6-0.6C19,38.8,19.2,39.1,19.2,39.4z"/>
	</g>
	<g>
		<path class="st0" d="M19.2,59.2c0,0.3-0.3,0.6-0.6,0.6c-0.3,0-0.6-0.3-0.6-0.6s0.3-0.6,0.6-0.6C19,58.7,19.2,58.9,19.2,59.2z"/>
	</g>
	<g>
		<path class="st0" d="M19.2,79.2c0,0.3-0.3,0.6-0.6,0.6c-0.3,0-0.6-0.3-0.6-0.6s0.3-0.6,0.6-0.6C19,78.6,19.2,78.9,19.2,79.2z"/>
	</g>
	<g>
		<path class="st0" d="M19.2,92.1c0,0.3-0.3,0.6-0.6,0.6c-0.3,0-0.6-0.3-0.6-0.6c0-0.3,0.3-0.6,0.6-0.6C19,91.5,19.2,91.8,19.2,92.1
			z"/>
	</g>
	<g>
		<path class="st0" d="M19.2,105.5c0,0.3-0.3,0.6-0.6,0.6c-0.3,0-0.6-0.3-0.6-0.6c0-0.3,0.3-0.6,0.6-0.6
			C19,104.9,19.2,105.2,19.2,105.5z"/>
	</g>
	<g>
		<path class="st0" d="M19.2,118.4c0,0.3-0.3,0.6-0.6,0.6c-0.3,0-0.6-0.3-0.6-0.6c0-0.3,0.3-0.6,0.6-0.6
			C19,117.9,19.2,118.1,19.2,118.4z"/>
	</g>
	<g>
		<path class="st0" d="M19.2,131.4c0,0.3-0.3,0.6-0.6,0.6c-0.3,0-0.6-0.3-0.6-0.6s0.3-0.6,0.6-0.6C19,130.8,19.2,131.1,19.2,131.4z"
			/>
	</g>
	<g>
		<path class="st0" d="M19.2,144.8c0,0.3-0.3,0.6-0.6,0.6c-0.3,0-0.6-0.3-0.6-0.6s0.3-0.6,0.6-0.6C19,144.2,19.2,144.5,19.2,144.8z"
			/>
	</g>
	<g>
		<path class="st0" d="M19.2,158.2c0,0.3-0.3,0.6-0.6,0.6c-0.3,0-0.6-0.3-0.6-0.6s0.3-0.6,0.6-0.6C19,157.6,19.2,157.9,19.2,158.2z"
			/>
	</g>
	<g>
		<path class="st0" d="M19.2,170.2c0,0.3-0.3,0.6-0.6,0.6c-0.3,0-0.6-0.3-0.6-0.6s0.3-0.6,0.6-0.6C19,169.6,19.2,169.9,19.2,170.2z"
			/>
	</g>
	<g>
		<path class="st0" d="M19.2,183.6c0,0.3-0.3,0.6-0.6,0.6c-0.3,0-0.6-0.3-0.6-0.6s0.3-0.6,0.6-0.6C19,183,19.2,183.3,19.2,183.6z"/>
	</g>
	<g>
		<path class="st0" d="M19.2,196.6c0,0.3-0.3,0.6-0.6,0.6c-0.3,0-0.6-0.3-0.6-0.6s0.3-0.6,0.6-0.6C19,196.1,19.2,196.3,19.2,196.6z"
			/>
	</g>
	<g>
		<path class="st0" d="M19.5,215.8c0,0.3-0.3,0.6-0.6,0.6c-0.3,0-0.6-0.3-0.6-0.6s0.3-0.6,0.6-0.6C19.2,215.3,19.5,215.5,19.5,215.8
			z"/>
	</g>
	<g>
		<path class="st0" d="M40,216.4c0,0.3-0.3,0.6-0.6,0.6s-0.6-0.3-0.6-0.6s0.3-0.6,0.6-0.6C39.7,215.8,40,216.1,40,216.4z"/>
	</g>
	<g>
		<path class="st0" d="M66.4,216.4c0,0.3-0.3,0.6-0.6,0.6c-0.3,0-0.6-0.3-0.6-0.6s0.3-0.6,0.6-0.6C66.2,215.8,66.4,216.1,66.4,216.4
			z"/>
	</g>
	<g>
		<path class="st0" d="M92.8,216.4c0,0.3-0.3,0.6-0.6,0.6s-0.6-0.3-0.6-0.6s0.3-0.6,0.6-0.6S92.8,216.1,92.8,216.4z"/>
	</g>
	<g>
		<path class="st0" d="M118.6,216.4c0,0.3-0.3,0.6-0.6,0.6c-0.3,0-0.6-0.3-0.6-0.6s0.3-0.6,0.6-0.6
			C118.3,215.8,118.6,216.1,118.6,216.4z"/>
	</g>
	<g>
		<path class="st0" d="M149.5,118.1c0,0.3-0.3,0.6-0.6,0.6s-0.6-0.3-0.6-0.6s0.3-0.6,0.6-0.6C149.3,117.6,149.5,117.8,149.5,118.1z"
			/>
	</g>
	<g>
		<path class="st0" d="M149.5,130.5c0,0.3-0.3,0.6-0.6,0.6s-0.6-0.3-0.6-0.6s0.3-0.6,0.6-0.6C149.3,129.9,149.5,130.1,149.5,130.5z"
			/>
	</g>
	<g>
		<path class="st0" d="M149.5,143.7c0,0.3-0.3,0.6-0.6,0.6s-0.6-0.3-0.6-0.6s0.3-0.6,0.6-0.6C149.3,143.2,149.5,143.4,149.5,143.7z"
			/>
	</g>
	<g>
		<path class="st0" d="M149.5,156.9c0,0.3-0.3,0.6-0.6,0.6s-0.6-0.3-0.6-0.6s0.3-0.6,0.6-0.6C149.3,156.3,149.5,156.5,149.5,156.9z"
			/>
	</g>
	<g>
		<path class="st0" d="M149.5,169.6c0,0.3-0.3,0.6-0.6,0.6s-0.6-0.3-0.6-0.6s0.3-0.6,0.6-0.6C149.3,169,149.5,169.3,149.5,169.6z"/>
	</g>
	<g>
		<path class="st0" d="M149.5,182.2c0,0.3-0.3,0.6-0.6,0.6s-0.6-0.3-0.6-0.6s0.3-0.6,0.6-0.6C149.3,181.6,149.5,181.9,149.5,182.2z"
			/>
	</g>
	<g>
		<path class="st0" d="M149.5,195c0,0.3-0.3,0.6-0.6,0.6s-0.6-0.3-0.6-0.6s0.3-0.6,0.6-0.6C149.3,194.5,149.5,194.7,149.5,195z"/>
	</g>
	<g>
		<path class="st0" d="M149.5,214.6c0,0.3-0.3,0.6-0.6,0.6s-0.6-0.3-0.6-0.6s0.3-0.6,0.6-0.6C149.3,214,149.5,214.3,149.5,214.6z"/>
	</g>
	<g>
		<g>
			<g>
				<path class="st2" d="M21.7,36.1c-1-1.1-2.6-0.5-2.6-0.5c0.4-0.5,0.7-0.9,0.7-1.6v-0.1c0-1.2-1-2.2-2.2-2.2s-2.2,1-2.2,2.2
					c0,0.2,0,0.3,0,0.5c0.1,0.5,0.3,0.9,0.7,1.3c0,0-1.6-0.7-2.6,0.5c-1,1.1-0.5,2.5-0.2,2.9s0.8,1.2,2,1.1c1-0.1,1.2-0.2,1.9-0.8
					c-0.1,1.5-1,2.6-1,2.6h0.1h1.5H19h0.1c-0.6-0.6-1.1-1.9-1-2.6c0.7,0.5,0.8,0.7,1.8,0.8c1.1,0.1,1.6-0.7,2-1.1
					C22.2,38.6,22.7,37.3,21.7,36.1z"/>
			</g>
			<g>
				<g>
					<path class="st3" d="M14.3,27.8c-0.5-0.3-0.9-0.6-1.2-1s-0.4-0.9-0.4-1.4c0-0.6,0.2-1.1,0.5-1.4s0.7-0.5,1.1-0.5
						c0.3,0,0.6,0.1,0.8,0.3c0.2,0.2,0.3,0.5,0.3,0.8c0,0.2-0.1,0.4-0.2,0.6c-0.1,0.2-0.3,0.3-0.5,0.4s-0.3,0.2-0.4,0.3
						c-0.1,0.1-0.2,0.2-0.2,0.4c0,0.4,0.2,0.7,0.5,1c0.3,0.2,0.9,0.3,1.6,0.3c1,0,1.6-0.4,2.1-1.2c0.4-0.8,0.6-1.9,0.6-3.1
						s-0.2-2.1-0.6-2.7s-1.1-1-2-1c-0.4,0-0.7,0.1-1,0.2s-0.6,0.3-0.8,0.6c-0.1,0.1-0.2,0.3-0.3,0.5C14,21,14,21.2,14,21.3
						s0,0.3-0.1,0.3c-0.1,0.1-0.2,0.1-0.3,0.1c-0.2,0-0.3-0.2-0.3-0.5v-6.7l0.4-0.3c0.3,0.2,0.7,0.4,1.2,0.6c0.5,0.2,1,0.2,1.5,0.2
						c0.6,0,1.2-0.1,1.7-0.2c0.5-0.1,1-0.3,1.6-0.6l0.2,0.3c-0.5,0.6-1,1.1-1.7,1.5c-0.7,0.4-1.4,0.6-2.2,0.6c-0.5,0-0.9,0-1.1-0.1
						c-0.3-0.1-0.6-0.2-0.8-0.3v3.7h0.1c0.3-0.4,0.7-0.6,1.1-0.8c0.4-0.2,0.9-0.3,1.4-0.3c1.4,0,2.4,0.4,3.2,1.2
						c0.8,0.8,1.1,1.9,1.1,3.2c0,0.9-0.2,1.8-0.6,2.6c-0.4,0.8-1,1.4-1.7,1.8c-0.9,0.4-1.7,0.6-2.5,0.6
						C15.5,28.2,14.8,28.1,14.3,27.8z"/>
				</g>
			</g>
		</g>
		<g>
			<g>
				<path class="st2" d="M143.8,201.9c1,1.1,2.6,0.5,2.6,0.5c-0.4,0.5-0.7,0.9-0.7,1.6v0.1c0,1.2,1,2.2,2.2,2.2s2.2-1,2.2-2.2
					c0-0.2,0-0.3,0-0.5c-0.1-0.5-0.3-0.9-0.7-1.3c0,0,1.6,0.7,2.6-0.5c1-1.1,0.5-2.5,0.2-2.9s-0.8-1.2-2-1.1c-1,0.1-1.2,0.2-1.9,0.8
					c0.1-1.5,1-2.6,1-2.6h-0.1h-1.5h-1.5h-0.1c0.6,0.6,1.1,1.9,1,2.6c-0.7-0.5-0.8-0.7-1.8-0.8c-1.1-0.1-1.6,0.7-2,1.1
					C143.2,199.4,142.7,200.7,143.8,201.9z"/>
			</g>
			<g>
				<g>
					<path class="st3" d="M151.2,210.2c0.5,0.3,0.9,0.6,1.2,1s0.4,0.9,0.4,1.4c0,0.6-0.2,1.1-0.5,1.4c-0.3,0.3-0.7,0.5-1.1,0.5
						c-0.3,0-0.6-0.1-0.8-0.3s-0.3-0.5-0.3-0.8c0-0.2,0.1-0.4,0.2-0.6c0.1-0.2,0.3-0.3,0.5-0.4c0.2-0.1,0.3-0.2,0.4-0.3
						c0.1-0.1,0.2-0.2,0.2-0.4c0-0.4-0.2-0.7-0.5-1c-0.3-0.2-0.9-0.3-1.6-0.3c-1,0-1.6,0.4-2.1,1.2c-0.4,0.8-0.6,1.9-0.6,3.1
						c0,1.2,0.2,2.1,0.6,2.7c0.4,0.6,1.1,1,2,1c0.4,0,0.7-0.1,1-0.2c0.3-0.1,0.6-0.3,0.8-0.6c0.1-0.1,0.2-0.3,0.3-0.5
						s0.1-0.4,0.1-0.6c0-0.1,0-0.3,0.1-0.3c0.1-0.1,0.2-0.1,0.3-0.1c0.2,0,0.3,0.2,0.3,0.5v6.7l-0.4,0.3c-0.3-0.2-0.7-0.4-1.2-0.6
						s-1-0.2-1.5-0.2c-0.6,0-1.2,0.1-1.7,0.2c-0.5,0.1-1,0.3-1.6,0.6l-0.2-0.3c0.5-0.6,1-1.1,1.7-1.5s1.4-0.6,2.2-0.6
						c0.5,0,0.9,0,1.1,0.1c0.3,0.1,0.6,0.2,0.8,0.3v-3.7h-0.1c-0.3,0.4-0.7,0.6-1.1,0.8c-0.4,0.2-0.9,0.3-1.4,0.3
						c-1.4,0-2.4-0.4-3.2-1.2s-1.1-1.9-1.1-3.2c0-0.9,0.2-1.8,0.6-2.6c0.4-0.8,1-1.4,1.7-1.8c0.7-0.4,1.5-0.6,2.4-0.6
						C150,209.8,150.6,210,151.2,210.2z"/>
				</g>
			</g>
		</g>
		<g>
			<path class="st2" d="M69.5,47.1c-3.6-3.9-9.1-1.6-9.1-1.6c1.5-1.6,2.6-2.9,2.4-5.6c0-0.1,0-0.2,0-0.3c0-4.3-3.5-7.7-7.7-7.7
				s-7.7,3.5-7.7,7.7c0,0.5,0.1,1.1,0.2,1.6c0.2,1.9,1.1,3,2.4,4.3c0,0-5.5-2.3-9.1,1.6c-3.6,3.9-1.8,8.5-0.7,10.1
				c1.1,1.5,2.8,4.1,6.8,3.8c3.5-0.3,4-0.9,6.5-2.8c-0.3,5.3-3.5,8.9-3.5,8.9h0.2h5.1h5.1h0.2c-1.9-2-3.7-6.7-3.4-8.9
				c2.4,1.9,2.9,2.5,6.4,2.7c4,0.3,5.7-2.3,6.8-3.8C71.3,55.6,73.1,51,69.5,47.1z"/>
		</g>
		<g>
			<path class="st2" d="M126.2,47.1c-3.6-3.9-9.1-1.6-9.1-1.6c1.5-1.6,2.6-2.9,2.4-5.6c0-0.1,0-0.2,0-0.3c0-4.3-3.5-7.7-7.7-7.7
				s-7.7,3.5-7.7,7.7c0,0.5,0.1,1.1,0.2,1.6c0.2,1.9,1.1,3,2.4,4.3c0,0-5.5-2.3-9.1,1.6s-1.8,8.5-0.7,10.1c1.1,1.5,2.8,4.1,6.8,3.8
				c3.5-0.3,4-0.9,6.5-2.8c-0.3,5.3-3.5,8.9-3.5,8.9h0.2h5.1h5.1h0.2c-1.9-2-3.7-6.7-3.4-8.9c2.4,1.9,2.9,2.5,6.4,2.7
				c4,0.3,5.7-2.3,6.8-3.8C128,55.6,129.8,51,126.2,47.1z"/>
		</g>
		<g>
			<path class="st2" d="M96.1,117.1c-3.6-3.9-9.1-1.6-9.1-1.6c1.5-1.6,2.6-2.9,2.4-5.6c0-0.1,0-0.2,0-0.3c0-4.3-3.5-7.7-7.7-7.7
				c-4.3,0-7.7,3.5-7.7,7.7c0,0.5,0.1,1.1,0.2,1.6c0.2,1.9,1.1,3,2.4,4.3c0,0-5.5-2.3-9.1,1.6s-1.8,8.5-0.7,10.1
				c1.1,1.5,2.8,4.1,6.8,3.8c3.5-0.3,4-0.9,6.5-2.8c-0.3,5.3-3.5,8.9-3.5,8.9h0.2h5.1H87h0c-1.9-2-3.7-6.7-3.4-8.9
				c2.4,1.9,2.9,2.5,6.4,2.7c4,0.3,5.7-2.3,6.8-3.8S99.6,121,96.1,117.1z"/>
		</g>
		<g>
			<path class="st2" d="M69.5,191.2c-3.6,3.9-9.1,1.6-9.1,1.6c1.5,1.6,2.6,2.9,2.4,5.6c0,0.1,0,0.2,0,0.3c0,4.3-3.5,7.7-7.7,7.7
				s-7.7-3.5-7.7-7.7c0-0.5,0.1-1.1,0.2-1.6c0.2-1.9,1.1-3,2.4-4.3c0,0-5.5,2.3-9.1-1.6c-3.6-3.9-1.8-8.5-0.7-10.1
				c1.1-1.5,2.8-4.1,6.8-3.8c3.5,0.3,4,0.9,6.5,2.8c-0.3-5.3-3.5-8.9-3.5-8.9h0.2h5.1h5.1h0.2c-1.9,2-3.7,6.7-3.4,8.9
				c2.4-1.9,2.9-2.5,6.4-2.7c4-0.3,5.7,2.3,6.8,3.8C71.3,182.7,73.1,187.3,69.5,191.2z"/>
		</g>
		<g>
			<path class="st2" d="M126.2,191.2c-3.6,3.9-9.1,1.6-9.1,1.6c1.5,1.6,2.6,2.9,2.4,5.6c0,0.1,0,0.2,0,0.3c0,4.3-3.5,7.7-7.7,7.7
				s-7.7-3.5-7.7-7.7c0-0.5,0.1-1.1,0.2-1.6c0.2-1.9,1.1-3,2.4-4.3c0,0-5.5,2.3-9.1-1.6c-3.6-3.9-1.8-8.5-0.7-10.1
				c1.1-1.5,2.8-4.1,6.8-3.8c3.5,0.3,4,0.9,6.5,2.8c-0.3-5.3-3.5-8.9-3.5-8.9h0.2h5.1h5.1h0.2c-1.9,2-3.7,6.7-3.4,8.9
				c2.4-1.9,2.9-2.5,6.4-2.7c4-0.3,5.7,2.3,6.8,3.8C128,182.7,129.8,187.3,126.2,191.2z"/>
		</g>
	</g>
</g>
</svg>
