<?xml version="1.0" encoding="utf-8"?>
<!-- Generator: Adobe Illustrator 27.6.1, SVG Export Plug-In . SVG Version: 6.00 Build 0)  -->
<svg version="1.1" id="Слой_1" xmlns="http://www.w3.org/2000/svg" xmlns:xlink="http://www.w3.org/1999/xlink" x="0px" y="0px"
	 viewBox="0 0 167.3 233.8" style="enable-background:new 0 0 167.3 233.8;" xml:space="preserve">
<style type="text/css">
	.st0{fill:#FFFFFF;}
	.st1{fill:#32A8E0;}
	.st2{fill:#CD1417;}
	.st3{fill:#BE3D2E;}
</style>
<g>
	<g>
		<g>
			<path class="st0" d="M160.8,233.4H6.4c-3.3,0-5.9-2.7-5.9-5.9V6.5c0-3.3,2.7-5.9,5.9-5.9h154.4c3.3,0,5.9,2.7,5.9,5.9v221
				C166.8,230.7,164.1,233.4,160.8,233.4z"/>
			<path class="st1" d="M160.8,233.5H6.4c-3.3,0-6.1-2.7-6.1-6.1V6.5c0.1-3.4,2.8-6.1,6.1-6.1h154.4c3.3,0,6.1,2.7,6.1,6.1v221
				C166.9,230.8,164.2,233.5,160.8,233.5z M6.4,0.7c-3.2,0-5.8,2.6-5.8,5.8v221c0,3.2,2.6,5.8,5.8,5.8h154.4c3.2,0,5.8-2.6,5.8-5.8
				V6.5c0-3.2-2.6-5.8-5.8-5.8C160.8,0.7,6.4,0.7,6.4,0.7z"/>
		</g>
	</g>
	<g>
		<path class="st0" d="M149.5,18.9c0,0.3-0.3,0.6-0.6,0.6s-0.6-0.3-0.6-0.6s0.3-0.6,0.6-0.6S149.5,18.6,149.5,18.9z"/>
	</g>
	<g>
		<path class="st0" d="M122.4,18.9c0,0.3-0.3,0.6-0.6,0.6c-0.3,0-0.6-0.3-0.6-0.6s0.3-0.6,0.6-0.6S122.4,18.6,122.4,18.9z"/>
	</g>
	<g>
		<path class="st0" d="M97.4,18.9c0,0.3-0.3,0.6-0.6,0.6c-0.3,0-0.6-0.3-0.6-0.6s0.3-0.6,0.6-0.6C97.2,18.3,97.4,18.6,97.4,18.9z"/>
	</g>
	<g>
		<circle class="st0" cx="71.8" cy="19.1" r="0.6"/>
	</g>
	<g>
		<path class="st0" d="M149.5,40c0,0.3-0.3,0.6-0.6,0.6s-0.6-0.3-0.6-0.6s0.3-0.6,0.6-0.6C149.2,39.5,149.5,39.7,149.5,40z"/>
	</g>
	<g>
		<path class="st0" d="M149.5,59.3c0,0.3-0.3,0.6-0.6,0.6s-0.6-0.3-0.6-0.6s0.3-0.6,0.6-0.6C149.2,58.8,149.5,59,149.5,59.3z"/>
	</g>
	<g>
		<path class="st0" d="M149.5,79.5c0,0.3-0.3,0.6-0.6,0.6s-0.6-0.3-0.6-0.6c0-0.3,0.3-0.6,0.6-0.6C149.2,79,149.5,79.2,149.5,79.5z"
			/>
	</g>
	<g>
		<path class="st0" d="M149.5,92.3c0,0.3-0.3,0.6-0.6,0.6s-0.6-0.3-0.6-0.6c0-0.3,0.3-0.6,0.6-0.6C149.2,91.8,149.5,92,149.5,92.3z"
			/>
	</g>
	<g>
		<path class="st0" d="M149.5,105.1c0,0.3-0.3,0.6-0.6,0.6s-0.6-0.3-0.6-0.6c0-0.3,0.3-0.6,0.6-0.6
			C149.2,104.6,149.5,104.8,149.5,105.1z"/>
	</g>
	<g>
		<circle class="st0" cx="18.7" cy="19.5" r="0.6"/>
	</g>
	<g>
		<path class="st0" d="M46.7,19.1c0,0.3-0.3,0.6-0.6,0.6s-0.6-0.3-0.6-0.6c0-0.3,0.3-0.6,0.6-0.6S46.7,18.8,46.7,19.1z"/>
	</g>
	<g>
		<circle class="st0" cx="18.7" cy="39.6" r="0.6"/>
	</g>
	<g>
		<circle class="st0" cx="18.7" cy="59.5" r="0.6"/>
	</g>
	<g>
		<circle class="st0" cx="18.7" cy="79.4" r="0.6"/>
	</g>
	<g>
		<circle class="st0" cx="18.7" cy="92.3" r="0.6"/>
	</g>
	<g>
		<circle class="st0" cx="18.7" cy="105.7" r="0.6"/>
	</g>
	<g>
		<circle class="st0" cx="18.7" cy="118.6" r="0.6"/>
	</g>
	<g>
		<circle class="st0" cx="18.7" cy="131.6" r="0.6"/>
	</g>
	<g>
		<circle class="st0" cx="18.7" cy="145" r="0.6"/>
	</g>
	<g>
		<circle class="st0" cx="18.7" cy="158.4" r="0.6"/>
	</g>
	<g>
		<circle class="st0" cx="18.7" cy="170.4" r="0.6"/>
	</g>
	<g>
		<path class="st0" d="M19.3,183.8c0,0.3-0.3,0.6-0.6,0.6c-0.3,0-0.6-0.3-0.6-0.6s0.3-0.6,0.6-0.6C19,183.2,19.3,183.5,19.3,183.8z"
			/>
	</g>
	<g>
		<circle class="st0" cx="18.7" cy="196.8" r="0.6"/>
	</g>
	<g>
		<circle class="st0" cx="18.9" cy="216" r="0.6"/>
	</g>
	<g>
		<circle class="st0" cx="39.5" cy="216.6" r="0.6"/>
	</g>
	<g>
		<circle class="st0" cx="65.9" cy="216.6" r="0.6"/>
	</g>
	<g>
		<circle class="st0" cx="92.3" cy="216.6" r="0.6"/>
	</g>
	<g>
		<circle class="st0" cx="118" cy="216.6" r="0.6"/>
	</g>
	<g>
		<path class="st0" d="M149.5,118.3c0,0.3-0.3,0.6-0.6,0.6s-0.6-0.3-0.6-0.6s0.3-0.6,0.6-0.6C149.2,117.8,149.5,118,149.5,118.3z"/>
	</g>
	<g>
		<path class="st0" d="M149.5,130.7c0,0.3-0.3,0.6-0.6,0.6s-0.6-0.3-0.6-0.6s0.3-0.6,0.6-0.6S149.5,130.3,149.5,130.7z"/>
	</g>
	<g>
		<path class="st0" d="M149.5,143.9c0,0.3-0.3,0.6-0.6,0.6s-0.6-0.3-0.6-0.6s0.3-0.6,0.6-0.6C149.2,143.4,149.5,143.6,149.5,143.9z"
			/>
	</g>
	<g>
		<path class="st0" d="M149.5,157c0,0.3-0.3,0.6-0.6,0.6s-0.6-0.3-0.6-0.6s0.3-0.6,0.6-0.6C149.2,156.5,149.5,156.7,149.5,157z"/>
	</g>
	<g>
		<path class="st0" d="M149.5,169.8c0,0.3-0.3,0.6-0.6,0.6s-0.6-0.3-0.6-0.6s0.3-0.6,0.6-0.6C149.2,169.2,149.5,169.5,149.5,169.8z"
			/>
	</g>
	<g>
		<path class="st0" d="M149.5,182.4c0,0.3-0.3,0.6-0.6,0.6s-0.6-0.3-0.6-0.6s0.3-0.6,0.6-0.6S149.5,182.1,149.5,182.4z"/>
	</g>
	<g>
		<path class="st0" d="M149.5,195.2c0,0.3-0.3,0.6-0.6,0.6s-0.6-0.3-0.6-0.6s0.3-0.6,0.6-0.6S149.5,194.9,149.5,195.2z"/>
	</g>
	<g>
		<path class="st0" d="M149.5,214.8c0,0.3-0.3,0.6-0.6,0.6s-0.6-0.3-0.6-0.6s0.3-0.6,0.6-0.6C149.2,214.2,149.5,214.5,149.5,214.8z"
			/>
	</g>
	<g>
		<g>
			<polygon class="st2" points="15.6,30.2 10.9,35.4 15.1,41.1 19.9,35.9 			"/>
		</g>
		<g>
			<polygon class="st2" points="148,193.6 143.2,198.8 147.5,204.5 152.3,199.3 			"/>
		</g>
		<g>
			<g>
				<g>
					<path class="st3" d="M13.3,25.7c-0.5-0.3-0.9-0.6-1.2-1s-0.4-0.9-0.4-1.4c0-0.6,0.2-1.1,0.5-1.4s0.7-0.5,1.1-0.5
						c0.3,0,0.6,0.1,0.8,0.3c0.2,0.2,0.3,0.5,0.3,0.8c0,0.2-0.1,0.4-0.2,0.6c-0.1,0.2-0.3,0.3-0.5,0.4s-0.3,0.2-0.4,0.3
						c-0.1,0.1-0.2,0.2-0.2,0.4c0,0.4,0.2,0.7,0.5,1c0.3,0.2,0.9,0.3,1.6,0.3c1,0,1.6-0.4,2.1-1.2c0.4-0.8,0.6-1.9,0.6-3.1
						s-0.2-2.1-0.6-2.7s-1.1-1-2-1c-0.4,0-0.7,0.1-1,0.2s-0.5,0.3-0.8,0.6c-0.1,0.1-0.2,0.3-0.3,0.5s-0.1,0.4-0.1,0.6
						c0,0.1,0,0.3-0.1,0.3c-0.1,0.1-0.2,0.1-0.3,0.1c-0.2,0-0.3-0.2-0.3-0.5v-6.7l0.4-0.3c0.3,0.2,0.7,0.4,1.2,0.6
						c0.5,0.2,1,0.2,1.5,0.2c0.6,0,1.2-0.1,1.7-0.2c0.5-0.1,1-0.3,1.6-0.6l0.2,0.3c-0.5,0.6-1,1.1-1.7,1.5s-1.4,0.6-2.2,0.6
						c-0.5,0-0.9,0-1.1-0.1c-0.3-0.1-0.6-0.2-0.8-0.3V18h0.1c0.3-0.4,0.7-0.6,1.1-0.8c0.4-0.2,0.9-0.3,1.4-0.3
						c1.4,0,2.4,0.4,3.2,1.2c0.8,0.8,1.1,1.9,1.1,3.2c0,0.9-0.2,1.8-0.6,2.6c-0.4,0.8-1,1.4-1.7,1.8s-1.5,0.6-2.4,0.6
						C14.5,26.1,13.9,25.9,13.3,25.7z"/>
				</g>
			</g>
		</g>
		<g>
			<g>
				<g>
					<path class="st3" d="M150.1,208c0.5,0.3,0.9,0.6,1.2,1s0.4,0.9,0.4,1.4c0,0.6-0.2,1.1-0.5,1.4c-0.3,0.3-0.7,0.5-1.1,0.5
						c-0.3,0-0.6-0.1-0.8-0.3s-0.3-0.5-0.3-0.8c0-0.2,0.1-0.4,0.2-0.6c0.1-0.2,0.3-0.3,0.5-0.4c0.2-0.1,0.3-0.2,0.4-0.3
						c0.1-0.1,0.2-0.2,0.2-0.4c0-0.4-0.2-0.7-0.5-1c-0.3-0.2-0.9-0.3-1.6-0.3c-1,0-1.6,0.4-2.1,1.2c-0.4,0.8-0.6,1.9-0.6,3.1
						c0,1.2,0.2,2.1,0.6,2.7s1.1,1,2,1c0.4,0,0.7-0.1,1-0.2c0.3-0.1,0.5-0.3,0.8-0.6c0.1-0.1,0.2-0.3,0.3-0.5s0.1-0.4,0.1-0.6
						c0-0.1,0-0.3,0.1-0.3c0.1-0.1,0.2-0.1,0.3-0.1c0.2,0,0.3,0.2,0.3,0.5v6.7l-0.4,0.3c-0.3-0.2-0.7-0.4-1.2-0.6
						c-0.5-0.2-1-0.2-1.5-0.2c-0.6,0-1.2,0.1-1.7,0.2c-0.5,0.1-1,0.3-1.6,0.6l-0.2-0.3c0.5-0.6,1-1.1,1.7-1.5s1.4-0.6,2.2-0.6
						c0.5,0,0.9,0,1.1,0.1c0.3,0.1,0.6,0.2,0.8,0.3v-3.7h-0.1c-0.3,0.4-0.7,0.6-1.1,0.8c-0.4,0.2-0.9,0.3-1.4,0.3
						c-1.4,0-2.4-0.4-3.2-1.2s-1.1-1.9-1.1-3.2c0-0.9,0.2-1.8,0.6-2.6c0.4-0.8,1-1.4,1.7-1.8c0.7-0.4,1.5-0.6,2.4-0.6
						C148.9,207.6,149.6,207.8,150.1,208z"/>
				</g>
			</g>
		</g>
		<g>
			<polygon class="st2" points="52.6,24 39.3,40.1 52.6,56.5 66.2,40.3 			"/>
		</g>
		<g>
			<polygon class="st2" points="52.6,173.6 39.3,189.7 52.6,206.1 66.2,189.8 			"/>
		</g>
		<g>
			<polygon class="st2" points="110.8,24 97.5,40.1 110.8,56.5 124.4,40.3 			"/>
		</g>
		<g>
			<polygon class="st2" points="110.8,173.6 97.5,189.7 110.8,206.1 124.4,189.8 			"/>
		</g>
		<g>
			<polygon class="st2" points="81.1,98.8 67.8,114.9 81.1,131.3 94.8,115 			"/>
		</g>
	</g>
</g>
</svg>
