<?xml version="1.0" encoding="utf-8"?>
<!-- Generator: Adobe Illustrator 27.6.1, SVG Export Plug-In . SVG Version: 6.00 Build 0)  -->
<svg version="1.1" id="Слой_1" xmlns="http://www.w3.org/2000/svg" xmlns:xlink="http://www.w3.org/1999/xlink" x="0px" y="0px"
	 viewBox="0 0 167.1 233.9" style="enable-background:new 0 0 167.1 233.9;" xml:space="preserve">
<style type="text/css">
	.st0{fill:#CD1417;}
	.st1{fill:#FFFFFF;}
	.st2{fill:#32A8E0;}
	.st3{fill:#BE3D2E;}
</style>
<g>
	<g>
		<path class="st0" d="M151,207.3c-1.9,0-2.3-1.4-2.4-2.1c-0.1,0.7-0.5,2.2-2.4,2.1c-2.5-0.1-2.8-2.9-2-4.3c0.9-1.4,1.3-1.9,2.2-2.8
			c0.8-0.9,1.8-1.8,2.2-2.4v-0.1v0.1c0.4,0.6,1.3,1.5,2.2,2.4s1.3,1.4,2.2,2.8C153.8,204.5,153.5,207.3,151,207.3z"/>
	</g>
	<g>
		<g>
			<path class="st1" d="M160.9,233.5H6.4c-3.3,0-5.9-2.7-5.9-5.9V6.6c0-3.3,2.7-5.9,5.9-5.9h154.5c3.3,0,5.9,2.7,5.9,5.9v221
				C166.8,230.9,164.1,233.5,160.9,233.5z"/>
			<path class="st2" d="M160.9,233.6H6.4c-3.3,0-6.1-2.7-6.1-6.1V6.6c0-3.4,2.7-6.1,6.1-6.1h154.5c3.3,0,6.1,2.7,6.1,6.1v221
				C166.9,230.9,164.2,233.6,160.9,233.6z M6.4,0.7c-3.2,0-5.8,2.6-5.8,5.8v221c0,3.2,2.6,5.8,5.8,5.8h154.5c3.2,0,5.8-2.6,5.8-5.8
				V6.6c0-3.2-2.6-5.8-5.8-5.8L6.4,0.7L6.4,0.7z"/>
		</g>
	</g>
	<g>
		<path class="st1" d="M149.5,19c0,0.3-0.3,0.6-0.6,0.6s-0.6-0.3-0.6-0.6c0-0.3,0.3-0.6,0.6-0.6C149.3,18.4,149.5,18.7,149.5,19z"/>
	</g>
	<g>
		<path class="st1" d="M122.4,19c0,0.3-0.3,0.6-0.6,0.6c-0.3,0-0.6-0.3-0.6-0.6c0-0.3,0.3-0.6,0.6-0.6S122.4,18.7,122.4,19z"/>
	</g>
	<g>
		<path class="st1" d="M97.4,19c0,0.3-0.3,0.6-0.6,0.6s-0.6-0.3-0.6-0.6c0-0.3,0.3-0.6,0.6-0.6S97.4,18.7,97.4,19z"/>
	</g>
	<g>
		<path class="st1" d="M72.4,19.2c0,0.3-0.3,0.6-0.6,0.6c-0.3,0-0.6-0.3-0.6-0.6c0-0.3,0.3-0.6,0.6-0.6S72.4,18.9,72.4,19.2z"/>
	</g>
	<g>
		<path class="st1" d="M149.5,40.1c0,0.3-0.3,0.6-0.6,0.6s-0.6-0.3-0.6-0.6s0.3-0.6,0.6-0.6C149.3,39.6,149.5,39.8,149.5,40.1z"/>
	</g>
	<g>
		<path class="st1" d="M149.5,59.4c0,0.3-0.3,0.6-0.6,0.6s-0.6-0.3-0.6-0.6s0.3-0.6,0.6-0.6C149.3,58.8,149.5,59.1,149.5,59.4z"/>
	</g>
	<g>
		<path class="st1" d="M149.5,79.6c0,0.3-0.3,0.6-0.6,0.6s-0.6-0.3-0.6-0.6c0-0.3,0.3-0.6,0.6-0.6C149.3,79.1,149.5,79.3,149.5,79.6
			z"/>
	</g>
	<g>
		<path class="st1" d="M149.5,92.4c0,0.3-0.3,0.6-0.6,0.6s-0.6-0.3-0.6-0.6c0-0.3,0.3-0.6,0.6-0.6C149.3,91.8,149.5,92.1,149.5,92.4
			z"/>
	</g>
	<g>
		<path class="st1" d="M149.5,105.2c0,0.3-0.3,0.6-0.6,0.6s-0.6-0.3-0.6-0.6c0-0.3,0.3-0.6,0.6-0.6
			C149.3,104.7,149.5,104.9,149.5,105.2z"/>
	</g>
	<g>
		<path class="st1" d="M19.2,19.5c0,0.3-0.3,0.6-0.6,0.6c-0.3,0-0.6-0.3-0.6-0.6c0-0.3,0.3-0.6,0.6-0.6C19,19,19.2,19.2,19.2,19.5z"
			/>
	</g>
	<g>
		<path class="st1" d="M46.7,19.2c0,0.3-0.3,0.6-0.6,0.6s-0.6-0.3-0.6-0.6c0-0.3,0.3-0.6,0.6-0.6S46.7,18.9,46.7,19.2z"/>
	</g>
	<g>
		<path class="st1" d="M19.2,39.7c0,0.3-0.3,0.6-0.6,0.6c-0.3,0-0.6-0.3-0.6-0.6s0.3-0.6,0.6-0.6C19,39.1,19.2,39.4,19.2,39.7z"/>
	</g>
	<g>
		<path class="st1" d="M19.2,59.5c0,0.3-0.3,0.6-0.6,0.6c-0.3,0-0.6-0.3-0.6-0.6s0.3-0.6,0.6-0.6C19,59,19.2,59.2,19.2,59.5z"/>
	</g>
	<g>
		<path class="st1" d="M19.2,79.5c0,0.3-0.3,0.6-0.6,0.6c-0.3,0-0.6-0.3-0.6-0.6s0.3-0.6,0.6-0.6C19,78.9,19.2,79.2,19.2,79.5z"/>
	</g>
	<g>
		<path class="st1" d="M19.2,92.4c0,0.3-0.3,0.6-0.6,0.6c-0.3,0-0.6-0.3-0.6-0.6c0-0.3,0.3-0.6,0.6-0.6C19,91.8,19.2,92.1,19.2,92.4
			z"/>
	</g>
	<g>
		<path class="st1" d="M19.2,105.8c0,0.3-0.3,0.6-0.6,0.6c-0.3,0-0.6-0.3-0.6-0.6c0-0.3,0.3-0.6,0.6-0.6
			C19,105.2,19.2,105.5,19.2,105.8z"/>
	</g>
	<g>
		<path class="st1" d="M19.2,118.7c0,0.3-0.3,0.6-0.6,0.6c-0.3,0-0.6-0.3-0.6-0.6c0-0.3,0.3-0.6,0.6-0.6
			C19,118.2,19.2,118.4,19.2,118.7z"/>
	</g>
	<g>
		<path class="st1" d="M19.2,131.7c0,0.3-0.3,0.6-0.6,0.6c-0.3,0-0.6-0.3-0.6-0.6s0.3-0.6,0.6-0.6C19,131.1,19.2,131.4,19.2,131.7z"
			/>
	</g>
	<g>
		<path class="st1" d="M19.2,145.1c0,0.3-0.3,0.6-0.6,0.6c-0.3,0-0.6-0.3-0.6-0.6s0.3-0.6,0.6-0.6C19,144.5,19.2,144.8,19.2,145.1z"
			/>
	</g>
	<g>
		<path class="st1" d="M19.2,158.5c0,0.3-0.3,0.6-0.6,0.6c-0.3,0-0.6-0.3-0.6-0.6s0.3-0.6,0.6-0.6C19,157.9,19.2,158.2,19.2,158.5z"
			/>
	</g>
	<g>
		<path class="st1" d="M19.2,170.5c0,0.3-0.3,0.6-0.6,0.6c-0.3,0-0.6-0.3-0.6-0.6s0.3-0.6,0.6-0.6C19,169.9,19.2,170.2,19.2,170.5z"
			/>
	</g>
	<g>
		<path class="st1" d="M19.2,183.9c0,0.3-0.3,0.6-0.6,0.6c-0.3,0-0.6-0.3-0.6-0.6s0.3-0.6,0.6-0.6C19,183.3,19.2,183.6,19.2,183.9z"
			/>
	</g>
	<g>
		<path class="st1" d="M19.2,196.9c0,0.3-0.3,0.6-0.6,0.6c-0.3,0-0.6-0.3-0.6-0.6s0.3-0.6,0.6-0.6C19,196.4,19.2,196.6,19.2,196.9z"
			/>
	</g>
	<g>
		<path class="st1" d="M19.5,216.1c0,0.3-0.3,0.6-0.6,0.6c-0.3,0-0.6-0.3-0.6-0.6s0.3-0.6,0.6-0.6C19.2,215.6,19.5,215.8,19.5,216.1
			z"/>
	</g>
	<g>
		<path class="st1" d="M40,216.7c0,0.3-0.3,0.6-0.6,0.6s-0.6-0.3-0.6-0.6s0.3-0.6,0.6-0.6S40,216.4,40,216.7z"/>
	</g>
	<g>
		<path class="st1" d="M66.4,216.7c0,0.3-0.3,0.6-0.6,0.6c-0.3,0-0.6-0.3-0.6-0.6s0.3-0.6,0.6-0.6C66.2,216.1,66.4,216.4,66.4,216.7
			z"/>
	</g>
	<g>
		<path class="st1" d="M92.8,216.7c0,0.3-0.3,0.6-0.6,0.6c-0.3,0-0.6-0.3-0.6-0.6s0.3-0.6,0.6-0.6C92.6,216.1,92.8,216.4,92.8,216.7
			z"/>
	</g>
	<g>
		<path class="st1" d="M118.6,216.7c0,0.3-0.3,0.6-0.6,0.6s-0.6-0.3-0.6-0.6s0.3-0.6,0.6-0.6S118.6,216.4,118.6,216.7z"/>
	</g>
	<g>
		<path class="st1" d="M149.5,118.4c0,0.3-0.3,0.6-0.6,0.6s-0.6-0.3-0.6-0.6s0.3-0.6,0.6-0.6C149.3,117.9,149.5,118.1,149.5,118.4z"
			/>
	</g>
	<g>
		<path class="st1" d="M149.5,130.8c0,0.3-0.3,0.6-0.6,0.6s-0.6-0.3-0.6-0.6s0.3-0.6,0.6-0.6C149.3,130.2,149.5,130.4,149.5,130.8z"
			/>
	</g>
	<g>
		<path class="st1" d="M149.5,144c0,0.3-0.3,0.6-0.6,0.6s-0.6-0.3-0.6-0.6s0.3-0.6,0.6-0.6C149.3,143.5,149.5,143.7,149.5,144z"/>
	</g>
	<g>
		<path class="st1" d="M149.5,157.2c0,0.3-0.3,0.6-0.6,0.6s-0.6-0.3-0.6-0.6s0.3-0.6,0.6-0.6C149.3,156.6,149.5,156.8,149.5,157.2z"
			/>
	</g>
	<g>
		<path class="st1" d="M149.5,169.9c0,0.3-0.3,0.6-0.6,0.6s-0.6-0.3-0.6-0.6s0.3-0.6,0.6-0.6C149.3,169.3,149.5,169.6,149.5,169.9z"
			/>
	</g>
	<g>
		<path class="st1" d="M149.5,182.5c0,0.3-0.3,0.6-0.6,0.6s-0.6-0.3-0.6-0.6s0.3-0.6,0.6-0.6C149.3,181.9,149.5,182.2,149.5,182.5z"
			/>
	</g>
	<g>
		<path class="st1" d="M149.5,195.3c0,0.3-0.3,0.6-0.6,0.6s-0.6-0.3-0.6-0.6s0.3-0.6,0.6-0.6C149.3,194.8,149.5,195,149.5,195.3z"/>
	</g>
	<g>
		<path class="st1" d="M149.5,214.9c0,0.3-0.3,0.6-0.6,0.6s-0.6-0.3-0.6-0.6s0.3-0.6,0.6-0.6C149.3,214.3,149.5,214.6,149.5,214.9z"
			/>
	</g>
	<g>
		<g>
			<g>
				<g>
					<path class="st3" d="M13.7,29.3c-0.5-0.3-0.9-0.6-1.2-1s-0.4-0.9-0.4-1.4c0-0.6,0.2-1.1,0.5-1.4s0.7-0.5,1.1-0.5
						c0.3,0,0.6,0.1,0.8,0.3c0.2,0.2,0.3,0.5,0.3,0.8c0,0.2-0.1,0.4-0.2,0.6c-0.1,0.2-0.3,0.3-0.5,0.4s-0.3,0.2-0.4,0.3
						c-0.1,0.1-0.2,0.2-0.2,0.4c0,0.4,0.2,0.7,0.5,1c0.3,0.2,0.9,0.3,1.6,0.3c1,0,1.6-0.4,2.1-1.2c0.4-0.8,0.6-1.9,0.6-3.1
						s-0.2-2.1-0.6-2.7s-1.1-1-2-1c-0.4,0-0.7,0.1-1,0.2s-0.6,0.3-0.8,0.6c-0.1,0.1-0.2,0.3-0.3,0.5s-0.1,0.4-0.1,0.6
						c0,0.1,0,0.3-0.1,0.3c-0.1,0.1-0.2,0.1-0.3,0.1c-0.2,0-0.3-0.2-0.3-0.5v-6.7l0.4-0.3c0.3,0.2,0.7,0.4,1.2,0.6s1,0.2,1.5,0.2
						c0.6,0,1.2-0.1,1.7-0.2s1-0.3,1.6-0.6l0.2,0.3c-0.5,0.6-1,1.1-1.7,1.5s-1.4,0.6-2.2,0.6c-0.5,0-0.9,0-1.1-0.1
						c-0.3-0.1-0.6-0.2-0.8-0.3v3.7h0.1c0.3-0.4,0.7-0.6,1.1-0.8c0.4-0.2,0.9-0.3,1.4-0.3c1.4,0,2.4,0.4,3.2,1.2
						c0.8,0.8,1.1,1.9,1.1,3.2c0,0.9-0.2,1.8-0.6,2.6c-0.4,0.8-1,1.4-1.7,1.8s-1.5,0.6-2.4,0.6C14.9,29.6,14.3,29.5,13.7,29.3z"/>
				</g>
			</g>
		</g>
		<g>
			<g>
				<g>
					<path class="st3" d="M150.6,211.6c0.5,0.3,0.9,0.6,1.2,1s0.4,0.9,0.4,1.4c0,0.6-0.2,1.1-0.5,1.4c-0.3,0.3-0.7,0.5-1.1,0.5
						c-0.3,0-0.6-0.1-0.8-0.3s-0.3-0.5-0.3-0.8c0-0.2,0.1-0.4,0.2-0.6c0.1-0.2,0.3-0.3,0.5-0.4c0.2-0.1,0.3-0.2,0.4-0.3
						c0.1-0.1,0.2-0.2,0.2-0.4c0-0.4-0.2-0.7-0.5-1c-0.3-0.2-0.9-0.3-1.6-0.3c-1,0-1.6,0.4-2.1,1.2c-0.4,0.8-0.6,1.9-0.6,3.1
						c0,1.2,0.2,2.1,0.6,2.7c0.4,0.6,1.1,1,2,1c0.4,0,0.7-0.1,1-0.2c0.3-0.1,0.6-0.3,0.8-0.6c0.1-0.1,0.2-0.3,0.3-0.5
						s0.1-0.4,0.1-0.6c0-0.1,0-0.3,0.1-0.3c0.1-0.1,0.2-0.1,0.3-0.1c0.2,0,0.3,0.2,0.3,0.5v6.7l-0.4,0.3c-0.3-0.2-0.7-0.4-1.2-0.6
						c-0.5-0.2-1-0.2-1.5-0.2c-0.6,0-1.2,0.1-1.7,0.2c-0.5,0.1-1,0.3-1.6,0.6l-0.2-0.3c0.5-0.6,1-1.1,1.7-1.5s1.4-0.6,2.2-0.6
						c0.5,0,0.9,0,1.1,0.1c0.3,0.1,0.6,0.2,0.8,0.3v-3.5h-0.1c-0.3,0.4-0.7,0.6-1.1,0.8c-0.4,0.2-0.9,0.3-1.4,0.3
						c-1.4,0-2.4-0.4-3.2-1.2s-1.1-1.9-1.1-3.2c0-0.9,0.2-1.8,0.6-2.6c0.4-0.8,1-1.4,1.7-1.8c0.7-0.4,1.5-0.6,2.4-0.6
						C149.4,211.2,150.1,211.4,150.6,211.6z"/>
				</g>
			</g>
		</g>
		<g>
			<path class="st0" d="M19.7,35.2c-1.9,0-2.3,1.4-2.4,2.1c-0.1-0.7-0.5-2.2-2.4-2.1c-2.5,0.1-2.8,2.9-2,4.3
				c0.9,1.4,1.3,1.9,2.2,2.8c0.8,0.9,1.8,1.8,2.2,2.4c0,0,0,0.1,0,0l0,0c0.4-0.6,1.3-1.5,2.2-2.4c0.9-0.9,1.3-1.4,2.2-2.8
				C22.6,38,22.2,35.2,19.7,35.2z"/>
		</g>
		<g>
			<path class="st0" d="M62.7,31c-5.5-0.1-6.7,4.1-7,6.1c-0.3-2-1.6-6.2-7-6.1c-7.2,0.2-8.2,8.3-5.6,12.3c2.5,4.1,3.8,5.4,6.3,8
				c2.4,2.5,5.2,5.2,6.3,6.9c0,0,0.1,0.2,0.1,0.1c0,0.1,0.1-0.1,0.1-0.1c1-1.7,3.9-4.5,6.3-6.9c2.5-2.6,3.8-3.9,6.3-8
				S69.9,31.2,62.7,31z"/>
		</g>
		<g>
			<path class="st0" d="M62.7,205.4c-5.5,0.1-6.7-4.1-7-6.1c-0.3,2-1.6,6.2-7,6.1c-7.2-0.2-8.2-8.3-5.6-12.3c2.5-4.1,3.8-5.4,6.3-8
				c2.4-2.5,5.2-5.2,6.3-6.9c0,0,0.1-0.2,0.1-0.1c0-0.1,0.1,0.1,0.1,0.1c1,1.7,3.9,4.5,6.3,6.9c2.5,2.6,3.8,3.9,6.3,8
				C70.8,197.1,69.9,205.2,62.7,205.4z"/>
		</g>
		<g>
			<path class="st0" d="M115.3,31c-5.5-0.1-6.7,4.1-7,6.1c-0.3-2-1.6-6.2-7-6.1c-7.2,0.2-8.2,8.3-5.6,12.3c2.5,4.1,3.8,5.4,6.3,8
				c2.4,2.5,5.2,5.2,6.3,6.9c0,0,0.1,0.2,0.1,0.1c0,0.1,0.1-0.1,0.1-0.1c1-1.7,3.9-4.5,6.3-6.9c2.5-2.6,3.8-3.9,6.3-8
				C123.5,39.3,122.6,31.2,115.3,31z"/>
		</g>
		<g>
			<path class="st0" d="M115.3,205.4c-5.5,0.1-6.7-4.1-7-6.1c-0.3,2-1.6,6.2-7,6.1c-7.2-0.2-8.2-8.3-5.6-12.3c2.5-4.1,3.8-5.4,6.3-8
				c2.4-2.5,5.2-5.2,6.3-6.9c0,0,0.1-0.2,0.1-0.1c0-0.1,0.1,0.1,0.1,0.1c1,1.7,3.9,4.5,6.3,6.9c2.5,2.6,3.8,3.9,6.3,8
				C123.5,197.1,122.6,205.2,115.3,205.4z"/>
		</g>
		<g>
			<path class="st0" d="M88.5,103.1c-5.5-0.1-6.7,4.1-7,6.1c-0.3-2-1.6-6.2-7-6.1c-7.2,0.2-8.2,8.3-5.6,12.3s3.8,5.4,6.3,8
				c2.4,2.5,5.2,5.2,6.3,6.9c0,0,0.1,0.2,0.1,0.1c0,0.1,0.1-0.1,0.1-0.1c1-1.7,3.9-4.5,6.3-6.9c2.5-2.6,3.8-3.9,6.3-8
				S95.7,103.3,88.5,103.1z"/>
		</g>
	</g>
</g>
</svg>
