<?xml version="1.0" encoding="utf-8"?>
<!-- Generator: Adobe Illustrator 27.6.1, SVG Export Plug-In . SVG Version: 6.00 Build 0)  -->
<svg version="1.1" id="Слой_1" xmlns="http://www.w3.org/2000/svg" xmlns:xlink="http://www.w3.org/1999/xlink" x="0px" y="0px"
	 viewBox="0 0 167.1 233.5" style="enable-background:new 0 0 167.1 233.5;" xml:space="preserve">
<style type="text/css">
	.st0{fill:#FFFFFF;}
	.st1{fill:#32A8E0;}
	.st2{fill:#CD1417;}
	.st3{fill:#BE3D2E;}
</style>
<g>
	<g>
		<g>
			<path class="st0" d="M160.8,233.2H6.4c-3.3,0-5.9-2.7-5.9-5.9V6.3c0-3.3,2.7-5.9,5.9-5.9h154.4c3.3,0,5.9,2.7,5.9,5.9v221
				C166.8,230.5,164.1,233.2,160.8,233.2z"/>
			<path class="st1" d="M160.8,233.3H6.4c-3.3,0-6.1-2.7-6.1-6.1V6.3c0.1-3.4,2.8-6.1,6.1-6.1h154.4c3.3,0,6.1,2.7,6.1,6.1v221
				C166.9,230.6,164.2,233.3,160.8,233.3z M6.4,0.5c-3.2,0-5.8,2.6-5.8,5.8v221c0,3.2,2.6,5.8,5.8,5.8h154.4c3.2,0,5.8-2.6,5.8-5.8
				V6.3c0-3.2-2.6-5.8-5.8-5.8C160.8,0.5,6.4,0.5,6.4,0.5z"/>
		</g>
	</g>
	<g>
		<circle class="st0" cx="148.9" cy="18.7" r="0.6"/>
	</g>
	<g>
		<path class="st0" d="M122.4,18.7c0,0.3-0.3,0.6-0.6,0.6c-0.3,0-0.6-0.3-0.6-0.6s0.3-0.6,0.6-0.6S122.4,18.4,122.4,18.7z"/>
	</g>
	<g>
		<circle class="st0" cx="96.9" cy="18.7" r="0.6"/>
	</g>
	<g>
		<path class="st0" d="M72.4,18.9c0,0.3-0.3,0.6-0.6,0.6c-0.3,0-0.6-0.3-0.6-0.6c0-0.3,0.3-0.6,0.6-0.6
			C72.2,18.3,72.4,18.6,72.4,18.9z"/>
	</g>
	<g>
		<circle class="st0" cx="148.9" cy="39.8" r="0.6"/>
	</g>
	<g>
		<circle class="st0" cx="148.9" cy="59.1" r="0.6"/>
	</g>
	<g>
		<circle class="st0" cx="148.9" cy="79.3" r="0.6"/>
	</g>
	<g>
		<circle class="st0" cx="148.9" cy="92.1" r="0.6"/>
	</g>
	<g>
		<circle class="st0" cx="148.9" cy="104.9" r="0.6"/>
	</g>
	<g>
		<path class="st0" d="M19.3,19.3c0,0.3-0.3,0.6-0.6,0.6c-0.3,0-0.6-0.3-0.6-0.6s0.3-0.6,0.6-0.6S19.3,19,19.3,19.3z"/>
	</g>
	<g>
		<circle class="st0" cx="46.1" cy="18.9" r="0.6"/>
	</g>
	<g>
		<path class="st0" d="M19.3,39.4c0,0.3-0.3,0.6-0.6,0.6c-0.3,0-0.6-0.3-0.6-0.6s0.3-0.6,0.6-0.6C19,38.8,19.3,39.1,19.3,39.4z"/>
	</g>
	<g>
		<path class="st0" d="M19.3,59.3c0,0.3-0.3,0.6-0.6,0.6c-0.3,0-0.6-0.3-0.6-0.6s0.3-0.6,0.6-0.6S19.3,58.9,19.3,59.3z"/>
	</g>
	<g>
		<path class="st0" d="M19.3,79.2c0,0.3-0.3,0.6-0.6,0.6c-0.3,0-0.6-0.3-0.6-0.6c0-0.3,0.3-0.6,0.6-0.6S19.3,78.9,19.3,79.2z"/>
	</g>
	<g>
		<path class="st0" d="M19.3,92.1c0,0.3-0.3,0.6-0.6,0.6c-0.3,0-0.6-0.3-0.6-0.6c0-0.3,0.3-0.6,0.6-0.6C19,91.6,19.3,91.8,19.3,92.1
			z"/>
	</g>
	<g>
		<path class="st0" d="M19.3,105.5c0,0.3-0.3,0.6-0.6,0.6c-0.3,0-0.6-0.3-0.6-0.6c0-0.3,0.3-0.6,0.6-0.6
			C19,104.9,19.3,105.2,19.3,105.5z"/>
	</g>
	<g>
		<path class="st0" d="M19.3,118.4c0,0.3-0.3,0.6-0.6,0.6c-0.3,0-0.6-0.3-0.6-0.6c0-0.3,0.3-0.6,0.6-0.6
			C19,117.9,19.3,118.1,19.3,118.4z"/>
	</g>
	<g>
		<path class="st0" d="M19.3,131.4c0,0.3-0.3,0.6-0.6,0.6c-0.3,0-0.6-0.3-0.6-0.6s0.3-0.6,0.6-0.6C19,130.8,19.3,131.1,19.3,131.4z"
			/>
	</g>
	<g>
		<path class="st0" d="M19.3,144.8c0,0.3-0.3,0.6-0.6,0.6c-0.3,0-0.6-0.3-0.6-0.6s0.3-0.6,0.6-0.6S19.3,144.4,19.3,144.8z"/>
	</g>
	<g>
		<path class="st0" d="M19.3,158.2c0,0.3-0.3,0.6-0.6,0.6c-0.3,0-0.6-0.3-0.6-0.6s0.3-0.6,0.6-0.6S19.3,157.9,19.3,158.2z"/>
	</g>
	<g>
		<path class="st0" d="M19.3,170.2c0,0.3-0.3,0.6-0.6,0.6c-0.3,0-0.6-0.3-0.6-0.6s0.3-0.6,0.6-0.6S19.3,169.9,19.3,170.2z"/>
	</g>
	<g>
		<path class="st0" d="M19.3,183.6c0,0.3-0.3,0.6-0.6,0.6c-0.3,0-0.6-0.3-0.6-0.6s0.3-0.6,0.6-0.6C19,183,19.3,183.3,19.3,183.6z"/>
	</g>
	<g>
		<path class="st0" d="M19.3,196.6c0,0.3-0.3,0.6-0.6,0.6c-0.3,0-0.6-0.3-0.6-0.6s0.3-0.6,0.6-0.6C19,196.1,19.3,196.3,19.3,196.6z"
			/>
	</g>
	<g>
		<path class="st0" d="M19.5,215.8c0,0.3-0.3,0.6-0.6,0.6c-0.3,0-0.6-0.3-0.6-0.6s0.3-0.6,0.6-0.6C19.3,215.2,19.5,215.5,19.5,215.8
			z"/>
	</g>
	<g>
		<path class="st0" d="M40,216.4c0,0.3-0.3,0.6-0.6,0.6s-0.6-0.3-0.6-0.6s0.3-0.6,0.6-0.6C39.8,215.8,40,216.1,40,216.4z"/>
	</g>
	<g>
		<circle class="st0" cx="65.9" cy="216.4" r="0.6"/>
	</g>
	<g>
		<path class="st0" d="M92.8,216.4c0,0.3-0.3,0.6-0.6,0.6c-0.3,0-0.6-0.3-0.6-0.6s0.3-0.6,0.6-0.6C92.6,215.8,92.8,216.1,92.8,216.4
			z"/>
	</g>
	<g>
		<path class="st0" d="M118.6,216.4c0,0.3-0.3,0.6-0.6,0.6c-0.3,0-0.6-0.3-0.6-0.6s0.3-0.6,0.6-0.6
			C118.3,215.8,118.6,216.1,118.6,216.4z"/>
	</g>
	<g>
		<circle class="st0" cx="148.9" cy="118.1" r="0.6"/>
	</g>
	<g>
		<circle class="st0" cx="148.9" cy="130.5" r="0.6"/>
	</g>
	<g>
		<circle class="st0" cx="148.9" cy="143.7" r="0.6"/>
	</g>
	<g>
		<circle class="st0" cx="148.9" cy="156.8" r="0.6"/>
	</g>
	<g>
		<circle class="st0" cx="148.9" cy="169.6" r="0.6"/>
	</g>
	<g>
		<circle class="st0" cx="148.9" cy="182.2" r="0.6"/>
	</g>
	<g>
		<circle class="st0" cx="148.9" cy="195" r="0.6"/>
	</g>
	<g>
		<circle class="st0" cx="148.9" cy="214.6" r="0.6"/>
	</g>
	<g>
		<g>
			<polygon class="st2" points="16.1,28.6 11.4,33.8 15.6,39.5 20.4,34.3 			"/>
		</g>
		<g>
			<polygon class="st2" points="148.6,193.4 143.8,198.6 148,204.3 152.9,199.1 			"/>
		</g>
		<g>
			<g>
				<g>
					<path class="st3" d="M14.1,25.1c-0.6-0.5-1.1-1.3-1.5-2.2c-0.3-1-0.5-2.1-0.5-3.4c0-1.1,0.1-2.1,0.4-3.1c0.3-1,0.7-1.9,1.2-2.5
						c0.9-1.2,2-1.8,3.3-1.8c0.9,0,1.7,0.3,2.2,0.9c0.2,0.2,0.3,0.5,0.4,0.8s0.1,0.5,0.1,0.8c0,0.5-0.2,0.8-0.5,1.1
						C19,15.9,18.7,16,18.4,16s-0.5-0.1-0.7-0.3c-0.1-0.1-0.1-0.2-0.1-0.3s0-0.2,0-0.3c0-0.2,0.1-0.4,0.3-0.6
						c0.1-0.1,0.2-0.2,0.4-0.3c0.1-0.1,0.2-0.2,0.2-0.2c0-0.1,0.1-0.2,0.1-0.3c0-0.2-0.1-0.4-0.4-0.6c-0.3-0.2-0.7-0.3-1.2-0.3
						s-0.9,0.1-1.3,0.4c-0.4,0.3-0.8,0.7-1.1,1.4c-0.2,0.5-0.4,1.1-0.5,1.8c-0.1,0.7-0.2,1.3-0.2,1.8v0.9l0.1,0.1
						c0.2-0.5,0.6-0.9,1.1-1.2c0.5-0.3,1-0.5,1.4-0.5c0.9,0,1.6,0.2,2.2,0.6c0.5,0.4,0.9,0.9,1.2,1.5c0.3,0.6,0.4,1.3,0.4,2
						s-0.2,1.4-0.5,2.1S19,25,18.4,25.5s-1.3,0.7-2.1,0.7C15.5,25.9,14.7,25.6,14.1,25.1z M18,24.1c0.4-0.8,0.5-1.6,0.5-2.6
						s-0.2-1.9-0.5-2.6s-0.8-1-1.6-1c-0.5,0-0.9,0.1-1.2,0.4c-0.4,0.3-0.6,0.7-0.9,1.3c-0.2,0.5-0.3,1.2-0.3,1.9
						c0,1.1,0.2,2,0.5,2.6c0.3,0.7,0.9,1,1.7,1C17.1,25.2,17.7,24.9,18,24.1z"/>
				</g>
			</g>
		</g>
		<g>
			<g>
				<g>
					<path class="st3" d="M150.4,208.2c0.6,0.5,1.1,1.3,1.5,2.2c0.3,1,0.5,2.1,0.5,3.4c0,1.1-0.1,2.1-0.4,3.1
						c-0.3,1-0.7,1.9-1.2,2.5c-0.9,1.2-2,1.8-3.3,1.8c-0.9,0-1.7-0.3-2.2-0.9c-0.2-0.2-0.3-0.5-0.4-0.8c-0.1-0.3-0.1-0.5-0.1-0.8
						c0-0.5,0.2-0.8,0.5-1.1c0.2-0.2,0.5-0.3,0.8-0.3s0.5,0.1,0.7,0.3c0.1,0.1,0.1,0.2,0.1,0.3s0,0.2,0,0.3c0,0.2-0.1,0.4-0.3,0.6
						c-0.1,0.1-0.2,0.2-0.4,0.3c-0.1,0.1-0.2,0.2-0.2,0.2c0,0.1-0.1,0.2-0.1,0.3c0,0.2,0.1,0.4,0.4,0.6c0.3,0.2,0.7,0.3,1.2,0.3
						s0.9-0.1,1.3-0.4c0.4-0.3,0.8-0.7,1.1-1.4c0.2-0.5,0.4-1.1,0.5-1.8s0.2-1.3,0.2-1.8v-0.9l-0.1-0.1c-0.2,0.5-0.6,0.9-1.1,1.2
						s-1,0.5-1.4,0.5c-0.9,0-1.6-0.2-2.2-0.6c-0.5-0.4-0.9-0.9-1.2-1.5s-0.4-1.3-0.4-2s0.2-1.4,0.5-2.1c0.3-0.7,0.8-1.3,1.4-1.8
						c0.6-0.5,1.3-0.7,2.1-0.7C149,207.4,149.8,207.7,150.4,208.2z M146.5,209.2c-0.4,0.8-0.5,1.6-0.5,2.6s0.2,1.9,0.5,2.6
						c0.3,0.7,0.8,1,1.6,1c0.5,0,0.9-0.1,1.2-0.4c0.4-0.3,0.6-0.7,0.9-1.3c0.2-0.5,0.3-1.2,0.3-1.9c0-1.1-0.2-2-0.5-2.6
						c-0.3-0.7-0.9-1-1.7-1C147.4,208.1,146.8,208.4,146.5,209.2z"/>
				</g>
			</g>
		</g>
		<g>
			<polygon class="st2" points="50.2,23.8 36.9,39.9 50.2,56.3 63.8,40.1 			"/>
		</g>
		<g>
			<polygon class="st2" points="50.2,173.4 36.9,189.5 50.2,205.9 63.8,189.6 			"/>
		</g>
		<g>
			<polygon class="st2" points="50.2,98.6 36.9,114.7 50.2,131.1 63.8,114.8 			"/>
		</g>
		<g>
			<polygon class="st2" points="114.8,23.8 101.5,39.9 114.8,56.3 128.5,40.1 			"/>
		</g>
		<g>
			<polygon class="st2" points="114.8,173.4 101.5,189.5 114.8,205.9 128.5,189.6 			"/>
		</g>
		<g>
			<polygon class="st2" points="114.8,98.6 101.5,114.7 114.8,131.1 128.5,114.8 			"/>
		</g>
	</g>
</g>
</svg>
