<?xml version="1.0" encoding="utf-8"?>
<!-- Generator: Adobe Illustrator 27.6.1, SVG Export Plug-In . SVG Version: 6.00 Build 0)  -->
<svg version="1.1" id="Слой_1" xmlns="http://www.w3.org/2000/svg" xmlns:xlink="http://www.w3.org/1999/xlink" x="0px" y="0px"
	 viewBox="0 0 167.3 233.5" style="enable-background:new 0 0 167.3 233.5;" xml:space="preserve">
<style type="text/css">
	.st0{fill:#FFFFFF;}
	.st1{fill:#32A8E0;}
	.st2{fill:#CD1417;}
	.st3{fill:#BE3D2E;}
</style>
<g>
	<g>
		<g>
			<path class="st0" d="M160.8,233.2H6.3c-3.3,0-5.9-2.7-5.9-5.9V6.3c0-3.3,2.7-5.9,5.9-5.9h154.5c3.3,0,5.9,2.7,5.9,5.9v221
				C166.7,230.6,164,233.2,160.8,233.2z"/>
			<path class="st1" d="M160.8,233.3H6.3c-3.3,0-6.1-2.7-6.1-6.1V6.3c0-3.4,2.8-6.1,6.1-6.1h154.5c3.3,0,6.1,2.7,6.1,6.1v221
				C166.8,230.6,164.1,233.3,160.8,233.3z M6.3,0.4C3.1,0.4,0.5,3,0.5,6.2v221c0,3.2,2.6,5.8,5.8,5.8h154.5c3.2,0,5.8-2.6,5.8-5.8
				V6.3c0-3.2-2.6-5.8-5.8-5.8L6.3,0.4L6.3,0.4z"/>
		</g>
	</g>
	<g>
		<path class="st0" d="M149.4,18.7c0,0.3-0.3,0.6-0.6,0.6s-0.6-0.3-0.6-0.6c0-0.3,0.3-0.6,0.6-0.6C149.2,18.1,149.4,18.4,149.4,18.7
			z"/>
	</g>
	<g>
		<path class="st0" d="M122.3,18.7c0,0.3-0.3,0.6-0.6,0.6c-0.3,0-0.6-0.3-0.6-0.6c0-0.3,0.3-0.6,0.6-0.6S122.3,18.4,122.3,18.7z"/>
	</g>
	<g>
		<path class="st0" d="M97.3,18.7c0,0.3-0.3,0.6-0.6,0.6c-0.3,0-0.6-0.3-0.6-0.6c0-0.3,0.3-0.6,0.6-0.6
			C97.1,18.1,97.3,18.4,97.3,18.7z"/>
	</g>
	<g>
		<path class="st0" d="M72.3,18.9c0,0.3-0.3,0.6-0.6,0.6c-0.3,0-0.6-0.3-0.6-0.6c0-0.3,0.3-0.6,0.6-0.6S72.3,18.6,72.3,18.9z"/>
	</g>
	<g>
		<path class="st0" d="M149.4,39.8c0,0.3-0.3,0.6-0.6,0.6s-0.6-0.3-0.6-0.6s0.3-0.6,0.6-0.6C149.2,39.3,149.4,39.5,149.4,39.8z"/>
	</g>
	<g>
		<path class="st0" d="M149.4,59.1c0,0.3-0.3,0.6-0.6,0.6s-0.6-0.3-0.6-0.6s0.3-0.6,0.6-0.6C149.2,58.5,149.4,58.8,149.4,59.1z"/>
	</g>
	<g>
		<path class="st0" d="M149.4,79.3c0,0.3-0.3,0.6-0.6,0.6s-0.6-0.3-0.6-0.6c0-0.3,0.3-0.6,0.6-0.6C149.2,78.8,149.4,79,149.4,79.3z"
			/>
	</g>
	<g>
		<path class="st0" d="M149.4,92.1c0,0.3-0.3,0.6-0.6,0.6s-0.6-0.3-0.6-0.6c0-0.3,0.3-0.6,0.6-0.6C149.2,91.5,149.4,91.8,149.4,92.1
			z"/>
	</g>
	<g>
		<path class="st0" d="M149.4,104.9c0,0.3-0.3,0.6-0.6,0.6s-0.6-0.3-0.6-0.6c0-0.3,0.3-0.6,0.6-0.6
			C149.2,104.4,149.4,104.6,149.4,104.9z"/>
	</g>
	<g>
		<path class="st0" d="M19.1,19.2c0,0.3-0.3,0.6-0.6,0.6c-0.3,0-0.6-0.3-0.6-0.6c0-0.3,0.3-0.6,0.6-0.6
			C18.9,18.7,19.1,18.9,19.1,19.2z"/>
	</g>
	<g>
		<path class="st0" d="M46.6,18.9c0,0.3-0.3,0.6-0.6,0.6s-0.6-0.3-0.6-0.6c0-0.3,0.3-0.6,0.6-0.6S46.6,18.6,46.6,18.9z"/>
	</g>
	<g>
		<path class="st0" d="M19.1,39.4c0,0.3-0.3,0.6-0.6,0.6c-0.3,0-0.6-0.3-0.6-0.6s0.3-0.6,0.6-0.6C18.9,38.8,19.1,39.1,19.1,39.4z"/>
	</g>
	<g>
		<path class="st0" d="M19.1,59.2c0,0.3-0.3,0.6-0.6,0.6c-0.3,0-0.6-0.3-0.6-0.6s0.3-0.6,0.6-0.6C18.9,58.7,19.1,58.9,19.1,59.2z"/>
	</g>
	<g>
		<path class="st0" d="M19.1,79.2c0,0.3-0.3,0.6-0.6,0.6c-0.3,0-0.6-0.3-0.6-0.6s0.3-0.6,0.6-0.6C18.9,78.6,19.1,78.9,19.1,79.2z"/>
	</g>
	<g>
		<path class="st0" d="M19.1,92.1c0,0.3-0.3,0.6-0.6,0.6c-0.3,0-0.6-0.3-0.6-0.6c0-0.3,0.3-0.6,0.6-0.6
			C18.9,91.5,19.1,91.8,19.1,92.1z"/>
	</g>
	<g>
		<path class="st0" d="M19.1,105.5c0,0.3-0.3,0.6-0.6,0.6c-0.3,0-0.6-0.3-0.6-0.6c0-0.3,0.3-0.6,0.6-0.6
			C18.9,104.9,19.1,105.2,19.1,105.5z"/>
	</g>
	<g>
		<path class="st0" d="M19.1,118.4c0,0.3-0.3,0.6-0.6,0.6c-0.3,0-0.6-0.3-0.6-0.6c0-0.3,0.3-0.6,0.6-0.6
			C18.9,117.9,19.1,118.1,19.1,118.4z"/>
	</g>
	<g>
		<path class="st0" d="M19.1,131.4c0,0.3-0.3,0.6-0.6,0.6c-0.3,0-0.6-0.3-0.6-0.6s0.3-0.6,0.6-0.6C18.9,130.8,19.1,131.1,19.1,131.4
			z"/>
	</g>
	<g>
		<path class="st0" d="M19.1,144.8c0,0.3-0.3,0.6-0.6,0.6c-0.3,0-0.6-0.3-0.6-0.6s0.3-0.6,0.6-0.6C18.9,144.2,19.1,144.5,19.1,144.8
			z"/>
	</g>
	<g>
		<path class="st0" d="M19.1,158.2c0,0.3-0.3,0.6-0.6,0.6c-0.3,0-0.6-0.3-0.6-0.6s0.3-0.6,0.6-0.6C18.9,157.6,19.1,157.9,19.1,158.2
			z"/>
	</g>
	<g>
		<path class="st0" d="M19.1,170.2c0,0.3-0.3,0.6-0.6,0.6c-0.3,0-0.6-0.3-0.6-0.6s0.3-0.6,0.6-0.6C18.9,169.6,19.1,169.9,19.1,170.2
			z"/>
	</g>
	<g>
		<path class="st0" d="M19.1,183.6c0,0.3-0.3,0.6-0.6,0.6c-0.3,0-0.6-0.3-0.6-0.6s0.3-0.6,0.6-0.6C18.9,183,19.1,183.3,19.1,183.6z"
			/>
	</g>
	<g>
		<path class="st0" d="M19.1,196.6c0,0.3-0.3,0.6-0.6,0.6c-0.3,0-0.6-0.3-0.6-0.6s0.3-0.6,0.6-0.6C18.9,196.1,19.1,196.3,19.1,196.6
			z"/>
	</g>
	<g>
		<path class="st0" d="M19.4,215.8c0,0.3-0.3,0.6-0.6,0.6s-0.6-0.3-0.6-0.6s0.3-0.6,0.6-0.6S19.4,215.5,19.4,215.8z"/>
	</g>
	<g>
		<path class="st0" d="M39.9,216.4c0,0.3-0.3,0.6-0.6,0.6s-0.6-0.3-0.6-0.6s0.3-0.6,0.6-0.6C39.6,215.8,39.9,216.1,39.9,216.4z"/>
	</g>
	<g>
		<path class="st0" d="M66.3,216.4c0,0.3-0.3,0.6-0.6,0.6s-0.6-0.3-0.6-0.6s0.3-0.6,0.6-0.6S66.3,216.1,66.3,216.4z"/>
	</g>
	<g>
		<path class="st0" d="M92.7,216.4c0,0.3-0.3,0.6-0.6,0.6s-0.6-0.3-0.6-0.6s0.3-0.6,0.6-0.6S92.7,216.1,92.7,216.4z"/>
	</g>
	<g>
		<path class="st0" d="M118.5,216.4c0,0.3-0.3,0.6-0.6,0.6s-0.6-0.3-0.6-0.6s0.3-0.6,0.6-0.6S118.5,216.1,118.5,216.4z"/>
	</g>
	<g>
		<path class="st0" d="M149.4,118.1c0,0.3-0.3,0.6-0.6,0.6s-0.6-0.3-0.6-0.6s0.3-0.6,0.6-0.6C149.2,117.6,149.4,117.8,149.4,118.1z"
			/>
	</g>
	<g>
		<path class="st0" d="M149.4,130.5c0,0.3-0.3,0.6-0.6,0.6s-0.6-0.3-0.6-0.6s0.3-0.6,0.6-0.6C149.2,129.9,149.4,130.1,149.4,130.5z"
			/>
	</g>
	<g>
		<path class="st0" d="M149.4,143.7c0,0.3-0.3,0.6-0.6,0.6s-0.6-0.3-0.6-0.6s0.3-0.6,0.6-0.6C149.2,143.2,149.4,143.4,149.4,143.7z"
			/>
	</g>
	<g>
		<path class="st0" d="M149.4,156.9c0,0.3-0.3,0.6-0.6,0.6s-0.6-0.3-0.6-0.6s0.3-0.6,0.6-0.6C149.2,156.3,149.4,156.5,149.4,156.9z"
			/>
	</g>
	<g>
		<path class="st0" d="M149.4,169.6c0,0.3-0.3,0.6-0.6,0.6s-0.6-0.3-0.6-0.6s0.3-0.6,0.6-0.6C149.2,169,149.4,169.3,149.4,169.6z"/>
	</g>
	<g>
		<path class="st0" d="M149.4,182.2c0,0.3-0.3,0.6-0.6,0.6s-0.6-0.3-0.6-0.6s0.3-0.6,0.6-0.6C149.2,181.6,149.4,181.9,149.4,182.2z"
			/>
	</g>
	<g>
		<path class="st0" d="M149.4,195c0,0.3-0.3,0.6-0.6,0.6s-0.6-0.3-0.6-0.6s0.3-0.6,0.6-0.6C149.2,194.5,149.4,194.7,149.4,195z"/>
	</g>
	<g>
		<path class="st0" d="M149.4,214.6c0,0.3-0.3,0.6-0.6,0.6s-0.6-0.3-0.6-0.6s0.3-0.6,0.6-0.6C149.2,214,149.4,214.3,149.4,214.6z"/>
	</g>
	<g>
		<g>
			<path class="st2" d="M64.9,28.9c-5.5-0.1-6.7,4.1-7,6.1c-0.3-2-1.6-6.2-7-6.1c-7.2,0.2-8.2,8.3-5.6,12.3c2.5,4.1,3.8,5.4,6.3,8
				c2.4,2.5,5.2,5.2,6.3,6.9c0,0,0.1,0.2,0.1,0.1c0,0.1,0.1-0.1,0.1-0.1c1-1.7,3.9-4.5,6.3-6.9c2.5-2.6,3.8-3.9,6.3-8
				C73,37.1,72.1,29,64.9,28.9z"/>
		</g>
		<g>
			<path class="st2" d="M64.9,104.6c-5.5-0.1-6.7,4.1-7,6.1c-0.3-2-1.6-6.2-7-6.1c-7.2,0.2-8.2,8.3-5.6,12.3c2.5,4.1,3.8,5.4,6.3,8
				c2.4,2.5,5.2,5.2,6.3,6.9c0,0,0.1,0.2,0.1,0.1c0,0.1,0.1-0.1,0.1-0.1c1-1.7,3.9-4.5,6.3-6.9c2.5-2.6,3.8-3.9,6.3-8
				C73,112.9,72.1,104.8,64.9,104.6z"/>
		</g>
		<g>
			<path class="st2" d="M64.9,207.8c-5.5,0.1-6.7-4.1-7-6.1c-0.3,2-1.6,6.2-7,6.1c-7.2-0.2-8.2-8.3-5.6-12.3c2.5-4.1,3.8-5.4,6.3-8
				c2.4-2.5,5.2-5.2,6.3-6.9c0,0,0.1-0.2,0.1-0.1c0-0.1,0.1,0.1,0.1,0.1c1,1.7,3.9,4.5,6.3,6.9c2.5,2.6,3.8,3.9,6.3,8
				C73,199.6,72.1,207.7,64.9,207.8z"/>
		</g>
		<g>
			<path class="st2" d="M116.6,28.9c-5.5-0.1-6.7,4.1-7,6.1c-0.3-2-1.6-6.2-7-6.1c-7.2,0.2-8.2,8.3-5.6,12.3c2.5,4.1,3.8,5.4,6.3,8
				c2.4,2.5,5.2,5.2,6.3,6.9c0,0,0.1,0.2,0.1,0.1c0,0.1,0.1-0.1,0.1-0.1c1-1.7,3.9-4.5,6.3-6.9c2.5-2.6,3.8-3.9,6.3-8
				C124.8,37.1,123.8,29,116.6,28.9z"/>
		</g>
		<g>
			<path class="st2" d="M116.6,104.6c-5.5-0.1-6.7,4.1-7,6.1c-0.3-2-1.6-6.2-7-6.1c-7.2,0.2-8.2,8.3-5.6,12.3c2.5,4.1,3.8,5.4,6.3,8
				c2.4,2.5,5.2,5.2,6.3,6.9c0,0,0.1,0.2,0.1,0.1c0,0.1,0.1-0.1,0.1-0.1c1-1.7,3.9-4.5,6.3-6.9c2.5-2.6,3.8-3.9,6.3-8
				C124.8,112.9,123.8,104.8,116.6,104.6z"/>
		</g>
		<g>
			<path class="st2" d="M116.6,207.8c-5.5,0.1-6.7-4.1-7-6.1c-0.3,2-1.6,6.2-7,6.1c-7.2-0.2-8.2-8.3-5.6-12.3c2.5-4.1,3.8-5.4,6.3-8
				c2.4-2.5,5.2-5.2,6.3-6.9c0,0,0.1-0.2,0.1-0.1c0-0.1,0.1,0.1,0.1,0.1c1,1.7,3.9,4.5,6.3,6.9c2.5,2.6,3.8,3.9,6.3,8
				C124.8,199.6,123.8,207.7,116.6,207.8z"/>
		</g>
		<g>
			<g>
				<g>
					<path class="st3" d="M14.4,28.6c-0.6-0.5-1.1-1.3-1.5-2.2c-0.3-1-0.5-2.1-0.5-3.4c0-1.1,0.1-2.1,0.4-3.1c0.3-1,0.7-1.9,1.2-2.5
						c0.9-1.2,2.1-1.8,3.3-1.8c0.9,0,1.7,0.3,2.2,0.9c0.2,0.2,0.3,0.5,0.4,0.8s0.1,0.5,0.1,0.8c0,0.5-0.2,0.8-0.5,1.1
						c-0.2,0.2-0.5,0.3-0.8,0.3s-0.5-0.1-0.7-0.3c-0.1-0.1-0.1-0.2-0.1-0.3c0-0.1,0-0.2,0-0.3c0-0.2,0.1-0.4,0.3-0.6
						c0.1-0.1,0.2-0.2,0.4-0.3c0.1-0.1,0.2-0.2,0.2-0.2c0-0.1,0.1-0.2,0.1-0.3c0-0.2-0.1-0.4-0.4-0.6s-0.7-0.3-1.2-0.3
						s-0.9,0.1-1.3,0.4c-0.4,0.3-0.8,0.7-1.1,1.4c-0.2,0.5-0.4,1.1-0.5,1.8c-0.1,0.7-0.2,1.3-0.2,1.8v0.9l0.1,0.1
						c0.2-0.5,0.6-0.9,1.1-1.2c0.5-0.3,1-0.5,1.4-0.5c0.9,0,1.6,0.2,2.2,0.6c0.5,0.4,0.9,0.9,1.2,1.5c0.3,0.6,0.4,1.3,0.4,2
						s-0.2,1.4-0.5,2.1s-0.8,1.3-1.4,1.8s-1.3,0.7-2.1,0.7C15.8,29.3,15.1,29.1,14.4,28.6z M18.4,27.6c0.4-0.7,0.5-1.6,0.5-2.6
						s-0.2-1.9-0.5-2.6s-0.8-1-1.6-1c-0.5,0-0.9,0.1-1.2,0.4c-0.4,0.3-0.6,0.7-0.9,1.3c-0.2,0.5-0.3,1.2-0.3,1.9
						c0,1.1,0.2,2,0.5,2.6c0.3,0.7,0.9,1,1.7,1C17.4,28.7,18,28.3,18.4,27.6z"/>
				</g>
			</g>
		</g>
		<g>
			<g>
				<g>
					<path class="st3" d="M150.8,211.7c0.6,0.5,1.1,1.3,1.5,2.2c0.3,1,0.5,2.1,0.5,3.4c0,1.1-0.1,2.1-0.4,3.1
						c-0.3,1-0.7,1.9-1.2,2.5c-0.9,1.2-2.1,1.8-3.3,1.8c-0.9,0-1.7-0.3-2.2-0.9c-0.2-0.2-0.3-0.5-0.4-0.8c-0.1-0.3-0.1-0.5-0.1-0.8
						c0-0.5,0.2-0.8,0.5-1.1c0.2-0.2,0.5-0.3,0.8-0.3s0.5,0.1,0.7,0.3c0.1,0.1,0.1,0.2,0.1,0.3s0,0.2,0,0.3c0,0.2-0.1,0.4-0.3,0.6
						c-0.1,0.1-0.2,0.2-0.4,0.3c-0.1,0.1-0.2,0.2-0.2,0.2c0,0.1-0.1,0.2-0.1,0.3c0,0.2,0.1,0.4,0.4,0.6c0.3,0.2,0.7,0.3,1.2,0.3
						s0.9-0.1,1.3-0.4c0.4-0.3,0.8-0.7,1.1-1.4c0.2-0.5,0.4-1.1,0.5-1.8s0.2-1.3,0.2-1.8v-0.9l-0.1-0.1c-0.2,0.5-0.6,0.9-1.1,1.2
						s-1,0.5-1.4,0.5c-0.9,0-1.6-0.2-2.2-0.6c-0.5-0.4-0.9-0.9-1.2-1.5s-0.4-1.3-0.4-2s0.2-1.4,0.5-2.1c0.3-0.7,0.8-1.3,1.4-1.8
						s1.3-0.7,2.1-0.7C149.4,210.9,150.2,211.2,150.8,211.7z M146.9,212.7c-0.4,0.8-0.5,1.6-0.5,2.6s0.2,1.9,0.5,2.6
						c0.3,0.7,0.8,1,1.6,1c0.5,0,0.9-0.1,1.2-0.4c0.4-0.3,0.6-0.7,0.9-1.3c0.2-0.6,0.3-1.2,0.3-1.9c0-1.1-0.2-2-0.5-2.6
						c-0.3-0.7-0.9-1-1.7-1C147.8,211.6,147.2,211.9,146.9,212.7z"/>
				</g>
			</g>
		</g>
		<g>
			<path class="st2" d="M19.8,34.9c-1.9,0-2.3,1.4-2.4,2.1c-0.1-0.7-0.5-2.2-2.4-2.1c-2.5,0.1-2.8,2.9-2,4.3
				c0.9,1.4,1.3,1.9,2.2,2.8c0.8,0.9,1.8,1.8,2.2,2.4c0,0,0,0.1,0,0l0,0c0.4-0.6,1.3-1.5,2.2-2.4c0.9-0.9,1.3-1.4,2.2-2.8
				C22.6,37.7,22.3,34.9,19.8,34.9z"/>
		</g>
		<g>
			<path class="st2" d="M151,207c-1.9,0-2.3-1.4-2.4-2.1c-0.1,0.7-0.5,2.2-2.4,2.1c-2.5-0.1-2.8-2.9-2-4.3c0.9-1.4,1.3-1.9,2.2-2.8
				c0.8-0.9,1.8-1.8,2.2-2.4v-0.1v0.1c0.4,0.6,1.3,1.5,2.2,2.4s1.3,1.4,2.2,2.8C153.8,204.2,153.5,207,151,207z"/>
		</g>
	</g>
</g>
</svg>
