<?xml version="1.0" encoding="utf-8"?>
<!-- Generator: Adobe Illustrator 27.6.1, SVG Export Plug-In . SVG Version: 6.00 Build 0)  -->
<svg version="1.1" id="Слой_1" xmlns="http://www.w3.org/2000/svg" xmlns:xlink="http://www.w3.org/1999/xlink" x="0px" y="0px"
	 viewBox="0 0 167.2 233.5" style="enable-background:new 0 0 167.2 233.5;" xml:space="preserve">
<style type="text/css">
	.st0{fill:#FFFFFF;}
	.st1{fill:#32A8E0;}
	.st2{fill:#020203;}
	.st3{fill:#0C0D0D;}
</style>
<g>
	<g>
		<g>
			<path class="st0" d="M160.9,233.2H6.4c-3.3,0-5.9-2.7-5.9-5.9V6.3c0-3.3,2.7-5.9,5.9-5.9h154.5c3.3,0,5.9,2.7,5.9,5.9v221
				C166.8,230.6,164.1,233.2,160.9,233.2z"/>
			<path class="st1" d="M160.9,233.3H6.4c-3.3,0-6.1-2.7-6.1-6.1V6.3c0-3.4,2.8-6.1,6.1-6.1h154.5c3.3,0,6.1,2.7,6.1,6.1v221
				C166.9,230.6,164.2,233.3,160.9,233.3z M6.4,0.4C3.2,0.4,0.6,3,0.6,6.2v221c0,3.2,2.6,5.8,5.8,5.8h154.5c3.2,0,5.8-2.6,5.8-5.8
				V6.3c0-3.2-2.6-5.8-5.8-5.8L6.4,0.4L6.4,0.4z"/>
		</g>
	</g>
	<g>
		<path class="st0" d="M149.5,18.7c0,0.3-0.3,0.6-0.6,0.6s-0.6-0.3-0.6-0.6s0.3-0.6,0.6-0.6S149.5,18.4,149.5,18.7z"/>
	</g>
	<g>
		<path class="st0" d="M122.4,18.7c0,0.3-0.3,0.6-0.6,0.6s-0.6-0.3-0.6-0.6s0.3-0.6,0.6-0.6S122.4,18.4,122.4,18.7z"/>
	</g>
	<g>
		<path class="st0" d="M97.4,18.7c0,0.3-0.3,0.6-0.6,0.6c-0.3,0-0.6-0.3-0.6-0.6s0.3-0.6,0.6-0.6C97.2,18.1,97.4,18.4,97.4,18.7z"/>
	</g>
	<g>
		<path class="st0" d="M72.4,18.9c0,0.3-0.3,0.6-0.6,0.6c-0.3,0-0.6-0.3-0.6-0.6s0.3-0.6,0.6-0.6S72.4,18.6,72.4,18.9z"/>
	</g>
	<g>
		<path class="st0" d="M149.5,39.8c0,0.3-0.3,0.6-0.6,0.6s-0.6-0.3-0.6-0.6s0.3-0.6,0.6-0.6S149.5,39.5,149.5,39.8z"/>
	</g>
	<g>
		<path class="st0" d="M149.5,59.1c0,0.3-0.3,0.6-0.6,0.6s-0.6-0.3-0.6-0.6s0.3-0.6,0.6-0.6S149.5,58.8,149.5,59.1z"/>
	</g>
	<g>
		<path class="st0" d="M149.5,79.3c0,0.3-0.3,0.6-0.6,0.6s-0.6-0.3-0.6-0.6c0-0.3,0.3-0.6,0.6-0.6S149.5,79,149.5,79.3z"/>
	</g>
	<g>
		<path class="st0" d="M149.5,92.1c0,0.3-0.3,0.6-0.6,0.6s-0.6-0.3-0.6-0.6c0-0.3,0.3-0.6,0.6-0.6S149.5,91.8,149.5,92.1z"/>
	</g>
	<g>
		<path class="st0" d="M149.5,104.9c0,0.3-0.3,0.6-0.6,0.6s-0.6-0.3-0.6-0.6c0-0.3,0.3-0.6,0.6-0.6S149.5,104.6,149.5,104.9z"/>
	</g>
	<g>
		<path class="st0" d="M19.2,19.2c0,0.3-0.3,0.6-0.6,0.6c-0.3,0-0.6-0.3-0.6-0.6s0.3-0.6,0.6-0.6C19,18.7,19.2,18.9,19.2,19.2z"/>
	</g>
	<g>
		<path class="st0" d="M46.7,18.9c0,0.3-0.3,0.6-0.6,0.6s-0.6-0.3-0.6-0.6s0.3-0.6,0.6-0.6S46.7,18.6,46.7,18.9z"/>
	</g>
	<g>
		<path class="st0" d="M19.2,39.4c0,0.3-0.3,0.6-0.6,0.6c-0.3,0-0.6-0.3-0.6-0.6s0.3-0.6,0.6-0.6C19,38.8,19.2,39.1,19.2,39.4z"/>
	</g>
	<g>
		<path class="st0" d="M19.2,59.2c0,0.3-0.3,0.6-0.6,0.6c-0.3,0-0.6-0.3-0.6-0.6s0.3-0.6,0.6-0.6C19,58.7,19.2,58.9,19.2,59.2z"/>
	</g>
	<g>
		<path class="st0" d="M19.2,79.2c0,0.3-0.3,0.6-0.6,0.6c-0.3,0-0.6-0.3-0.6-0.6s0.3-0.6,0.6-0.6C19,78.6,19.2,78.9,19.2,79.2z"/>
	</g>
	<g>
		<path class="st0" d="M19.2,92.1c0,0.3-0.3,0.6-0.6,0.6c-0.3,0-0.6-0.3-0.6-0.6c0-0.3,0.3-0.6,0.6-0.6C19,91.5,19.2,91.8,19.2,92.1
			z"/>
	</g>
	<g>
		<path class="st0" d="M19.2,105.5c0,0.3-0.3,0.6-0.6,0.6c-0.3,0-0.6-0.3-0.6-0.6c0-0.3,0.3-0.6,0.6-0.6
			C19,104.9,19.2,105.2,19.2,105.5z"/>
	</g>
	<g>
		<path class="st0" d="M19.2,118.4c0,0.3-0.3,0.6-0.6,0.6c-0.3,0-0.6-0.3-0.6-0.6s0.3-0.6,0.6-0.6C19,117.9,19.2,118.1,19.2,118.4z"
			/>
	</g>
	<g>
		<path class="st0" d="M19.2,131.4c0,0.3-0.3,0.6-0.6,0.6c-0.3,0-0.6-0.3-0.6-0.6s0.3-0.6,0.6-0.6C19,130.8,19.2,131.1,19.2,131.4z"
			/>
	</g>
	<g>
		<path class="st0" d="M19.2,144.8c0,0.3-0.3,0.6-0.6,0.6c-0.3,0-0.6-0.3-0.6-0.6s0.3-0.6,0.6-0.6C19,144.2,19.2,144.5,19.2,144.8z"
			/>
	</g>
	<g>
		<path class="st0" d="M19.2,158.2c0,0.3-0.3,0.6-0.6,0.6c-0.3,0-0.6-0.3-0.6-0.6s0.3-0.6,0.6-0.6C19,157.6,19.2,157.9,19.2,158.2z"
			/>
	</g>
	<g>
		<path class="st0" d="M19.2,170.2c0,0.3-0.3,0.6-0.6,0.6c-0.3,0-0.6-0.3-0.6-0.6s0.3-0.6,0.6-0.6C19,169.6,19.2,169.9,19.2,170.2z"
			/>
	</g>
	<g>
		<path class="st0" d="M19.2,183.6c0,0.3-0.3,0.6-0.6,0.6c-0.3,0-0.6-0.3-0.6-0.6s0.3-0.6,0.6-0.6C19,183,19.2,183.3,19.2,183.6z"/>
	</g>
	<g>
		<path class="st0" d="M19.2,196.6c0,0.3-0.3,0.6-0.6,0.6c-0.3,0-0.6-0.3-0.6-0.6s0.3-0.6,0.6-0.6C19,196.1,19.2,196.3,19.2,196.6z"
			/>
	</g>
	<g>
		<path class="st0" d="M19.5,215.8c0,0.3-0.3,0.6-0.6,0.6c-0.3,0-0.6-0.3-0.6-0.6s0.3-0.6,0.6-0.6C19.2,215.3,19.5,215.5,19.5,215.8
			z"/>
	</g>
	<g>
		<path class="st0" d="M40,216.4c0,0.3-0.3,0.6-0.6,0.6s-0.6-0.3-0.6-0.6s0.3-0.6,0.6-0.6C39.7,215.8,40,216.1,40,216.4z"/>
	</g>
	<g>
		<path class="st0" d="M66.4,216.4c0,0.3-0.3,0.6-0.6,0.6c-0.3,0-0.6-0.3-0.6-0.6s0.3-0.6,0.6-0.6C66.2,215.8,66.4,216.1,66.4,216.4
			z"/>
	</g>
	<g>
		<path class="st0" d="M92.8,216.4c0,0.3-0.3,0.6-0.6,0.6c-0.3,0-0.6-0.3-0.6-0.6s0.3-0.6,0.6-0.6C92.6,215.8,92.8,216.1,92.8,216.4
			z"/>
	</g>
	<g>
		<path class="st0" d="M118.6,216.4c0,0.3-0.3,0.6-0.6,0.6c-0.3,0-0.6-0.3-0.6-0.6s0.3-0.6,0.6-0.6
			C118.3,215.8,118.6,216.1,118.6,216.4z"/>
	</g>
	<g>
		<path class="st0" d="M149.5,118.1c0,0.3-0.3,0.6-0.6,0.6s-0.6-0.3-0.6-0.6s0.3-0.6,0.6-0.6S149.5,117.8,149.5,118.1z"/>
	</g>
	<g>
		<path class="st0" d="M149.5,130.5c0,0.3-0.3,0.6-0.6,0.6s-0.6-0.3-0.6-0.6s0.3-0.6,0.6-0.6S149.5,130.1,149.5,130.5z"/>
	</g>
	<g>
		<path class="st0" d="M149.5,143.7c0,0.3-0.3,0.6-0.6,0.6s-0.6-0.3-0.6-0.6s0.3-0.6,0.6-0.6S149.5,143.4,149.5,143.7z"/>
	</g>
	<g>
		<path class="st0" d="M149.5,156.9c0,0.3-0.3,0.6-0.6,0.6s-0.6-0.3-0.6-0.6s0.3-0.6,0.6-0.6S149.5,156.5,149.5,156.9z"/>
	</g>
	<g>
		<path class="st0" d="M149.5,169.6c0,0.3-0.3,0.6-0.6,0.6s-0.6-0.3-0.6-0.6s0.3-0.6,0.6-0.6S149.5,169.3,149.5,169.6z"/>
	</g>
	<g>
		<path class="st0" d="M149.5,182.2c0,0.3-0.3,0.6-0.6,0.6s-0.6-0.3-0.6-0.6s0.3-0.6,0.6-0.6S149.5,181.9,149.5,182.2z"/>
	</g>
	<g>
		<path class="st0" d="M149.5,195c0,0.3-0.3,0.6-0.6,0.6s-0.6-0.3-0.6-0.6s0.3-0.6,0.6-0.6S149.5,194.7,149.5,195z"/>
	</g>
	<g>
		<path class="st0" d="M149.5,214.6c0,0.3-0.3,0.6-0.6,0.6s-0.6-0.3-0.6-0.6s0.3-0.6,0.6-0.6S149.5,214.3,149.5,214.6z"/>
	</g>
	<g>
		<g>
			<g>
				<g>
					<path class="st2" d="M14.9,22.7c-0.6-0.5-1.1-1.3-1.5-2.2c-0.3-1-0.5-2.1-0.5-3.4c0-1.1,0.1-2.1,0.4-3.1c0.3-1,0.7-1.9,1.2-2.5
						c0.9-1.2,2.1-1.8,3.3-1.8c0.9,0,1.7,0.3,2.2,0.9c0.2,0.2,0.3,0.5,0.4,0.8s0.1,0.5,0.1,0.8c0,0.5-0.2,0.8-0.5,1.1
						c-0.2,0.2-0.5,0.3-0.8,0.3s-0.5-0.1-0.7-0.3c-0.1-0.1-0.1-0.2-0.1-0.3s0-0.2,0-0.3c0-0.2,0.1-0.4,0.3-0.6
						c0.1-0.1,0.2-0.2,0.4-0.3c0.1-0.1,0.2-0.2,0.2-0.2c0-0.1,0.1-0.2,0.1-0.3c0-0.2-0.1-0.4-0.4-0.6c-0.3-0.2-0.7-0.3-1.2-0.3
						s-0.9,0.1-1.3,0.4c-0.4,0.3-0.8,0.7-1.1,1.4c-0.2,0.5-0.4,1.1-0.5,1.8s-0.2,1.3-0.2,1.8v0.9l0.1,0.1c0.2-0.5,0.6-0.9,1.1-1.2
						c0.5-0.3,1-0.5,1.4-0.5c0.9,0,1.6,0.2,2.2,0.6c0.5,0.4,0.9,0.9,1.2,1.5c0.3,0.6,0.4,1.3,0.4,2s-0.2,1.4-0.5,2.1
						s-0.8,1.3-1.4,1.8s-1.3,0.7-2.1,0.7C16.3,23.5,15.5,23.2,14.9,22.7z M18.8,21.7c0.4-0.8,0.5-1.6,0.5-2.6s-0.2-1.9-0.5-2.6
						c-0.3-0.7-0.8-1-1.6-1c-0.5,0-0.9,0.1-1.2,0.4c-0.4,0.3-0.6,0.7-0.9,1.3c-0.2,0.5-0.3,1.2-0.3,1.9c0,1.1,0.2,2,0.5,2.6
						c0.3,0.7,0.9,1,1.7,1C17.9,22.8,18.5,22.5,18.8,21.7z"/>
				</g>
			</g>
		</g>
		<g>
			<g>
				<g>
					<path class="st2" d="M151.3,205.8c0.6,0.5,1.1,1.3,1.5,2.2s0.5,2.1,0.5,3.4c0,1.1-0.1,2.1-0.4,3.1c-0.3,1-0.7,1.9-1.2,2.5
						c-0.9,1.2-2.1,1.8-3.3,1.8c-0.9,0-1.7-0.3-2.2-0.9c-0.2-0.2-0.3-0.5-0.4-0.8c-0.1-0.3-0.1-0.5-0.1-0.8c0-0.5,0.2-0.8,0.5-1.1
						c0.2-0.2,0.5-0.3,0.8-0.3s0.5,0.1,0.7,0.3c0.1,0.1,0.1,0.2,0.1,0.3s0,0.2,0,0.3c0,0.2-0.1,0.4-0.3,0.6
						c-0.1,0.1-0.2,0.2-0.4,0.3c-0.1,0.1-0.2,0.2-0.2,0.2c0,0.1-0.1,0.2-0.1,0.3c0,0.2,0.1,0.4,0.4,0.6c0.3,0.2,0.7,0.3,1.2,0.3
						s0.9-0.1,1.3-0.4c0.4-0.3,0.8-0.7,1.1-1.4c0.2-0.5,0.4-1.1,0.5-1.8s0.2-1.3,0.2-1.8v-0.9l-0.1-0.1c-0.2,0.5-0.6,0.9-1.1,1.2
						s-1,0.5-1.4,0.5c-0.9,0-1.6-0.2-2.2-0.6c-0.5-0.4-0.9-0.9-1.2-1.5s-0.4-1.3-0.4-2s0.2-1.4,0.5-2.1c0.3-0.7,0.8-1.3,1.4-1.8
						c0.6-0.5,1.3-0.7,2.1-0.7C149.9,205.1,150.6,205.3,151.3,205.8z M147.3,206.8c-0.4,0.8-0.5,1.6-0.5,2.6s0.2,1.9,0.5,2.6
						c0.3,0.7,0.8,1,1.6,1c0.5,0,0.9-0.1,1.2-0.4c0.4-0.3,0.6-0.7,0.9-1.3c0.2-0.6,0.3-1.2,0.3-1.9c0-1.1-0.2-2-0.5-2.6
						c-0.3-0.7-0.9-1-1.7-1C148.3,205.7,147.7,206.1,147.3,206.8z"/>
				</g>
			</g>
		</g>
		<g>
			<path class="st3" d="M66.6,35.4c-3.7-4-7.9-7.9-9.7-10c-1.3-1.5-2.3-2.7-2.7-3.2v-0.3c0,0,0,0-0.1,0.1C54,21.9,54,21.9,54,21.9
				v0.3c-0.4,0.5-1.3,1.7-2.7,3.2c-1.8,2.1-6.1,6-9.7,10c-3.7,4-4,8-3.3,11.3s4.2,6.5,9.6,5.8c1.7-0.2,3-1,3.9-2.1
				c-0.6,4.7-3.2,7.2-3.2,7.2h10.6c-1.9-2.2-2.6-5.2-2.9-7.1c0.9,1,2.2,1.8,3.9,2c5.5,0.7,8.9-2.4,9.6-5.8
				C70.5,43.4,70.2,39.4,66.6,35.4z"/>
		</g>
		<g>
			<path class="st3" d="M66.6,111.9c-3.7-4-7.9-7.9-9.7-10c-1.3-1.5-2.3-2.7-2.7-3.2v-0.3c0,0,0,0-0.1,0.1C54,98.4,54,98.4,54,98.4
				v0.3c-0.4,0.5-1.3,1.7-2.7,3.2c-1.8,2.1-6.1,6-9.7,10c-3.7,4-4,8-3.3,11.3s4.2,6.5,9.6,5.8c1.7-0.2,3-1,3.9-2.1
				c-0.6,4.7-3.2,7.2-3.2,7.2h10.6c-1.9-2.2-2.6-5.2-2.9-7.1c0.9,1,2.2,1.8,3.9,2c5.5,0.7,8.9-2.4,9.6-5.8
				C70.5,120,70.2,116,66.6,111.9z"/>
		</g>
		<g>
			<path class="st3" d="M66.6,194.8c-3.7,4-7.9,7.9-9.7,10c-1.3,1.5-2.3,2.7-2.7,3.2v0.3c0,0,0,0-0.1-0.1c-0.1,0.1-0.1,0.1-0.1,0.1
				V208c-0.4-0.5-1.3-1.7-2.7-3.2c-1.8-2.1-6.1-6-9.7-10c-3.7-4-4-8-3.3-11.3s4.2-6.5,9.6-5.8c1.7,0.2,3,1,3.9,2.1
				c-0.6-4.7-3.2-7.2-3.2-7.2h10.6c-1.9,2.2-2.6,5.2-2.9,7.1c0.9-1,2.2-1.8,3.9-2c5.5-0.7,8.9,2.4,9.6,5.8
				C70.5,186.8,70.2,190.8,66.6,194.8z"/>
		</g>
		<g>
			<path class="st3" d="M126.6,35.4c-3.7-4-7.9-7.9-9.7-10c-1.3-1.5-2.3-2.7-2.7-3.2v-0.3c0,0,0,0-0.1,0.1c-0.1-0.1-0.1-0.1-0.1-0.1
				v0.3c-0.4,0.5-1.3,1.7-2.7,3.2c-1.8,2.1-6.1,6-9.7,10c-3.7,4-4,8-3.3,11.3s4.2,6.5,9.6,5.8c1.7-0.2,3-1,3.9-2.1
				c-0.6,4.7-3.2,7.2-3.2,7.2h10.6c-1.9-2.2-2.6-5.2-2.9-7.1c0.9,1,2.2,1.8,3.9,2c5.5,0.7,8.9-2.4,9.6-5.8
				C130.6,43.4,130.3,39.4,126.6,35.4z"/>
		</g>
		<g>
			<path class="st3" d="M126.6,111.9c-3.7-4-7.9-7.9-9.7-10c-1.3-1.5-2.3-2.7-2.7-3.2v-0.3c0,0,0,0-0.1,0.1
				c-0.1-0.1-0.1-0.1-0.1-0.1v0.3c-0.4,0.5-1.3,1.7-2.7,3.2c-1.8,2.1-6.1,6-9.7,10c-3.7,4-4,8-3.3,11.3s4.2,6.5,9.6,5.8
				c1.7-0.2,3-1,3.9-2.1c-0.6,4.7-3.2,7.2-3.2,7.2h10.6c-1.9-2.2-2.6-5.2-2.9-7.1c0.9,1,2.2,1.8,3.9,2c5.5,0.7,8.9-2.4,9.6-5.8
				S130.3,116,126.6,111.9z"/>
		</g>
		<g>
			<path class="st3" d="M126.6,194.8c-3.7,4-7.9,7.9-9.7,10c-1.3,1.5-2.3,2.7-2.7,3.2v0.3c0,0,0,0-0.1-0.1c-0.1,0-0.1,0-0.1,0v-0.3
				c-0.4-0.5-1.3-1.7-2.7-3.2c-1.8-2.1-6.1-6-9.7-10c-3.7-4-4-8-3.3-11.3s4.2-6.5,9.6-5.8c1.7,0.2,3,1,3.9,2.1
				c-0.6-4.7-3.2-7.2-3.2-7.2h10.6c-1.9,2.2-2.6,5.2-2.9,7.1c0.9-1,2.2-1.8,3.9-2c5.5-0.7,8.9,2.4,9.6,5.8
				C130.6,186.8,130.3,190.8,126.6,194.8z"/>
		</g>
		<g>
			<path class="st3" d="M151.9,197.2c-1.1,1.2-2.3,2.3-2.8,2.9c-0.4,0.4-0.7,0.8-0.8,0.9v0.1l0,0l0,0V201c-0.1-0.1-0.4-0.5-0.8-0.9
				c-0.5-0.6-1.8-1.7-2.8-2.9c-1.1-1.2-1.2-2.3-1-3.3s1.2-1.9,2.8-1.7c0.5,0.1,0.9,0.3,1.1,0.6c-0.2-1.4-0.9-2.1-0.9-2.1h3.1
				c-0.6,0.6-0.8,1.5-0.8,2.1c0.3-0.3,0.6-0.5,1.1-0.6c1.6-0.2,2.6,0.7,2.8,1.7S153,196,151.9,197.2z"/>
		</g>
		<g>
			<path class="st3" d="M21.6,31.1c-1.1-1.2-2.3-2.3-2.8-2.9c-0.4-0.4-0.7-0.8-0.8-0.9v-0.1l0,0l0,0l0,0c-0.1,0.1-0.4,0.5-0.8,0.9
				c-0.5,0.6-1.8,1.7-2.8,2.9s-1.2,2.3-1,3.3s1.2,1.9,2.8,1.7c0.5-0.1,0.9-0.3,1.1-0.6c-0.2,1.4-0.9,2.1-0.9,2.1h3.1
				c-0.6-0.6-0.8-1.5-0.8-2.1c0.3,0.3,0.6,0.5,1.1,0.6c1.6,0.2,2.6-0.7,2.8-1.7C22.7,33.4,22.7,32.2,21.6,31.1z"/>
		</g>
	</g>
</g>
</svg>
