<?xml version="1.0" encoding="utf-8"?>
<!-- Generator: Adobe Illustrator 27.6.1, SVG Export Plug-In . SVG Version: 6.00 Build 0)  -->
<svg version="1.1" id="Слой_1" xmlns="http://www.w3.org/2000/svg" xmlns:xlink="http://www.w3.org/1999/xlink" x="0px" y="0px"
	 viewBox="0 0 167 233.4" style="enable-background:new 0 0 167 233.4;" xml:space="preserve">
<style type="text/css">
	.st0{fill:#FFFFFF;}
	.st1{fill:#32A8E0;}
	.st2{fill:#CD1417;}
	.st3{fill:#BE3D2E;}
</style>
<g>
	<g>
		<g>
			<path class="st0" d="M160.7,233.2H6.3c-3.3,0-5.9-2.7-5.9-5.9V6.3c0-3.3,2.7-5.9,5.9-5.9h154.4c3.3,0,5.9,2.7,5.9,5.9v221
				C166.7,230.5,164,233.2,160.7,233.2z"/>
			<path class="st1" d="M160.7,233.3H6.3c-3.3,0-6.1-2.7-6.1-6.1V6.3C0.3,2.9,3,0.2,6.3,0.2h154.4c3.3,0,6.1,2.7,6.1,6.1v221
				C166.8,230.6,164.1,233.3,160.7,233.3z M6.3,0.5c-3.2,0-5.8,2.6-5.8,5.8v221c0,3.2,2.6,5.8,5.8,5.8h154.4c3.2,0,5.8-2.6,5.8-5.8
				V6.3c0-3.2-2.6-5.8-5.8-5.8C160.7,0.5,6.3,0.5,6.3,0.5z"/>
		</g>
	</g>
	<g>
		<path class="st0" d="M149.4,18.7c0,0.3-0.3,0.6-0.6,0.6s-0.6-0.3-0.6-0.6s0.3-0.6,0.6-0.6S149.4,18.4,149.4,18.7z"/>
	</g>
	<g>
		<circle class="st0" cx="121.7" cy="18.7" r="0.6"/>
	</g>
	<g>
		<path class="st0" d="M97.3,18.7c0,0.3-0.3,0.6-0.6,0.6c-0.3,0-0.6-0.3-0.6-0.6s0.3-0.6,0.6-0.6C97.1,18.1,97.3,18.4,97.3,18.7z"/>
	</g>
	<g>
		<path class="st0" d="M72.3,18.9c0,0.3-0.3,0.6-0.6,0.6c-0.3,0-0.6-0.3-0.6-0.6c0-0.3,0.3-0.6,0.6-0.6
			C72.1,18.3,72.3,18.6,72.3,18.9z"/>
	</g>
	<g>
		<path class="st0" d="M149.4,39.8c0,0.3-0.3,0.6-0.6,0.6s-0.6-0.3-0.6-0.6s0.3-0.6,0.6-0.6S149.4,39.5,149.4,39.8z"/>
	</g>
	<g>
		<path class="st0" d="M149.4,59.1c0,0.3-0.3,0.6-0.6,0.6s-0.6-0.3-0.6-0.6s0.3-0.6,0.6-0.6S149.4,58.8,149.4,59.1z"/>
	</g>
	<g>
		<path class="st0" d="M149.4,79.3c0,0.3-0.3,0.6-0.6,0.6s-0.6-0.3-0.6-0.6c0-0.3,0.3-0.6,0.6-0.6S149.4,79,149.4,79.3z"/>
	</g>
	<g>
		<path class="st0" d="M149.4,92.1c0,0.3-0.3,0.6-0.6,0.6s-0.6-0.3-0.6-0.6c0-0.3,0.3-0.6,0.6-0.6S149.4,91.8,149.4,92.1z"/>
	</g>
	<g>
		<path class="st0" d="M149.4,104.9c0,0.3-0.3,0.6-0.6,0.6s-0.6-0.3-0.6-0.6c0-0.3,0.3-0.6,0.6-0.6S149.4,104.6,149.4,104.9z"/>
	</g>
	<g>
		<circle class="st0" cx="18.6" cy="19.3" r="0.6"/>
	</g>
	<g>
		<path class="st0" d="M46.6,18.9c0,0.3-0.3,0.6-0.6,0.6s-0.6-0.3-0.6-0.6c0-0.3,0.3-0.6,0.6-0.6S46.6,18.6,46.6,18.9z"/>
	</g>
	<g>
		<circle class="st0" cx="18.6" cy="39.4" r="0.6"/>
	</g>
	<g>
		<circle class="st0" cx="18.6" cy="59.3" r="0.6"/>
	</g>
	<g>
		<circle class="st0" cx="18.6" cy="79.2" r="0.6"/>
	</g>
	<g>
		<circle class="st0" cx="18.6" cy="92.1" r="0.6"/>
	</g>
	<g>
		<circle class="st0" cx="18.6" cy="105.5" r="0.6"/>
	</g>
	<g>
		<circle class="st0" cx="18.6" cy="118.4" r="0.6"/>
	</g>
	<g>
		<circle class="st0" cx="18.6" cy="131.4" r="0.6"/>
	</g>
	<g>
		<circle class="st0" cx="18.6" cy="144.8" r="0.6"/>
	</g>
	<g>
		<circle class="st0" cx="18.6" cy="158.2" r="0.6"/>
	</g>
	<g>
		<circle class="st0" cx="18.6" cy="170.2" r="0.6"/>
	</g>
	<g>
		<path class="st0" d="M19.2,183.6c0,0.3-0.3,0.6-0.6,0.6c-0.3,0-0.6-0.3-0.6-0.6s0.3-0.6,0.6-0.6C18.9,183,19.2,183.3,19.2,183.6z"
			/>
	</g>
	<g>
		<circle class="st0" cx="18.6" cy="196.6" r="0.6"/>
	</g>
	<g>
		<circle class="st0" cx="18.8" cy="215.8" r="0.6"/>
	</g>
	<g>
		<path class="st0" d="M39.9,216.4c0,0.3-0.3,0.6-0.6,0.6s-0.6-0.3-0.6-0.6s0.3-0.6,0.6-0.6C39.7,215.8,39.9,216.1,39.9,216.4z"/>
	</g>
	<g>
		<path class="st0" d="M66.4,216.4c0,0.3-0.3,0.6-0.6,0.6c-0.3,0-0.6-0.3-0.6-0.6s0.3-0.6,0.6-0.6C66.1,215.8,66.4,216.1,66.4,216.4
			z"/>
	</g>
	<g>
		<path class="st0" d="M92.7,216.4c0,0.3-0.3,0.6-0.6,0.6c-0.3,0-0.6-0.3-0.6-0.6s0.3-0.6,0.6-0.6C92.5,215.8,92.7,216.1,92.7,216.4
			z"/>
	</g>
	<g>
		<circle class="st0" cx="117.9" cy="216.4" r="0.6"/>
	</g>
	<g>
		<path class="st0" d="M149.4,118.1c0,0.3-0.3,0.6-0.6,0.6s-0.6-0.3-0.6-0.6c0-0.3,0.3-0.6,0.6-0.6S149.4,117.8,149.4,118.1z"/>
	</g>
	<g>
		<path class="st0" d="M149.4,130.5c0,0.3-0.3,0.6-0.6,0.6s-0.6-0.3-0.6-0.6s0.3-0.6,0.6-0.6S149.4,130.1,149.4,130.5z"/>
	</g>
	<g>
		<path class="st0" d="M149.4,143.7c0,0.3-0.3,0.6-0.6,0.6s-0.6-0.3-0.6-0.6s0.3-0.6,0.6-0.6S149.4,143.4,149.4,143.7z"/>
	</g>
	<g>
		<path class="st0" d="M149.4,156.8c0,0.3-0.3,0.6-0.6,0.6s-0.6-0.3-0.6-0.6s0.3-0.6,0.6-0.6S149.4,156.5,149.4,156.8z"/>
	</g>
	<g>
		<path class="st0" d="M149.4,169.6c0,0.3-0.3,0.6-0.6,0.6s-0.6-0.3-0.6-0.6s0.3-0.6,0.6-0.6S149.4,169.3,149.4,169.6z"/>
	</g>
	<g>
		<path class="st0" d="M149.4,182.2c0,0.3-0.3,0.6-0.6,0.6s-0.6-0.3-0.6-0.6s0.3-0.6,0.6-0.6S149.4,181.9,149.4,182.2z"/>
	</g>
	<g>
		<path class="st0" d="M149.4,195c0,0.3-0.3,0.6-0.6,0.6s-0.6-0.3-0.6-0.6s0.3-0.6,0.6-0.6S149.4,194.7,149.4,195z"/>
	</g>
	<g>
		<path class="st0" d="M149.4,214.6c0,0.3-0.3,0.6-0.6,0.6s-0.6-0.3-0.6-0.6s0.3-0.6,0.6-0.6S149.4,214.3,149.4,214.6z"/>
	</g>
	<g>
		<g>
			<polygon class="st2" points="16.6,28.6 11.8,33.8 16,39.5 20.9,34.3 			"/>
		</g>
		<g>
			<polygon class="st2" points="148.9,193.4 144.2,198.6 148.4,204.3 153.2,199.1 			"/>
		</g>
		<g>
			<g>
				<g>
					<path class="st3" d="M15.4,25.4C15.1,25.1,15,24.6,15,24c0-0.8,0.2-1.6,0.6-2.4c0.4-0.8,0.9-1.7,1.5-2.5l1.6-2.2
						c0.3-0.4,0.5-0.8,0.7-1.3s0.3-0.9,0.3-1.2c0-0.2,0-0.3-0.1-0.4c-0.1-0.1-0.2-0.1-0.5-0.1h-4c-0.5,0-0.9,0.1-1.1,0.3
						c-0.2,0.2-0.4,0.5-0.4,1l-0.2,1.1H13l0.3-4h7.4c0,0.7-0.1,1.4-0.3,2.3c-0.2,0.9-0.5,1.7-1,2.4l-1.1,1.7
						c-0.5,0.8-0.8,1.6-0.8,2.5c0,0.6,0,1,0.1,1.5l0.1,0.7c0.1,0.5,0.2,1,0.2,1.4c0,0.8-0.4,1.2-1.1,1.2
						C16,25.9,15.6,25.7,15.4,25.4z"/>
				</g>
			</g>
		</g>
		<g>
			<g>
				<g>
					<path class="st3" d="M150,207.9c0.3,0.3,0.4,0.8,0.4,1.4c0,0.8-0.2,1.6-0.6,2.4c-0.4,0.8-0.9,1.7-1.5,2.5l-1.6,2.2
						c-0.3,0.4-0.5,0.8-0.7,1.3s-0.3,0.9-0.3,1.2c0,0.2,0,0.3,0.1,0.4c0.1,0.1,0.2,0.1,0.5,0.1h4c0.5,0,0.9-0.1,1.1-0.3
						c0.2-0.2,0.4-0.5,0.4-1l0.2-1.1h0.4l-0.3,4h-7.2c0-0.7,0.1-1.4,0.3-2.3c0.2-0.9,0.5-1.7,1-2.4l1.1-1.7c0.5-0.8,0.8-1.6,0.8-2.5
						c0-0.6,0-1-0.1-1.5l-0.1-0.7c-0.1-0.5-0.2-1-0.2-1.4c0-0.8,0.4-1.2,1.1-1.2C149.4,207.4,149.7,207.6,150,207.9z"/>
				</g>
			</g>
		</g>
		<g>
			<polygon class="st2" points="50.5,23.8 37.3,39.9 50.5,56.3 64.2,40.1 			"/>
		</g>
		<g>
			<polygon class="st2" points="82.9,56.2 69.6,72.4 82.9,88.8 96.5,72.5 			"/>
		</g>
		<g>
			<polygon class="st2" points="50.5,173.4 37.3,189.5 50.5,205.9 64.2,189.6 			"/>
		</g>
		<g>
			<polygon class="st2" points="50.5,98.6 37.3,114.7 50.5,131.1 64.2,114.8 			"/>
		</g>
		<g>
			<polygon class="st2" points="115.2,23.8 101.9,39.9 115.2,56.3 128.8,40.1 			"/>
		</g>
		<g>
			<polygon class="st2" points="115.2,173.4 101.9,189.5 115.2,205.9 128.8,189.6 			"/>
		</g>
		<g>
			<polygon class="st2" points="115.2,98.6 101.9,114.7 115.2,131.1 128.8,114.8 			"/>
		</g>
	</g>
</g>
</svg>
