<?xml version="1.0" encoding="utf-8"?>
<!-- Generator: Adobe Illustrator 27.6.1, SVG Export Plug-In . SVG Version: 6.00 Build 0)  -->
<svg version="1.1" id="Слой_1" xmlns="http://www.w3.org/2000/svg" xmlns:xlink="http://www.w3.org/1999/xlink" x="0px" y="0px"
	 viewBox="0 0 167 233.3" style="enable-background:new 0 0 167 233.3;" xml:space="preserve">
<style type="text/css">
	.st0{fill:#FFFFFF;}
	.st1{fill:#32A8E0;}
	.st2{fill:#BE3D2E;}
	.st3{fill:#CD1417;}
</style>
<g>
	<g>
		<g>
			<path class="st0" d="M160.7,233.1H6.2c-3.3,0-5.9-2.7-5.9-5.9V6.2c0-3.3,2.7-5.9,5.9-5.9h154.5c3.3,0,5.9,2.7,5.9,5.9v221
				C166.6,230.5,163.9,233.1,160.7,233.1z"/>
			<path class="st1" d="M160.7,233.2H6.2c-3.3,0-6.1-2.7-6.1-6.1V6.2c0-3.4,2.7-6.1,6.1-6.1h154.5c3.3,0,6.1,2.7,6.1,6.1v221
				C166.7,230.5,164,233.2,160.7,233.2z M6.2,0.3C3,0.3,0.4,2.9,0.4,6.1v221c0,3.2,2.6,5.8,5.8,5.8h154.5c3.2,0,5.8-2.6,5.8-5.8V6.2
				c0-3.2-2.6-5.8-5.8-5.8L6.2,0.3L6.2,0.3z"/>
		</g>
	</g>
	<g>
		<path class="st0" d="M149.3,18.6c0,0.3-0.3,0.6-0.6,0.6s-0.6-0.3-0.6-0.6c0-0.3,0.3-0.6,0.6-0.6C149.1,18,149.3,18.3,149.3,18.6z"
			/>
	</g>
	<g>
		<path class="st0" d="M122.2,18.6c0,0.3-0.3,0.6-0.6,0.6c-0.3,0-0.6-0.3-0.6-0.6c0-0.3,0.3-0.6,0.6-0.6S122.2,18.3,122.2,18.6z"/>
	</g>
	<g>
		<path class="st0" d="M97.2,18.6c0,0.3-0.3,0.6-0.6,0.6S96,18.9,96,18.6c0-0.3,0.3-0.6,0.6-0.6S97.2,18.3,97.2,18.6z"/>
	</g>
	<g>
		<path class="st0" d="M72.2,18.8c0,0.3-0.3,0.6-0.6,0.6c-0.3,0-0.6-0.3-0.6-0.6c0-0.3,0.3-0.6,0.6-0.6S72.2,18.5,72.2,18.8z"/>
	</g>
	<g>
		<path class="st0" d="M149.3,39.7c0,0.3-0.3,0.6-0.6,0.6s-0.6-0.3-0.6-0.6s0.3-0.6,0.6-0.6C149.1,39.2,149.3,39.4,149.3,39.7z"/>
	</g>
	<g>
		<path class="st0" d="M149.3,59c0,0.3-0.3,0.6-0.6,0.6s-0.6-0.3-0.6-0.6s0.3-0.6,0.6-0.6C149.1,58.4,149.3,58.7,149.3,59z"/>
	</g>
	<g>
		<path class="st0" d="M149.3,79.2c0,0.3-0.3,0.6-0.6,0.6s-0.6-0.3-0.6-0.6c0-0.3,0.3-0.6,0.6-0.6C149.1,78.7,149.3,78.9,149.3,79.2
			z"/>
	</g>
	<g>
		<path class="st0" d="M149.3,92c0,0.3-0.3,0.6-0.6,0.6s-0.6-0.3-0.6-0.6c0-0.3,0.3-0.6,0.6-0.6C149.1,91.4,149.3,91.7,149.3,92z"/>
	</g>
	<g>
		<path class="st0" d="M149.3,104.8c0,0.3-0.3,0.6-0.6,0.6s-0.6-0.3-0.6-0.6c0-0.3,0.3-0.6,0.6-0.6
			C149.1,104.3,149.3,104.5,149.3,104.8z"/>
	</g>
	<g>
		<path class="st0" d="M19,19.1c0,0.3-0.3,0.6-0.6,0.6c-0.3,0-0.6-0.3-0.6-0.6c0-0.3,0.3-0.6,0.6-0.6C18.8,18.6,19,18.8,19,19.1z"/>
	</g>
	<g>
		<path class="st0" d="M46.5,18.8c0,0.3-0.3,0.6-0.6,0.6s-0.6-0.3-0.6-0.6c0-0.3,0.3-0.6,0.6-0.6S46.5,18.5,46.5,18.8z"/>
	</g>
	<g>
		<path class="st0" d="M19,39.3c0,0.3-0.3,0.6-0.6,0.6c-0.3,0-0.6-0.3-0.6-0.6s0.3-0.6,0.6-0.6C18.8,38.7,19,39,19,39.3z"/>
	</g>
	<g>
		<path class="st0" d="M19,59.1c0,0.3-0.3,0.6-0.6,0.6c-0.3,0-0.6-0.3-0.6-0.6s0.3-0.6,0.6-0.6C18.8,58.6,19,58.8,19,59.1z"/>
	</g>
	<g>
		<path class="st0" d="M19,79.1c0,0.3-0.3,0.6-0.6,0.6c-0.3,0-0.6-0.3-0.6-0.6s0.3-0.6,0.6-0.6C18.8,78.5,19,78.8,19,79.1z"/>
	</g>
	<g>
		<path class="st0" d="M19,92c0,0.3-0.3,0.6-0.6,0.6c-0.3,0-0.6-0.3-0.6-0.6c0-0.3,0.3-0.6,0.6-0.6C18.8,91.4,19,91.7,19,92z"/>
	</g>
	<g>
		<path class="st0" d="M19,105.4c0,0.3-0.3,0.6-0.6,0.6c-0.3,0-0.6-0.3-0.6-0.6c0-0.3,0.3-0.6,0.6-0.6C18.8,104.8,19,105.1,19,105.4
			z"/>
	</g>
	<g>
		<path class="st0" d="M19,118.3c0,0.3-0.3,0.6-0.6,0.6c-0.3,0-0.6-0.3-0.6-0.6c0-0.3,0.3-0.6,0.6-0.6C18.8,117.8,19,118,19,118.3z"
			/>
	</g>
	<g>
		<path class="st0" d="M19,131.3c0,0.3-0.3,0.6-0.6,0.6c-0.3,0-0.6-0.3-0.6-0.6s0.3-0.6,0.6-0.6C18.8,130.7,19,131,19,131.3z"/>
	</g>
	<g>
		<path class="st0" d="M19,144.7c0,0.3-0.3,0.6-0.6,0.6c-0.3,0-0.6-0.3-0.6-0.6s0.3-0.6,0.6-0.6C18.8,144.1,19,144.4,19,144.7z"/>
	</g>
	<g>
		<path class="st0" d="M19,158.1c0,0.3-0.3,0.6-0.6,0.6c-0.3,0-0.6-0.3-0.6-0.6s0.3-0.6,0.6-0.6C18.8,157.5,19,157.8,19,158.1z"/>
	</g>
	<g>
		<path class="st0" d="M19,170.1c0,0.3-0.3,0.6-0.6,0.6c-0.3,0-0.6-0.3-0.6-0.6s0.3-0.6,0.6-0.6C18.8,169.5,19,169.8,19,170.1z"/>
	</g>
	<g>
		<path class="st0" d="M19,183.5c0,0.3-0.3,0.6-0.6,0.6c-0.3,0-0.6-0.3-0.6-0.6s0.3-0.6,0.6-0.6C18.8,182.9,19,183.2,19,183.5z"/>
	</g>
	<g>
		<path class="st0" d="M19,196.5c0,0.3-0.3,0.6-0.6,0.6c-0.3,0-0.6-0.3-0.6-0.6s0.3-0.6,0.6-0.6C18.8,196,19,196.2,19,196.5z"/>
	</g>
	<g>
		<path class="st0" d="M19.3,215.7c0,0.3-0.3,0.6-0.6,0.6c-0.3,0-0.6-0.3-0.6-0.6s0.3-0.6,0.6-0.6C19,215.2,19.3,215.4,19.3,215.7z"
			/>
	</g>
	<g>
		<path class="st0" d="M39.8,216.3c0,0.3-0.3,0.6-0.6,0.6s-0.6-0.3-0.6-0.6s0.3-0.6,0.6-0.6C39.5,215.7,39.8,216,39.8,216.3z"/>
	</g>
	<g>
		<path class="st0" d="M66.2,216.3c0,0.3-0.3,0.6-0.6,0.6c-0.3,0-0.6-0.3-0.6-0.6s0.3-0.6,0.6-0.6C66,215.7,66.2,216,66.2,216.3z"/>
	</g>
	<g>
		<path class="st0" d="M92.6,216.3c0,0.3-0.3,0.6-0.6,0.6s-0.6-0.3-0.6-0.6s0.3-0.6,0.6-0.6S92.6,216,92.6,216.3z"/>
	</g>
	<g>
		<path class="st0" d="M118.4,216.3c0,0.3-0.3,0.6-0.6,0.6s-0.6-0.3-0.6-0.6s0.3-0.6,0.6-0.6S118.4,216,118.4,216.3z"/>
	</g>
	<g>
		<path class="st0" d="M149.3,118c0,0.3-0.3,0.6-0.6,0.6s-0.6-0.3-0.6-0.6s0.3-0.6,0.6-0.6C149.1,117.5,149.3,117.7,149.3,118z"/>
	</g>
	<g>
		<path class="st0" d="M149.3,130.4c0,0.3-0.3,0.6-0.6,0.6s-0.6-0.3-0.6-0.6s0.3-0.6,0.6-0.6C149.1,129.8,149.3,130,149.3,130.4z"/>
	</g>
	<g>
		<path class="st0" d="M149.3,143.6c0,0.3-0.3,0.6-0.6,0.6s-0.6-0.3-0.6-0.6s0.3-0.6,0.6-0.6C149.1,143.1,149.3,143.3,149.3,143.6z"
			/>
	</g>
	<g>
		<path class="st0" d="M149.3,156.8c0,0.3-0.3,0.6-0.6,0.6s-0.6-0.3-0.6-0.6s0.3-0.6,0.6-0.6C149.1,156.2,149.3,156.4,149.3,156.8z"
			/>
	</g>
	<g>
		<path class="st0" d="M149.3,169.5c0,0.3-0.3,0.6-0.6,0.6s-0.6-0.3-0.6-0.6s0.3-0.6,0.6-0.6C149.1,168.9,149.3,169.2,149.3,169.5z"
			/>
	</g>
	<g>
		<path class="st0" d="M149.3,182.1c0,0.3-0.3,0.6-0.6,0.6s-0.6-0.3-0.6-0.6s0.3-0.6,0.6-0.6C149.1,181.5,149.3,181.8,149.3,182.1z"
			/>
	</g>
	<g>
		<path class="st0" d="M149.3,194.9c0,0.3-0.3,0.6-0.6,0.6s-0.6-0.3-0.6-0.6s0.3-0.6,0.6-0.6C149.1,194.4,149.3,194.6,149.3,194.9z"
			/>
	</g>
	<g>
		<path class="st0" d="M149.3,214.5c0,0.3-0.3,0.6-0.6,0.6s-0.6-0.3-0.6-0.6s0.3-0.6,0.6-0.6C149.1,213.9,149.3,214.2,149.3,214.5z"
			/>
	</g>
	<g>
		<g>
			<g>
				<g>
					<path class="st2" d="M15.7,28.7c-0.3-0.3-0.4-0.8-0.4-1.4c0-0.8,0.2-1.6,0.6-2.4s0.9-1.7,1.5-2.5l1.6-2.2
						c0.3-0.4,0.5-0.8,0.7-1.3S20,18,20,17.7c0-0.2,0-0.3-0.1-0.4s-0.2-0.1-0.5-0.1h-4c-0.5,0-0.9,0.1-1.1,0.3
						c-0.2,0.2-0.4,0.5-0.4,1l-0.2,1.1h-0.4l0.3-4h7.2c0,0.7-0.1,1.4-0.3,2.3c-0.2,0.9-0.5,1.7-1,2.4L18.4,22
						c-0.5,0.8-0.8,1.6-0.8,2.5c0,0.6,0,1,0.1,1.5l0.1,0.7c0.1,0.5,0.2,1,0.2,1.4c0,0.8-0.4,1.2-1.1,1.2
						C16.3,29.2,15.9,29.1,15.7,28.7z"/>
				</g>
			</g>
		</g>
		<g>
			<g>
				<g>
					<path class="st2" d="M150.4,211.4c0.3,0.3,0.4,0.8,0.4,1.4c0,0.8-0.2,1.6-0.6,2.4c-0.4,0.8-0.9,1.7-1.5,2.5l-1.6,2.2
						c-0.3,0.4-0.5,0.8-0.7,1.3s-0.3,0.9-0.3,1.2c0,0.2,0,0.3,0.1,0.4c0.1,0.1,0.2,0.1,0.5,0.1h4c0.5,0,0.9-0.1,1.1-0.3
						c0.2-0.2,0.4-0.5,0.4-1l0.2-1.1h0.4l-0.3,4H145c0-0.7,0.1-1.4,0.3-2.3c0.2-0.9,0.5-1.7,1-2.4l1.1-1.7c0.5-0.8,0.8-1.6,0.8-2.5
						c0-0.6,0-1-0.1-1.5l-0.1-0.7c-0.1-0.5-0.2-1-0.2-1.4c0-0.8,0.4-1.2,1.1-1.2C149.8,210.8,150.1,211,150.4,211.4z"/>
				</g>
			</g>
		</g>
		<g>
			<path class="st3" d="M19.8,34.8c-1.9,0-2.3,1.4-2.4,2.1c-0.1-0.7-0.5-2.2-2.4-2.1c-2.5,0.1-2.8,2.9-2,4.3
				c0.9,1.4,1.3,1.9,2.2,2.8c0.8,0.9,1.8,1.8,2.2,2.4c0,0,0,0.1,0,0l0,0c0.4-0.6,1.3-1.5,2.2-2.4c0.9-0.9,1.3-1.4,2.2-2.8
				C22.7,37.6,22.3,34.8,19.8,34.8z"/>
		</g>
		<g>
			<path class="st3" d="M151.1,206.9c-1.9,0-2.3-1.4-2.4-2.1c-0.1,0.7-0.5,2.2-2.4,2.1c-2.5-0.1-2.8-2.9-2-4.3
				c0.9-1.4,1.3-1.9,2.2-2.8c0.8-0.9,1.8-1.8,2.2-2.4v-0.1v0.1c0.4,0.6,1.3,1.5,2.2,2.4s1.3,1.4,2.2,2.8
				C153.9,204.1,153.6,206.9,151.1,206.9z"/>
		</g>
		<g>
			<path class="st3" d="M64.3,28.8c-5.5-0.1-6.7,4.1-7,6.1c-0.3-2-1.6-6.2-7-6.1c-7.2,0.2-8.2,8.3-5.6,12.3c2.5,4.1,3.8,5.4,6.3,8
				c2.4,2.5,5.2,5.2,6.3,6.9c0,0,0.1,0.2,0.1,0.1c0,0.1,0.1-0.1,0.1-0.1c1-1.7,3.9-4.5,6.3-6.9c2.5-2.6,3.8-3.9,6.3-8
				C72.5,37,71.5,28.9,64.3,28.8z"/>
		</g>
		<g>
			<path class="st3" d="M64.3,104.5c-5.5-0.1-6.7,4.1-7,6.1c-0.3-2-1.6-6.2-7-6.1c-7.2,0.2-8.2,8.3-5.6,12.3c2.5,4.1,3.8,5.4,6.3,8
				c2.4,2.5,5.2,5.2,6.3,6.9c0,0,0.1,0.2,0.1,0.1c0,0.1,0.1-0.1,0.1-0.1c1-1.7,3.9-4.5,6.3-6.9c2.5-2.6,3.8-3.9,6.3-8
				C72.5,112.8,71.5,104.7,64.3,104.5z"/>
		</g>
		<g>
			<path class="st3" d="M64.3,207.7c-5.5,0.1-6.7-4.1-7-6.1c-0.3,2-1.6,6.2-7,6.1c-7.2-0.2-8.2-8.3-5.6-12.3c2.5-4.1,3.8-5.4,6.3-8
				c2.4-2.5,5.2-5.2,6.3-6.9c0,0,0.1-0.2,0.1-0.1c0-0.1,0.1,0.1,0.1,0.1c1,1.7,3.9,4.5,6.3,6.9c2.5,2.6,3.8,3.9,6.3,8
				C72.5,199.5,71.5,207.6,64.3,207.7z"/>
		</g>
		<g>
			<path class="st3" d="M117,28.8c-5.5-0.1-6.7,4.1-7,6.1c-0.3-2-1.6-6.2-7-6.1c-7.2,0.2-8.2,8.3-5.6,12.3c2.5,4.1,3.8,5.4,6.3,8
				c2.4,2.5,5.2,5.2,6.3,6.9c0,0,0.1,0.2,0.1,0.1c0,0.1,0.1-0.1,0.1-0.1c1-1.7,3.9-4.5,6.3-6.9c2.5-2.6,3.8-3.9,6.3-8
				S124.2,28.9,117,28.8z"/>
		</g>
		<g>
			<path class="st3" d="M117,104.5c-5.5-0.1-6.7,4.1-7,6.1c-0.3-2-1.6-6.2-7-6.1c-7.2,0.2-8.2,8.3-5.6,12.3c2.5,4.1,3.8,5.4,6.3,8
				c2.4,2.5,5.2,5.2,6.3,6.9c0,0,0.1,0.2,0.1,0.1c0,0.1,0.1-0.1,0.1-0.1c1-1.7,3.9-4.5,6.3-6.9c2.5-2.6,3.8-3.9,6.3-8
				S124.2,104.7,117,104.5z"/>
		</g>
		<g>
			<path class="st3" d="M117,207.7c-5.5,0.1-6.7-4.1-7-6.1c-0.3,2-1.6,6.2-7,6.1c-7.2-0.2-8.2-8.3-5.6-12.3c2.5-4.1,3.8-5.4,6.3-8
				c2.4-2.5,5.2-5.2,6.3-6.9c0,0,0.1-0.2,0.1-0.1c0-0.1,0.1,0.1,0.1,0.1c1,1.7,3.9,4.5,6.3,6.9c2.5,2.6,3.8,3.9,6.3,8
				S124.2,207.6,117,207.7z"/>
		</g>
		<g>
			<path class="st3" d="M90.2,67.6c-5.5-0.1-6.7,4.1-7,6.1c-0.3-2-1.6-6.2-7-6.1c-7.2,0.2-8.2,8.3-5.6,12.3c2.5,4.1,3.8,5.4,6.3,8
				c2.4,2.5,5.2,5.2,6.3,6.9c0,0,0.1,0.2,0.1,0.1c0,0.1,0.1-0.1,0.1-0.1c1-1.7,3.9-4.5,6.3-6.9c2.5-2.6,3.8-3.9,6.3-8
				C98.4,75.8,97.4,67.7,90.2,67.6z"/>
		</g>
	</g>
</g>
</svg>
