<?xml version="1.0" encoding="utf-8"?>
<!-- Generator: Adobe Illustrator 27.6.1, SVG Export Plug-In . SVG Version: 6.00 Build 0)  -->
<svg version="1.1" id="Слой_1" xmlns="http://www.w3.org/2000/svg" xmlns:xlink="http://www.w3.org/1999/xlink" x="0px" y="0px"
	 viewBox="0 0 167.1 233.3" style="enable-background:new 0 0 167.1 233.3;" xml:space="preserve">
<style type="text/css">
	.st0{fill:#FFFFFF;}
	.st1{fill:#32A8E0;}
	.st2{fill:#020203;}
	.st3{fill:#0C0D0D;}
</style>
<g>
	<g>
		<g>
			<path class="st0" d="M160.8,233.1H6.3c-3.3,0-5.9-2.7-5.9-5.9V6.2c0-3.3,2.7-5.9,5.9-5.9h154.5c3.3,0,5.9,2.7,5.9,5.9v221
				C166.7,230.5,164,233.1,160.8,233.1z"/>
			<path class="st1" d="M160.8,233.2H6.3c-3.3,0-6.1-2.7-6.1-6.1V6.2c0-3.4,2.7-6.1,6.1-6.1h154.5c3.3,0,6.1,2.7,6.1,6.1v221
				C166.8,230.5,164.1,233.2,160.8,233.2z M6.3,0.3c-3.2,0-5.8,2.6-5.8,5.8v221c0,3.2,2.6,5.8,5.8,5.8h154.5c3.2,0,5.8-2.6,5.8-5.8
				V6.2c0-3.2-2.6-5.8-5.8-5.8L6.3,0.3L6.3,0.3z"/>
		</g>
	</g>
	<g>
		<path class="st0" d="M149.4,18.6c0,0.3-0.3,0.6-0.6,0.6s-0.6-0.3-0.6-0.6s0.3-0.6,0.6-0.6C149.2,18,149.4,18.3,149.4,18.6z"/>
	</g>
	<g>
		<path class="st0" d="M122.3,18.6c0,0.3-0.3,0.6-0.6,0.6s-0.6-0.3-0.6-0.6s0.3-0.6,0.6-0.6S122.3,18.3,122.3,18.6z"/>
	</g>
	<g>
		<path class="st0" d="M97.3,18.6c0,0.3-0.3,0.6-0.6,0.6c-0.3,0-0.6-0.3-0.6-0.6s0.3-0.6,0.6-0.6C97.1,18,97.3,18.3,97.3,18.6z"/>
	</g>
	<g>
		<path class="st0" d="M72.3,18.8c0,0.3-0.3,0.6-0.6,0.6c-0.3,0-0.6-0.3-0.6-0.6s0.3-0.6,0.6-0.6S72.3,18.5,72.3,18.8z"/>
	</g>
	<g>
		<path class="st0" d="M149.4,39.7c0,0.3-0.3,0.6-0.6,0.6s-0.6-0.3-0.6-0.6s0.3-0.6,0.6-0.6C149.2,39.2,149.4,39.4,149.4,39.7z"/>
	</g>
	<g>
		<path class="st0" d="M149.4,59c0,0.3-0.3,0.6-0.6,0.6s-0.6-0.3-0.6-0.6s0.3-0.6,0.6-0.6C149.2,58.4,149.4,58.7,149.4,59z"/>
	</g>
	<g>
		<path class="st0" d="M149.4,79.2c0,0.3-0.3,0.6-0.6,0.6s-0.6-0.3-0.6-0.6c0-0.3,0.3-0.6,0.6-0.6C149.2,78.7,149.4,78.9,149.4,79.2
			z"/>
	</g>
	<g>
		<path class="st0" d="M149.4,92c0,0.3-0.3,0.6-0.6,0.6s-0.6-0.3-0.6-0.6c0-0.3,0.3-0.6,0.6-0.6C149.2,91.4,149.4,91.7,149.4,92z"/>
	</g>
	<g>
		<path class="st0" d="M149.4,104.8c0,0.3-0.3,0.6-0.6,0.6s-0.6-0.3-0.6-0.6c0-0.3,0.3-0.6,0.6-0.6
			C149.2,104.3,149.4,104.5,149.4,104.8z"/>
	</g>
	<g>
		<path class="st0" d="M19.1,19.1c0,0.3-0.3,0.6-0.6,0.6c-0.3,0-0.6-0.3-0.6-0.6s0.3-0.6,0.6-0.6C18.9,18.6,19.1,18.8,19.1,19.1z"/>
	</g>
	<g>
		<path class="st0" d="M46.6,18.8c0,0.3-0.3,0.6-0.6,0.6s-0.6-0.3-0.6-0.6s0.3-0.6,0.6-0.6S46.6,18.5,46.6,18.8z"/>
	</g>
	<g>
		<path class="st0" d="M19.1,39.3c0,0.3-0.3,0.6-0.6,0.6c-0.3,0-0.6-0.3-0.6-0.6s0.3-0.6,0.6-0.6C18.9,38.7,19.1,39,19.1,39.3z"/>
	</g>
	<g>
		<path class="st0" d="M19.1,59.1c0,0.3-0.3,0.6-0.6,0.6c-0.3,0-0.6-0.3-0.6-0.6s0.3-0.6,0.6-0.6C18.9,58.6,19.1,58.8,19.1,59.1z"/>
	</g>
	<g>
		<path class="st0" d="M19.1,79.1c0,0.3-0.3,0.6-0.6,0.6c-0.3,0-0.6-0.3-0.6-0.6s0.3-0.6,0.6-0.6C18.9,78.5,19.1,78.8,19.1,79.1z"/>
	</g>
	<g>
		<path class="st0" d="M19.1,92c0,0.3-0.3,0.6-0.6,0.6c-0.3,0-0.6-0.3-0.6-0.6c0-0.3,0.3-0.6,0.6-0.6C18.9,91.4,19.1,91.7,19.1,92z"
			/>
	</g>
	<g>
		<path class="st0" d="M19.1,105.4c0,0.3-0.3,0.6-0.6,0.6c-0.3,0-0.6-0.3-0.6-0.6c0-0.3,0.3-0.6,0.6-0.6
			C18.9,104.8,19.1,105.1,19.1,105.4z"/>
	</g>
	<g>
		<path class="st0" d="M19.1,118.3c0,0.3-0.3,0.6-0.6,0.6c-0.3,0-0.6-0.3-0.6-0.6s0.3-0.6,0.6-0.6C18.9,117.8,19.1,118,19.1,118.3z"
			/>
	</g>
	<g>
		<path class="st0" d="M19.1,131.3c0,0.3-0.3,0.6-0.6,0.6c-0.3,0-0.6-0.3-0.6-0.6s0.3-0.6,0.6-0.6C18.9,130.7,19.1,131,19.1,131.3z"
			/>
	</g>
	<g>
		<path class="st0" d="M19.1,144.7c0,0.3-0.3,0.6-0.6,0.6c-0.3,0-0.6-0.3-0.6-0.6s0.3-0.6,0.6-0.6C18.9,144.1,19.1,144.4,19.1,144.7
			z"/>
	</g>
	<g>
		<path class="st0" d="M19.1,158.1c0,0.3-0.3,0.6-0.6,0.6c-0.3,0-0.6-0.3-0.6-0.6s0.3-0.6,0.6-0.6C18.9,157.5,19.1,157.8,19.1,158.1
			z"/>
	</g>
	<g>
		<path class="st0" d="M19.1,170.1c0,0.3-0.3,0.6-0.6,0.6c-0.3,0-0.6-0.3-0.6-0.6s0.3-0.6,0.6-0.6C18.9,169.5,19.1,169.8,19.1,170.1
			z"/>
	</g>
	<g>
		<path class="st0" d="M19.1,183.5c0,0.3-0.3,0.6-0.6,0.6c-0.3,0-0.6-0.3-0.6-0.6s0.3-0.6,0.6-0.6C18.9,182.9,19.1,183.2,19.1,183.5
			z"/>
	</g>
	<g>
		<path class="st0" d="M19.1,196.5c0,0.3-0.3,0.6-0.6,0.6c-0.3,0-0.6-0.3-0.6-0.6s0.3-0.6,0.6-0.6C18.9,196,19.1,196.2,19.1,196.5z"
			/>
	</g>
	<g>
		<path class="st0" d="M19.4,215.7c0,0.3-0.3,0.6-0.6,0.6c-0.3,0-0.6-0.3-0.6-0.6s0.3-0.6,0.6-0.6C19.1,215.2,19.4,215.4,19.4,215.7
			z"/>
	</g>
	<g>
		<path class="st0" d="M39.9,216.3c0,0.3-0.3,0.6-0.6,0.6s-0.6-0.3-0.6-0.6s0.3-0.6,0.6-0.6C39.6,215.7,39.9,216,39.9,216.3z"/>
	</g>
	<g>
		<path class="st0" d="M66.3,216.3c0,0.3-0.3,0.6-0.6,0.6s-0.6-0.3-0.6-0.6s0.3-0.6,0.6-0.6S66.3,216,66.3,216.3z"/>
	</g>
	<g>
		<path class="st0" d="M92.7,216.3c0,0.3-0.3,0.6-0.6,0.6c-0.3,0-0.6-0.3-0.6-0.6s0.3-0.6,0.6-0.6C92.5,215.7,92.7,216,92.7,216.3z"
			/>
	</g>
	<g>
		<path class="st0" d="M118.5,216.3c0,0.3-0.3,0.6-0.6,0.6c-0.3,0-0.6-0.3-0.6-0.6s0.3-0.6,0.6-0.6
			C118.2,215.7,118.5,216,118.5,216.3z"/>
	</g>
	<g>
		<path class="st0" d="M149.4,118c0,0.3-0.3,0.6-0.6,0.6s-0.6-0.3-0.6-0.6s0.3-0.6,0.6-0.6C149.2,117.5,149.4,117.7,149.4,118z"/>
	</g>
	<g>
		<path class="st0" d="M149.4,130.4c0,0.3-0.3,0.6-0.6,0.6s-0.6-0.3-0.6-0.6s0.3-0.6,0.6-0.6C149.2,129.8,149.4,130,149.4,130.4z"/>
	</g>
	<g>
		<path class="st0" d="M149.4,143.6c0,0.3-0.3,0.6-0.6,0.6s-0.6-0.3-0.6-0.6s0.3-0.6,0.6-0.6C149.2,143.1,149.4,143.3,149.4,143.6z"
			/>
	</g>
	<g>
		<path class="st0" d="M149.4,156.8c0,0.3-0.3,0.6-0.6,0.6s-0.6-0.3-0.6-0.6s0.3-0.6,0.6-0.6C149.2,156.2,149.4,156.4,149.4,156.8z"
			/>
	</g>
	<g>
		<path class="st0" d="M149.4,169.5c0,0.3-0.3,0.6-0.6,0.6s-0.6-0.3-0.6-0.6s0.3-0.6,0.6-0.6C149.2,168.9,149.4,169.2,149.4,169.5z"
			/>
	</g>
	<g>
		<path class="st0" d="M149.4,182.1c0,0.3-0.3,0.6-0.6,0.6s-0.6-0.3-0.6-0.6s0.3-0.6,0.6-0.6C149.2,181.5,149.4,181.8,149.4,182.1z"
			/>
	</g>
	<g>
		<path class="st0" d="M149.4,194.9c0,0.3-0.3,0.6-0.6,0.6s-0.6-0.3-0.6-0.6s0.3-0.6,0.6-0.6C149.2,194.4,149.4,194.6,149.4,194.9z"
			/>
	</g>
	<g>
		<path class="st0" d="M149.4,214.5c0,0.3-0.3,0.6-0.6,0.6s-0.6-0.3-0.6-0.6s0.3-0.6,0.6-0.6C149.2,213.9,149.4,214.2,149.4,214.5z"
			/>
	</g>
	<g>
		<g>
			<g>
				<g>
					<path class="st2" d="M16.1,22.8c-0.3-0.3-0.4-0.8-0.4-1.4c0-0.8,0.2-1.6,0.6-2.4s0.9-1.7,1.5-2.5l1.6-2.2
						c0.3-0.4,0.5-0.8,0.7-1.3s0.3-0.9,0.3-1.2c0-0.2,0-0.3-0.1-0.4c-0.1-0.1-0.2-0.1-0.5-0.1h-4c-0.5,0-0.9,0.1-1.1,0.3
						c-0.2,0.2-0.4,0.5-0.4,1l-0.4,1.2h-0.4l0.3-4h7.5c0,0.7-0.1,1.4-0.3,2.3c-0.2,0.9-0.5,1.7-1,2.4l-1.2,1.6
						c-0.5,0.8-0.8,1.6-0.8,2.5c0,0.6,0,1,0.1,1.5l0.1,0.7c0.1,0.5,0.2,1,0.2,1.4c0,0.8-0.4,1.2-1.1,1.2
						C16.8,23.4,16.4,23.2,16.1,22.8z"/>
				</g>
			</g>
		</g>
		<g>
			<g>
				<g>
					<path class="st2" d="M150.9,205.5c0.3,0.3,0.4,0.8,0.4,1.4c0,0.8-0.2,1.6-0.6,2.4c-0.4,0.8-0.9,1.7-1.5,2.5l-1.6,2.2
						c-0.3,0.4-0.5,0.8-0.7,1.3s-0.3,0.9-0.3,1.2c0,0.2,0,0.3,0.1,0.4c0.1,0.1,0.2,0.1,0.5,0.1h4c0.5,0,0.9-0.1,1.1-0.3
						c0.2-0.2,0.4-0.5,0.4-1l0.2-1.1h0.4l-0.3,4h-7.5c0-0.7,0.1-1.4,0.3-2.3c0.2-0.9,0.5-1.7,1-2.4l1.1-1.7c0.5-0.8,0.8-1.6,0.8-2.5
						c0-0.6,0-1-0.1-1.5l-0.1-0.7c-0.1-0.5-0.2-1-0.2-1.4c0-0.8,0.4-1.2,1.1-1.2C150.2,205,150.6,205.1,150.9,205.5z"/>
				</g>
			</g>
		</g>
		<g>
			<path class="st3" d="M96.5,73.3c-3.7-4-7.9-7.9-9.7-10c-1.3-1.5-2.3-2.7-2.7-3.2v-0.3c0,0,0,0-0.1,0.1c-0.1,0-0.1,0-0.1,0v0.3
				c-0.4,0.5-1.3,1.7-2.7,3.2c-1.8,2.1-6.1,6-9.7,10c-3.7,4-4,8-3.3,11.3s4.2,6.5,9.6,5.8c1.7-0.2,3-1,3.9-2.1
				c-0.6,4.7-3.2,7.2-3.2,7.2h10.6c-1.9-2.2-2.6-5.2-2.9-7.1c0.9,1,2.2,1.8,3.9,2c5.5,0.7,8.9-2.4,9.6-5.8
				C100.5,81.3,100.2,77.3,96.5,73.3z"/>
		</g>
		<g>
			<path class="st3" d="M66.9,35.3c-3.7-4-7.9-7.9-9.7-10c-1.3-1.5-2.3-2.7-2.7-3.2v-0.3c0,0,0,0-0.1,0.1c-0.1-0.1-0.1-0.1-0.1-0.1
				v0.3c-0.4,0.5-1.3,1.7-2.7,3.2c-1.8,2.1-6.1,6-9.7,10s-4,8-3.3,11.3s4.2,6.5,9.6,5.8c1.7-0.2,3-1,3.9-2.1
				c-0.6,4.7-3.2,7.2-3.2,7.2h10.6c-1.9-2.2-2.6-5.2-2.9-7.1c0.9,1,2.2,1.8,3.9,2c5.5,0.7,8.9-2.4,9.6-5.8
				C70.9,43.3,70.6,39.3,66.9,35.3z"/>
		</g>
		<g>
			<path class="st3" d="M66.9,111.8c-3.7-4-7.9-7.9-9.7-10c-1.3-1.5-2.3-2.7-2.7-3.2v-0.3c0,0,0,0-0.1,0.1c-0.1-0.1-0.1-0.1-0.1-0.1
				v0.3c-0.4,0.5-1.3,1.7-2.7,3.2c-1.8,2.1-6.1,6-9.7,10c-3.7,4-4,8-3.3,11.3s4.2,6.5,9.6,5.8c1.7-0.2,3-1,3.9-2.1
				c-0.6,4.7-3.2,7.2-3.2,7.2h10.6c-1.9-2.2-2.6-5.2-2.9-7.1c0.9,1,2.2,1.8,3.9,2c5.5,0.7,8.9-2.4,9.6-5.8
				C70.9,119.9,70.6,115.9,66.9,111.8z"/>
		</g>
		<g>
			<path class="st3" d="M66.9,194.7c-3.7,4-7.9,7.9-9.7,10c-1.3,1.5-2.3,2.7-2.7,3.2v0.3c0,0,0,0-0.1-0.1c-0.1,0.1-0.1,0.1-0.1,0.1
				v-0.3c-0.4-0.5-1.3-1.7-2.7-3.2c-1.8-2.1-6.1-6-9.7-10c-3.7-4-4-8-3.3-11.3s4.2-6.5,9.6-5.8c1.7,0.2,3,1,3.9,2.1
				c-0.6-4.7-3.2-7.2-3.2-7.2h10.6c-1.9,2.2-2.6,5.2-2.9,7.1c0.9-1,2.2-1.8,3.9-2c5.5-0.7,8.9,2.4,9.6,5.8
				C70.9,186.7,70.6,190.7,66.9,194.7z"/>
		</g>
		<g>
			<path class="st3" d="M127,35.3c-3.7-4-7.9-7.9-9.7-10c-1.3-1.5-2.3-2.7-2.7-3.2v-0.3c0,0,0,0-0.1,0.1c-0.1-0.1-0.1-0.1-0.1-0.1
				v0.3c-0.4,0.5-1.3,1.7-2.7,3.2c-1.8,2.1-6.1,6-9.7,10c-3.7,4-4,8-3.3,11.3s4.2,6.5,9.6,5.8c1.7-0.2,3-1,3.9-2.1
				c-0.6,4.7-3.2,7.2-3.2,7.2h10.6c-1.9-2.2-2.6-5.2-2.9-7.1c0.9,1,2.2,1.8,3.9,2c5.5,0.7,8.9-2.4,9.6-5.8
				C131,43.3,130.7,39.3,127,35.3z"/>
		</g>
		<g>
			<path class="st3" d="M127,111.8c-3.7-4-7.9-7.9-9.7-10c-1.3-1.5-2.3-2.7-2.7-3.2v-0.3c0,0,0,0-0.1,0.1c-0.1-0.1-0.1-0.1-0.1-0.1
				v0.3c-0.4,0.5-1.3,1.7-2.7,3.2c-1.8,2.1-6.1,6-9.7,10c-3.7,4-4,8-3.3,11.3s4.2,6.5,9.6,5.8c1.7-0.2,3-1,3.9-2.1
				c-0.6,4.7-3.2,7.2-3.2,7.2h10.6c-1.9-2.2-2.6-5.2-2.9-7.1c0.9,1,2.2,1.8,3.9,2c5.5,0.7,8.9-2.4,9.6-5.8
				C131,119.9,130.7,115.9,127,111.8z"/>
		</g>
		<g>
			<path class="st3" d="M127,194.7c-3.7,4-7.9,7.9-9.7,10c-1.3,1.5-2.3,2.7-2.7,3.2v0.3c0,0,0,0-0.1-0.1c-0.1,0.1-0.1,0.1-0.1,0.1
				v-0.3c-0.4-0.5-1.3-1.7-2.7-3.2c-1.8-2.1-6.1-6-9.7-10c-3.7-4-4-8-3.3-11.3s4.2-6.5,9.6-5.8c1.7,0.2,3,1,3.9,2.1
				c-0.6-4.7-3.2-7.2-3.2-7.2h10.6c-1.9,2.2-2.6,5.2-2.9,7.1c0.9-1,2.2-1.8,3.9-2c5.5-0.7,8.9,2.4,9.6,5.8
				C131,186.7,130.7,190.7,127,194.7z"/>
		</g>
		<g>
			<path class="st3" d="M152.3,197.1c-1.1,1.2-2.3,2.3-2.8,2.9c-0.4,0.4-0.7,0.8-0.8,0.9v0.1l0,0l0,0v-0.1c-0.1-0.1-0.4-0.5-0.8-0.9
				c-0.5-0.6-1.8-1.7-2.8-2.9c-1.1-1.2-1.2-2.3-1-3.3s1.2-1.9,2.8-1.7c0.5,0.1,0.9,0.3,1.1,0.6c-0.2-1.4-0.9-2.1-0.9-2.1h3.1
				c-0.6,0.6-0.8,1.5-0.8,2.1c0.3-0.3,0.6-0.5,1.1-0.6c1.6-0.2,2.6,0.7,2.8,1.7S153.4,195.9,152.3,197.1z"/>
		</g>
		<g>
			<path class="st3" d="M22,31c-1.1-1.2-2.3-2.3-2.8-2.9c-0.4-0.4-0.7-0.8-0.8-0.9v-0.1l0,0l0,0l0,0c-0.1,0.1-0.4,0.5-0.8,0.9
				c-0.5,0.6-1.8,1.7-2.8,2.9c-1.1,1.2-1.2,2.3-1,3.3s1.2,1.9,2.8,1.7c0.5-0.1,0.9-0.3,1.1-0.6c-0.2,1.4-0.9,2.1-0.9,2.1h3.1
				c-0.6-0.6-0.8-1.5-0.8-2.1c0.3,0.3,0.6,0.5,1.1,0.6c1.6,0.2,2.6-0.7,2.8-1.7C23.2,33.3,23.1,32.1,22,31z"/>
		</g>
	</g>
</g>
</svg>
