<?xml version="1.0" encoding="utf-8"?>
<!-- Generator: Adobe Illustrator 27.6.1, SVG Export Plug-In . SVG Version: 6.00 Build 0)  -->
<svg version="1.1" id="Слой_1" xmlns="http://www.w3.org/2000/svg" xmlns:xlink="http://www.w3.org/1999/xlink" x="0px" y="0px"
	 viewBox="0 0 167.1 233.4" style="enable-background:new 0 0 167.1 233.4;" xml:space="preserve">
<style type="text/css">
	.st0{fill:#FFFFFF;}
	.st1{fill:#32A8E0;}
	.st2{fill:#0C0D0D;}
	.st3{fill:#020203;}
</style>
<g>
	<g>
		<g>
			<path class="st0" d="M160.8,233.1H6.3c-3.3,0-5.9-2.7-5.9-5.9V6.2c0-3.3,2.7-5.9,5.9-5.9h154.5c3.3,0,5.9,2.7,5.9,5.9v221
				C166.7,230.5,164,233.1,160.8,233.1z"/>
			<path class="st1" d="M160.8,233.2H6.3c-3.3,0-6.1-2.7-6.1-6.1V6.2c0-3.4,2.8-6.1,6.1-6.1h154.5c3.3,0,6.1,2.7,6.1,6.1v221
				C166.8,230.5,164.1,233.2,160.8,233.2z M6.3,0.3c-3.2,0-5.8,2.6-5.8,5.8v221c0,3.2,2.6,5.8,5.8,5.8h154.5c3.2,0,5.8-2.6,5.8-5.8
				V6.2c0-3.2-2.6-5.8-5.8-5.8L6.3,0.3L6.3,0.3z"/>
		</g>
	</g>
	<g>
		<path class="st0" d="M149.4,18.6c0,0.3-0.3,0.6-0.6,0.6s-0.6-0.3-0.6-0.6s0.3-0.6,0.6-0.6C149.2,18,149.4,18.3,149.4,18.6z"/>
	</g>
	<g>
		<path class="st0" d="M122.3,18.6c0,0.3-0.3,0.6-0.6,0.6s-0.6-0.3-0.6-0.6s0.3-0.6,0.6-0.6S122.3,18.3,122.3,18.6z"/>
	</g>
	<g>
		<path class="st0" d="M97.3,18.6c0,0.3-0.3,0.6-0.6,0.6s-0.6-0.3-0.6-0.6s0.3-0.6,0.6-0.6S97.3,18.3,97.3,18.6z"/>
	</g>
	<g>
		<path class="st0" d="M72.3,18.8c0,0.3-0.3,0.6-0.6,0.6s-0.6-0.3-0.6-0.6s0.3-0.6,0.6-0.6S72.3,18.5,72.3,18.8z"/>
	</g>
	<g>
		<path class="st0" d="M149.4,39.7c0,0.3-0.3,0.6-0.6,0.6s-0.6-0.3-0.6-0.6s0.3-0.6,0.6-0.6C149.2,39.2,149.4,39.4,149.4,39.7z"/>
	</g>
	<g>
		<path class="st0" d="M149.4,59c0,0.3-0.3,0.6-0.6,0.6s-0.6-0.3-0.6-0.6s0.3-0.6,0.6-0.6C149.2,58.4,149.4,58.7,149.4,59z"/>
	</g>
	<g>
		<path class="st0" d="M149.4,79.2c0,0.3-0.3,0.6-0.6,0.6s-0.6-0.3-0.6-0.6c0-0.3,0.3-0.6,0.6-0.6C149.2,78.7,149.4,78.9,149.4,79.2
			z"/>
	</g>
	<g>
		<path class="st0" d="M149.4,92c0,0.3-0.3,0.6-0.6,0.6s-0.6-0.3-0.6-0.6c0-0.3,0.3-0.6,0.6-0.6C149.2,91.4,149.4,91.7,149.4,92z"/>
	</g>
	<g>
		<path class="st0" d="M149.4,104.8c0,0.3-0.3,0.6-0.6,0.6s-0.6-0.3-0.6-0.6c0-0.3,0.3-0.6,0.6-0.6
			C149.2,104.3,149.4,104.5,149.4,104.8z"/>
	</g>
	<g>
		<path class="st0" d="M19.1,19.1c0,0.3-0.3,0.6-0.6,0.6c-0.3,0-0.6-0.3-0.6-0.6c0-0.3,0.3-0.6,0.6-0.6
			C18.9,18.6,19.1,18.8,19.1,19.1z"/>
	</g>
	<g>
		<path class="st0" d="M46.6,18.8c0,0.3-0.3,0.6-0.6,0.6s-0.6-0.3-0.6-0.6s0.3-0.6,0.6-0.6S46.6,18.5,46.6,18.8z"/>
	</g>
	<g>
		<path class="st0" d="M19.1,39.3c0,0.3-0.3,0.6-0.6,0.6c-0.3,0-0.6-0.3-0.6-0.6s0.3-0.6,0.6-0.6C18.9,38.7,19.1,39,19.1,39.3z"/>
	</g>
	<g>
		<path class="st0" d="M19.1,59.1c0,0.3-0.3,0.6-0.6,0.6c-0.3,0-0.6-0.3-0.6-0.6s0.3-0.6,0.6-0.6C18.9,58.6,19.1,58.8,19.1,59.1z"/>
	</g>
	<g>
		<path class="st0" d="M19.1,79.1c0,0.3-0.3,0.6-0.6,0.6c-0.3,0-0.6-0.3-0.6-0.6s0.3-0.6,0.6-0.6C18.9,78.5,19.1,78.8,19.1,79.1z"/>
	</g>
	<g>
		<path class="st0" d="M19.1,92c0,0.3-0.3,0.6-0.6,0.6c-0.3,0-0.6-0.3-0.6-0.6c0-0.3,0.3-0.6,0.6-0.6C18.9,91.4,19.1,91.7,19.1,92z"
			/>
	</g>
	<g>
		<path class="st0" d="M19.1,105.4c0,0.3-0.3,0.6-0.6,0.6c-0.3,0-0.6-0.3-0.6-0.6c0-0.3,0.3-0.6,0.6-0.6
			C18.9,104.8,19.1,105.1,19.1,105.4z"/>
	</g>
	<g>
		<path class="st0" d="M19.1,118.3c0,0.3-0.3,0.6-0.6,0.6c-0.3,0-0.6-0.3-0.6-0.6c0-0.3,0.3-0.6,0.6-0.6
			C18.9,117.8,19.1,118,19.1,118.3z"/>
	</g>
	<g>
		<path class="st0" d="M19.1,131.3c0,0.3-0.3,0.6-0.6,0.6c-0.3,0-0.6-0.3-0.6-0.6s0.3-0.6,0.6-0.6C18.9,130.7,19.1,131,19.1,131.3z"
			/>
	</g>
	<g>
		<path class="st0" d="M19.1,144.7c0,0.3-0.3,0.6-0.6,0.6c-0.3,0-0.6-0.3-0.6-0.6s0.3-0.6,0.6-0.6C18.9,144.1,19.1,144.4,19.1,144.7
			z"/>
	</g>
	<g>
		<path class="st0" d="M19.1,158.1c0,0.3-0.3,0.6-0.6,0.6c-0.3,0-0.6-0.3-0.6-0.6s0.3-0.6,0.6-0.6C18.9,157.5,19.1,157.8,19.1,158.1
			z"/>
	</g>
	<g>
		<path class="st0" d="M19.1,170.1c0,0.3-0.3,0.6-0.6,0.6c-0.3,0-0.6-0.3-0.6-0.6s0.3-0.6,0.6-0.6C18.9,169.5,19.1,169.8,19.1,170.1
			z"/>
	</g>
	<g>
		<path class="st0" d="M19.1,183.5c0,0.3-0.3,0.6-0.6,0.6c-0.3,0-0.6-0.3-0.6-0.6s0.3-0.6,0.6-0.6C18.9,182.9,19.1,183.2,19.1,183.5
			z"/>
	</g>
	<g>
		<path class="st0" d="M19.1,196.5c0,0.3-0.3,0.6-0.6,0.6c-0.3,0-0.6-0.3-0.6-0.6s0.3-0.6,0.6-0.6C18.9,196,19.1,196.2,19.1,196.5z"
			/>
	</g>
	<g>
		<path class="st0" d="M19.4,215.7c0,0.3-0.3,0.6-0.6,0.6c-0.3,0-0.6-0.3-0.6-0.6s0.3-0.6,0.6-0.6C19.1,215.2,19.4,215.4,19.4,215.7
			z"/>
	</g>
	<g>
		<path class="st0" d="M39.9,216.3c0,0.3-0.3,0.6-0.6,0.6s-0.6-0.3-0.6-0.6s0.3-0.6,0.6-0.6S39.9,216,39.9,216.3z"/>
	</g>
	<g>
		<path class="st0" d="M66.3,216.3c0,0.3-0.3,0.6-0.6,0.6c-0.3,0-0.6-0.3-0.6-0.6s0.3-0.6,0.6-0.6C66.1,215.7,66.3,216,66.3,216.3z"
			/>
	</g>
	<g>
		<path class="st0" d="M92.7,216.3c0,0.3-0.3,0.6-0.6,0.6c-0.3,0-0.6-0.3-0.6-0.6s0.3-0.6,0.6-0.6C92.5,215.7,92.7,216,92.7,216.3z"
			/>
	</g>
	<g>
		<path class="st0" d="M118.5,216.3c0,0.3-0.3,0.6-0.6,0.6s-0.6-0.3-0.6-0.6s0.3-0.6,0.6-0.6S118.5,216,118.5,216.3z"/>
	</g>
	<g>
		<path class="st0" d="M149.4,118c0,0.3-0.3,0.6-0.6,0.6s-0.6-0.3-0.6-0.6s0.3-0.6,0.6-0.6C149.2,117.5,149.4,117.7,149.4,118z"/>
	</g>
	<g>
		<path class="st0" d="M149.4,130.4c0,0.3-0.3,0.6-0.6,0.6s-0.6-0.3-0.6-0.6s0.3-0.6,0.6-0.6C149.2,129.8,149.4,130,149.4,130.4z"/>
	</g>
	<g>
		<path class="st0" d="M149.4,143.6c0,0.3-0.3,0.6-0.6,0.6s-0.6-0.3-0.6-0.6s0.3-0.6,0.6-0.6C149.2,143.1,149.4,143.3,149.4,143.6z"
			/>
	</g>
	<g>
		<path class="st0" d="M149.4,156.8c0,0.3-0.3,0.6-0.6,0.6s-0.6-0.3-0.6-0.6s0.3-0.6,0.6-0.6C149.2,156.2,149.4,156.4,149.4,156.8z"
			/>
	</g>
	<g>
		<path class="st0" d="M149.4,169.5c0,0.3-0.3,0.6-0.6,0.6s-0.6-0.3-0.6-0.6s0.3-0.6,0.6-0.6C149.2,168.9,149.4,169.2,149.4,169.5z"
			/>
	</g>
	<g>
		<path class="st0" d="M149.4,182.1c0,0.3-0.3,0.6-0.6,0.6s-0.6-0.3-0.6-0.6s0.3-0.6,0.6-0.6C149.2,181.5,149.4,181.8,149.4,182.1z"
			/>
	</g>
	<g>
		<path class="st0" d="M149.4,194.9c0,0.3-0.3,0.6-0.6,0.6s-0.6-0.3-0.6-0.6s0.3-0.6,0.6-0.6C149.2,194.4,149.4,194.6,149.4,194.9z"
			/>
	</g>
	<g>
		<path class="st0" d="M149.4,214.5c0,0.3-0.3,0.6-0.6,0.6s-0.6-0.3-0.6-0.6s0.3-0.6,0.6-0.6C149.2,213.9,149.4,214.2,149.4,214.5z"
			/>
	</g>
	<g>
		<g>
			<g>
				<path class="st2" d="M24.4,34.2c-1-1.1-2.6-0.5-2.6-0.5c0.4-0.5,0.7-0.9,0.7-1.6V32c0-1.2-1-2.2-2.2-2.2s-2.2,1-2.2,2.2
					c0,0.2,0,0.3,0,0.5c0.1,0.5,0.3,0.9,0.7,1.3c0,0-1.6-0.7-2.6,0.5c-1,1.1-0.5,2.5-0.2,2.9c0.3,0.4,0.8,1.2,2,1.1
					c1-0.1,1.2-0.2,1.9-0.8c-0.1,1.5-1,2.6-1,2.6H19h1.5H22h0.1c-0.6-0.6-1.1-1.9-1-2.6c0.7,0.5,0.8,0.7,1.8,0.8
					c1.1,0.1,1.6-0.7,2-1.1C24.9,36.7,25.4,35.3,24.4,34.2z"/>
			</g>
			<g>
				<g>
					<path class="st3" d="M17,25.8c-0.7-0.3-1.2-0.7-1.6-1.3c-0.4-0.6-0.6-1.2-0.6-2c0-0.9,0.3-1.7,0.8-2.2s1.1-0.9,1.7-1v-0.1
						l-0.2-0.1c-0.7-0.3-1.2-0.7-1.6-1.3c-0.4-0.6-0.5-1.2-0.5-1.9c0-0.7,0.2-1.3,0.6-1.8c0.4-0.6,1-1,1.6-1.3
						c0.7-0.3,1.3-0.5,2.1-0.5c0.9,0,1.6,0.2,2.2,0.5s1.1,0.7,1.4,1.2s0.5,1.1,0.5,1.6c0,0.7-0.2,1.3-0.7,1.8
						c-0.4,0.5-1,0.9-1.6,1.2v0.1l0.4,0.2c1.5,0.6,2.3,1.6,2.3,2.9c0,0.8-0.2,1.5-0.6,2.2s-0.9,1.2-1.6,1.6S20,26.2,19,26.2
						C18.3,26.2,17.6,26.1,17,25.8z M21,25.2c0.5-0.3,0.8-0.7,1-1.1s0.3-0.8,0.3-1.2c0-0.7-0.2-1.3-0.5-1.6
						c-0.3-0.3-0.8-0.6-1.4-0.9l-2.6-1c-0.5,0.2-0.9,0.6-1.2,1c-0.3,0.5-0.4,1.2-0.4,2.1c0,1,0.3,1.8,0.9,2.3s1.4,0.7,2.2,0.7
						C20,25.6,20.6,25.5,21,25.2z M21.7,17.4c0.2-0.5,0.3-1,0.3-1.6c0-0.5-0.1-1-0.4-1.4s-0.6-0.8-1-1S19.7,13,19.2,13
						c-0.8,0-1.5,0.2-2,0.7s-0.8,1.1-0.8,1.8c0,0.5,0.1,1,0.4,1.3s0.7,0.6,1.3,0.8l2.5,1C21.1,18.2,21.5,17.9,21.7,17.4z"/>
				</g>
			</g>
		</g>
		<g>
			<g>
				<path class="st2" d="M146.4,199.9c1,1.1,2.6,0.5,2.6,0.5c-0.4,0.5-0.7,0.9-0.7,1.6v0.1c0,1.2,1,2.2,2.2,2.2s2.2-1,2.2-2.2
					c0-0.2,0-0.3,0-0.5c-0.1-0.5-0.3-0.9-0.7-1.3c0,0,1.6,0.7,2.6-0.5c1-1.1,0.5-2.5,0.2-2.9s-0.8-1.2-2-1.1c-1,0.1-1.2,0.2-1.9,0.8
					c0.1-1.5,1-2.6,1-2.6h-0.1h-1.5h-1.5h-0.1c0.6,0.6,1.1,1.9,1,2.6c-0.7-0.5-0.8-0.7-1.8-0.8c-1.1-0.1-1.6,0.7-2,1.1
					C145.9,197.5,145.4,198.8,146.4,199.9z"/>
			</g>
			<g>
				<g>
					<path class="st3" d="M153.8,208.3c0.7,0.3,1.2,0.7,1.6,1.3c0.4,0.6,0.6,1.2,0.6,2c0,0.9-0.3,1.7-0.8,2.2s-1.1,0.9-1.7,1v0.1
						l0.2,0.1c0.7,0.3,1.2,0.7,1.6,1.3c0.4,0.6,0.5,1.2,0.5,1.9s-0.2,1.3-0.6,1.8c-0.4,0.5-1,1-1.6,1.3c-0.7,0.3-1.3,0.5-2.1,0.5
						c-0.9,0-1.6-0.2-2.2-0.5c-0.6-0.3-1.1-0.7-1.4-1.2c-0.3-0.5-0.5-1.1-0.5-1.6c0-0.7,0.2-1.3,0.7-1.8c0.4-0.5,1-0.9,1.6-1.2v-0.1
						l-0.4-0.2c-1.5-0.6-2.3-1.6-2.3-2.9c0-0.8,0.2-1.5,0.6-2.2c0.4-0.7,0.9-1.2,1.6-1.6c0.7-0.4,1.6-0.6,2.6-0.6
						C152.4,207.9,153.1,208,153.8,208.3z M149.7,208.9c-0.5,0.3-0.8,0.7-1,1.1c-0.2,0.4-0.3,0.8-0.3,1.2c0,0.7,0.2,1.3,0.5,1.6
						s0.8,0.6,1.4,0.9l2.6,1c0.5-0.2,0.9-0.6,1.2-1c0.3-0.5,0.4-1.2,0.4-2.1c0-1-0.3-1.8-0.9-2.3c-0.6-0.5-1.4-0.7-2.2-0.7
						C150.7,208.5,150.2,208.6,149.7,208.9z M149,216.7c-0.2,0.5-0.3,1-0.3,1.6c0,0.5,0.1,1,0.4,1.4c0.3,0.4,0.6,0.8,1,1
						s0.9,0.4,1.4,0.4c0.8,0,1.5-0.2,2-0.7s0.8-1.1,0.8-1.8c0-0.5-0.1-1-0.4-1.3c-0.3-0.3-0.7-0.6-1.3-0.8l-2.5-1
						C149.6,215.9,149.2,216.3,149,216.7z"/>
				</g>
			</g>
		</g>
		<g>
			<path class="st2" d="M97.9,80.1c-3.6-3.9-9.1-1.6-9.1-1.6c1.5-1.6,2.6-2.9,2.4-5.6c0-0.1,0-0.2,0-0.3c0-4.3-3.5-7.7-7.7-7.7
				s-7.7,3.5-7.7,7.7c0,0.5,0.1,1.1,0.2,1.6c0.2,1.9,1.1,3,2.4,4.3c0,0-5.5-2.3-9.1,1.6s-1.8,8.5-0.7,10.1c1.1,1.5,2.8,4.1,6.8,3.8
				c3.5-0.3,4-0.9,6.5-2.8c-0.3,5.3-3.5,8.9-3.5,8.9h0.2h5.1h5.1h0.1c-1.9-2-3.7-6.7-3.4-8.9c2.4,1.9,2.9,2.5,6.4,2.7
				c4,0.3,5.7-2.3,6.8-3.8C99.7,88.6,101.5,84,97.9,80.1z"/>
		</g>
		<g>
			<path class="st2" d="M60.8,45.1c-3.6-3.9-9.1-1.6-9.1-1.6c1.5-1.6,2.6-2.9,2.4-5.6c0-0.1,0-0.2,0-0.3c0-4.3-3.5-7.7-7.7-7.7
				s-7.7,3.5-7.7,7.7c0,0.5,0.1,1.1,0.2,1.6c0.2,1.9,1.1,3,2.4,4.3c0,0-5.5-2.3-9.1,1.6s-1.8,8.5-0.7,10.1c1.1,1.5,2.8,4.1,6.8,3.8
				c3.5-0.3,4-0.9,6.5-2.8c-0.3,5.3-3.5,8.9-3.5,8.9h0.2h5.1h5.1h0.2c-1.9-2-3.7-6.7-3.4-8.9c2.4,1.9,2.9,2.5,6.4,2.7
				c4,0.3,5.7-2.3,6.8-3.8C62.6,53.7,64.4,49,60.8,45.1z"/>
		</g>
		<g>
			<path class="st2" d="M60.8,115.2c-3.6-3.9-9.1-1.6-9.1-1.6c1.5-1.6,2.6-2.9,2.4-5.6c0-0.1,0-0.2,0-0.3c0-4.3-3.5-7.7-7.7-7.7
				s-7.7,3.5-7.7,7.7c0,0.5,0.1,1.1,0.2,1.6c0.2,1.9,1.1,3,2.4,4.3c0,0-5.5-2.3-9.1,1.6s-1.8,8.5-0.7,10.1c1.1,1.5,2.8,4.1,6.8,3.8
				c3.5-0.3,4-0.9,6.5-2.8c-0.3,5.3-3.5,8.9-3.5,8.9h0.2h5.1h5.1h0.2c-1.9-2-3.7-6.7-3.4-8.9c2.4,1.9,2.9,2.5,6.4,2.7
				c4,0.3,5.7-2.3,6.8-3.8C62.6,123.7,64.4,119.1,60.8,115.2z"/>
		</g>
		<g>
			<path class="st2" d="M60.8,189.3c-3.6,3.9-9.1,1.6-9.1,1.6c1.5,1.6,2.6,2.9,2.4,5.6c0,0.1,0,0.2,0,0.3c0,4.3-3.5,7.7-7.7,7.7
				s-7.7-3.5-7.7-7.7c0-0.5,0.1-1.1,0.2-1.6c0.2-1.9,1.1-3,2.4-4.3c0,0-5.5,2.3-9.1-1.6c-3.6-3.9-1.8-8.5-0.7-10.1
				c1.1-1.5,2.8-4.1,6.8-3.8c3.5,0.3,4,0.9,6.5,2.8c-0.3-5.3-3.5-8.9-3.5-8.9h0.2h5.1h5.1h0.2c-1.9,2-3.7,6.7-3.4,8.9
				c2.4-1.9,2.9-2.5,6.4-2.7c4-0.3,5.7,2.3,6.8,3.8C62.6,180.7,64.4,185.4,60.8,189.3z"/>
		</g>
		<g>
			<path class="st2" d="M139,45.1c-3.6-3.9-9.1-1.6-9.1-1.6c1.5-1.6,2.6-2.9,2.4-5.6c0-0.1,0-0.2,0-0.3c0-4.3-3.5-7.7-7.7-7.7
				s-7.7,3.5-7.7,7.7c0,0.5,0.1,1.1,0.2,1.6c0.2,1.9,1.1,3,2.4,4.3c0,0-5.5-2.3-9.1,1.6s-1.8,8.5-0.7,10.1c1.1,1.5,2.8,4.1,6.8,3.8
				c3.5-0.3,4-0.9,6.5-2.8c-0.3,5.3-3.5,8.9-3.5,8.9h0.2h5.1h5.1h0.2c-1.9-2-3.7-6.7-3.4-8.9c2.4,1.9,2.9,2.5,6.4,2.7
				c4,0.3,5.7-2.3,6.8-3.8C140.8,53.7,142.6,49,139,45.1z"/>
		</g>
		<g>
			<path class="st2" d="M139,115.2c-3.6-3.9-9.1-1.6-9.1-1.6c1.5-1.6,2.6-2.9,2.4-5.6c0-0.1,0-0.2,0-0.3c0-4.3-3.5-7.7-7.7-7.7
				s-7.7,3.5-7.7,7.7c0,0.5,0.1,1.1,0.2,1.6c0.2,1.9,1.1,3,2.4,4.3c0,0-5.5-2.3-9.1,1.6s-1.8,8.5-0.7,10.1c1.1,1.5,2.8,4.1,6.8,3.8
				c3.5-0.3,4-0.9,6.5-2.8c-0.3,5.3-3.5,8.9-3.5,8.9h0.2h5.1h5.1h0.2c-1.9-2-3.7-6.7-3.4-8.9c2.4,1.9,2.9,2.5,6.4,2.7
				c4,0.3,5.7-2.3,6.8-3.8C140.8,123.7,142.6,119.1,139,115.2z"/>
		</g>
		<g>
			<path class="st2" d="M139,189.3c-3.6,3.9-9.1,1.6-9.1,1.6c1.5,1.6,2.6,2.9,2.4,5.6c0,0.1,0,0.2,0,0.3c0,4.3-3.5,7.7-7.7,7.7
				s-7.7-3.5-7.7-7.7c0-0.5,0.1-1.1,0.2-1.6c0.2-1.9,1.1-3,2.4-4.3c0,0-5.5,2.3-9.1-1.6c-3.6-3.9-1.8-8.5-0.7-10.1
				c1.1-1.5,2.8-4.1,6.8-3.8c3.5,0.3,4,0.9,6.5,2.8c-0.3-5.3-3.5-8.9-3.5-8.9h0.2h5.1h5.1h0.2c-1.9,2-3.7,6.7-3.4,8.9
				c2.4-1.9,2.9-2.5,6.4-2.7c4-0.3,5.7,2.3,6.8,3.8C140.8,180.7,142.6,185.4,139,189.3z"/>
		</g>
		<g>
			<path class="st2" d="M97.9,152.3c-3.6,3.9-9.1,1.6-9.1,1.6c1.5,1.6,2.6,2.9,2.4,5.6c0,0.1,0,0.2,0,0.3c0,4.3-3.5,7.7-7.7,7.7
				s-7.7-3.5-7.7-7.7c0-0.5,0.1-1.1,0.2-1.6c0.2-1.9,1.1-3,2.4-4.3c0,0-5.5,2.3-9.1-1.6c-3.6-3.9-1.8-8.5-0.7-10.1
				c1.1-1.5,2.8-4.1,6.8-3.8c3.5,0.3,4,0.9,6.5,2.8c-0.3-5.3-3.5-8.9-3.5-8.9h0.2h5.1h5.1h0.1c-1.9,2-3.7,6.7-3.4,8.9
				c2.4-1.9,2.9-2.5,6.4-2.7c4-0.3,5.7,2.3,6.8,3.8C99.7,143.8,101.5,148.4,97.9,152.3z"/>
		</g>
	</g>
</g>
</svg>
