<?xml version="1.0" encoding="utf-8"?>
<!-- Generator: Adobe Illustrator 27.6.1, SVG Export Plug-In . SVG Version: 6.00 Build 0)  -->
<svg version="1.1" id="Слой_1" xmlns="http://www.w3.org/2000/svg" xmlns:xlink="http://www.w3.org/1999/xlink" x="0px" y="0px"
	 viewBox="0 0 167 233.5" style="enable-background:new 0 0 167 233.5;" xml:space="preserve">
<style type="text/css">
	.st0{fill:#FFFFFF;}
	.st1{fill:#32A8E0;}
	.st2{fill:#CD1417;}
	.st3{fill:#BE3D2E;}
</style>
<g>
	<g>
		<g>
			<path class="st0" d="M160.6,233.3H6.2c-3.3,0-5.9-2.7-5.9-5.9V6.4c0-3.3,2.7-5.9,5.9-5.9h154.4c3.3,0,5.9,2.7,5.9,5.9v221
				C166.6,230.6,163.9,233.3,160.6,233.3z"/>
			<path class="st1" d="M160.6,233.4H6.2c-3.3,0-6.1-2.7-6.1-6.1V6.4C0.2,3,2.9,0.3,6.2,0.3h154.4c3.3,0,6.1,2.7,6.1,6.1v221
				C166.7,230.7,164,233.4,160.6,233.4z M6.2,0.6C3,0.6,0.4,3.2,0.4,6.4v221c0,3.2,2.6,5.8,5.8,5.8h154.4c3.2,0,5.8-2.6,5.8-5.8V6.4
				c0-3.2-2.6-5.8-5.8-5.8C160.6,0.6,6.2,0.6,6.2,0.6z"/>
		</g>
	</g>
	<g>
		<path class="st0" d="M149.3,18.8c0,0.3-0.3,0.6-0.6,0.6s-0.6-0.3-0.6-0.6s0.3-0.6,0.6-0.6S149.3,18.5,149.3,18.8z"/>
	</g>
	<g>
		<circle class="st0" cx="121.6" cy="18.8" r="0.6"/>
	</g>
	<g>
		<path class="st0" d="M97.2,18.8c0,0.3-0.3,0.6-0.6,0.6c-0.3,0-0.6-0.3-0.6-0.6s0.3-0.6,0.6-0.6C97,18.2,97.2,18.5,97.2,18.8z"/>
	</g>
	<g>
		<circle class="st0" cx="71.6" cy="19" r="0.6"/>
	</g>
	<g>
		<path class="st0" d="M149.3,39.9c0,0.3-0.3,0.6-0.6,0.6s-0.6-0.3-0.6-0.6s0.3-0.6,0.6-0.6C149,39.4,149.3,39.6,149.3,39.9z"/>
	</g>
	<g>
		<path class="st0" d="M149.3,59.2c0,0.3-0.3,0.6-0.6,0.6s-0.6-0.3-0.6-0.6s0.3-0.6,0.6-0.6C149,58.7,149.3,58.9,149.3,59.2z"/>
	</g>
	<g>
		<path class="st0" d="M149.3,79.4c0,0.3-0.3,0.6-0.6,0.6s-0.6-0.3-0.6-0.6c0-0.3,0.3-0.6,0.6-0.6C149,78.9,149.3,79.1,149.3,79.4z"
			/>
	</g>
	<g>
		<path class="st0" d="M149.3,92.2c0,0.3-0.3,0.6-0.6,0.6s-0.6-0.3-0.6-0.6c0-0.3,0.3-0.6,0.6-0.6C149,91.7,149.3,91.9,149.3,92.2z"
			/>
	</g>
	<g>
		<path class="st0" d="M149.3,105c0,0.3-0.3,0.6-0.6,0.6s-0.6-0.3-0.6-0.6c0-0.3,0.3-0.6,0.6-0.6C149,104.5,149.3,104.7,149.3,105z"
			/>
	</g>
	<g>
		<circle class="st0" cx="18.5" cy="19.4" r="0.6"/>
	</g>
	<g>
		<circle class="st0" cx="45.9" cy="19" r="0.6"/>
	</g>
	<g>
		<circle class="st0" cx="18.5" cy="39.5" r="0.6"/>
	</g>
	<g>
		<circle class="st0" cx="18.5" cy="59.4" r="0.6"/>
	</g>
	<g>
		<circle class="st0" cx="18.5" cy="79.3" r="0.6"/>
	</g>
	<g>
		<circle class="st0" cx="18.5" cy="92.2" r="0.6"/>
	</g>
	<g>
		<circle class="st0" cx="18.5" cy="105.6" r="0.6"/>
	</g>
	<g>
		<circle class="st0" cx="18.5" cy="118.5" r="0.6"/>
	</g>
	<g>
		<circle class="st0" cx="18.5" cy="131.5" r="0.6"/>
	</g>
	<g>
		<circle class="st0" cx="18.5" cy="144.9" r="0.6"/>
	</g>
	<g>
		<circle class="st0" cx="18.5" cy="158.3" r="0.6"/>
	</g>
	<g>
		<circle class="st0" cx="18.5" cy="170.3" r="0.6"/>
	</g>
	<g>
		<path class="st0" d="M19.1,183.7c0,0.3-0.3,0.6-0.6,0.6c-0.3,0-0.6-0.3-0.6-0.6s0.3-0.6,0.6-0.6C18.8,183.1,19.1,183.4,19.1,183.7
			z"/>
	</g>
	<g>
		<circle class="st0" cx="18.5" cy="196.7" r="0.6"/>
	</g>
	<g>
		<circle class="st0" cx="18.7" cy="215.9" r="0.6"/>
	</g>
	<g>
		<circle class="st0" cx="39.3" cy="216.5" r="0.6"/>
	</g>
	<g>
		<circle class="st0" cx="65.7" cy="216.5" r="0.6"/>
	</g>
	<g>
		<circle class="st0" cx="92.1" cy="216.5" r="0.6"/>
	</g>
	<g>
		<circle class="st0" cx="117.8" cy="216.5" r="0.6"/>
	</g>
	<g>
		<path class="st0" d="M149.3,118.2c0,0.3-0.3,0.6-0.6,0.6s-0.6-0.3-0.6-0.6c0-0.3,0.3-0.6,0.6-0.6
			C149,117.7,149.3,117.9,149.3,118.2z"/>
	</g>
	<g>
		<path class="st0" d="M149.3,130.6c0,0.3-0.3,0.6-0.6,0.6s-0.6-0.3-0.6-0.6s0.3-0.6,0.6-0.6S149.3,130.2,149.3,130.6z"/>
	</g>
	<g>
		<path class="st0" d="M149.3,143.8c0,0.3-0.3,0.6-0.6,0.6s-0.6-0.3-0.6-0.6s0.3-0.6,0.6-0.6C149,143.3,149.3,143.5,149.3,143.8z"/>
	</g>
	<g>
		<path class="st0" d="M149.3,156.9c0,0.3-0.3,0.6-0.6,0.6s-0.6-0.3-0.6-0.6s0.3-0.6,0.6-0.6C149,156.4,149.3,156.6,149.3,156.9z"/>
	</g>
	<g>
		<path class="st0" d="M149.3,169.7c0,0.3-0.3,0.6-0.6,0.6s-0.6-0.3-0.6-0.6s0.3-0.6,0.6-0.6C149,169.1,149.3,169.4,149.3,169.7z"/>
	</g>
	<g>
		<path class="st0" d="M149.3,182.3c0,0.3-0.3,0.6-0.6,0.6s-0.6-0.3-0.6-0.6s0.3-0.6,0.6-0.6S149.3,182,149.3,182.3z"/>
	</g>
	<g>
		<path class="st0" d="M149.3,195.1c0,0.3-0.3,0.6-0.6,0.6s-0.6-0.3-0.6-0.6s0.3-0.6,0.6-0.6S149.3,194.8,149.3,195.1z"/>
	</g>
	<g>
		<path class="st0" d="M149.3,214.7c0,0.3-0.3,0.6-0.6,0.6s-0.6-0.3-0.6-0.6s0.3-0.6,0.6-0.6C149,214.1,149.3,214.4,149.3,214.7z"/>
	</g>
	<g>
		<g>
			<polygon class="st2" points="17,28.7 12.3,33.9 16.5,39.6 21.3,34.4 			"/>
		</g>
		<g>
			<polygon class="st2" points="149.7,193.5 145,198.7 149.2,204.4 154,199.2 			"/>
		</g>
		<g>
			<g>
				<g>
					<path class="st3" d="M14.7,25.5c-0.7-0.3-1.2-0.7-1.6-1.3c-0.4-0.6-0.6-1.2-0.6-2c0-0.9,0.3-1.7,0.8-2.2s1.1-0.9,1.7-1v-0.1
						l-0.2-0.1c-0.7-0.3-1.2-0.7-1.6-1.3c-0.4-0.6-0.5-1.2-0.5-1.9s0.2-1.3,0.6-1.8c0.4-0.5,1-1,1.6-1.3c0.7-0.3,1.3-0.5,2.1-0.5
						c0.9,0,1.6,0.2,2.2,0.5s1.1,0.7,1.4,1.2s0.5,1.1,0.5,1.6c0,0.7-0.2,1.3-0.7,1.8c-0.4,0.5-1,0.9-1.6,1.2v0.1l0.4,0.2
						c1.5,0.6,2.3,1.6,2.3,2.9c0,0.8-0.2,1.5-0.6,2.2s-0.9,1.2-1.6,1.6s-1.6,0.6-2.6,0.6C16.1,26,15.4,25.8,14.7,25.5z M18.8,24.9
						c0.5-0.3,0.8-0.7,1-1.1s0.3-0.8,0.3-1.2c0-0.7-0.2-1.3-0.5-1.6c-0.3-0.3-0.8-0.6-1.4-0.9l-2.6-1c-0.5,0.2-0.9,0.6-1.2,1
						c-0.3,0.5-0.4,1.2-0.4,2.1c0,1,0.3,1.8,0.9,2.3c0.6,0.5,1.4,0.7,2.2,0.7C17.8,25.3,18.4,25.2,18.8,24.9z M19.5,17.1
						c0.2-0.5,0.3-1,0.3-1.6c0-0.5-0.1-1-0.4-1.4s-0.6-0.8-1-1s-0.9-0.4-1.4-0.4c-0.8,0-1.5,0.2-2,0.7s-0.8,1.1-0.8,1.8
						c0,0.5,0.1,1,0.4,1.3c0.3,0.3,0.7,0.6,1.3,0.8l2.5,1C18.9,18,19.3,17.6,19.5,17.1z"/>
				</g>
			</g>
		</g>
		<g>
			<g>
				<g>
					<path class="st3" d="M151.5,208c0.7,0.3,1.2,0.7,1.6,1.3c0.4,0.6,0.6,1.2,0.6,2c0,0.9-0.3,1.7-0.8,2.2s-1.1,0.9-1.7,1v0.1
						l0.2,0.1c0.7,0.3,1.2,0.7,1.6,1.3c0.4,0.6,0.5,1.2,0.5,1.9s-0.2,1.3-0.6,1.8c-0.4,0.5-1,1-1.6,1.3c-0.7,0.3-1.3,0.5-2.1,0.5
						c-0.9,0-1.6-0.2-2.2-0.5c-0.6-0.3-1.1-0.7-1.4-1.2c-0.3-0.5-0.5-1.1-0.5-1.6c0-0.7,0.2-1.3,0.7-1.8c0.4-0.5,1-0.9,1.6-1.2v-0.1
						l-0.4-0.2c-1.5-0.6-2.3-1.6-2.3-2.9c0-0.8,0.2-1.5,0.6-2.2c0.4-0.7,0.9-1.2,1.6-1.6c0.7-0.4,1.6-0.6,2.6-0.6
						C150.1,207.5,150.8,207.7,151.5,208z M147.4,208.6c-0.5,0.3-0.8,0.7-1,1.1c-0.2,0.4-0.3,0.8-0.3,1.2c0,0.7,0.2,1.3,0.5,1.6
						s0.8,0.6,1.4,0.9l2.6,1c0.5-0.2,0.9-0.6,1.2-1c0.3-0.5,0.4-1.2,0.4-2.1c0-1-0.3-1.8-0.9-2.3c-0.6-0.5-1.4-0.7-2.2-0.7
						C148.4,208.2,147.9,208.3,147.4,208.6z M146.7,216.4c-0.2,0.5-0.3,1-0.3,1.6c0,0.5,0.1,1,0.4,1.4c0.3,0.4,0.6,0.8,1,1
						s0.9,0.4,1.4,0.4c0.8,0,1.5-0.2,2-0.7s0.8-1.1,0.8-1.8c0-0.5-0.1-1-0.4-1.3c-0.3-0.3-0.7-0.6-1.3-0.8l-2.5-1
						C147.3,215.5,146.9,215.9,146.7,216.4z"/>
				</g>
			</g>
		</g>
		<g>
			<polygon class="st2" points="50.9,23.9 37.6,40 50.9,56.4 64.5,40.2 			"/>
		</g>
		<g>
			<polygon class="st2" points="83.2,56.3 69.9,72.5 83.2,88.9 96.9,72.6 			"/>
		</g>
		<g>
			<polygon class="st2" points="83.2,140.8 69.9,156.9 83.2,173.3 96.9,157.1 			"/>
		</g>
		<g>
			<polygon class="st2" points="50.9,173.5 37.6,189.6 50.9,206 64.5,189.7 			"/>
		</g>
		<g>
			<polygon class="st2" points="50.9,98.7 37.6,114.8 50.9,131.2 64.5,114.9 			"/>
		</g>
		<g>
			<polygon class="st2" points="115.6,23.9 102.3,40 115.6,56.4 129.2,40.2 			"/>
		</g>
		<g>
			<polygon class="st2" points="115.6,173.5 102.3,189.6 115.6,206 129.2,189.7 			"/>
		</g>
		<g>
			<polygon class="st2" points="115.6,98.7 102.3,114.8 115.6,131.2 129.2,114.9 			"/>
		</g>
	</g>
</g>
</svg>
