<?xml version="1.0" encoding="utf-8"?>
<!-- Generator: Adobe Illustrator 27.6.1, SVG Export Plug-In . SVG Version: 6.00 Build 0)  -->
<svg version="1.1" id="Слой_1" xmlns="http://www.w3.org/2000/svg" xmlns:xlink="http://www.w3.org/1999/xlink" x="0px" y="0px"
	 viewBox="0 0 166.9 233.3" style="enable-background:new 0 0 166.9 233.3;" xml:space="preserve">
<style type="text/css">
	.st0{fill:#FFFFFF;}
	.st1{fill:#32A8E0;}
	.st2{fill:#BE3D2E;}
	.st3{fill:#CD1417;}
</style>
<g>
	<g>
		<g>
			<path class="st0" d="M160.7,233.1H6.2c-3.3,0-5.9-2.7-5.9-5.9V6.2c0-3.3,2.7-5.9,5.9-5.9h154.5c3.3,0,5.9,2.7,5.9,5.9v221
				C166.6,230.5,163.9,233.1,160.7,233.1z"/>
			<path class="st1" d="M160.7,233.2H6.2c-3.3,0-6.1-2.7-6.1-6.1V6.2c0-3.4,2.7-6.1,6.1-6.1h154.5c3.3,0,6.1,2.7,6.1,6.1v221
				C166.7,230.5,164,233.2,160.7,233.2z M6.2,0.3C3,0.3,0.4,2.9,0.4,6.1v221c0,3.2,2.6,5.8,5.8,5.8h154.5c3.2,0,5.8-2.6,5.8-5.8V6.2
				c0-3.2-2.6-5.8-5.8-5.8L6.2,0.3L6.2,0.3z"/>
		</g>
	</g>
	<g>
		<path class="st0" d="M149.3,18.6c0,0.3-0.3,0.6-0.6,0.6s-0.6-0.3-0.6-0.6c0-0.3,0.3-0.6,0.6-0.6C149.1,18,149.3,18.3,149.3,18.6z"
			/>
	</g>
	<g>
		<path class="st0" d="M122.2,18.6c0,0.3-0.3,0.6-0.6,0.6s-0.6-0.3-0.6-0.6c0-0.3,0.3-0.6,0.6-0.6S122.2,18.3,122.2,18.6z"/>
	</g>
	<g>
		<path class="st0" d="M97.2,18.6c0,0.3-0.3,0.6-0.6,0.6c-0.3,0-0.6-0.3-0.6-0.6c0-0.3,0.3-0.6,0.6-0.6C97,18,97.2,18.3,97.2,18.6z"
			/>
	</g>
	<g>
		<path class="st0" d="M72.2,18.8c0,0.3-0.3,0.6-0.6,0.6c-0.3,0-0.6-0.3-0.6-0.6c0-0.3,0.3-0.6,0.6-0.6S72.2,18.5,72.2,18.8z"/>
	</g>
	<g>
		<path class="st0" d="M149.3,39.7c0,0.3-0.3,0.6-0.6,0.6s-0.6-0.3-0.6-0.6s0.3-0.6,0.6-0.6C149.1,39.2,149.3,39.4,149.3,39.7z"/>
	</g>
	<g>
		<path class="st0" d="M149.3,59c0,0.3-0.3,0.6-0.6,0.6s-0.6-0.3-0.6-0.6s0.3-0.6,0.6-0.6C149.1,58.4,149.3,58.7,149.3,59z"/>
	</g>
	<g>
		<path class="st0" d="M149.3,79.2c0,0.3-0.3,0.6-0.6,0.6s-0.6-0.3-0.6-0.6c0-0.3,0.3-0.6,0.6-0.6C149.1,78.7,149.3,78.9,149.3,79.2
			z"/>
	</g>
	<g>
		<path class="st0" d="M149.3,92c0,0.3-0.3,0.6-0.6,0.6s-0.6-0.3-0.6-0.6c0-0.3,0.3-0.6,0.6-0.6C149.1,91.4,149.3,91.7,149.3,92z"/>
	</g>
	<g>
		<path class="st0" d="M149.3,104.8c0,0.3-0.3,0.6-0.6,0.6s-0.6-0.3-0.6-0.6c0-0.3,0.3-0.6,0.6-0.6
			C149.1,104.3,149.3,104.5,149.3,104.8z"/>
	</g>
	<g>
		<path class="st0" d="M19,19.1c0,0.3-0.3,0.6-0.6,0.6s-0.6-0.3-0.6-0.6c0-0.3,0.3-0.6,0.6-0.6S19,18.8,19,19.1z"/>
	</g>
	<g>
		<path class="st0" d="M46.5,18.8c0,0.3-0.3,0.6-0.6,0.6s-0.6-0.3-0.6-0.6c0-0.3,0.3-0.6,0.6-0.6S46.5,18.5,46.5,18.8z"/>
	</g>
	<g>
		<path class="st0" d="M19,39.3c0,0.3-0.3,0.6-0.6,0.6s-0.6-0.3-0.6-0.6s0.3-0.6,0.6-0.6S19,39,19,39.3z"/>
	</g>
	<g>
		<path class="st0" d="M19,59.1c0,0.3-0.3,0.6-0.6,0.6s-0.6-0.3-0.6-0.6s0.3-0.6,0.6-0.6S19,58.8,19,59.1z"/>
	</g>
	<g>
		<path class="st0" d="M19,79.1c0,0.3-0.3,0.6-0.6,0.6s-0.6-0.3-0.6-0.6s0.3-0.6,0.6-0.6S19,78.8,19,79.1z"/>
	</g>
	<g>
		<path class="st0" d="M19,92c0,0.3-0.3,0.6-0.6,0.6s-0.6-0.3-0.6-0.6c0-0.3,0.3-0.6,0.6-0.6S19,91.7,19,92z"/>
	</g>
	<g>
		<path class="st0" d="M19,105.4c0,0.3-0.3,0.6-0.6,0.6s-0.6-0.3-0.6-0.6c0-0.3,0.3-0.6,0.6-0.6S19,105.1,19,105.4z"/>
	</g>
	<g>
		<path class="st0" d="M19,118.3c0,0.3-0.3,0.6-0.6,0.6s-0.6-0.3-0.6-0.6c0-0.3,0.3-0.6,0.6-0.6S19,118,19,118.3z"/>
	</g>
	<g>
		<path class="st0" d="M19,131.3c0,0.3-0.3,0.6-0.6,0.6s-0.6-0.3-0.6-0.6s0.3-0.6,0.6-0.6S19,131,19,131.3z"/>
	</g>
	<g>
		<path class="st0" d="M19,144.7c0,0.3-0.3,0.6-0.6,0.6s-0.6-0.3-0.6-0.6s0.3-0.6,0.6-0.6S19,144.4,19,144.7z"/>
	</g>
	<g>
		<path class="st0" d="M19,158.1c0,0.3-0.3,0.6-0.6,0.6s-0.6-0.3-0.6-0.6s0.3-0.6,0.6-0.6S19,157.8,19,158.1z"/>
	</g>
	<g>
		<path class="st0" d="M19,170.1c0,0.3-0.3,0.6-0.6,0.6s-0.6-0.3-0.6-0.6s0.3-0.6,0.6-0.6S19,169.8,19,170.1z"/>
	</g>
	<g>
		<path class="st0" d="M19,183.5c0,0.3-0.3,0.6-0.6,0.6s-0.6-0.3-0.6-0.6s0.3-0.6,0.6-0.6S19,183.2,19,183.5z"/>
	</g>
	<g>
		<path class="st0" d="M19,196.5c0,0.3-0.3,0.6-0.6,0.6s-0.6-0.3-0.6-0.6s0.3-0.6,0.6-0.6S19,196.2,19,196.5z"/>
	</g>
	<g>
		<path class="st0" d="M19.3,215.7c0,0.3-0.3,0.6-0.6,0.6c-0.3,0-0.6-0.3-0.6-0.6s0.3-0.6,0.6-0.6C19,215.2,19.3,215.4,19.3,215.7z"
			/>
	</g>
	<g>
		<path class="st0" d="M39.8,216.3c0,0.3-0.3,0.6-0.6,0.6s-0.6-0.3-0.6-0.6s0.3-0.6,0.6-0.6C39.5,215.7,39.8,216,39.8,216.3z"/>
	</g>
	<g>
		<path class="st0" d="M66.2,216.3c0,0.3-0.3,0.6-0.6,0.6c-0.3,0-0.6-0.3-0.6-0.6s0.3-0.6,0.6-0.6C66,215.7,66.2,216,66.2,216.3z"/>
	</g>
	<g>
		<path class="st0" d="M92.6,216.3c0,0.3-0.3,0.6-0.6,0.6s-0.6-0.3-0.6-0.6s0.3-0.6,0.6-0.6S92.6,216,92.6,216.3z"/>
	</g>
	<g>
		<path class="st0" d="M118.4,216.3c0,0.3-0.3,0.6-0.6,0.6s-0.6-0.3-0.6-0.6s0.3-0.6,0.6-0.6S118.4,216,118.4,216.3z"/>
	</g>
	<g>
		<path class="st0" d="M149.3,118c0,0.3-0.3,0.6-0.6,0.6s-0.6-0.3-0.6-0.6s0.3-0.6,0.6-0.6C149.1,117.5,149.3,117.7,149.3,118z"/>
	</g>
	<g>
		<path class="st0" d="M149.3,130.4c0,0.3-0.3,0.6-0.6,0.6s-0.6-0.3-0.6-0.6s0.3-0.6,0.6-0.6C149.1,129.8,149.3,130,149.3,130.4z"/>
	</g>
	<g>
		<path class="st0" d="M149.3,143.6c0,0.3-0.3,0.6-0.6,0.6s-0.6-0.3-0.6-0.6s0.3-0.6,0.6-0.6C149.1,143.1,149.3,143.3,149.3,143.6z"
			/>
	</g>
	<g>
		<path class="st0" d="M149.3,156.8c0,0.3-0.3,0.6-0.6,0.6s-0.6-0.3-0.6-0.6s0.3-0.6,0.6-0.6C149.1,156.2,149.3,156.4,149.3,156.8z"
			/>
	</g>
	<g>
		<path class="st0" d="M149.3,169.5c0,0.3-0.3,0.6-0.6,0.6s-0.6-0.3-0.6-0.6s0.3-0.6,0.6-0.6C149.1,168.9,149.3,169.2,149.3,169.5z"
			/>
	</g>
	<g>
		<path class="st0" d="M149.3,182.1c0,0.3-0.3,0.6-0.6,0.6s-0.6-0.3-0.6-0.6s0.3-0.6,0.6-0.6C149.1,181.5,149.3,181.8,149.3,182.1z"
			/>
	</g>
	<g>
		<path class="st0" d="M149.3,194.9c0,0.3-0.3,0.6-0.6,0.6s-0.6-0.3-0.6-0.6s0.3-0.6,0.6-0.6C149.1,194.4,149.3,194.6,149.3,194.9z"
			/>
	</g>
	<g>
		<path class="st0" d="M149.3,214.5c0,0.3-0.3,0.6-0.6,0.6s-0.6-0.3-0.6-0.6s0.3-0.6,0.6-0.6C149.1,213.9,149.3,214.2,149.3,214.5z"
			/>
	</g>
	<g>
		<g>
			<g>
				<g>
					<path class="st2" d="M15.1,28.8c-0.7-0.3-1.2-0.7-1.6-1.3c-0.4-0.6-0.6-1.2-0.6-2c0-0.9,0.3-1.7,0.8-2.2s1.1-0.9,1.7-1v-0.1
						l-0.1-0.1c-0.7-0.3-1.2-0.7-1.6-1.3c-0.4-0.6-0.5-1.2-0.5-1.9c0-0.7,0.2-1.3,0.6-1.8c0.4-0.6,1-1,1.6-1.3
						c0.7-0.3,1.3-0.5,2.1-0.5c0.9,0,1.6,0.2,2.2,0.5s1.1,0.7,1.4,1.2s0.5,1.1,0.5,1.6c0,0.7-0.2,1.3-0.7,1.8
						c-0.4,0.5-1,0.9-1.6,1.2v0.1l0.4,0.2c1.5,0.6,2.3,1.6,2.3,2.9c0,0.8-0.2,1.5-0.6,2.2s-0.9,1.2-1.6,1.6s-1.6,0.6-2.6,0.6
						C16.5,29.2,15.8,29.1,15.1,28.8z M19.2,28.2c0.5-0.3,0.8-0.7,1-1.1s0.3-0.8,0.3-1.2c0-0.7-0.2-1.3-0.5-1.6
						c-0.3-0.3-0.8-0.6-1.4-0.9l-2.6-1c-0.5,0.2-0.9,0.6-1.2,1c-0.3,0.5-0.4,1.2-0.4,2.1c0,1,0.3,1.8,0.9,2.3s1.4,0.7,2.2,0.7
						C18.2,28.6,18.8,28.5,19.2,28.2z M19.9,20.4c0.2-0.5,0.3-1,0.3-1.6c0-0.5-0.1-1-0.4-1.4s-0.6-0.8-1-1S17.9,16,17.4,16
						c-0.8,0-1.5,0.2-2,0.7s-0.8,1.1-0.8,1.8c0,0.5,0.1,1,0.4,1.3c0.3,0.3,0.7,0.6,1.3,0.8l2.5,1C19.3,21.2,19.7,20.8,19.9,20.4z"/>
				</g>
			</g>
		</g>
		<g>
			<g>
				<g>
					<path class="st2" d="M152,211.3c0.7,0.3,1.2,0.7,1.6,1.3c0.4,0.6,0.6,1.2,0.6,2c0,0.9-0.3,1.7-0.8,2.2s-1.1,0.9-1.7,1v0.1
						l0.2,0.1c0.7,0.3,1.2,0.7,1.6,1.3c0.4,0.6,0.5,1.2,0.5,1.9s-0.2,1.3-0.6,1.8c-0.4,0.5-1,1-1.6,1.3c-0.7,0.3-1.3,0.5-2.1,0.5
						c-0.9,0-1.6-0.2-2.2-0.5c-0.6-0.3-1.1-0.7-1.4-1.2c-0.3-0.5-0.5-1.1-0.5-1.6c0-0.7,0.2-1.3,0.7-1.8c0.4-0.5,1-0.9,1.6-1.2v-0.1
						l-0.4-0.2c-1.5-0.6-2.3-1.6-2.3-2.9c0-0.8,0.2-1.5,0.6-2.2c0.4-0.7,0.9-1.2,1.6-1.6c0.7-0.4,1.6-0.6,2.6-0.6
						C150.6,210.8,151.3,211,152,211.3z M147.9,211.9c-0.5,0.3-0.8,0.7-1,1.1c-0.2,0.4-0.3,0.8-0.3,1.2c0,0.7,0.2,1.3,0.5,1.6
						s0.8,0.6,1.4,0.9l2.6,1c0.5-0.2,0.9-0.6,1.2-1c0.3-0.5,0.4-1.2,0.4-2.1c0-1-0.3-1.8-0.9-2.3c-0.6-0.5-1.4-0.7-2.2-0.7
						C148.9,211.5,148.4,211.6,147.9,211.9z M147.2,219.7c-0.2,0.5-0.3,1-0.3,1.6c0,0.5,0.1,1,0.4,1.4c0.3,0.4,0.6,0.8,1,1
						s0.9,0.4,1.4,0.4c0.8,0,1.5-0.2,2-0.7s0.8-1.1,0.8-1.8c0-0.5-0.1-1-0.4-1.3c-0.3-0.3-0.7-0.6-1.3-0.8l-2.5-1
						C147.8,218.9,147.4,219.2,147.2,219.7z"/>
				</g>
			</g>
		</g>
		<g>
			<path class="st3" d="M20,34.8c-1.9,0-2.3,1.4-2.4,2.1c-0.1-0.7-0.5-2.2-2.4-2.1c-2.5,0.1-2.8,2.9-2,4.3c0.9,1.4,1.3,1.9,2.2,2.8
				c0.8,0.9,1.8,1.8,2.2,2.4c0,0,0,0.1,0,0l0,0c0.4-0.6,1.3-1.5,2.2-2.4c0.9-0.9,1.3-1.4,2.2-2.8C22.8,37.6,22.5,34.8,20,34.8z"/>
		</g>
		<g>
			<path class="st3" d="M151.2,206.9c-1.9,0-2.3-1.4-2.4-2.1c-0.1,0.7-0.5,2.2-2.4,2.1c-2.5-0.1-2.8-2.9-2-4.3
				c0.9-1.4,1.3-1.9,2.2-2.8c0.8-0.9,1.8-1.8,2.2-2.4v-0.1v0.1c0.4,0.6,1.3,1.5,2.2,2.4s1.3,1.4,2.2,2.8
				C154,204.1,153.7,206.9,151.2,206.9z"/>
		</g>
		<g>
			<path class="st3" d="M64.8,28.8c-5.5-0.1-6.7,4.1-7,6.1c-0.3-2-1.6-6.2-7-6.1c-7.2,0.2-8.2,8.3-5.6,12.3c2.5,4.1,3.8,5.4,6.3,8
				c2.4,2.5,5.2,5.2,6.3,6.9c0,0,0.1,0.2,0.1,0.1c0,0.1,0.1-0.1,0.1-0.1c1-1.7,3.9-4.5,6.3-6.9c2.5-2.6,3.8-3.9,6.3-8
				C72.9,37,72,28.9,64.8,28.8z"/>
		</g>
		<g>
			<path class="st3" d="M64.8,104.5c-5.5-0.1-6.7,4.1-7,6.1c-0.3-2-1.6-6.2-7-6.1c-7.2,0.2-8.2,8.3-5.6,12.3c2.5,4.1,3.8,5.4,6.3,8
				c2.4,2.5,5.2,5.2,6.3,6.9c0,0,0.1,0.2,0.1,0.1c0,0.1,0.1-0.1,0.1-0.1c1-1.7,3.9-4.5,6.3-6.9c2.5-2.6,3.8-3.9,6.3-8
				C72.9,112.8,72,104.7,64.8,104.5z"/>
		</g>
		<g>
			<path class="st3" d="M64.8,207.7c-5.5,0.1-6.7-4.1-7-6.1c-0.3,2-1.6,6.2-7,6.1c-7.2-0.2-8.2-8.3-5.6-12.3c2.5-4.1,3.8-5.4,6.3-8
				c2.4-2.5,5.2-5.2,6.3-6.9c0,0,0.1-0.2,0.1-0.1c0-0.1,0.1,0.1,0.1,0.1c1,1.7,3.9,4.5,6.3,6.9c2.5,2.6,3.8,3.9,6.3,8
				C72.9,199.5,72,207.6,64.8,207.7z"/>
		</g>
		<g>
			<path class="st3" d="M117.5,28.8c-5.5-0.1-6.7,4.1-7,6.1c-0.3-2-1.6-6.2-7-6.1c-7.2,0.2-8.2,8.3-5.6,12.3s3.8,5.4,6.3,8
				c2.4,2.5,5.2,5.2,6.3,6.9c0,0,0.1,0.2,0.1,0.1c0,0.1,0.1-0.1,0.1-0.1c1-1.7,3.9-4.5,6.3-6.9c2.5-2.6,3.8-3.9,6.3-8
				S124.7,28.9,117.5,28.8z"/>
		</g>
		<g>
			<path class="st3" d="M117.5,104.5c-5.5-0.1-6.7,4.1-7,6.1c-0.3-2-1.6-6.2-7-6.1c-7.2,0.2-8.2,8.3-5.6,12.3s3.8,5.4,6.3,8
				c2.4,2.5,5.2,5.2,6.3,6.9c0,0,0.1,0.2,0.1,0.1c0,0.1,0.1-0.1,0.1-0.1c1-1.7,3.9-4.5,6.3-6.9c2.5-2.6,3.8-3.9,6.3-8
				S124.7,104.7,117.5,104.5z"/>
		</g>
		<g>
			<path class="st3" d="M117.5,207.7c-5.5,0.1-6.7-4.1-7-6.1c-0.3,2-1.6,6.2-7,6.1c-7.2-0.2-8.2-8.3-5.6-12.3s3.8-5.4,6.3-8
				c2.4-2.5,5.2-5.2,6.3-6.9c0,0,0.1-0.2,0.1-0.1c0-0.1,0.1,0.1,0.1,0.1c1,1.7,3.9,4.5,6.3,6.9c2.5,2.6,3.8,3.9,6.3,8
				S124.7,207.6,117.5,207.7z"/>
		</g>
		<g>
			<path class="st3" d="M90.7,67.6c-5.5-0.1-6.7,4.1-7,6.1c-0.3-2-1.6-6.2-7-6.1c-7.2,0.2-8.2,8.3-5.6,12.3c2.5,4.1,3.8,5.4,6.3,8
				c2.4,2.5,5.2,5.2,6.3,6.9c0,0,0.1,0.2,0.1,0.1c0,0.1,0.1-0.1,0.1-0.1c1-1.7,3.9-4.5,6.3-6.9c2.5-2.6,3.8-3.9,6.3-8
				C98.8,75.8,97.9,67.7,90.7,67.6z"/>
		</g>
		<g>
			<path class="st3" d="M90.7,168c-5.5,0.1-6.7-4.1-7-6.1c-0.3,2-1.6,6.2-7,6.1c-7.2-0.2-8.2-8.3-5.6-12.3c2.5-4.1,3.8-5.4,6.3-8
				c2.4-2.5,5.2-5.2,6.3-6.9c0,0,0.1-0.2,0.1-0.1c0-0.1,0.1,0.1,0.1,0.1c1,1.7,3.9,4.5,6.3,6.9c2.5,2.6,3.8,3.9,6.3,8
				C98.8,159.7,97.9,167.8,90.7,168z"/>
		</g>
	</g>
</g>
</svg>
