<?xml version="1.0" encoding="utf-8"?>
<!-- Generator: Adobe Illustrator 27.6.1, SVG Export Plug-In . SVG Version: 6.00 Build 0)  -->
<svg version="1.1" id="Слой_1" xmlns="http://www.w3.org/2000/svg" xmlns:xlink="http://www.w3.org/1999/xlink" x="0px" y="0px"
	 viewBox="0 0 167.1 233.7" style="enable-background:new 0 0 167.1 233.7;" xml:space="preserve">
<style type="text/css">
	.st0{fill:#FFFFFF;}
	.st1{fill:#2CA8DF;}
	.st2{fill:#0D0D0D;}
</style>
<g>
	<g>
		<g>
			<path class="st0" d="M160.8,233.4H6.3c-3.3,0-5.9-2.7-5.9-5.9V6.4c0-3.3,2.7-5.9,5.9-5.9h154.5c3.3,0,5.9,2.7,5.9,5.9v221
				C166.7,230.7,164.1,233.4,160.8,233.4z"/>
			<path class="st1" d="M160.8,233.5H6.3c-3.3,0-6.1-2.7-6.1-6.1V6.4c0-3.3,2.7-6.1,6.1-6.1h154.5c3.3,0,6.1,2.7,6.1,6.1v221
				C166.8,230.8,164.1,233.5,160.8,233.5z M6.3,0.6c-3.2,0-5.8,2.6-5.8,5.8v221c0,3.2,2.6,5.8,5.8,5.8h154.5c3.2,0,5.8-2.6,5.8-5.8
				V6.4c0-3.2-2.6-5.8-5.8-5.8H6.3z"/>
		</g>
	</g>
	<g>
		<path class="st0" d="M149.5,18.9c0,0.3-0.3,0.6-0.6,0.6c-0.3,0-0.6-0.3-0.6-0.6s0.3-0.6,0.6-0.6C149.2,18.3,149.5,18.6,149.5,18.9
			z"/>
	</g>
	<g>
		<path class="st0" d="M122.3,18.9c0,0.3-0.3,0.6-0.6,0.6c-0.3,0-0.6-0.3-0.6-0.6s0.3-0.6,0.6-0.6C122.1,18.3,122.3,18.6,122.3,18.9
			z"/>
	</g>
	<g>
		<path class="st0" d="M97.4,18.9c0,0.3-0.3,0.6-0.6,0.6s-0.6-0.3-0.6-0.6s0.3-0.6,0.6-0.6S97.4,18.6,97.4,18.9z"/>
	</g>
	<g>
		<path class="st0" d="M72.3,19.1c0,0.3-0.3,0.6-0.6,0.6s-0.6-0.3-0.6-0.6s0.3-0.6,0.6-0.6S72.3,18.7,72.3,19.1z"/>
	</g>
	<g>
		<path class="st0" d="M149.5,40c0,0.3-0.3,0.6-0.6,0.6c-0.3,0-0.6-0.3-0.6-0.6s0.3-0.6,0.6-0.6C149.2,39.4,149.5,39.7,149.5,40z"/>
	</g>
	<g>
		<path class="st0" d="M149.5,59.3c0,0.3-0.3,0.6-0.6,0.6c-0.3,0-0.6-0.3-0.6-0.6c0-0.3,0.3-0.6,0.6-0.6
			C149.2,58.7,149.5,59,149.5,59.3z"/>
	</g>
	<g>
		<path class="st0" d="M149.5,79.5c0,0.3-0.3,0.6-0.6,0.6c-0.3,0-0.6-0.3-0.6-0.6s0.3-0.6,0.6-0.6C149.2,79,149.5,79.2,149.5,79.5z"
			/>
	</g>
	<g>
		<path class="st0" d="M149.5,92.3c0,0.3-0.3,0.6-0.6,0.6c-0.3,0-0.6-0.3-0.6-0.6c0-0.3,0.3-0.6,0.6-0.6
			C149.2,91.7,149.5,92,149.5,92.3z"/>
	</g>
	<g>
		<path class="st0" d="M149.5,105.1c0,0.3-0.3,0.6-0.6,0.6c-0.3,0-0.6-0.3-0.6-0.6s0.3-0.6,0.6-0.6
			C149.2,104.6,149.5,104.8,149.5,105.1z"/>
	</g>
	<g>
		<path class="st0" d="M19.2,19.4c0,0.3-0.3,0.6-0.6,0.6c-0.3,0-0.6-0.3-0.6-0.6c0-0.3,0.3-0.6,0.6-0.6
			C18.9,18.9,19.2,19.1,19.2,19.4z"/>
	</g>
	<g>
		<path class="st0" d="M46.6,19.1c0,0.3-0.3,0.6-0.6,0.6c-0.3,0-0.6-0.3-0.6-0.6s0.3-0.6,0.6-0.6C46.3,18.5,46.6,18.7,46.6,19.1z"/>
	</g>
	<g>
		<path class="st0" d="M19.2,39.6c0,0.3-0.3,0.6-0.6,0.6c-0.3,0-0.6-0.3-0.6-0.6c0-0.3,0.3-0.6,0.6-0.6C18.9,39,19.2,39.3,19.2,39.6
			z"/>
	</g>
	<g>
		<path class="st0" d="M19.2,59.4c0,0.3-0.3,0.6-0.6,0.6c-0.3,0-0.6-0.3-0.6-0.6c0-0.3,0.3-0.6,0.6-0.6
			C18.9,58.9,19.2,59.1,19.2,59.4z"/>
	</g>
	<g>
		<path class="st0" d="M19.2,79.4c0,0.3-0.3,0.6-0.6,0.6c-0.3,0-0.6-0.3-0.6-0.6s0.3-0.6,0.6-0.6C18.9,78.8,19.2,79.1,19.2,79.4z"/>
	</g>
	<g>
		<path class="st0" d="M19.2,92.3c0,0.3-0.3,0.6-0.6,0.6c-0.3,0-0.6-0.3-0.6-0.6c0-0.3,0.3-0.6,0.6-0.6C18.9,91.7,19.2,92,19.2,92.3
			z"/>
	</g>
	<g>
		<path class="st0" d="M19.2,105.7c0,0.3-0.3,0.6-0.6,0.6c-0.3,0-0.6-0.3-0.6-0.6c0-0.3,0.3-0.6,0.6-0.6
			C18.9,105.1,19.2,105.4,19.2,105.7z"/>
	</g>
	<g>
		<path class="st0" d="M19.2,118.6c0,0.3-0.3,0.6-0.6,0.6c-0.3,0-0.6-0.3-0.6-0.6s0.3-0.6,0.6-0.6C18.9,118.1,19.2,118.3,19.2,118.6
			z"/>
	</g>
	<g>
		<path class="st0" d="M19.2,131.6c0,0.3-0.3,0.6-0.6,0.6c-0.3,0-0.6-0.3-0.6-0.6c0-0.3,0.3-0.6,0.6-0.6
			C18.9,131,19.2,131.2,19.2,131.6z"/>
	</g>
	<g>
		<path class="st0" d="M19.2,145c0,0.3-0.3,0.6-0.6,0.6c-0.3,0-0.6-0.3-0.6-0.6c0-0.3,0.3-0.6,0.6-0.6
			C18.9,144.4,19.2,144.6,19.2,145z"/>
	</g>
	<g>
		<path class="st0" d="M19.2,158.4c0,0.3-0.3,0.6-0.6,0.6c-0.3,0-0.6-0.3-0.6-0.6c0-0.3,0.3-0.6,0.6-0.6
			C18.9,157.8,19.2,158.1,19.2,158.4z"/>
	</g>
	<g>
		<path class="st0" d="M19.2,170.4c0,0.3-0.3,0.6-0.6,0.6c-0.3,0-0.6-0.3-0.6-0.6c0-0.3,0.3-0.6,0.6-0.6
			C18.9,169.8,19.2,170.1,19.2,170.4z"/>
	</g>
	<g>
		<path class="st0" d="M19.2,183.8c0,0.3-0.3,0.6-0.6,0.6c-0.3,0-0.6-0.3-0.6-0.6c0-0.3,0.3-0.6,0.6-0.6
			C18.9,183.2,19.2,183.5,19.2,183.8z"/>
	</g>
	<g>
		<path class="st0" d="M19.2,196.8c0,0.3-0.3,0.6-0.6,0.6c-0.3,0-0.6-0.3-0.6-0.6c0-0.3,0.3-0.6,0.6-0.6
			C18.9,196.3,19.2,196.5,19.2,196.8z"/>
	</g>
	<g>
		<path class="st0" d="M19.4,216c0,0.3-0.3,0.6-0.6,0.6c-0.3,0-0.6-0.3-0.6-0.6c0-0.3,0.3-0.6,0.6-0.6
			C19.1,215.4,19.4,215.7,19.4,216z"/>
	</g>
	<g>
		<path class="st0" d="M39.9,216.6c0,0.3-0.3,0.6-0.6,0.6c-0.3,0-0.6-0.3-0.6-0.6c0-0.3,0.3-0.6,0.6-0.6
			C39.7,216,39.9,216.3,39.9,216.6z"/>
	</g>
	<g>
		<path class="st0" d="M66.4,216.6c0,0.3-0.3,0.6-0.6,0.6c-0.3,0-0.6-0.3-0.6-0.6c0-0.3,0.3-0.6,0.6-0.6
			C66.1,216,66.4,216.3,66.4,216.6z"/>
	</g>
	<g>
		<path class="st0" d="M92.8,216.6c0,0.3-0.3,0.6-0.6,0.6c-0.3,0-0.6-0.3-0.6-0.6c0-0.3,0.3-0.6,0.6-0.6
			C92.5,216,92.8,216.3,92.8,216.6z"/>
	</g>
	<g>
		<path class="st0" d="M118.5,216.6c0,0.3-0.3,0.6-0.6,0.6c-0.3,0-0.6-0.3-0.6-0.6c0-0.3,0.3-0.6,0.6-0.6
			C118.2,216,118.5,216.3,118.5,216.6z"/>
	</g>
	<g>
		<path class="st0" d="M149.5,118.3c0,0.3-0.3,0.6-0.6,0.6c-0.3,0-0.6-0.3-0.6-0.6s0.3-0.6,0.6-0.6
			C149.2,117.8,149.5,118,149.5,118.3z"/>
	</g>
	<g>
		<path class="st0" d="M149.5,130.7c0,0.3-0.3,0.6-0.6,0.6c-0.3,0-0.6-0.3-0.6-0.6c0-0.3,0.3-0.6,0.6-0.6
			C149.2,130.1,149.5,130.3,149.5,130.7z"/>
	</g>
	<g>
		<path class="st0" d="M149.5,143.9c0,0.3-0.3,0.6-0.6,0.6c-0.3,0-0.6-0.3-0.6-0.6c0-0.3,0.3-0.6,0.6-0.6
			C149.2,143.4,149.5,143.6,149.5,143.9z"/>
	</g>
	<g>
		<path class="st0" d="M149.5,157c0,0.3-0.3,0.6-0.6,0.6c-0.3,0-0.6-0.3-0.6-0.6c0-0.3,0.3-0.6,0.6-0.6
			C149.2,156.5,149.5,156.7,149.5,157z"/>
	</g>
	<g>
		<path class="st0" d="M149.5,169.8c0,0.3-0.3,0.6-0.6,0.6c-0.3,0-0.6-0.3-0.6-0.6s0.3-0.6,0.6-0.6
			C149.2,169.2,149.5,169.5,149.5,169.8z"/>
	</g>
	<g>
		<path class="st0" d="M149.5,182.4c0,0.3-0.3,0.6-0.6,0.6c-0.3,0-0.6-0.3-0.6-0.6c0-0.3,0.3-0.6,0.6-0.6
			C149.2,181.8,149.5,182.1,149.5,182.4z"/>
	</g>
	<g>
		<path class="st0" d="M149.5,195.2c0,0.3-0.3,0.6-0.6,0.6c-0.3,0-0.6-0.3-0.6-0.6c0-0.3,0.3-0.6,0.6-0.6
			C149.2,194.6,149.5,194.9,149.5,195.2z"/>
	</g>
	<g>
		<path class="st0" d="M149.5,214.8c0,0.3-0.3,0.6-0.6,0.6c-0.3,0-0.6-0.3-0.6-0.6c0-0.3,0.3-0.6,0.6-0.6
			C149.2,214.2,149.5,214.5,149.5,214.8z"/>
	</g>
	<g>
		<g>
			<g>
				<g>
					<path d="M15.6,23.2c-0.7-0.3-1.2-0.7-1.6-1.3c-0.4-0.6-0.6-1.2-0.6-2c0-0.9,0.3-1.7,0.8-2.2c0.5-0.5,1.1-0.9,1.7-1v-0.1
						l-0.2-0.1c-0.7-0.3-1.2-0.7-1.6-1.3c-0.4-0.6-0.5-1.2-0.5-1.9c0-0.7,0.2-1.3,0.6-1.8c0.4-0.5,1-1,1.6-1.3
						c0.7-0.3,1.3-0.5,2.1-0.5c0.9,0,1.6,0.2,2.2,0.5c0.6,0.3,1.1,0.7,1.4,1.2c0.3,0.5,0.5,1.1,0.5,1.6c0,0.7-0.2,1.3-0.7,1.8
						c-0.4,0.5-1,0.9-1.6,1.2v0.1l0.4,0.2c1.5,0.6,2.3,1.6,2.3,2.9c0,0.8-0.2,1.5-0.6,2.2c-0.4,0.7-0.9,1.2-1.6,1.6
						c-0.7,0.4-1.6,0.6-2.6,0.6C17,23.6,16.3,23.5,15.6,23.2z M19.7,22.6c0.5-0.3,0.8-0.7,1-1.1c0.2-0.4,0.3-0.8,0.3-1.2
						c0-0.7-0.2-1.3-0.5-1.6c-0.3-0.3-0.8-0.6-1.4-0.9l-2.6-1c-0.5,0.2-0.9,0.6-1.2,1c-0.3,0.5-0.4,1.2-0.4,2.1c0,1,0.3,1.8,0.9,2.3
						c0.6,0.5,1.4,0.7,2.2,0.7C18.7,23,19.3,22.9,19.7,22.6z M20.4,14.8c0.2-0.5,0.3-1,0.3-1.6c0-0.5-0.1-1-0.4-1.4
						c-0.3-0.4-0.6-0.8-1-1c-0.4-0.2-0.9-0.4-1.4-0.4c-0.8,0-1.5,0.2-2,0.7c-0.5,0.5-0.8,1.1-0.8,1.8c0,0.5,0.1,1,0.4,1.3
						c0.3,0.3,0.7,0.6,1.3,0.8l2.5,1C19.8,15.6,20.2,15.2,20.4,14.8z"/>
				</g>
			</g>
		</g>
		<g>
			<g>
				<g>
					<path d="M152.5,205.7c0.7,0.3,1.2,0.7,1.6,1.3c0.4,0.6,0.6,1.2,0.6,2c0,0.9-0.3,1.7-0.8,2.2s-1.1,0.9-1.7,1v0.1l0.2,0.1
						c0.7,0.3,1.2,0.7,1.6,1.3c0.4,0.6,0.5,1.2,0.5,1.9c0,0.7-0.2,1.3-0.6,1.8c-0.4,0.5-1,1-1.6,1.3c-0.7,0.3-1.3,0.5-2.1,0.5
						c-0.9,0-1.6-0.2-2.2-0.5c-0.6-0.3-1.1-0.7-1.4-1.2c-0.3-0.5-0.5-1.1-0.5-1.6c0-0.7,0.2-1.3,0.7-1.8c0.4-0.5,1-0.9,1.6-1.2v-0.1
						l-0.4-0.2c-1.5-0.6-2.3-1.6-2.3-2.9c0-0.8,0.2-1.5,0.6-2.2c0.4-0.7,0.9-1.2,1.6-1.6c0.7-0.4,1.6-0.6,2.6-0.6
						C151.1,205.3,151.8,205.4,152.5,205.7z M148.4,206.3c-0.5,0.3-0.8,0.7-1,1.1c-0.2,0.4-0.3,0.8-0.3,1.2c0,0.7,0.2,1.3,0.5,1.6
						c0.3,0.3,0.8,0.6,1.4,0.9l2.6,1c0.5-0.2,0.9-0.6,1.2-1c0.3-0.5,0.4-1.2,0.4-2.1c0-1-0.3-1.8-0.9-2.3c-0.6-0.5-1.4-0.7-2.2-0.7
						C149.4,205.9,148.9,206,148.4,206.3z M147.7,214.1c-0.2,0.5-0.3,1-0.3,1.6c0,0.5,0.1,1,0.4,1.4c0.3,0.4,0.6,0.8,1,1
						c0.4,0.2,0.9,0.4,1.4,0.4c0.8,0,1.5-0.2,2-0.7c0.5-0.5,0.8-1.1,0.8-1.8c0-0.5-0.1-1-0.4-1.3c-0.3-0.3-0.7-0.6-1.3-0.8l-2.5-1
						C148.3,213.3,147.9,213.7,147.7,214.1z"/>
				</g>
			</g>
		</g>
		<g>
			<path class="st2" d="M96.1,73.6c-3.7-4-7.9-7.9-9.7-10c-1.3-1.5-2.3-2.7-2.7-3.2v-0.3c0,0,0,0-0.1,0.1c-0.1-0.1-0.1-0.1-0.1-0.1
				v0.3c-0.4,0.5-1.3,1.7-2.7,3.2c-1.8,2.1-6.1,6-9.7,10c-3.7,4-4,8-3.3,11.3c0.7,3.3,4.2,6.5,9.6,5.8c1.7-0.2,3-1,3.9-2.1
				c-0.6,4.7-3.2,7.2-3.2,7.2h10.6c-1.9-2.2-2.6-5.2-2.9-7.1c0.9,1,2.2,1.8,3.9,2c5.5,0.7,8.9-2.4,9.6-5.8
				C100,81.6,99.7,77.6,96.1,73.6z"/>
		</g>
		<g>
			<path class="st2" d="M66.5,35.6c-3.7-4-7.9-7.9-9.7-10c-1.3-1.5-2.3-2.7-2.7-3.2v-0.3c0,0,0,0-0.1,0.1c-0.1-0.1-0.1-0.1-0.1-0.1
				v0.3c-0.4,0.5-1.3,1.7-2.7,3.2c-1.8,2.1-6.1,6-9.7,10c-3.7,4-4,8-3.3,11.3c0.7,3.3,4.2,6.5,9.6,5.8c1.7-0.2,3-1,3.9-2.1
				c-0.6,4.7-3.2,7.2-3.2,7.2h10.6c-1.9-2.2-2.6-5.2-2.9-7.1c0.9,1,2.2,1.8,3.9,2c5.5,0.7,8.9-2.4,9.6-5.8
				C70.4,43.6,70.2,39.6,66.5,35.6z"/>
		</g>
		<g>
			<path class="st2" d="M66.5,112.1c-3.7-4-7.9-7.9-9.7-10c-1.3-1.5-2.3-2.7-2.7-3.2v-0.3c0,0,0,0-0.1,0.1c-0.1-0.1-0.1-0.1-0.1-0.1
				V99c-0.4,0.5-1.3,1.7-2.7,3.2c-1.8,2.1-6.1,6-9.7,10c-3.7,4-4,8-3.3,11.3c0.7,3.3,4.2,6.5,9.6,5.8c1.7-0.2,3-1,3.9-2.1
				c-0.6,4.7-3.2,7.2-3.2,7.2h10.6c-1.9-2.2-2.6-5.2-2.9-7.1c0.9,1,2.2,1.8,3.9,2c5.5,0.7,8.9-2.4,9.6-5.8
				C70.4,120.2,70.2,116.1,66.5,112.1z"/>
		</g>
		<g>
			<path class="st2" d="M66.5,195c-3.7,4-7.9,7.9-9.7,10c-1.3,1.5-2.3,2.7-2.7,3.2v0.3c0,0,0,0-0.1-0.1c-0.1,0.1-0.1,0.1-0.1,0.1
				v-0.3c-0.4-0.5-1.3-1.7-2.7-3.2c-1.8-2.1-6.1-6-9.7-10c-3.7-4-4-8-3.3-11.3c0.7-3.3,4.2-6.5,9.6-5.8c1.7,0.2,3,1,3.9,2.1
				c-0.6-4.7-3.2-7.2-3.2-7.2h10.6c-1.9,2.2-2.6,5.2-2.9,7.1c0.9-1,2.2-1.8,3.9-2c5.5-0.7,8.9,2.4,9.6,5.8
				C70.4,187,70.2,191,66.5,195z"/>
		</g>
		<g>
			<path class="st2" d="M126.5,35.6c-3.7-4-7.9-7.9-9.7-10c-1.3-1.5-2.3-2.7-2.7-3.2v-0.3c0,0,0,0-0.1,0.1c-0.1-0.1-0.1-0.1-0.1-0.1
				v0.3c-0.4,0.5-1.3,1.7-2.7,3.2c-1.8,2.1-6.1,6-9.7,10s-4,8-3.3,11.3c0.7,3.3,4.2,6.5,9.6,5.8c1.7-0.2,3-1,3.9-2.1
				c-0.6,4.7-3.2,7.2-3.2,7.2h10.6c-1.9-2.2-2.6-5.2-2.9-7.1c0.9,1,2.2,1.8,3.9,2c5.5,0.7,8.9-2.4,9.6-5.8
				C130.5,43.6,130.2,39.6,126.5,35.6z"/>
		</g>
		<g>
			<path class="st2" d="M126.5,112.1c-3.7-4-7.9-7.9-9.7-10c-1.3-1.5-2.3-2.7-2.7-3.2v-0.3c0,0,0,0-0.1,0.1
				c-0.1-0.1-0.1-0.1-0.1-0.1V99c-0.4,0.5-1.3,1.7-2.7,3.2c-1.8,2.1-6.1,6-9.7,10c-3.7,4-4,8-3.3,11.3c0.7,3.3,4.2,6.5,9.6,5.8
				c1.7-0.2,3-1,3.9-2.1c-0.6,4.7-3.2,7.2-3.2,7.2h10.6c-1.9-2.2-2.6-5.2-2.9-7.1c0.9,1,2.2,1.8,3.9,2c5.5,0.7,8.9-2.4,9.6-5.8
				C130.5,120.2,130.2,116.1,126.5,112.1z"/>
		</g>
		<g>
			<path class="st2" d="M126.5,195c-3.7,4-7.9,7.9-9.7,10c-1.3,1.5-2.3,2.7-2.7,3.2v0.3c0,0,0,0-0.1-0.1c-0.1,0.1-0.1,0.1-0.1,0.1
				v-0.3c-0.4-0.5-1.3-1.7-2.7-3.2c-1.8-2.1-6.1-6-9.7-10c-3.7-4-4-8-3.3-11.3c0.7-3.3,4.2-6.5,9.6-5.8c1.7,0.2,3,1,3.9,2.1
				c-0.6-4.7-3.2-7.2-3.2-7.2h10.6c-1.9,2.2-2.6,5.2-2.9,7.1c0.9-1,2.2-1.8,3.9-2c5.5-0.7,8.9,2.4,9.6,5.8
				C130.5,187,130.2,191,126.5,195z"/>
		</g>
		<g>
			<path class="st2" d="M96.1,159.1c-3.7,4-7.9,7.9-9.7,10c-1.3,1.5-2.3,2.7-2.7,3.2v0.3c0,0,0,0-0.1-0.1c-0.1,0.1-0.1,0.1-0.1,0.1
				v-0.3c-0.4-0.5-1.3-1.7-2.7-3.2c-1.8-2.1-6.1-6-9.7-10c-3.7-4-4-8-3.3-11.3c0.7-3.3,4.2-6.5,9.6-5.8c1.7,0.2,3,1,3.9,2.1
				c-0.6-4.7-3.2-7.2-3.2-7.2h10.6c-1.9,2.2-2.6,5.2-2.9,7.1c0.9-1,2.2-1.8,3.9-2c5.5-0.7,8.9,2.4,9.6,5.8
				C100,151.1,99.7,155.1,96.1,159.1z"/>
		</g>
		<g>
			<path class="st2" d="M152.9,197.4c-1.1,1.2-2.3,2.3-2.8,2.9c-0.4,0.4-0.7,0.8-0.8,0.9v0.1c0,0,0,0,0,0c0,0,0,0,0,0v-0.1
				c-0.1-0.1-0.4-0.5-0.8-0.9c-0.5-0.6-1.8-1.7-2.8-2.9c-1.1-1.2-1.2-2.3-1-3.3c0.2-1,1.2-1.9,2.8-1.7c0.5,0.1,0.9,0.3,1.1,0.6
				c-0.2-1.4-0.9-2.1-0.9-2.1h3.1c-0.6,0.6-0.8,1.5-0.8,2.1c0.3-0.3,0.6-0.5,1.1-0.6c1.6-0.2,2.6,0.7,2.8,1.7
				C154.1,195.1,154,196.2,152.9,197.4z"/>
		</g>
		<g>
			<path class="st2" d="M22.6,31.3c-1.1-1.2-2.3-2.3-2.8-2.9c-0.4-0.4-0.7-0.8-0.8-0.9v-0.1c0,0,0,0,0,0c0,0,0,0,0,0v0.1
				c-0.1,0.1-0.4,0.5-0.8,0.9c-0.5,0.6-1.8,1.7-2.8,2.9c-1.1,1.2-1.2,2.3-1,3.3c0.2,1,1.2,1.9,2.8,1.7c0.5-0.1,0.9-0.3,1.1-0.6
				c-0.2,1.4-0.9,2.1-0.9,2.1h3.1c-0.6-0.6-0.8-1.5-0.8-2.1c0.3,0.3,0.6,0.5,1.1,0.6c1.6,0.2,2.6-0.7,2.8-1.7
				C23.8,33.6,23.7,32.4,22.6,31.3z"/>
		</g>
	</g>
</g>
</svg>
