<?xml version="1.0" encoding="utf-8"?>
<!-- Generator: Adobe Illustrator 27.6.1, SVG Export Plug-In . SVG Version: 6.00 Build 0)  -->
<svg version="1.1" id="Слой_1" xmlns="http://www.w3.org/2000/svg" xmlns:xlink="http://www.w3.org/1999/xlink" x="0px" y="0px"
	 viewBox="0 0 166.8 233.4" style="enable-background:new 0 0 166.8 233.4;" xml:space="preserve">
<style type="text/css">
	.st0{fill:#FFFFFF;}
	.st1{fill:#32A8E0;}
	.st2{fill:#CD1417;}
	.st3{fill:#BE3D2E;}
</style>
<g>
	<g>
		<g>
			<path class="st0" d="M160.6,233.1H6.2c-3.3,0-5.9-2.7-5.9-5.9V6.2c0-3.3,2.7-5.9,5.9-5.9h154.4c3.3,0,5.9,2.7,5.9,5.9v221
				C166.6,230.4,163.9,233.1,160.6,233.1z"/>
			<path class="st1" d="M160.6,233.2H6.2c-3.3,0-6.1-2.7-6.1-6.1V6.2c0.1-3.4,2.8-6.1,6.1-6.1h154.4c3.3,0,6.1,2.7,6.1,6.1v221
				C166.7,230.5,164,233.2,160.6,233.2z M6.2,0.4C3,0.4,0.4,3,0.4,6.2v221c0,3.2,2.6,5.8,5.8,5.8h154.4c3.2,0,5.8-2.6,5.8-5.8V6.2
				c0-3.2-2.6-5.8-5.8-5.8C160.6,0.4,6.2,0.4,6.2,0.4z"/>
		</g>
	</g>
	<g>
		<circle class="st0" cx="148.7" cy="18.6" r="0.6"/>
	</g>
	<g>
		<circle class="st0" cx="121.6" cy="18.6" r="0.6"/>
	</g>
	<g>
		<circle class="st0" cx="96.7" cy="18.6" r="0.6"/>
	</g>
	<g>
		<path class="st0" d="M72.2,18.8c0,0.3-0.3,0.6-0.6,0.6c-0.3,0-0.6-0.3-0.6-0.6c0-0.3,0.3-0.6,0.6-0.6C72,18.2,72.2,18.5,72.2,18.8
			z"/>
	</g>
	<g>
		<circle class="st0" cx="148.7" cy="39.7" r="0.6"/>
	</g>
	<g>
		<circle class="st0" cx="148.7" cy="59" r="0.6"/>
	</g>
	<g>
		<circle class="st0" cx="148.7" cy="79.2" r="0.6"/>
	</g>
	<g>
		<circle class="st0" cx="148.7" cy="92" r="0.6"/>
	</g>
	<g>
		<circle class="st0" cx="148.7" cy="104.8" r="0.6"/>
	</g>
	<g>
		<circle class="st0" cx="18.5" cy="19.2" r="0.6"/>
	</g>
	<g>
		<circle class="st0" cx="45.9" cy="18.8" r="0.6"/>
	</g>
	<g>
		<circle class="st0" cx="18.5" cy="39.3" r="0.6"/>
	</g>
	<g>
		<circle class="st0" cx="18.5" cy="59.2" r="0.6"/>
	</g>
	<g>
		<circle class="st0" cx="18.5" cy="79.1" r="0.6"/>
	</g>
	<g>
		<circle class="st0" cx="18.5" cy="92" r="0.6"/>
	</g>
	<g>
		<circle class="st0" cx="18.5" cy="105.4" r="0.6"/>
	</g>
	<g>
		<circle class="st0" cx="18.5" cy="118.3" r="0.6"/>
	</g>
	<g>
		<circle class="st0" cx="18.5" cy="131.3" r="0.6"/>
	</g>
	<g>
		<circle class="st0" cx="18.5" cy="144.7" r="0.6"/>
	</g>
	<g>
		<circle class="st0" cx="18.5" cy="158.1" r="0.6"/>
	</g>
	<g>
		<circle class="st0" cx="18.5" cy="170.1" r="0.6"/>
	</g>
	<g>
		<circle class="st0" cx="18.5" cy="183.5" r="0.6"/>
	</g>
	<g>
		<circle class="st0" cx="18.5" cy="196.5" r="0.6"/>
	</g>
	<g>
		<circle class="st0" cx="18.7" cy="215.7" r="0.6"/>
	</g>
	<g>
		<path class="st0" d="M39.8,216.3c0,0.3-0.3,0.6-0.6,0.6s-0.6-0.3-0.6-0.6s0.3-0.6,0.6-0.6C39.6,215.7,39.8,216,39.8,216.3z"/>
	</g>
	<g>
		<circle class="st0" cx="65.7" cy="216.3" r="0.6"/>
	</g>
	<g>
		<circle class="st0" cx="92.1" cy="216.3" r="0.6"/>
	</g>
	<g>
		<path class="st0" d="M118.4,216.3c0,0.3-0.3,0.6-0.6,0.6c-0.3,0-0.6-0.3-0.6-0.6s0.3-0.6,0.6-0.6
			C118.1,215.7,118.4,216,118.4,216.3z"/>
	</g>
	<g>
		<circle class="st0" cx="148.7" cy="118" r="0.6"/>
	</g>
	<g>
		<circle class="st0" cx="148.7" cy="130.4" r="0.6"/>
	</g>
	<g>
		<circle class="st0" cx="148.7" cy="143.6" r="0.6"/>
	</g>
	<g>
		<circle class="st0" cx="148.7" cy="156.7" r="0.6"/>
	</g>
	<g>
		<circle class="st0" cx="148.7" cy="169.5" r="0.6"/>
	</g>
	<g>
		<circle class="st0" cx="148.7" cy="182.1" r="0.6"/>
	</g>
	<g>
		<circle class="st0" cx="148.7" cy="194.9" r="0.6"/>
	</g>
	<g>
		<path class="st0" d="M149.3,214.5c0,0.3-0.3,0.6-0.6,0.6s-0.6-0.3-0.6-0.6s0.3-0.6,0.6-0.6C149,213.9,149.3,214.2,149.3,214.5z"/>
	</g>
	<g>
		<g>
			<polygon class="st2" points="148.5,193.1 143.8,198.4 148,204.1 152.8,198.8 			"/>
		</g>
		<g>
			<polygon class="st2" points="15.6,30.2 10.9,35.4 15.1,41.1 19.9,35.9 			"/>
		</g>
		<g>
			<g>
				<g>
					<g>
						<path class="st3" d="M12.9,25.1c-0.2-0.2-0.3-0.5-0.4-0.8c-0.1-0.3-0.1-0.5-0.1-0.8c0-0.5,0.2-0.8,0.5-1.1
							c0.2-0.2,0.5-0.3,0.8-0.3s0.5,0.1,0.7,0.3c0.1,0.1,0.1,0.2,0.1,0.3c0,0.1,0,0.2,0,0.3c0,0.2-0.1,0.4-0.3,0.6
							c-0.1,0.1-0.2,0.2-0.4,0.3c-0.1,0.1-0.2,0.2-0.2,0.2c0,0.1-0.1,0.2-0.1,0.3c0,0.2,0.1,0.4,0.4,0.6c0.3,0.2,0.7,0.3,1.2,0.3
							s0.9-0.1,1.3-0.4s0.8-0.7,1.1-1.4c0.2-0.5,0.4-1.1,0.5-1.8c0.1-0.7,0.2-1.3,0.2-1.8v-0.8L18.1,19c-0.2,0.5-0.6,0.9-1.1,1.2
							c-0.5,0.3-1,0.5-1.4,0.5c-0.9,0-1.6-0.2-2.2-0.6c-0.5-0.4-0.9-0.8-1.2-1.5c-0.3-0.6-0.4-1.3-0.4-2c0-0.7,0.2-1.4,0.5-2.1
							c0.3-0.7,0.8-1.3,1.4-1.8c0.6-0.5,1.3-0.7,2.1-0.7s1.6,0.3,2.2,0.8s1.1,1.3,1.5,2.2c0.3,1,0.5,2.1,0.5,3.4
							c0,1.1-0.1,2.1-0.4,3.1s-0.7,1.9-1.2,2.5c-0.9,1.2-2.1,1.8-3.3,1.8C14.2,26,13.5,25.7,12.9,25.1z M16.8,19.6
							c0.4-0.3,0.6-0.7,0.9-1.3c0.2-0.5,0.3-1.2,0.3-1.9c0-1.1-0.2-2-0.5-2.6c-0.3-0.7-0.9-1-1.7-1c-0.8,0-1.4,0.4-1.7,1.1
							c-0.4,0.7-0.5,1.6-0.5,2.6s0.2,1.9,0.5,2.6s0.8,1,1.6,1C16,20,16.4,19.9,16.8,19.6z"/>
					</g>
				</g>
			</g>
		</g>
		<g>
			<g>
				<g>
					<g>
						<path class="st2" d="M151.2,208.5c0.2,0.2,0.3,0.5,0.4,0.8c0.1,0.3,0.1,0.5,0.1,0.8c0,0.5-0.2,0.8-0.5,1.1
							c-0.2,0.2-0.5,0.3-0.8,0.3s-0.5-0.1-0.7-0.3c-0.1-0.1-0.1-0.2-0.1-0.3s0-0.2,0-0.3c0-0.2,0.1-0.4,0.3-0.6
							c0.1-0.1,0.2-0.2,0.4-0.3c0.1-0.1,0.2-0.2,0.2-0.2c0-0.1,0.1-0.2,0.1-0.3c0-0.2-0.1-0.4-0.4-0.6c-0.3-0.2-0.7-0.3-1.2-0.3
							s-0.9,0.1-1.3,0.4c-0.4,0.3-0.8,0.7-1.1,1.4c-0.2,0.5-0.4,1.1-0.5,1.8s-0.2,1.3-0.2,1.8v0.9l0.1,0.1c0.2-0.5,0.6-0.9,1.1-1.2
							s1-0.5,1.4-0.5c0.9,0,1.6,0.2,2.2,0.6c0.5,0.4,0.9,0.9,1.2,1.5s0.4,1.3,0.4,2s-0.2,1.4-0.5,2.1c-0.3,0.7-0.8,1.3-1.4,1.8
							c-0.6,0.5-1.3,0.7-2.1,0.7s-1.6-0.3-2.2-0.8c-0.6-0.5-1.1-1.3-1.5-2.2c-0.3-1-0.5-2.1-0.5-3.4c0-1.1,0.1-2.1,0.4-3.1
							c0.3-1,0.7-1.9,1.2-2.5c0.9-1.2,2.1-1.8,3.3-1.8C149.9,207.6,150.6,207.9,151.2,208.5z M147.3,214c-0.4,0.3-0.6,0.7-0.9,1.3
							c-0.2,0.5-0.3,1.2-0.3,1.9c0,1.1,0.2,2,0.5,2.6c0.3,0.7,0.9,1,1.7,1s1.4-0.4,1.7-1.1c0.4-0.7,0.5-1.6,0.5-2.6
							s-0.2-1.9-0.5-2.6c-0.3-0.7-0.8-1-1.6-1C148,213.6,147.6,213.7,147.3,214z"/>
					</g>
				</g>
			</g>
		</g>
		<g>
			<polygon class="st2" points="48.8,25 35.5,41.2 48.8,57.6 62.5,41.3 			"/>
		</g>
		<g>
			<polygon class="st2" points="83.6,102 70.3,118.1 83.6,134.5 97.2,118.3 			"/>
		</g>
		<g>
			<polygon class="st2" points="48.8,74.9 35.5,91 48.8,107.5 62.5,91.2 			"/>
		</g>
		<g>
			<polygon class="st2" points="48.8,124.8 35.5,140.9 48.8,157.3 62.5,141 			"/>
		</g>
		<g>
			<polygon class="st2" points="48.8,174.6 35.5,190.8 48.8,207.2 62.5,190.9 			"/>
		</g>
		<g>
			<polygon class="st2" points="118.1,25 104.8,41.2 118.1,57.6 131.7,41.3 			"/>
		</g>
		<g>
			<polygon class="st2" points="118.1,74.9 104.8,91 118.1,107.5 131.7,91.2 			"/>
		</g>
		<g>
			<polygon class="st2" points="118.1,124.8 104.8,140.9 118.1,157.3 131.7,141 			"/>
		</g>
		<g>
			<polygon class="st2" points="118.1,174.6 104.8,190.8 118.1,207.2 131.7,190.9 			"/>
		</g>
	</g>
</g>
</svg>
