<?xml version="1.0" encoding="utf-8"?>
<!-- Generator: Adobe Illustrator 27.6.1, SVG Export Plug-In . SVG Version: 6.00 Build 0)  -->
<svg version="1.1" id="Слой_1" xmlns="http://www.w3.org/2000/svg" xmlns:xlink="http://www.w3.org/1999/xlink" x="0px" y="0px"
	 viewBox="0 0 166.9 233.4" style="enable-background:new 0 0 166.9 233.4;" xml:space="preserve">
<style type="text/css">
	.st0{fill:#FFFFFF;}
	.st1{fill:#32A8E0;}
	.st2{fill:#BE3D2E;}
	.st3{fill:#CD1417;}
</style>
<g>
	<g>
		<g>
			<path class="st0" d="M160.7,233.2H6.3c-3.3,0-5.9-2.7-5.9-5.9V6.3c0-3.3,2.7-5.9,5.9-5.9h154.4c3.3,0,5.9,2.7,5.9,5.9v221
				C166.7,230.5,164,233.2,160.7,233.2z"/>
			<path class="st1" d="M160.7,233.3H6.3c-3.3,0-6.1-2.7-6.1-6.1V6.3C0.3,2.9,3,0.2,6.3,0.2h154.4c3.3,0,6.1,2.7,6.1,6.1v221
				C166.8,230.6,164.1,233.3,160.7,233.3z M6.3,0.5c-3.2,0-5.8,2.6-5.8,5.8v221c0,3.2,2.6,5.8,5.8,5.8h154.4c3.2,0,5.8-2.6,5.8-5.8
				V6.3c0-3.2-2.6-5.8-5.8-5.8C160.7,0.5,6.3,0.5,6.3,0.5z"/>
		</g>
	</g>
	<g>
		<g>
			<g>
				<g>
					<path class="st2" d="M14.3,23.7c-0.2-0.2-0.3-0.5-0.4-0.8c-0.1-0.3-0.1-0.5-0.1-0.8c0-0.5,0.2-0.8,0.5-1.1
						c0.2-0.2,0.5-0.3,0.8-0.3s0.5,0.1,0.7,0.3c0.1,0.1,0.1,0.2,0.1,0.3c0,0.1,0,0.2,0,0.3c0,0.2-0.1,0.4-0.3,0.6
						c-0.1,0.1-0.2,0.2-0.4,0.3c-0.1,0.1-0.2,0.2-0.2,0.2c0,0.1-0.1,0.2-0.1,0.3c0,0.2,0.1,0.4,0.4,0.6c0.3,0.2,0.7,0.3,1.2,0.3
						c0.5,0,0.9-0.1,1.3-0.4s0.8-0.7,1.1-1.4c0.2-0.5,0.4-1.1,0.5-1.8c0.1-0.7,0.2-1.3,0.2-1.8v-0.9l-0.1-0.1
						c-0.2,0.5-0.6,0.9-1.1,1.2c-0.5,0.3-1,0.5-1.4,0.5c-0.9,0-1.6-0.2-2.2-0.6c-0.5-0.4-0.9-0.9-1.2-1.5s-0.4-1.3-0.4-2
						s0.2-1.4,0.5-2.1c0.3-0.7,0.8-1.3,1.4-1.8c0.6-0.5,1.3-0.7,2.1-0.7c0.8,0,1.6,0.3,2.2,0.8s1.1,1.3,1.5,2.2
						c0.3,1,0.5,2.1,0.5,3.4c0,1.1-0.1,2.1-0.4,3.1s-0.7,1.9-1.2,2.5c-0.9,1.2-2.1,1.8-3.3,1.8C15.6,24.6,14.8,24.3,14.3,23.7z
						 M18.2,18.2c0.4-0.3,0.6-0.7,0.9-1.3c0.2-0.5,0.3-1.2,0.3-1.9c0-1.1-0.2-2-0.5-2.6c-0.3-0.7-0.9-1-1.7-1
						c-0.8,0-1.4,0.4-1.7,1.1c-0.4,0.8-0.5,1.6-0.5,2.6s0.2,1.9,0.5,2.6s0.8,1,1.6,1C17.4,18.6,17.8,18.5,18.2,18.2z"/>
				</g>
			</g>
		</g>
		<g>
			<g>
				<g>
					<path class="st3" d="M152.6,207.1c0.2,0.2,0.3,0.5,0.4,0.8c0.1,0.3,0.1,0.5,0.1,0.8c0,0.5-0.2,0.8-0.5,1.1
						c-0.2,0.2-0.5,0.3-0.8,0.3s-0.5-0.1-0.7-0.4c-0.1-0.1-0.1-0.2-0.1-0.3s0-0.2,0-0.3c0-0.2,0.1-0.4,0.3-0.6
						c0.1-0.1,0.2-0.2,0.4-0.3c0.1-0.1,0.2-0.2,0.2-0.2c0-0.1,0.1-0.2,0.1-0.3c0-0.2-0.1-0.4-0.4-0.6c-0.3-0.2-0.7-0.3-1.2-0.3
						s-0.9,0.1-1.3,0.4c-0.4,0.3-0.8,0.7-1.1,1.4c-0.2,0.5-0.4,1.1-0.5,1.8s-0.2,1.3-0.2,1.8v0.9l0.1,0.1c0.2-0.5,0.6-0.9,1.1-1.2
						s1-0.5,1.4-0.5c0.9,0,1.6,0.2,2.2,0.6c0.5,0.4,0.9,0.9,1.2,1.5s0.4,1.3,0.4,2s-0.2,1.4-0.5,2.1c-0.3,0.7-0.8,1.3-1.4,1.8
						c-0.6,0.5-1.3,0.7-2.1,0.7s-1.6-0.3-2.2-0.8c-0.6-0.5-1.1-1.3-1.5-2.2c-0.3-1-0.5-2.1-0.5-3.4c0-1.1,0.1-2.1,0.4-3.1
						c0.3-1,0.7-1.9,1.2-2.5c0.9-1.2,2.1-1.8,3.3-1.8C151.3,206.2,152,206.5,152.6,207.1z M148.7,212.6c-0.4,0.3-0.6,0.7-0.9,1.3
						c-0.2,0.5-0.3,1.2-0.3,1.9c0,1.1,0.2,2,0.5,2.6c0.3,0.7,0.9,1,1.7,1s1.4-0.4,1.7-1.1c0.4-0.8,0.5-1.6,0.5-2.6s-0.2-1.9-0.5-2.6
						c-0.3-0.7-0.8-1-1.6-1C149.4,212.2,149,212.3,148.7,212.6z"/>
				</g>
			</g>
		</g>
		<g>
			<path class="st3" d="M152.1,202c-1.9,0-2.3-1.4-2.4-2.1c-0.1,0.7-0.5,2.2-2.4,2.1c-2.5-0.1-2.8-2.9-2-4.3
				c0.9-1.4,1.3-1.9,2.2-2.8c0.8-0.9,1.8-1.8,2.2-2.4v-0.1v0.1c0.4,0.6,1.3,1.5,2.2,2.4s1.3,1.4,2.2,2.8S154.6,201.9,152.1,202z"/>
		</g>
		<g>
			<path class="st3" d="M19.8,29.5c-1.9,0-2.3,1.4-2.4,2.1c-0.1-0.7-0.5-2.2-2.4-2.1c-2.5,0.1-2.8,2.9-2,4.3
				c0.9,1.4,1.3,1.9,2.2,2.8c0.8,0.9,1.8,1.8,2.2,2.4v0.1V39c0.4-0.6,1.3-1.5,2.2-2.4c0.9-0.9,1.3-1.4,2.2-2.8
				C22.7,32.4,22.3,29.6,19.8,29.5z"/>
		</g>
		<g>
			<path class="st3" d="M52.1,27.4c-5.5-0.1-6.7,4.1-7,6.1c-0.3-2-1.6-6.2-7-6.1c-7.2,0.2-8.2,8.2-5.6,12.3c2.5,4.1,3.8,5.4,6.3,8
				c2.4,2.5,5.2,5.2,6.2,6.9c0,0,0.1,0.2,0.1,0.1c0,0.1,0.1-0.1,0.1-0.1c1-1.7,3.9-4.5,6.2-6.9c2.5-2.6,3.8-3.9,6.3-8
				C60.2,35.7,59.3,27.6,52.1,27.4z"/>
		</g>
		<g>
			<path class="st3" d="M87.1,103.2c-5.5-0.1-6.7,4.1-7,6.1c-0.3-2-1.6-6.2-7-6.1c-7.2,0.2-8.2,8.2-5.6,12.3c2.5,4.1,3.8,5.4,6.3,8
				c2.4,2.5,5.2,5.2,6.2,6.9c0,0,0.1,0.2,0.1,0.1c0,0.1,0.1-0.1,0.1-0.1c1-1.7,3.9-4.5,6.2-6.9c2.5-2.6,3.8-3.9,6.3-8
				C95.3,111.4,94.3,103.4,87.1,103.2z"/>
		</g>
		<g>
			<path class="st3" d="M52.1,77.9c-5.5-0.1-6.7,4.1-7,6.1c-0.3-2-1.6-6.2-7-6.1c-7.2,0.2-8.2,8.2-5.6,12.3c2.5,4.1,3.8,5.4,6.3,8
				c2.4,2.5,5.2,5.2,6.2,6.9c0,0,0.1,0.2,0.1,0.1c0,0.1,0.1-0.1,0.1-0.1c1-1.7,3.9-4.5,6.2-6.9c2.5-2.6,3.8-3.9,6.3-8
				C60.2,86.2,59.3,78.1,52.1,77.9z"/>
		</g>
		<g>
			<path class="st3" d="M52.1,206.3c-5.5,0.1-6.7-4.1-7-6.1c-0.3,2-1.6,6.2-7,6.1c-7.2-0.2-8.2-8.2-5.6-12.3c2.5-4.1,3.8-5.4,6.3-8
				c2.4-2.5,5.2-5.2,6.2-6.9c0,0,0.1-0.2,0.1-0.1c0-0.1,0.1,0.1,0.1,0.1c1,1.7,3.9,4.5,6.2,6.9c2.5,2.6,3.8,3.9,6.3,8
				C60.2,198.1,59.3,206.2,52.1,206.3z"/>
		</g>
		<g>
			<path class="st3" d="M52.1,155.8c-5.5,0.1-6.7-4.1-7-6.1c-0.3,2-1.6,6.2-7,6.1c-7.2-0.2-8.2-8.2-5.6-12.3c2.5-4.1,3.8-5.4,6.3-8
				c2.4-2.5,5.2-5.2,6.2-6.9c0,0,0.1-0.2,0.1-0.1c0-0.1,0.1,0.1,0.1,0.1c1,1.7,3.9,4.5,6.2,6.9c2.5,2.6,3.8,3.9,6.3,8
				C60.2,147.6,59.3,155.6,52.1,155.8z"/>
		</g>
		<g>
			<path class="st3" d="M126,27.4c-5.5-0.1-6.7,4.1-7,6.1c-0.3-2-1.6-6.2-7-6.1c-7.2,0.2-8.2,8.2-5.6,12.3c2.5,4.1,3.8,5.4,6.3,8
				c2.4,2.5,5.2,5.2,6.2,6.9c0,0,0.1,0.2,0.1,0.1c0,0.1,0.1-0.1,0.1-0.1c1-1.7,3.9-4.5,6.2-6.9c2.5-2.6,3.8-3.9,6.3-8
				C134.1,35.7,133.2,27.6,126,27.4z"/>
		</g>
		<g>
			<path class="st3" d="M126,77.9c-5.5-0.1-6.7,4.1-7,6.1c-0.3-2-1.6-6.2-7-6.1c-7.2,0.2-8.2,8.2-5.6,12.3c2.5,4.1,3.8,5.4,6.3,8
				c2.4,2.5,5.2,5.2,6.2,6.9c0,0,0.1,0.2,0.1,0.1c0,0.1,0.1-0.1,0.1-0.1c1-1.7,3.9-4.5,6.2-6.9c2.5-2.6,3.8-3.9,6.3-8
				C134.1,86.2,133.2,78.1,126,77.9z"/>
		</g>
		<g>
			<path class="st3" d="M126,206.3c-5.5,0.1-6.7-4.1-7-6.1c-0.3,2-1.6,6.2-7,6.1c-7.2-0.2-8.2-8.2-5.6-12.3c2.5-4.1,3.8-5.4,6.3-8
				c2.4-2.5,5.2-5.2,6.2-6.9c0,0,0.1-0.2,0.1-0.1c0-0.1,0.1,0.1,0.1,0.1c1,1.7,3.9,4.5,6.2,6.9c2.5,2.6,3.8,3.9,6.3,8
				C134.1,198.1,133.2,206.2,126,206.3z"/>
		</g>
		<g>
			<path class="st3" d="M126,155.8c-5.5,0.1-6.7-4.1-7-6.1c-0.3,2-1.6,6.2-7,6.1c-7.2-0.2-8.2-8.2-5.6-12.3c2.5-4.1,3.8-5.4,6.3-8
				c2.4-2.5,5.2-5.2,6.2-6.9c0,0,0.1-0.2,0.1-0.1c0-0.1,0.1,0.1,0.1,0.1c1,1.7,3.9,4.5,6.2,6.9c2.5,2.6,3.8,3.9,6.3,8
				C134.1,147.6,133.2,155.6,126,155.8z"/>
		</g>
	</g>
	<g>
		<path class="st0" d="M149,18.7c0,0.3-0.3,0.6-0.6,0.6s-0.6-0.3-0.6-0.6s0.3-0.6,0.6-0.6C148.8,18.1,149,18.4,149,18.7z"/>
	</g>
	<g>
		<circle class="st0" cx="121.4" cy="18.7" r="0.6"/>
	</g>
	<g>
		<path class="st0" d="M97,18.7c0,0.3-0.3,0.6-0.6,0.6c-0.3,0-0.6-0.3-0.6-0.6s0.3-0.6,0.6-0.6C96.7,18.1,97,18.4,97,18.7z"/>
	</g>
	<g>
		<circle class="st0" cx="71.4" cy="18.9" r="0.6"/>
	</g>
	<g>
		<path class="st0" d="M149,39.8c0,0.3-0.3,0.6-0.6,0.6s-0.6-0.3-0.6-0.6s0.3-0.6,0.6-0.6C148.8,39.3,149,39.5,149,39.8z"/>
	</g>
	<g>
		<path class="st0" d="M149,59.1c0,0.3-0.3,0.6-0.6,0.6s-0.6-0.3-0.6-0.6s0.3-0.6,0.6-0.6C148.8,58.6,149,58.8,149,59.1z"/>
	</g>
	<g>
		<path class="st0" d="M149,79.3c0,0.3-0.3,0.6-0.6,0.6s-0.6-0.3-0.6-0.6s0.3-0.6,0.6-0.6C148.8,78.8,149,79,149,79.3z"/>
	</g>
	<g>
		<path class="st0" d="M149,92.1c0,0.3-0.3,0.6-0.6,0.6s-0.6-0.3-0.6-0.6c0-0.3,0.3-0.6,0.6-0.6C148.8,91.6,149,91.8,149,92.1z"/>
	</g>
	<g>
		<path class="st0" d="M149,104.9c0,0.3-0.3,0.6-0.6,0.6s-0.6-0.3-0.6-0.6c0-0.3,0.3-0.6,0.6-0.6C148.8,104.4,149,104.6,149,104.9z"
			/>
	</g>
	<g>
		<circle class="st0" cx="18.3" cy="19.3" r="0.6"/>
	</g>
	<g>
		<circle class="st0" cx="45.7" cy="18.9" r="0.6"/>
	</g>
	<g>
		<path class="st0" d="M18.8,39.4c0,0.3-0.3,0.6-0.6,0.6s-0.6-0.3-0.6-0.6s0.3-0.6,0.6-0.6S18.8,39.1,18.8,39.4z"/>
	</g>
	<g>
		<circle class="st0" cx="18.3" cy="59.3" r="0.6"/>
	</g>
	<g>
		<circle class="st0" cx="18.3" cy="79.2" r="0.6"/>
	</g>
	<g>
		<circle class="st0" cx="18.3" cy="92.1" r="0.6"/>
	</g>
	<g>
		<circle class="st0" cx="18.3" cy="105.5" r="0.6"/>
	</g>
	<g>
		<circle class="st0" cx="18.3" cy="118.4" r="0.6"/>
	</g>
	<g>
		<circle class="st0" cx="18.3" cy="131.4" r="0.6"/>
	</g>
	<g>
		<circle class="st0" cx="18.3" cy="144.8" r="0.6"/>
	</g>
	<g>
		<circle class="st0" cx="18.3" cy="158.2" r="0.6"/>
	</g>
	<g>
		<circle class="st0" cx="18.3" cy="170.2" r="0.6"/>
	</g>
	<g>
		<circle class="st0" cx="18.3" cy="183.6" r="0.6"/>
	</g>
	<g>
		<circle class="st0" cx="18.3" cy="196.6" r="0.6"/>
	</g>
	<g>
		<circle class="st0" cx="18.5" cy="215.8" r="0.6"/>
	</g>
	<g>
		<circle class="st0" cx="39" cy="216.4" r="0.6"/>
	</g>
	<g>
		<circle class="st0" cx="65.4" cy="216.4" r="0.6"/>
	</g>
	<g>
		<circle class="st0" cx="91.8" cy="216.4" r="0.6"/>
	</g>
	<g>
		<circle class="st0" cx="117.5" cy="216.4" r="0.6"/>
	</g>
	<g>
		<path class="st0" d="M149,118.1c0,0.3-0.3,0.6-0.6,0.6s-0.6-0.3-0.6-0.6c0-0.3,0.3-0.6,0.6-0.6C148.8,117.6,149,117.8,149,118.1z"
			/>
	</g>
	<g>
		<path class="st0" d="M149,130.5c0,0.3-0.3,0.6-0.6,0.6s-0.6-0.3-0.6-0.6s0.3-0.6,0.6-0.6C148.8,129.9,149,130.1,149,130.5z"/>
	</g>
	<g>
		<path class="st0" d="M149,143.7c0,0.3-0.3,0.6-0.6,0.6s-0.6-0.3-0.6-0.6s0.3-0.6,0.6-0.6C148.8,143.2,149,143.4,149,143.7z"/>
	</g>
	<g>
		<path class="st0" d="M149,156.8c0,0.3-0.3,0.6-0.6,0.6s-0.6-0.3-0.6-0.6s0.3-0.6,0.6-0.6C148.8,156.3,149,156.5,149,156.8z"/>
	</g>
	<g>
		<path class="st0" d="M149,169.6c0,0.3-0.3,0.6-0.6,0.6s-0.6-0.3-0.6-0.6s0.3-0.6,0.6-0.6C148.8,169,149,169.3,149,169.6z"/>
	</g>
	<g>
		<path class="st0" d="M149,182.2c0,0.3-0.3,0.6-0.6,0.6s-0.6-0.3-0.6-0.6s0.3-0.6,0.6-0.6C148.8,181.6,149,181.9,149,182.2z"/>
	</g>
	<g>
		<path class="st0" d="M149,195c0,0.3-0.3,0.6-0.6,0.6s-0.6-0.3-0.6-0.6s0.3-0.6,0.6-0.6C148.8,194.4,149,194.7,149,195z"/>
	</g>
	<g>
		<path class="st0" d="M149,214.6c0,0.3-0.3,0.6-0.6,0.6s-0.6-0.3-0.6-0.6s0.3-0.6,0.6-0.6C148.8,214,149,214.3,149,214.6z"/>
	</g>
</g>
</svg>
