<?xml version="1.0" encoding="utf-8"?>
<!-- Generator: Adobe Illustrator 27.6.1, SVG Export Plug-In . SVG Version: 6.00 Build 0)  -->
<svg version="1.1" id="Слой_1" xmlns="http://www.w3.org/2000/svg" xmlns:xlink="http://www.w3.org/1999/xlink" x="0px" y="0px"
	 viewBox="0 0 167 233.3" style="enable-background:new 0 0 167 233.3;" xml:space="preserve">
<style type="text/css">
	.st0{fill:#FFFFFF;}
	.st1{fill:#32A8E0;}
	.st2{fill:#020203;}
	.st3{fill:#0C0D0D;}
</style>
<g>
	<g>
		<g>
			<path class="st0" d="M160.8,233.1H6.3c-3.3,0-5.9-2.7-5.9-5.9V6.2c0-3.3,2.7-5.9,5.9-5.9h154.4c3.3,0,5.9,2.7,5.9,5.9v221
				C166.7,230.5,164,233.1,160.8,233.1z"/>
			<path class="st1" d="M160.8,233.2H6.3c-3.3,0-6.1-2.7-6.1-6.1V6.2C0.3,2.8,3,0.1,6.3,0.1h154.4c3.3,0,6.1,2.7,6.1,6.1v221
				C166.8,230.5,164.1,233.2,160.8,233.2z M6.3,0.3c-3.2,0-5.8,2.6-5.8,5.8v221c0,3.2,2.6,5.8,5.8,5.8h154.4c3.2,0,5.8-2.6,5.8-5.8
				V6.2c0-3.2-2.6-5.8-5.8-5.8L6.3,0.3L6.3,0.3z"/>
		</g>
	</g>
	<g>
		<g>
			<g>
				<g>
					<path class="st2" d="M13.1,26.3c-0.2-0.2-0.3-0.5-0.4-0.8c-0.1-0.3-0.1-0.5-0.1-0.8c0-0.5,0.2-0.8,0.5-1.1
						c0.2-0.2,0.5-0.3,0.8-0.3s0.5,0.1,0.7,0.3c0.1,0.1,0.1,0.2,0.1,0.3c0,0.1,0,0.2,0,0.3c0,0.2-0.1,0.4-0.3,0.6
						c-0.1,0.1-0.2,0.2-0.4,0.3c-0.1,0.1-0.2,0.2-0.2,0.2c0,0.1-0.1,0.2-0.1,0.3c0,0.2,0.1,0.4,0.4,0.6c0.3,0.2,0.7,0.3,1.2,0.3
						s0.9-0.1,1.3-0.4s0.8-0.7,1.1-1.4c0.2-0.5,0.4-1.1,0.5-1.8c0.1-0.7,0.2-1.3,0.2-1.8v-0.9l-0.1-0.1c-0.2,0.5-0.6,0.9-1.1,1.2
						c-0.5,0.3-1,0.5-1.4,0.5c-0.9,0-1.6-0.2-2.2-0.6c-0.5-0.4-0.9-0.9-1.2-1.5s-0.4-1.3-0.4-2s0.2-1.4,0.5-2.1
						c0.3-0.7,0.8-1.3,1.4-1.8c0.6-0.5,1.3-0.7,2.1-0.7c0.8,0,1.6,0.3,2.2,0.8s1.1,1.3,1.5,2.2c0.3,1,0.5,2.1,0.5,3.4
						c0,1.1-0.1,2.1-0.4,3.1s-0.7,1.9-1.2,2.5c-0.9,1.2-2.1,1.8-3.3,1.8C14.4,27.2,13.6,26.9,13.1,26.3z M17,20.8
						c0.4-0.3,0.7-0.7,0.9-1.3c0.2-0.5,0.3-1.2,0.3-1.9c0-1.1-0.2-2-0.5-2.6c-0.3-0.7-0.9-1-1.7-1c-0.8,0-1.4,0.4-1.7,1.1
						c-0.4,0.8-0.5,1.6-0.5,2.6s0.2,1.9,0.5,2.6s0.8,1,1.6,1C16.2,21.2,16.6,21.1,17,20.8z"/>
				</g>
			</g>
		</g>
		<g>
			<g>
				<g>
					<path class="st2" d="M151.4,209.8c0.2,0.2,0.3,0.5,0.4,0.8c0.1,0.3,0.1,0.5,0.1,0.8c0,0.5-0.2,0.8-0.5,1.1
						c-0.2,0.2-0.5,0.3-0.8,0.3s-0.5-0.1-0.7-0.3c-0.1-0.1-0.1-0.2-0.1-0.3s0-0.2,0-0.3c0-0.2,0.1-0.4,0.3-0.6
						c0.1-0.1,0.2-0.2,0.4-0.3c0.1-0.1,0.2-0.2,0.2-0.2c0-0.1,0.1-0.2,0.1-0.3c0-0.2-0.1-0.4-0.4-0.6c-0.3-0.2-0.7-0.3-1.2-0.3
						s-0.9,0.1-1.3,0.4c-0.4,0.3-0.8,0.7-1.1,1.4c-0.2,0.5-0.4,1.1-0.5,1.8s-0.2,1.3-0.2,1.8v0.9l0.1,0.1c0.2-0.5,0.6-0.9,1.1-1.2
						s1-0.5,1.4-0.5c0.9,0,1.6,0.2,2.2,0.6c0.5,0.4,0.9,0.9,1.2,1.5s0.4,1.3,0.4,2s-0.2,1.4-0.5,2.1c-0.3,0.7-0.8,1.3-1.4,1.8
						c-0.6,0.5-1.3,0.7-2.1,0.7s-1.6-0.3-2.2-0.8s-1.1-1.3-1.5-2.2c-0.3-1-0.5-2.1-0.5-3.4c0-1.1,0.1-2.1,0.4-3.1
						c0.3-1,0.7-1.9,1.2-2.5c0.9-1.2,2.1-1.8,3.3-1.8C150.1,208.8,150.8,209.2,151.4,209.8z M147.5,215.3c-0.4,0.3-0.7,0.7-0.9,1.3
						c-0.2,0.5-0.3,1.2-0.3,1.9c0,1.1,0.2,2,0.5,2.6c0.3,0.7,0.9,1,1.7,1s1.4-0.4,1.7-1.1c0.4-0.8,0.5-1.6,0.5-2.6s-0.2-1.9-0.5-2.6
						c-0.3-0.7-0.8-1-1.6-1C148.3,214.8,147.9,215,147.5,215.3z"/>
				</g>
			</g>
		</g>
		<g>
			<path class="st3" d="M90.8,114.1c-3.6-4-7.9-7.8-9.6-9.9c-1.3-1.5-2.3-2.7-2.7-3.2v-0.2c0,0,0,0-0.1,0.1
				c-0.1-0.1-0.1-0.1-0.1-0.1v0.2c-0.4,0.5-1.3,1.6-2.7,3.2c-1.8,2-6,5.9-9.6,9.9s-3.9,7.9-3.2,11.2c0.7,3.3,4.1,6.4,9.5,5.7
				c1.7-0.2,2.9-1,3.8-2c-0.6,4.7-3.1,7.1-3.1,7.1h10.5c-1.9-2.1-2.6-5.2-2.8-7c0.9,1,2.1,1.8,3.8,2c5.4,0.7,8.8-2.4,9.5-5.7
				C94.7,122,94.4,118.1,90.8,114.1z"/>
		</g>
		<g>
			<path class="st3" d="M59.2,42.7c-3.6-4-7.9-7.8-9.6-9.9c-1.3-1.5-2.3-2.7-2.7-3.2v-0.2c0,0,0,0-0.1,0.1c-0.1-0.1-0.1-0.1-0.1-0.1
				v0.2c-0.4,0.5-1.3,1.6-2.7,3.2c-1.8,2-6,5.9-9.6,9.9s-3.9,7.9-3.2,11.2c0.7,3.3,4.1,6.4,9.5,5.7c1.7-0.2,2.9-1,3.8-2
				c-0.6,4.7-3.1,7.1-3.1,7.1h10.5c-1.9-2.1-2.6-5.2-2.8-7c0.9,1,2.1,1.8,3.8,2c5.4,0.7,8.8-2.4,9.5-5.7
				C63.2,50.6,62.9,46.6,59.2,42.7z"/>
		</g>
		<g>
			<path class="st3" d="M59.2,93.2c-3.6-4-7.9-7.8-9.6-9.9c-1.3-1.5-2.3-2.7-2.7-3.2v-0.2c0,0,0,0-0.1,0.1c-0.1-0.1-0.1-0.1-0.1-0.1
				v0.2c-0.4,0.5-1.3,1.6-2.7,3.2c-1.8,2-6,5.9-9.6,9.9s-3.9,7.9-3.2,11.2c0.7,3.3,4.1,6.4,9.5,5.7c1.7-0.2,2.9-1,3.8-2
				c-0.6,4.7-3.1,7.1-3.1,7.1h10.5c-1.9-2.1-2.6-5.2-2.8-7c0.9,1,2.1,1.8,3.8,2c5.4,0.7,8.8-2.4,9.5-5.7
				C63.2,101.2,62.9,97.2,59.2,93.2z"/>
		</g>
		<g>
			<path class="st3" d="M59.2,203c-3.6,4-7.9,7.8-9.6,9.9c-1.3,1.5-2.3,2.7-2.7,3.2v0.2c0,0,0,0-0.1-0.1c-0.1,0.1-0.1,0.1-0.1,0.1
				v-0.2c-0.4-0.5-1.3-1.6-2.7-3.2c-1.8-2-6-5.9-9.6-9.9s-3.9-7.9-3.2-11.2c0.7-3.3,4.1-6.4,9.5-5.7c1.7,0.2,2.9,1,3.8,2
				c-0.6-4.7-3.1-7.1-3.1-7.1h10.5c-1.9,2.1-2.6,5.2-2.8,7c0.9-1,2.1-1.8,3.8-2c5.4-0.7,8.8,2.4,9.5,5.7
				C63.2,195.1,62.9,199.1,59.2,203z"/>
		</g>
		<g>
			<path class="st3" d="M127.8,42.7c-3.6-4-7.9-7.8-9.6-9.9c-1.3-1.5-2.3-2.7-2.7-3.2v-0.2c0,0,0,0-0.1,0.1
				c-0.1-0.1-0.1-0.1-0.1-0.1v0.2c-0.4,0.5-1.3,1.6-2.7,3.2c-1.8,2-6,5.9-9.6,9.9s-3.9,7.9-3.2,11.2c0.7,3.3,4.1,6.4,9.5,5.7
				c1.7-0.2,2.9-1,3.8-2c-0.6,4.7-3.1,7.1-3.1,7.1h10.5c-1.9-2.1-2.6-5.2-2.8-7c0.9,1,2.1,1.8,3.8,2c5.4,0.7,8.8-2.4,9.5-5.7
				C131.7,50.6,131.4,46.6,127.8,42.7z"/>
		</g>
		<g>
			<path class="st3" d="M127.8,93.2c-3.6-4-7.9-7.8-9.6-9.9c-1.3-1.5-2.3-2.7-2.7-3.2v-0.2c0,0,0,0-0.1,0.1
				c-0.1-0.1-0.1-0.1-0.1-0.1v0.2c-0.4,0.5-1.3,1.6-2.7,3.2c-1.8,2-6,5.9-9.6,9.9s-3.9,7.9-3.2,11.2c0.7,3.3,4.1,6.4,9.5,5.7
				c1.7-0.2,2.9-1,3.8-2c-0.6,4.7-3.1,7.1-3.1,7.1h10.5c-1.9-2.1-2.6-5.2-2.8-7c0.9,1,2.1,1.8,3.8,2c5.4,0.7,8.8-2.4,9.5-5.7
				C131.7,101.2,131.4,97.2,127.8,93.2z"/>
		</g>
		<g>
			<path class="st3" d="M127.8,203c-3.6,4-7.9,7.8-9.6,9.9c-1.3,1.5-2.3,2.7-2.7,3.2v0.2c0,0,0,0-0.1-0.1c-0.1,0.1-0.1,0.1-0.1,0.1
				v-0.2c-0.4-0.5-1.3-1.6-2.7-3.2c-1.8-2-6-5.9-9.6-9.9s-3.9-7.9-3.2-11.2c0.7-3.3,4.1-6.4,9.5-5.7c1.7,0.2,2.9,1,3.8,2
				c-0.6-4.7-3.1-7.1-3.1-7.1h10.5c-1.9,2.1-2.6,5.2-2.8,7c0.9-1,2.1-1.8,3.8-2c5.4-0.7,8.8,2.4,9.5,5.7
				C131.7,195.1,131.4,199.1,127.8,203z"/>
		</g>
		<g>
			<path class="st3" d="M59.2,152.5c-3.6,4-7.9,7.8-9.6,9.9c-1.3,1.5-2.3,2.7-2.7,3.2v0.2c0,0,0,0-0.1-0.1c-0.1,0.1-0.1,0.1-0.1,0.1
				v-0.2c-0.4-0.5-1.3-1.6-2.7-3.2c-1.8-2-6-5.9-9.6-9.9s-3.9-7.9-3.2-11.2c0.7-3.3,4.1-6.4,9.5-5.7c1.7,0.2,2.9,1,3.8,2
				c-0.6-4.7-3.1-7.1-3.1-7.1h10.5c-1.9,2.1-2.6,5.2-2.8,7c0.9-1,2.1-1.8,3.8-2c5.4-0.7,8.8,2.4,9.5,5.7
				C63.2,144.6,62.9,148.5,59.2,152.5z"/>
		</g>
		<g>
			<path class="st3" d="M127.8,152.5c-3.6,4-7.9,7.8-9.6,9.9c-1.3,1.5-2.3,2.7-2.7,3.2v0.2c0,0,0,0-0.1-0.1
				c-0.1,0.1-0.1,0.1-0.1,0.1v-0.2c-0.4-0.5-1.3-1.6-2.7-3.2c-1.8-2-6-5.9-9.6-9.9s-3.9-7.9-3.2-11.2c0.7-3.3,4.1-6.4,9.5-5.7
				c1.7,0.2,2.9,1,3.8,2c-0.6-4.7-3.1-7.1-3.1-7.1h10.5c-1.9,2.1-2.6,5.2-2.8,7c0.9-1,2.1-1.8,3.8-2c5.4-0.7,8.8,2.4,9.5,5.7
				C131.7,144.6,131.4,148.5,127.8,152.5z"/>
		</g>
		<g>
			<path class="st3" d="M20.5,34.8c-1.1-1.2-2.3-2.3-2.8-2.9c-0.4-0.4-0.7-0.8-0.8-0.9v-0.1l0,0l0,0V31c-0.1,0.1-0.4,0.5-0.8,0.9
				c-0.5,0.6-1.8,1.7-2.8,2.9c-1.1,1.2-1.2,2.3-1,3.3s1.2,1.9,2.8,1.7c0.5-0.1,0.9-0.3,1.1-0.6c-0.2,1.4-0.9,2.1-0.9,2.1h3.1
				c-0.6-0.6-0.8-1.5-0.8-2.1c0.3,0.3,0.6,0.5,1.1,0.6c1.6,0.2,2.6-0.7,2.8-1.7C21.6,37.2,21.5,36,20.5,34.8z"/>
		</g>
		<g>
			<path class="st3" d="M150.8,201c-1.1,1.2-2.3,2.3-2.8,2.9c-0.4,0.4-0.7,0.8-0.8,0.9v0.1l0,0l0,0v-0.1c-0.1-0.1-0.4-0.5-0.8-0.9
				c-0.5-0.6-1.8-1.7-2.8-2.9c-1.1-1.2-1.2-2.3-1-3.3s1.2-1.9,2.8-1.7c0.5,0.1,0.9,0.3,1.1,0.6c-0.2-1.4-0.9-2.1-0.9-2.1h3.1
				c-0.6,0.6-0.8,1.5-0.8,2.1c0.3-0.3,0.6-0.5,1.1-0.6c1.6-0.2,2.6,0.7,2.8,1.7C151.9,198.6,151.8,199.8,150.8,201z"/>
		</g>
	</g>
	<g>
		<path class="st0" d="M149.4,18.6c0,0.3-0.3,0.6-0.6,0.6s-0.6-0.3-0.6-0.6c0-0.3,0.3-0.6,0.6-0.6C149.2,18,149.4,18.3,149.4,18.6z"
			/>
	</g>
	<g>
		<path class="st0" d="M122.3,18.6c0,0.3-0.3,0.6-0.6,0.6c-0.3,0-0.6-0.3-0.6-0.6c0-0.3,0.3-0.6,0.6-0.6S122.3,18.3,122.3,18.6z"/>
	</g>
	<g>
		<path class="st0" d="M97.3,18.6c0,0.3-0.3,0.6-0.6,0.6c-0.3,0-0.6-0.3-0.6-0.6c0-0.3,0.3-0.6,0.6-0.6C97.1,18,97.3,18.3,97.3,18.6
			z"/>
	</g>
	<g>
		<path class="st0" d="M72.3,18.8c0,0.3-0.3,0.6-0.6,0.6c-0.3,0-0.6-0.3-0.6-0.6c0-0.3,0.3-0.6,0.6-0.6S72.3,18.4,72.3,18.8z"/>
	</g>
	<g>
		<path class="st0" d="M149.4,39.7c0,0.3-0.3,0.6-0.6,0.6s-0.6-0.3-0.6-0.6s0.3-0.6,0.6-0.6C149.2,39.2,149.4,39.4,149.4,39.7z"/>
	</g>
	<g>
		<path class="st0" d="M149.4,59c0,0.3-0.3,0.6-0.6,0.6s-0.6-0.3-0.6-0.6s0.3-0.6,0.6-0.6C149.2,58.4,149.4,58.7,149.4,59z"/>
	</g>
	<g>
		<path class="st0" d="M149.4,79.2c0,0.3-0.3,0.6-0.6,0.6s-0.6-0.3-0.6-0.6c0-0.3,0.3-0.6,0.6-0.6C149.2,78.7,149.4,78.9,149.4,79.2
			z"/>
	</g>
	<g>
		<path class="st0" d="M149.4,92c0,0.3-0.3,0.6-0.6,0.6s-0.6-0.3-0.6-0.6c0-0.3,0.3-0.6,0.6-0.6C149.2,91.4,149.4,91.7,149.4,92z"/>
	</g>
	<g>
		<path class="st0" d="M149.4,104.8c0,0.3-0.3,0.6-0.6,0.6s-0.6-0.3-0.6-0.6c0-0.3,0.3-0.6,0.6-0.6
			C149.2,104.3,149.4,104.5,149.4,104.8z"/>
	</g>
	<g>
		<path class="st0" d="M19.2,19.1c0,0.3-0.3,0.6-0.6,0.6c-0.3,0-0.6-0.3-0.6-0.6c0-0.3,0.3-0.6,0.6-0.6
			C18.9,18.6,19.2,18.8,19.2,19.1z"/>
	</g>
	<g>
		<path class="st0" d="M46.6,18.8c0,0.3-0.3,0.6-0.6,0.6s-0.6-0.3-0.6-0.6c0-0.3,0.3-0.6,0.6-0.6S46.6,18.4,46.6,18.8z"/>
	</g>
	<g>
		<path class="st0" d="M19.2,39.3c0,0.3-0.3,0.6-0.6,0.6c-0.3,0-0.6-0.3-0.6-0.6s0.3-0.6,0.6-0.6C18.9,38.7,19.2,39,19.2,39.3z"/>
	</g>
	<g>
		<path class="st0" d="M19.2,59.1c0,0.3-0.3,0.6-0.6,0.6c-0.3,0-0.6-0.3-0.6-0.6s0.3-0.6,0.6-0.6C18.9,58.6,19.2,58.8,19.2,59.1z"/>
	</g>
	<g>
		<path class="st0" d="M19.2,79.1c0,0.3-0.3,0.6-0.6,0.6c-0.3,0-0.6-0.3-0.6-0.6s0.3-0.6,0.6-0.6S19.2,78.8,19.2,79.1z"/>
	</g>
	<g>
		<path class="st0" d="M19.2,92c0,0.3-0.3,0.6-0.6,0.6c-0.3,0-0.6-0.3-0.6-0.6c0-0.3,0.3-0.6,0.6-0.6S19.2,91.7,19.2,92z"/>
	</g>
	<g>
		<path class="st0" d="M19.2,105.4c0,0.3-0.3,0.6-0.6,0.6c-0.3,0-0.6-0.3-0.6-0.6c0-0.3,0.3-0.6,0.6-0.6
			C18.9,104.8,19.2,105.1,19.2,105.4z"/>
	</g>
	<g>
		<path class="st0" d="M19.2,118.3c0,0.3-0.3,0.6-0.6,0.6c-0.3,0-0.6-0.3-0.6-0.6s0.3-0.6,0.6-0.6C18.9,117.8,19.2,118,19.2,118.3z"
			/>
	</g>
	<g>
		<path class="st0" d="M19.2,131.3c0,0.3-0.3,0.6-0.6,0.6c-0.3,0-0.6-0.3-0.6-0.6s0.3-0.6,0.6-0.6C18.9,130.7,19.2,131,19.2,131.3z"
			/>
	</g>
	<g>
		<path class="st0" d="M19.2,144.7c0,0.3-0.3,0.6-0.6,0.6c-0.3,0-0.6-0.3-0.6-0.6s0.3-0.6,0.6-0.6S19.2,144.4,19.2,144.7z"/>
	</g>
	<g>
		<path class="st0" d="M19.2,158.1c0,0.3-0.3,0.6-0.6,0.6c-0.3,0-0.6-0.3-0.6-0.6s0.3-0.6,0.6-0.6S19.2,157.8,19.2,158.1z"/>
	</g>
	<g>
		<path class="st0" d="M19.2,170.1c0,0.3-0.3,0.6-0.6,0.6c-0.3,0-0.6-0.3-0.6-0.6s0.3-0.6,0.6-0.6S19.2,169.8,19.2,170.1z"/>
	</g>
	<g>
		<path class="st0" d="M19.2,183.5c0,0.3-0.3,0.6-0.6,0.6c-0.3,0-0.6-0.3-0.6-0.6s0.3-0.6,0.6-0.6C18.9,182.9,19.2,183.2,19.2,183.5
			z"/>
	</g>
	<g>
		<path class="st0" d="M19.2,196.5c0,0.3-0.3,0.6-0.6,0.6c-0.3,0-0.6-0.3-0.6-0.6s0.3-0.6,0.6-0.6C18.9,196,19.2,196.2,19.2,196.5z"
			/>
	</g>
	<g>
		<path class="st0" d="M19.4,215.7c0,0.3-0.3,0.6-0.6,0.6c-0.3,0-0.6-0.3-0.6-0.6s0.3-0.6,0.6-0.6C19.1,215.2,19.4,215.4,19.4,215.7
			z"/>
	</g>
	<g>
		<path class="st0" d="M39.9,216.3c0,0.3-0.3,0.6-0.6,0.6s-0.6-0.3-0.6-0.6s0.3-0.6,0.6-0.6C39.6,215.7,39.9,216,39.9,216.3z"/>
	</g>
	<g>
		<path class="st0" d="M66.3,216.3c0,0.3-0.3,0.6-0.6,0.6c-0.3,0-0.6-0.3-0.6-0.6s0.3-0.6,0.6-0.6C66.1,215.7,66.3,216,66.3,216.3z"
			/>
	</g>
	<g>
		<path class="st0" d="M92.7,216.3c0,0.3-0.3,0.6-0.6,0.6c-0.3,0-0.6-0.3-0.6-0.6s0.3-0.6,0.6-0.6C92.5,215.7,92.7,216,92.7,216.3z"
			/>
	</g>
	<g>
		<path class="st0" d="M118.5,216.3c0,0.3-0.3,0.6-0.6,0.6c-0.3,0-0.6-0.3-0.6-0.6s0.3-0.6,0.6-0.6
			C118.2,215.7,118.5,216,118.5,216.3z"/>
	</g>
	<g>
		<path class="st0" d="M149.4,118c0,0.3-0.3,0.6-0.6,0.6s-0.6-0.3-0.6-0.6c0-0.3,0.3-0.6,0.6-0.6C149.2,117.5,149.4,117.7,149.4,118
			z"/>
	</g>
	<g>
		<path class="st0" d="M149.4,130.4c0,0.3-0.3,0.6-0.6,0.6s-0.6-0.3-0.6-0.6s0.3-0.6,0.6-0.6C149.2,129.8,149.4,130,149.4,130.4z"/>
	</g>
	<g>
		<path class="st0" d="M149.4,143.6c0,0.3-0.3,0.6-0.6,0.6s-0.6-0.3-0.6-0.6s0.3-0.6,0.6-0.6C149.2,143.1,149.4,143.3,149.4,143.6z"
			/>
	</g>
	<g>
		<path class="st0" d="M149.4,156.8c0,0.3-0.3,0.6-0.6,0.6s-0.6-0.3-0.6-0.6s0.3-0.6,0.6-0.6C149.2,156.2,149.4,156.4,149.4,156.8z"
			/>
	</g>
	<g>
		<path class="st0" d="M149.4,169.5c0,0.3-0.3,0.6-0.6,0.6s-0.6-0.3-0.6-0.6s0.3-0.6,0.6-0.6C149.2,168.9,149.4,169.2,149.4,169.5z"
			/>
	</g>
	<g>
		<path class="st0" d="M149.4,182.1c0,0.3-0.3,0.6-0.6,0.6s-0.6-0.3-0.6-0.6s0.3-0.6,0.6-0.6C149.2,181.5,149.4,181.8,149.4,182.1z"
			/>
	</g>
	<g>
		<path class="st0" d="M149.4,194.9c0,0.3-0.3,0.6-0.6,0.6s-0.6-0.3-0.6-0.6s0.3-0.6,0.6-0.6C149.2,194.4,149.4,194.6,149.4,194.9z"
			/>
	</g>
	<g>
		<path class="st0" d="M149.4,214.5c0,0.3-0.3,0.6-0.6,0.6s-0.6-0.3-0.6-0.6s0.3-0.6,0.6-0.6C149.2,213.9,149.4,214.2,149.4,214.5z"
			/>
	</g>
</g>
</svg>
